<?xml version="1.0" encoding="UTF-8" standalone="no"?>
<!-- Created with Inkscape (http://www.inkscape.org/) -->

<svg
   width="40mm"
   height="40mm"
   viewBox="0 0 40 40"
   version="1.1"
   id="svg1"
   inkscape:version="1.3 (0e150ed6c4, 2023-07-21)"
   sodipodi:docname="cover--back--frame.svg"
   xml:space="preserve"
   xmlns:inkscape="http://www.inkscape.org/namespaces/inkscape"
   xmlns:sodipodi="http://sodipodi.sourceforge.net/DTD/sodipodi-0.dtd"
   xmlns="http://www.w3.org/2000/svg"
   xmlns:svg="http://www.w3.org/2000/svg"><sodipodi:namedview
     id="namedview1"
     pagecolor="#ffffff"
     bordercolor="#000000"
     borderopacity="0.25"
     inkscape:showpageshadow="2"
     inkscape:pageopacity="0.0"
     inkscape:pagecheckerboard="0"
     inkscape:deskcolor="#d1d1d1"
     inkscape:document-units="mm"
     showgrid="true"
     inkscape:zoom="0.57014593"
     inkscape:cx="103.48228"
     inkscape:cy="470.0551"
     inkscape:window-width="2496"
     inkscape:window-height="1558"
     inkscape:window-x="-11"
     inkscape:window-y="-11"
     inkscape:window-maximized="1"
     inkscape:current-layer="svg1"
     showguides="true"><inkscape:grid
       id="grid1"
       units="mm"
       originx="0"
       originy="0"
       spacingx="0.99999997"
       spacingy="0.99999997"
       empcolor="#0099e5"
       empopacity="0.30196078"
       color="#0099e5"
       opacity="0.14902"
       empspacing="10"
       dotted="false"
       gridanglex="30"
       gridanglez="30"
       visible="true" /></sodipodi:namedview><defs
     id="defs1"><inkscape:path-effect
       effect="copy_rotate"
       starting_point="22.499999,277"
       origin="19.999999,277"
       id="path-effect3"
       is_visible="true"
       lpeversion="1.2"
       lpesatellites=""
       method="normal"
       num_copies="4"
       starting_angle="0"
       rotation_angle="90"
       gap="-0.01"
       copies_to_360="true"
       mirror_copies="false"
       split_items="false"
       link_styles="false" /><inkscape:path-effect
       effect="copy_rotate"
       starting_point="22.499999,277"
       origin="19.999999,277"
       id="path-effect1"
       is_visible="true"
       lpeversion="1.2"
       lpesatellites=""
       method="normal"
       num_copies="4"
       starting_angle="0"
       rotation_angle="90"
       gap="-0.01"
       copies_to_360="true"
       mirror_copies="false"
       split_items="false"
       link_styles="false" /><inkscape:path-effect
       effect="copy_rotate"
       starting_point="22.499999,277"
       origin="19.999999,277"
       id="path-effect1-8"
       is_visible="true"
       lpeversion="1.2"
       lpesatellites=""
       method="normal"
       num_copies="4"
       starting_angle="0"
       rotation_angle="90"
       gap="-0.01"
       copies_to_360="true"
       mirror_copies="false"
       split_items="false"
       link_styles="false" /><inkscape:path-effect
       effect="copy_rotate"
       starting_point="22.499999,277"
       origin="19.999999,277"
       id="path-effect3-0"
       is_visible="true"
       lpeversion="1.2"
       lpesatellites=""
       method="normal"
       num_copies="4"
       starting_angle="0"
       rotation_angle="90"
       gap="-0.01"
       copies_to_360="true"
       mirror_copies="false"
       split_items="false"
       link_styles="false" /><inkscape:path-effect
       effect="copy_rotate"
       starting_point="22.499999,277"
       origin="19.999999,277"
       id="path-effect3-7"
       is_visible="true"
       lpeversion="1.2"
       lpesatellites=""
       method="normal"
       num_copies="4"
       starting_angle="0"
       rotation_angle="90"
       gap="-0.01"
       copies_to_360="true"
       mirror_copies="false"
       split_items="false"
       link_styles="false" /><inkscape:path-effect
       effect="copy_rotate"
       starting_point="22.499999,277"
       origin="19.999999,277"
       id="path-effect1-5"
       is_visible="true"
       lpeversion="1.2"
       lpesatellites=""
       method="normal"
       num_copies="4"
       starting_angle="0"
       rotation_angle="90"
       gap="-0.01"
       copies_to_360="true"
       mirror_copies="false"
       split_items="false"
       link_styles="false" /><inkscape:path-effect
       effect="copy_rotate"
       starting_point="22.499999,277"
       origin="19.999999,277"
       id="path-effect1-8-6"
       is_visible="true"
       lpeversion="1.2"
       lpesatellites=""
       method="normal"
       num_copies="4"
       starting_angle="0"
       rotation_angle="90"
       gap="-0.01"
       copies_to_360="true"
       mirror_copies="false"
       split_items="false"
       link_styles="false" /><inkscape:path-effect
       effect="copy_rotate"
       starting_point="22.499999,277"
       origin="19.999999,277"
       id="path-effect3-0-5"
       is_visible="true"
       lpeversion="1.2"
       lpesatellites=""
       method="normal"
       num_copies="4"
       starting_angle="0"
       rotation_angle="90"
       gap="-0.01"
       copies_to_360="true"
       mirror_copies="false"
       split_items="false"
       link_styles="false" /><marker
       id="DistanceX"
       orient="auto"
       refX="0.0"
       refY="0.0"
       style="overflow:visible"><path
         d="M 3,-3 L -3,3 M 0,-5 L  0,5"
         style="stroke:#000000; stroke-width:0.5"
         id="path1-5" /></marker><pattern
       id="Hatch"
       patternUnits="userSpaceOnUse"
       width="8"
       height="8"
       x="0"
       y="0"><path
         d="M8 4 l-4,4"
         stroke="#000000"
         stroke-width="0.25"
         linecap="square"
         id="path2" /><path
         d="M6 2 l-4,4"
         stroke="#000000"
         stroke-width="0.25"
         linecap="square"
         id="path3" /><path
         d="M4 0 l-4,4"
         stroke="#000000"
         stroke-width="0.25"
         linecap="square"
         id="path4" /></pattern><symbol
       id="*Model_Space" /><symbol
       id="*Paper_Space" /><inkscape:path-effect
       effect="copy_rotate"
       starting_point="22.499999,277"
       origin="19.999999,277"
       id="path-effect3-70"
       is_visible="true"
       lpeversion="1.2"
       lpesatellites=""
       method="normal"
       num_copies="4"
       starting_angle="0"
       rotation_angle="90"
       gap="-0.01"
       copies_to_360="true"
       mirror_copies="false"
       split_items="false"
       link_styles="false" /><inkscape:path-effect
       effect="copy_rotate"
       starting_point="22.499999,277"
       origin="19.999999,277"
       id="path-effect1-50"
       is_visible="true"
       lpeversion="1.2"
       lpesatellites=""
       method="normal"
       num_copies="4"
       starting_angle="0"
       rotation_angle="90"
       gap="-0.01"
       copies_to_360="true"
       mirror_copies="false"
       split_items="false"
       link_styles="false" /><inkscape:path-effect
       effect="copy_rotate"
       starting_point="22.499999,277"
       origin="19.999999,277"
       id="path-effect1-8-8"
       is_visible="true"
       lpeversion="1.2"
       lpesatellites=""
       method="normal"
       num_copies="4"
       starting_angle="0"
       rotation_angle="90"
       gap="-0.01"
       copies_to_360="true"
       mirror_copies="false"
       split_items="false"
       link_styles="false" /><inkscape:path-effect
       effect="copy_rotate"
       starting_point="22.499999,277"
       origin="19.999999,277"
       id="path-effect3-0-6"
       is_visible="true"
       lpeversion="1.2"
       lpesatellites=""
       method="normal"
       num_copies="4"
       starting_angle="0"
       rotation_angle="90"
       gap="-0.01"
       copies_to_360="true"
       mirror_copies="false"
       split_items="false"
       link_styles="false" /><marker
       id="DistanceX-4"
       orient="auto"
       refX="0.0"
       refY="0.0"
       style="overflow:visible"><path
         d="M 3,-3 L -3,3 M 0,-5 L  0,5"
         style="stroke:#000000; stroke-width:0.5"
         id="path1-8" /></marker><pattern
       id="Hatch-3"
       patternUnits="userSpaceOnUse"
       width="8"
       height="8"
       x="0"
       y="0"><path
         d="M8 4 l-4,4"
         stroke="#000000"
         stroke-width="0.25"
         linecap="square"
         id="path2-7" /><path
         d="M6 2 l-4,4"
         stroke="#000000"
         stroke-width="0.25"
         linecap="square"
         id="path3-8" /><path
         d="M4 0 l-4,4"
         stroke="#000000"
         stroke-width="0.25"
         linecap="square"
         id="path4-6" /></pattern><symbol
       id="*Model_Space-5" /><symbol
       id="*Paper_Space-8" /></defs><style
     id="style1"><![CDATA[
polygon {
shape-rendering:crispEdges;
stroke-width:0.140000;
}
.s0 {
stroke:#000000;
stroke-width:0.125000;
stroke-linecap:round;
stroke-linejoin:round;
fill:none;
}
.s1 {
stroke:#000000;
stroke-width:0.125000;
stroke-linecap:round;
stroke-linejoin:round;
fill:none;
}
.s2 {
stroke:#19b219;
stroke-width:0.125000;
stroke-linecap:round;
stroke-linejoin:round;
fill:none;
}
.s3 {
stroke:#7f4c00;
stroke-width:0.125000;
stroke-linecap:round;
stroke-linejoin:round;
fill:none;
}
.s4 {
stroke:#00cc00;
stroke-width:0.125000;
stroke-linecap:round;
stroke-linejoin:round;
fill:none;
}
.s5 {
stroke:#000000;
stroke-width:0.083333;
stroke-linecap:round;
stroke-linejoin:round;
fill:none;
}
.s6 {
stroke:#ff19ff;
stroke-width:0.083333;
stroke-linecap:round;
stroke-linejoin:round;
fill:none;
}
.s7 {
stroke:#ff0000;
stroke-width:0.125000;
stroke-linecap:round;
stroke-linejoin:round;
fill:none;
}
.s8 {
stroke:#ffff00;
stroke-width:0.125000;
stroke-linecap:round;
stroke-linejoin:round;
fill:none;
}
.s9 {
stroke:#001919;
stroke-width:0.083333;
stroke-linecap:round;
stroke-linejoin:round;
fill:none;
}
.sa {
stroke:#006666;
stroke-width:0.083333;
stroke-linecap:round;
stroke-linejoin:round;
fill:none;
}
.sb {
stroke:#00ffff;
stroke-width:0.250000;
stroke-linecap:round;
stroke-linejoin:round;
fill:none;
}
.sc {
stroke:#ff0000;
stroke-width:0.666667;
stroke-linecap:round;
stroke-linejoin:round;
fill:none;
}
.sd {
stroke:#191919;
stroke-width:0.083333;
stroke-linecap:round;
stroke-linejoin:round;
fill:none;
}
.se {
stroke:#000000;
stroke-width:0.083333;
stroke-linecap:round;
stroke-linejoin:round;
stroke-dasharray:1.250,1.250;
fill:none;
}
.sf {
stroke:#000000;
stroke-width:0.250000;
stroke-linecap:round;
stroke-linejoin:round;
fill:none;
}
]]></style><style
     id="style1-5"><![CDATA[
polygon {
shape-rendering:crispEdges;
stroke-width:0.140000;
}
.s0 {
stroke:#000000;
stroke-width:0.085079;
stroke-linecap:round;
stroke-linejoin:round;
fill:none;
}
.s1 {
stroke:#000000;
stroke-width:0.085079;
stroke-linecap:round;
stroke-linejoin:round;
fill:none;
}
.s2 {
stroke:#19b219;
stroke-width:0.085079;
stroke-linecap:round;
stroke-linejoin:round;
stroke-dasharray:1.702,0.425;
fill:none;
}
.s3 {
stroke:#7f4c00;
stroke-width:0.085079;
stroke-linecap:round;
stroke-linejoin:round;
fill:none;
}
.s4 {
stroke:#00cc00;
stroke-width:0.085079;
stroke-linecap:round;
stroke-linejoin:round;
fill:none;
}
.s5 {
stroke:#000000;
stroke-width:0.056719;
stroke-linecap:round;
stroke-linejoin:round;
fill:none;
}
.s6 {
stroke:#ff19ff;
stroke-width:0.056719;
stroke-linecap:round;
stroke-linejoin:round;
fill:none;
}
.s7 {
stroke:#ff0000;
stroke-width:0.085079;
stroke-linecap:round;
stroke-linejoin:round;
fill:none;
}
.s8 {
stroke:#ffff00;
stroke-width:0.085079;
stroke-linecap:round;
stroke-linejoin:round;
fill:none;
}
.s9 {
stroke:#001919;
stroke-width:0.056719;
stroke-linecap:round;
stroke-linejoin:round;
fill:none;
}
.sa {
stroke:#006666;
stroke-width:0.056719;
stroke-linecap:round;
stroke-linejoin:round;
fill:none;
}
.sb {
stroke:#00ffff;
stroke-width:0.170157;
stroke-linecap:round;
stroke-linejoin:round;
fill:none;
}
.sc {
stroke:#ff0000;
stroke-width:0.453752;
stroke-linecap:round;
stroke-linejoin:round;
fill:none;
}
.sd {
stroke:#191919;
stroke-width:0.056719;
stroke-linecap:round;
stroke-linejoin:round;
fill:none;
}
.se {
stroke:#000000;
stroke-width:0.056719;
stroke-linecap:round;
stroke-linejoin:round;
stroke-dasharray:0.851,0.851;
fill:none;
}
.sf {
stroke:#000000;
stroke-width:0.170157;
stroke-linecap:round;
stroke-linejoin:round;
fill:none;
}
]]></style><style
     id="style1-38"><![CDATA[
polygon {
shape-rendering:crispEdges;
stroke-width:0.140000;
}
.s0 {
stroke:#000000;
stroke-width:0.082707;
stroke-linecap:round;
stroke-linejoin:round;
fill:none;
}
.s1 {
stroke:#000000;
stroke-width:0.082707;
stroke-linecap:round;
stroke-linejoin:round;
fill:none;
}
.s2 {
stroke:#19b219;
stroke-width:0.082707;
stroke-linecap:round;
stroke-linejoin:round;
fill:none;
}
.s3 {
stroke:#7f4c00;
stroke-width:0.082707;
stroke-linecap:round;
stroke-linejoin:round;
fill:none;
}
.s4 {
stroke:#00cc00;
stroke-width:0.082707;
stroke-linecap:round;
stroke-linejoin:round;
fill:none;
}
.s5 {
stroke:#000000;
stroke-width:0.055138;
stroke-linecap:round;
stroke-linejoin:round;
fill:none;
}
.s6 {
stroke:#ff19ff;
stroke-width:0.055138;
stroke-linecap:round;
stroke-linejoin:round;
fill:none;
}
.s7 {
stroke:#ff0000;
stroke-width:0.082707;
stroke-linecap:round;
stroke-linejoin:round;
fill:none;
}
.s8 {
stroke:#ffff00;
stroke-width:0.082707;
stroke-linecap:round;
stroke-linejoin:round;
fill:none;
}
.s9 {
stroke:#001919;
stroke-width:0.055138;
stroke-linecap:round;
stroke-linejoin:round;
fill:none;
}
.sa {
stroke:#006666;
stroke-width:0.055138;
stroke-linecap:round;
stroke-linejoin:round;
fill:none;
}
.sb {
stroke:#00ffff;
stroke-width:0.165413;
stroke-linecap:round;
stroke-linejoin:round;
fill:none;
}
.sc {
stroke:#ff0000;
stroke-width:0.441102;
stroke-linecap:round;
stroke-linejoin:round;
fill:none;
}
.sd {
stroke:#191919;
stroke-width:0.055138;
stroke-linecap:round;
stroke-linejoin:round;
fill:none;
}
.se {
stroke:#000000;
stroke-width:0.055138;
stroke-linecap:round;
stroke-linejoin:round;
stroke-dasharray:0.827,0.827;
fill:none;
}
.sf {
stroke:#000000;
stroke-width:0.165413;
stroke-linecap:round;
stroke-linejoin:round;
fill:none;
}
]]></style><style
     id="style1-8"><![CDATA[
polygon {
shape-rendering:crispEdges;
stroke-width:0.070000;
}
.s0 {
stroke:#000000;
stroke-width:0.050235;
stroke-linecap:round;
stroke-linejoin:round;
fill:none;
}
.s1 {
stroke:#000000;
stroke-width:0.050235;
stroke-linecap:round;
stroke-linejoin:round;
fill:none;
}
.s2 {
stroke:#19b219;
stroke-width:0.050235;
stroke-linecap:round;
stroke-linejoin:round;
fill:none;
}
.s3 {
stroke:#7f4c00;
stroke-width:0.050235;
stroke-linecap:round;
stroke-linejoin:round;
fill:none;
}
.s4 {
stroke:#00cc00;
stroke-width:0.050235;
stroke-linecap:round;
stroke-linejoin:round;
fill:none;
}
.s5 {
stroke:#000000;
stroke-width:0.033490;
stroke-linecap:round;
stroke-linejoin:round;
fill:none;
}
.s6 {
stroke:#ff19ff;
stroke-width:0.033490;
stroke-linecap:round;
stroke-linejoin:round;
fill:none;
}
.s7 {
stroke:#ff0000;
stroke-width:0.050235;
stroke-linecap:round;
stroke-linejoin:round;
fill:none;
}
.s8 {
stroke:#ffff00;
stroke-width:0.050235;
stroke-linecap:round;
stroke-linejoin:round;
fill:none;
}
.s9 {
stroke:#001919;
stroke-width:0.033490;
stroke-linecap:round;
stroke-linejoin:round;
fill:none;
}
.sa {
stroke:#006666;
stroke-width:0.033490;
stroke-linecap:round;
stroke-linejoin:round;
fill:none;
}
.sb {
stroke:#00ffff;
stroke-width:0.100469;
stroke-linecap:round;
stroke-linejoin:round;
fill:none;
}
.sc {
stroke:#ff0000;
stroke-width:0.267918;
stroke-linecap:round;
stroke-linejoin:round;
fill:none;
}
.sd {
stroke:#191919;
stroke-width:0.033490;
stroke-linecap:round;
stroke-linejoin:round;
fill:none;
}
.se {
stroke:#000000;
stroke-width:0.033490;
stroke-linecap:round;
stroke-linejoin:round;
stroke-dasharray:0.502,0.502;
fill:none;
}
.sf {
stroke:#000000;
stroke-width:0.100469;
stroke-linecap:round;
stroke-linejoin:round;
fill:none;
}
]]></style><style
     id="style1-1"><![CDATA[
polygon {
shape-rendering:crispEdges;
stroke-width:0.140000;
}
.s0 {
stroke:#000000;
stroke-width:0.064382;
stroke-linecap:round;
stroke-linejoin:round;
fill:none;
}
.s1 {
stroke:#000000;
stroke-width:0.064382;
stroke-linecap:round;
stroke-linejoin:round;
fill:none;
}
.s2 {
stroke:#19b219;
stroke-width:0.064382;
stroke-linecap:round;
stroke-linejoin:round;
fill:none;
}
.s3 {
stroke:#7f4c00;
stroke-width:0.064382;
stroke-linecap:round;
stroke-linejoin:round;
fill:none;
}
.s4 {
stroke:#00cc00;
stroke-width:0.064382;
stroke-linecap:round;
stroke-linejoin:round;
fill:none;
}
.s5 {
stroke:#000000;
stroke-width:0.042921;
stroke-linecap:round;
stroke-linejoin:round;
fill:none;
}
.s6 {
stroke:#ff19ff;
stroke-width:0.042921;
stroke-linecap:round;
stroke-linejoin:round;
fill:none;
}
.s7 {
stroke:#ff0000;
stroke-width:0.064382;
stroke-linecap:round;
stroke-linejoin:round;
fill:none;
}
.s8 {
stroke:#ffff00;
stroke-width:0.064382;
stroke-linecap:round;
stroke-linejoin:round;
fill:none;
}
.s9 {
stroke:#001919;
stroke-width:0.042921;
stroke-linecap:round;
stroke-linejoin:round;
fill:none;
}
.sa {
stroke:#006666;
stroke-width:0.042921;
stroke-linecap:round;
stroke-linejoin:round;
fill:none;
}
.sb {
stroke:#00ffff;
stroke-width:0.128764;
stroke-linecap:round;
stroke-linejoin:round;
fill:none;
}
.sc {
stroke:#ff0000;
stroke-width:0.343370;
stroke-linecap:round;
stroke-linejoin:round;
fill:none;
}
.sd {
stroke:#191919;
stroke-width:0.042921;
stroke-linecap:round;
stroke-linejoin:round;
fill:none;
}
.se {
stroke:#000000;
stroke-width:0.042921;
stroke-linecap:round;
stroke-linejoin:round;
stroke-dasharray:0.644,0.644;
fill:none;
}
.sf {
stroke:#000000;
stroke-width:0.128764;
stroke-linecap:round;
stroke-linejoin:round;
fill:none;
}
]]></style><style
     id="style1-2"><![CDATA[
polygon {
shape-rendering:crispEdges;
stroke-width:0.140000;
}
.s0 {
stroke:#000000;
stroke-width:0.064382;
stroke-linecap:round;
stroke-linejoin:round;
fill:none;
}
.s1 {
stroke:#000000;
stroke-width:0.064382;
stroke-linecap:round;
stroke-linejoin:round;
fill:none;
}
.s2 {
stroke:#19b219;
stroke-width:0.064382;
stroke-linecap:round;
stroke-linejoin:round;
fill:none;
}
.s3 {
stroke:#7f4c00;
stroke-width:0.064382;
stroke-linecap:round;
stroke-linejoin:round;
fill:none;
}
.s4 {
stroke:#00cc00;
stroke-width:0.064382;
stroke-linecap:round;
stroke-linejoin:round;
fill:none;
}
.s5 {
stroke:#000000;
stroke-width:0.042921;
stroke-linecap:round;
stroke-linejoin:round;
fill:none;
}
.s6 {
stroke:#ff19ff;
stroke-width:0.042921;
stroke-linecap:round;
stroke-linejoin:round;
fill:none;
}
.s7 {
stroke:#ff0000;
stroke-width:0.064382;
stroke-linecap:round;
stroke-linejoin:round;
fill:none;
}
.s8 {
stroke:#ffff00;
stroke-width:0.064382;
stroke-linecap:round;
stroke-linejoin:round;
fill:none;
}
.s9 {
stroke:#001919;
stroke-width:0.042921;
stroke-linecap:round;
stroke-linejoin:round;
fill:none;
}
.sa {
stroke:#006666;
stroke-width:0.042921;
stroke-linecap:round;
stroke-linejoin:round;
fill:none;
}
.sb {
stroke:#00ffff;
stroke-width:0.128764;
stroke-linecap:round;
stroke-linejoin:round;
fill:none;
}
.sc {
stroke:#ff0000;
stroke-width:0.343370;
stroke-linecap:round;
stroke-linejoin:round;
fill:none;
}
.sd {
stroke:#191919;
stroke-width:0.042921;
stroke-linecap:round;
stroke-linejoin:round;
fill:none;
}
.se {
stroke:#000000;
stroke-width:0.042921;
stroke-linecap:round;
stroke-linejoin:round;
stroke-dasharray:0.644,0.644;
fill:none;
}
.sf {
stroke:#000000;
stroke-width:0.128764;
stroke-linecap:round;
stroke-linejoin:round;
fill:none;
}
]]></style><style
     id="style1-3"><![CDATA[
polygon {
shape-rendering:crispEdges;
stroke-width:0.070000;
}
.s0 {
stroke:#000000;
stroke-width:0.032723;
stroke-linecap:round;
stroke-linejoin:round;
fill:none;
}
.s1 {
stroke:#000000;
stroke-width:0.032723;
stroke-linecap:round;
stroke-linejoin:round;
fill:none;
}
.s2 {
stroke:#19b219;
stroke-width:0.032723;
stroke-linecap:round;
stroke-linejoin:round;
fill:none;
}
.s3 {
stroke:#7f4c00;
stroke-width:0.032723;
stroke-linecap:round;
stroke-linejoin:round;
fill:none;
}
.s4 {
stroke:#00cc00;
stroke-width:0.032723;
stroke-linecap:round;
stroke-linejoin:round;
fill:none;
}
.s5 {
stroke:#000000;
stroke-width:0.021815;
stroke-linecap:round;
stroke-linejoin:round;
fill:none;
}
.s6 {
stroke:#ff19ff;
stroke-width:0.021815;
stroke-linecap:round;
stroke-linejoin:round;
fill:none;
}
.s7 {
stroke:#ff0000;
stroke-width:0.032723;
stroke-linecap:round;
stroke-linejoin:round;
fill:none;
}
.s8 {
stroke:#ffff00;
stroke-width:0.032723;
stroke-linecap:round;
stroke-linejoin:round;
fill:none;
}
.s9 {
stroke:#001919;
stroke-width:0.021815;
stroke-linecap:round;
stroke-linejoin:round;
fill:none;
}
.sa {
stroke:#006666;
stroke-width:0.021815;
stroke-linecap:round;
stroke-linejoin:round;
fill:none;
}
.sb {
stroke:#00ffff;
stroke-width:0.065445;
stroke-linecap:round;
stroke-linejoin:round;
fill:none;
}
.sc {
stroke:#ff0000;
stroke-width:0.174520;
stroke-linecap:round;
stroke-linejoin:round;
fill:none;
}
.sd {
stroke:#191919;
stroke-width:0.021815;
stroke-linecap:round;
stroke-linejoin:round;
fill:none;
}
.se {
stroke:#000000;
stroke-width:0.021815;
stroke-linecap:round;
stroke-linejoin:round;
stroke-dasharray:0.327,0.327;
fill:none;
}
.sf {
stroke:#000000;
stroke-width:0.065445;
stroke-linecap:round;
stroke-linejoin:round;
fill:none;
}
]]></style><style
     id="style1-7"><![CDATA[
polygon {
shape-rendering:crispEdges;
stroke-width:0.140000;
}
.s0 {
stroke:#000000;
stroke-width:0.082707;
stroke-linecap:round;
stroke-linejoin:round;
fill:none;
}
.s1 {
stroke:#000000;
stroke-width:0.082707;
stroke-linecap:round;
stroke-linejoin:round;
fill:none;
}
.s2 {
stroke:#19b219;
stroke-width:0.082707;
stroke-linecap:round;
stroke-linejoin:round;
fill:none;
}
.s3 {
stroke:#7f4c00;
stroke-width:0.082707;
stroke-linecap:round;
stroke-linejoin:round;
fill:none;
}
.s4 {
stroke:#00cc00;
stroke-width:0.082707;
stroke-linecap:round;
stroke-linejoin:round;
fill:none;
}
.s5 {
stroke:#000000;
stroke-width:0.055138;
stroke-linecap:round;
stroke-linejoin:round;
fill:none;
}
.s6 {
stroke:#ff19ff;
stroke-width:0.055138;
stroke-linecap:round;
stroke-linejoin:round;
fill:none;
}
.s7 {
stroke:#ff0000;
stroke-width:0.082707;
stroke-linecap:round;
stroke-linejoin:round;
fill:none;
}
.s8 {
stroke:#ffff00;
stroke-width:0.082707;
stroke-linecap:round;
stroke-linejoin:round;
fill:none;
}
.s9 {
stroke:#001919;
stroke-width:0.055138;
stroke-linecap:round;
stroke-linejoin:round;
fill:none;
}
.sa {
stroke:#006666;
stroke-width:0.055138;
stroke-linecap:round;
stroke-linejoin:round;
fill:none;
}
.sb {
stroke:#00ffff;
stroke-width:0.165413;
stroke-linecap:round;
stroke-linejoin:round;
fill:none;
}
.sc {
stroke:#ff0000;
stroke-width:0.441102;
stroke-linecap:round;
stroke-linejoin:round;
fill:none;
}
.sd {
stroke:#191919;
stroke-width:0.055138;
stroke-linecap:round;
stroke-linejoin:round;
fill:none;
}
.se {
stroke:#000000;
stroke-width:0.055138;
stroke-linecap:round;
stroke-linejoin:round;
stroke-dasharray:0.827,0.827;
fill:none;
}
.sf {
stroke:#000000;
stroke-width:0.165413;
stroke-linecap:round;
stroke-linejoin:round;
fill:none;
}
]]></style><style
     id="style1-8-9"><![CDATA[
polygon {
shape-rendering:crispEdges;
stroke-width:0.070000;
}
.s0 {
stroke:#000000;
stroke-width:0.050235;
stroke-linecap:round;
stroke-linejoin:round;
fill:none;
}
.s1 {
stroke:#000000;
stroke-width:0.050235;
stroke-linecap:round;
stroke-linejoin:round;
fill:none;
}
.s2 {
stroke:#19b219;
stroke-width:0.050235;
stroke-linecap:round;
stroke-linejoin:round;
fill:none;
}
.s3 {
stroke:#7f4c00;
stroke-width:0.050235;
stroke-linecap:round;
stroke-linejoin:round;
fill:none;
}
.s4 {
stroke:#00cc00;
stroke-width:0.050235;
stroke-linecap:round;
stroke-linejoin:round;
fill:none;
}
.s5 {
stroke:#000000;
stroke-width:0.033490;
stroke-linecap:round;
stroke-linejoin:round;
fill:none;
}
.s6 {
stroke:#ff19ff;
stroke-width:0.033490;
stroke-linecap:round;
stroke-linejoin:round;
fill:none;
}
.s7 {
stroke:#ff0000;
stroke-width:0.050235;
stroke-linecap:round;
stroke-linejoin:round;
fill:none;
}
.s8 {
stroke:#ffff00;
stroke-width:0.050235;
stroke-linecap:round;
stroke-linejoin:round;
fill:none;
}
.s9 {
stroke:#001919;
stroke-width:0.033490;
stroke-linecap:round;
stroke-linejoin:round;
fill:none;
}
.sa {
stroke:#006666;
stroke-width:0.033490;
stroke-linecap:round;
stroke-linejoin:round;
fill:none;
}
.sb {
stroke:#00ffff;
stroke-width:0.100469;
stroke-linecap:round;
stroke-linejoin:round;
fill:none;
}
.sc {
stroke:#ff0000;
stroke-width:0.267918;
stroke-linecap:round;
stroke-linejoin:round;
fill:none;
}
.sd {
stroke:#191919;
stroke-width:0.033490;
stroke-linecap:round;
stroke-linejoin:round;
fill:none;
}
.se {
stroke:#000000;
stroke-width:0.033490;
stroke-linecap:round;
stroke-linejoin:round;
stroke-dasharray:0.502,0.502;
fill:none;
}
.sf {
stroke:#000000;
stroke-width:0.100469;
stroke-linecap:round;
stroke-linejoin:round;
fill:none;
}
]]></style><style
     id="style1-1-3"><![CDATA[
polygon {
shape-rendering:crispEdges;
stroke-width:0.140000;
}
.s0 {
stroke:#000000;
stroke-width:0.064382;
stroke-linecap:round;
stroke-linejoin:round;
fill:none;
}
.s1 {
stroke:#000000;
stroke-width:0.064382;
stroke-linecap:round;
stroke-linejoin:round;
fill:none;
}
.s2 {
stroke:#19b219;
stroke-width:0.064382;
stroke-linecap:round;
stroke-linejoin:round;
fill:none;
}
.s3 {
stroke:#7f4c00;
stroke-width:0.064382;
stroke-linecap:round;
stroke-linejoin:round;
fill:none;
}
.s4 {
stroke:#00cc00;
stroke-width:0.064382;
stroke-linecap:round;
stroke-linejoin:round;
fill:none;
}
.s5 {
stroke:#000000;
stroke-width:0.042921;
stroke-linecap:round;
stroke-linejoin:round;
fill:none;
}
.s6 {
stroke:#ff19ff;
stroke-width:0.042921;
stroke-linecap:round;
stroke-linejoin:round;
fill:none;
}
.s7 {
stroke:#ff0000;
stroke-width:0.064382;
stroke-linecap:round;
stroke-linejoin:round;
fill:none;
}
.s8 {
stroke:#ffff00;
stroke-width:0.064382;
stroke-linecap:round;
stroke-linejoin:round;
fill:none;
}
.s9 {
stroke:#001919;
stroke-width:0.042921;
stroke-linecap:round;
stroke-linejoin:round;
fill:none;
}
.sa {
stroke:#006666;
stroke-width:0.042921;
stroke-linecap:round;
stroke-linejoin:round;
fill:none;
}
.sb {
stroke:#00ffff;
stroke-width:0.128764;
stroke-linecap:round;
stroke-linejoin:round;
fill:none;
}
.sc {
stroke:#ff0000;
stroke-width:0.343370;
stroke-linecap:round;
stroke-linejoin:round;
fill:none;
}
.sd {
stroke:#191919;
stroke-width:0.042921;
stroke-linecap:round;
stroke-linejoin:round;
fill:none;
}
.se {
stroke:#000000;
stroke-width:0.042921;
stroke-linecap:round;
stroke-linejoin:round;
stroke-dasharray:0.644,0.644;
fill:none;
}
.sf {
stroke:#000000;
stroke-width:0.128764;
stroke-linecap:round;
stroke-linejoin:round;
fill:none;
}
]]></style><style
     id="style1-2-2"><![CDATA[
polygon {
shape-rendering:crispEdges;
stroke-width:0.140000;
}
.s0 {
stroke:#000000;
stroke-width:0.064382;
stroke-linecap:round;
stroke-linejoin:round;
fill:none;
}
.s1 {
stroke:#000000;
stroke-width:0.064382;
stroke-linecap:round;
stroke-linejoin:round;
fill:none;
}
.s2 {
stroke:#19b219;
stroke-width:0.064382;
stroke-linecap:round;
stroke-linejoin:round;
fill:none;
}
.s3 {
stroke:#7f4c00;
stroke-width:0.064382;
stroke-linecap:round;
stroke-linejoin:round;
fill:none;
}
.s4 {
stroke:#00cc00;
stroke-width:0.064382;
stroke-linecap:round;
stroke-linejoin:round;
fill:none;
}
.s5 {
stroke:#000000;
stroke-width:0.042921;
stroke-linecap:round;
stroke-linejoin:round;
fill:none;
}
.s6 {
stroke:#ff19ff;
stroke-width:0.042921;
stroke-linecap:round;
stroke-linejoin:round;
fill:none;
}
.s7 {
stroke:#ff0000;
stroke-width:0.064382;
stroke-linecap:round;
stroke-linejoin:round;
fill:none;
}
.s8 {
stroke:#ffff00;
stroke-width:0.064382;
stroke-linecap:round;
stroke-linejoin:round;
fill:none;
}
.s9 {
stroke:#001919;
stroke-width:0.042921;
stroke-linecap:round;
stroke-linejoin:round;
fill:none;
}
.sa {
stroke:#006666;
stroke-width:0.042921;
stroke-linecap:round;
stroke-linejoin:round;
fill:none;
}
.sb {
stroke:#00ffff;
stroke-width:0.128764;
stroke-linecap:round;
stroke-linejoin:round;
fill:none;
}
.sc {
stroke:#ff0000;
stroke-width:0.343370;
stroke-linecap:round;
stroke-linejoin:round;
fill:none;
}
.sd {
stroke:#191919;
stroke-width:0.042921;
stroke-linecap:round;
stroke-linejoin:round;
fill:none;
}
.se {
stroke:#000000;
stroke-width:0.042921;
stroke-linecap:round;
stroke-linejoin:round;
stroke-dasharray:0.644,0.644;
fill:none;
}
.sf {
stroke:#000000;
stroke-width:0.128764;
stroke-linecap:round;
stroke-linejoin:round;
fill:none;
}
]]></style><path
     id="path1-0"
     style="vector-effect:non-scaling-stroke;fill:#808080;stroke:#000000;stroke-width:0.352292;stroke-linecap:round;stroke-linejoin:round;stroke-dasharray:none;-inkscape-stroke:hairline"
     d="M -191.00023 -50.999988 L -191.00023 91.00013 L 230.99985 91.00013 L 230.99985 -50.999988 L -191.00023 -50.999988 z M -175.00017 -37.500037 C -173.61958 -37.500097 -172.5003 -36.38104 -172.50007 -35.000448 C -172.50001 -33.619662 -173.61938 -32.500282 -175.00017 -32.500342 C -176.38096 -32.500282 -177.50034 -33.619662 -177.50028 -35.000448 C -177.50006 -36.38104 -176.38076 -37.500097 -175.00017 -37.500037 z M 214.9998 -37.500037 C 216.38059 -37.500097 217.49996 -36.380723 217.4999 -34.999931 C 217.49968 -33.619345 216.38039 -32.500282 214.9998 -32.500342 C 213.6192 -32.500282 212.49992 -33.619345 212.49969 -34.999931 C 212.49963 -36.380723 213.619 -37.500097 214.9998 -37.500037 z M -160.00005 -22.499919 C -158.61946 -22.499689 -157.50041 -21.380407 -157.50046 -19.999813 L -122.50053 -19.999813 C -122.50055 -20.69021 -122.22071 -21.315229 -121.76828 -21.767664 C -121.65525 -21.880658 -121.53117 -21.983289 -121.39827 -22.073071 C -121.13235 -22.252654 -120.82963 -22.382709 -120.50427 -22.449276 C -120.34168 -22.482506 -120.17285 -22.499929 -120.00043 -22.499919 C -118.61987 -22.499694 -117.50027 -21.380432 -117.50032 -19.999813 L -82.500391 -19.999813 C -82.500405 -20.34501 -82.430531 -20.673765 -82.30402 -20.97288 C -81.987749 -21.720665 -81.317901 -22.282781 -80.50413 -22.449276 C -80.341376 -22.482576 -80.172884 -22.499929 -80.000285 -22.499919 C -78.619489 -22.499979 -77.500121 -21.380607 -77.500179 -19.999813 L -42.500248 -19.999813 C -42.500286 -20.86281 -42.063035 -21.623789 -41.39799 -22.073071 C -41.264981 -22.162931 -41.123284 -22.240294 -40.973726 -22.303548 L -40.97321 -22.303548 C -40.823652 -22.366798 -40.66674 -22.415977 -40.503988 -22.449276 C -40.341233 -22.482576 -40.172746 -22.499929 -40.000142 -22.499919 C -39.482343 -22.499941 -39.001325 -22.342642 -38.602295 -22.073071 C -38.469315 -21.983211 -38.345888 -21.880767 -38.232808 -21.767664 C -37.780369 -21.315229 -37.500007 -20.69021 -37.500037 -19.999813 L -2.5006226 -19.999813 C -2.5006526 -20.69021 -2.2207971 -21.315229 -1.7683675 -21.767664 C -1.6553276 -21.880658 -1.5312641 -21.983289 -1.3983643 -22.073071 L -1.3978475 -22.073071 C -1.2649476 -22.162821 -1.1230038 -22.240354 -0.97358398 -22.303548 C -0.82416413 -22.366708 -0.66695182 -22.41601 -0.50436198 -22.449276 L -0.50384521 -22.449276 C -0.34123538 -22.482506 -0.17293659 -22.499929 -0.00051676432 -22.499919 L 0 -22.499919 C 0.17241983 -22.499891 0.34073861 -22.482536 0.50332845 -22.449276 L 0.50384521 -22.449276 C 0.82915489 -22.382646 1.131451 -22.252695 1.3973307 -22.073071 L 1.3978475 -22.073071 C 1.5306974 -21.983261 1.6543441 -21.880673 1.767334 -21.767664 C 2.2197735 -21.315229 2.5001358 -20.69021 2.5001058 -19.999813 L 37.49952 -19.999813 C 37.49949 -20.69021 37.779355 -21.315229 38.231775 -21.767664 C 38.344815 -21.880658 38.468878 -21.983289 38.601778 -22.073071 C 38.867708 -22.252654 39.170421 -22.382709 39.49578 -22.449276 C 39.65838 -22.482506 39.827196 -22.499929 39.999626 -22.499919 L 40.000142 -22.499919 C 40.172562 -22.499891 40.340881 -22.482536 40.503471 -22.449276 L 40.503988 -22.449276 C 40.666567 -22.415976 40.823293 -22.366736 40.972693 -22.303548 C 41.122103 -22.240328 41.264593 -22.162844 41.397473 -22.073071 L 41.39799 -22.073071 C 41.53087 -21.983271 41.654457 -21.880676 41.767476 -21.767664 C 41.880586 -21.654555 41.983034 -21.530669 42.072884 -21.39766 C 42.252604 -21.131645 42.382489 -20.829167 42.449089 -20.503658 C 42.482389 -20.340904 42.500248 -20.172413 42.500248 -19.999813 L 77.499662 -19.999813 C 77.499612 -21.20801 78.356644 -22.216184 79.495923 -22.449276 C 79.658683 -22.482576 79.827168 -22.499929 79.999768 -22.499919 C 80.172368 -22.499926 80.340863 -22.482576 80.503613 -22.449276 C 80.666343 -22.415956 80.823305 -22.366816 80.972835 -22.303548 C 81.271715 -22.177018 81.541559 -21.993767 81.767619 -21.767664 C 82.220048 -21.315229 82.499904 -20.69021 82.499874 -19.999813 L 117.49929 -19.999813 C 117.49928 -20.172413 117.51766 -20.340904 117.55096 -20.503658 C 117.61756 -20.829167 117.74746 -21.131645 117.92717 -21.39766 C 118.01707 -21.53078 118.11936 -21.654479 118.23258 -21.767664 C 118.68499 -22.21993 119.30966 -22.499949 119.99991 -22.499919 C 120.34511 -22.499934 120.67437 -22.430059 120.97349 -22.303548 C 121.12302 -22.240278 121.26478 -22.162934 121.39776 -22.073071 L 121.39827 -22.073071 C 121.53112 -21.983261 121.65478 -21.880673 121.76776 -21.767664 C 121.88099 -21.654479 121.98324 -21.53078 122.07317 -21.39766 C 122.25284 -21.131665 122.38278 -20.829125 122.44937 -20.503658 C 122.48267 -20.340904 122.50053 -20.172413 122.50053 -19.999813 L 157.49995 -19.999813 C 157.49992 -20.690354 157.78012 -21.315207 158.23272 -21.767664 C 158.68513 -22.21993 159.30979 -22.499949 160.00005 -22.499919 C 160.17265 -22.499926 160.34115 -22.482576 160.5039 -22.449276 L 160.50441 -22.449276 C 160.66699 -22.415976 160.82372 -22.366736 160.97312 -22.303548 L 160.97364 -22.303548 C 161.12304 -22.240328 161.26502 -22.162844 161.3979 -22.073071 L 161.39842 -22.073071 C 161.5313 -21.983271 161.65488 -21.880676 161.7679 -21.767664 C 162.2205 -21.315207 162.50071 -20.690354 162.50068 -19.999813 L 197.50009 -19.999813 C 197.50003 -21.380607 198.6194 -22.499979 200.0002 -22.499919 C 201.38099 -22.499979 202.50036 -21.380607 202.5003 -19.999813 C 202.50036 -18.619026 201.38099 -17.499647 200.0002 -17.499707 L 200.0002 17.500224 C 201.38099 17.500164 202.50036 18.619533 202.5003 20.00033 C 202.50036 21.381114 201.38099 22.500495 200.0002 22.500435 L 200.0002 57.500366 C 201.38099 57.500306 202.50036 58.619685 202.5003 60.000472 C 202.50008 61.381059 201.38079 62.500121 200.0002 62.500061 C 198.6196 62.500121 197.50032 61.381059 197.50009 60.000472 L 162.50016 60.000472 C 162.50013 60.173046 162.4824 60.341591 162.449 60.504317 C 162.28241 61.317791 161.72062 61.98743 160.97312 62.303691 L 160.9726 62.303691 C 160.67367 62.430099 160.34501 62.500005 160.00005 62.500061 C 159.8273 62.500069 159.65858 62.482768 159.49569 62.449418 C 158.5193 62.249678 157.75053 61.48067 157.55059 60.504317 C 157.51729 60.341591 157.49953 60.173046 157.49943 60.000472 L 122.50002 60.000472 C 122.49999 60.173046 122.48226 60.341591 122.44886 60.504317 C 122.3156 61.155136 121.92913 61.713852 121.39724 62.073214 C 121.22309 62.190843 121.02887 62.27751 120.82725 62.348649 C 120.58256 62.434979 120.32344 62.48929 120.05055 62.494893 C 120.03325 62.495248 120.01721 62.500061 119.99991 62.500061 C 118.79189 62.500114 117.78372 61.643396 117.55045 60.504317 C 117.51715 60.341591 117.49939 60.173046 117.49929 60.000472 L 82.499874 60.000472 C 82.499764 60.690764 82.220038 61.315475 81.767619 61.767806 L 81.767102 61.767806 C 81.654122 61.880792 81.530455 61.983427 81.397616 62.073214 C 81.264636 62.163054 81.122345 62.240438 80.972835 62.303691 C 80.673746 62.430164 80.344918 62.500076 79.999768 62.500061 C 79.482209 62.500084 79.001357 62.342562 78.602437 62.073214 L 78.601921 62.073214 C 77.936921 61.624038 77.499812 60.863338 77.499662 60.000472 L 42.500248 60.000472 C 42.500218 60.173046 42.482489 60.341591 42.449089 60.504317 C 42.282499 61.317791 41.720709 61.98743 40.97321 62.303691 L 40.972693 62.303691 C 40.823303 62.366861 40.666547 62.41613 40.503988 62.449418 C 40.341418 62.482678 40.172532 62.500041 40.000142 62.500061 C 39.827753 62.500033 39.658867 62.482668 39.496297 62.449418 L 39.49578 62.449418 C 39.333211 62.416158 39.176475 62.366838 39.027075 62.303691 C 38.877665 62.240511 38.735195 62.162941 38.602295 62.073214 C 38.469425 61.983454 38.345322 61.880777 38.232292 61.767806 C 37.779872 61.315475 37.49963 60.690764 37.49952 60.000472 L 2.5001058 60.000472 C 2.5000758 60.173046 2.4823461 60.341591 2.4489461 60.504317 C 2.3823462 60.829769 2.2524715 61.131842 2.0727417 61.397803 C 1.9828418 61.530783 1.8809606 61.654723 1.7678507 61.767806 L 1.767334 61.767806 C 1.6543541 61.880792 1.5306874 61.983427 1.3978475 62.073214 C 1.2649976 62.162974 1.1224271 62.240471 0.97306722 62.303691 L 0.97255046 62.303691 C 0.82316061 62.366861 0.66639505 62.41613 0.50384521 62.449418 C 0.34127538 62.482678 0.17238983 62.500041 0 62.500061 L -0.00051676432 62.500061 C -0.17290659 62.500033 -0.34127538 62.482668 -0.50384521 62.449418 L -0.50436198 62.449418 C -0.66693182 62.416158 -0.82365737 62.366838 -0.97306722 62.303691 L -0.97358398 62.303691 C -1.1231338 62.240451 -1.2648476 62.163049 -1.3978475 62.073214 C -1.929847 61.713873 -2.316173 61.15522 -2.4494629 60.504317 C -2.4827629 60.341591 -2.5005226 60.173046 -2.5006226 60.000472 L -37.500037 60.000472 C -37.500147 60.690764 -37.779872 61.315475 -38.232292 61.767806 L -38.232808 61.767806 C -38.345788 61.880792 -38.469455 61.983427 -38.602295 62.073214 C -38.735275 62.163054 -38.877555 62.240438 -39.027075 62.303691 C -39.176455 62.366861 -39.333737 62.41613 -39.496297 62.449418 L -39.496814 62.449418 C -39.659394 62.482638 -39.827743 62.500071 -40.000142 62.500061 C -40.690446 62.500091 -41.315569 62.220137 -41.767993 61.767806 C -41.994206 61.541641 -42.177341 61.272595 -42.303878 60.973539 C -42.430415 60.674485 -42.500191 60.345619 -42.500248 60.000472 L -77.500179 60.000472 C -77.500292 60.690764 -77.78001 61.315475 -78.232434 61.767806 L -78.232951 61.767806 C -78.459112 61.993966 -78.728193 62.177186 -79.027218 62.303691 C -79.176757 62.366931 -79.333706 62.416128 -79.49644 62.449418 C -79.659171 62.482708 -79.82771 62.500071 -80.000285 62.500061 C -80.345432 62.500076 -80.674268 62.43016 -80.973352 62.303691 C -81.122753 62.240511 -81.264726 62.162941 -81.397616 62.073214 L -81.398132 62.073214 C -81.531021 61.983454 -81.654589 61.880777 -81.767619 61.767806 C -82.220042 61.315475 -82.500277 60.690764 -82.500391 60.000472 L -117.50032 60.000472 C -117.50035 60.173046 -117.51808 60.341591 -117.55148 60.504317 C -117.58478 60.667022 -117.63398 60.823512 -117.69721 60.973022 C -117.95027 61.570874 -118.42945 62.050742 -119.02736 62.303691 C -119.32629 62.430099 -119.65496 62.500005 -119.99991 62.500061 C -120.17231 62.500033 -120.34119 62.482668 -120.50376 62.449418 L -120.50427 62.449418 C -120.66684 62.416158 -120.82357 62.366838 -120.97298 62.303691 L -120.97349 62.303691 C -121.12289 62.240511 -121.26487 62.162941 -121.39776 62.073214 L -121.39827 62.073214 C -121.53116 61.983454 -121.65473 61.880777 -121.76776 61.767806 C -122.22019 61.315475 -122.50041 60.690764 -122.50053 60.000472 L -157.50046 60.000472 C -157.50069 61.380859 -158.61966 62.499831 -160.00005 62.500061 C -161.38064 62.500121 -162.49993 61.381059 -162.50016 60.000472 C -162.50022 58.619685 -161.38084 57.500306 -160.00005 57.500366 L -160.00005 22.500435 C -161.38084 22.500495 -162.50022 21.381114 -162.50016 20.00033 C -162.50022 18.619533 -161.38084 17.500164 -160.00005 17.500224 L -160.00005 -17.499707 C -161.38084 -17.499647 -162.50022 -18.619026 -162.50016 -19.999813 C -162.50022 -21.380607 -161.38084 -22.499979 -160.00005 -22.499919 z M -175.00017 72.500484 C -173.61958 72.500424 -172.5003 73.619491 -172.50007 75.000073 C -172.50001 76.380869 -173.61938 77.500239 -175.00017 77.500179 C -176.38096 77.500239 -177.50034 76.380869 -177.50028 75.000073 C -177.50006 73.619491 -176.38076 72.500424 -175.00017 72.500484 z M 214.9998 72.500484 C 216.38059 72.500424 217.49996 73.619804 217.4999 75.00059 C 217.49968 76.381186 216.38039 77.500239 214.9998 77.500179 C 213.6192 77.500239 212.49992 76.381186 212.49969 75.00059 C 212.49963 73.619804 213.619 72.500424 214.9998 72.500484 z "
     inkscape:label="cover--back--frame" /></svg>
