<?xml version="1.0" encoding="UTF-8" standalone="no"?>
<!-- Created with Inkscape (http://www.inkscape.org/) -->

<svg
   width="40mm"
   height="40mm"
   viewBox="0 0 40 40"
   version="1.1"
   id="svg1"
   inkscape:version="1.3 (0e150ed6c4, 2023-07-21)"
   sodipodi:docname="case--power-cord.svg"
   xml:space="preserve"
   xmlns:inkscape="http://www.inkscape.org/namespaces/inkscape"
   xmlns:sodipodi="http://sodipodi.sourceforge.net/DTD/sodipodi-0.dtd"
   xmlns="http://www.w3.org/2000/svg"
   xmlns:svg="http://www.w3.org/2000/svg"><sodipodi:namedview
     id="namedview1"
     pagecolor="#ffffff"
     bordercolor="#000000"
     borderopacity="0.25"
     inkscape:showpageshadow="2"
     inkscape:pageopacity="0.0"
     inkscape:pagecheckerboard="0"
     inkscape:deskcolor="#d1d1d1"
     inkscape:document-units="mm"
     showgrid="true"
     inkscape:zoom="3.2252323"
     inkscape:cx="52.709382"
     inkscape:cy="60.460761"
     inkscape:window-width="2496"
     inkscape:window-height="1558"
     inkscape:window-x="-11"
     inkscape:window-y="-11"
     inkscape:window-maximized="1"
     inkscape:current-layer="g1"><inkscape:grid
       id="grid1"
       units="mm"
       originx="0"
       originy="0"
       spacingx="0.99999997"
       spacingy="0.99999997"
       empcolor="#0099e5"
       empopacity="0.30196078"
       color="#0099e5"
       opacity="0.14902"
       empspacing="10"
       dotted="false"
       gridanglex="30"
       gridanglez="30"
       visible="true" /></sodipodi:namedview><defs
     id="defs1"><inkscape:path-effect
       effect="copy_rotate"
       starting_point="22.499999,277"
       origin="19.999999,277"
       id="path-effect3"
       is_visible="true"
       lpeversion="1.2"
       lpesatellites=""
       method="normal"
       num_copies="4"
       starting_angle="0"
       rotation_angle="90"
       gap="-0.01"
       copies_to_360="true"
       mirror_copies="false"
       split_items="false"
       link_styles="false" /><inkscape:path-effect
       effect="copy_rotate"
       starting_point="22.499999,277"
       origin="19.999999,277"
       id="path-effect1"
       is_visible="true"
       lpeversion="1.2"
       lpesatellites=""
       method="normal"
       num_copies="4"
       starting_angle="0"
       rotation_angle="90"
       gap="-0.01"
       copies_to_360="true"
       mirror_copies="false"
       split_items="false"
       link_styles="false" /><inkscape:path-effect
       effect="copy_rotate"
       starting_point="22.499999,277"
       origin="19.999999,277"
       id="path-effect1-8"
       is_visible="true"
       lpeversion="1.2"
       lpesatellites=""
       method="normal"
       num_copies="4"
       starting_angle="0"
       rotation_angle="90"
       gap="-0.01"
       copies_to_360="true"
       mirror_copies="false"
       split_items="false"
       link_styles="false" /><inkscape:path-effect
       effect="copy_rotate"
       starting_point="22.499999,277"
       origin="19.999999,277"
       id="path-effect3-0"
       is_visible="true"
       lpeversion="1.2"
       lpesatellites=""
       method="normal"
       num_copies="4"
       starting_angle="0"
       rotation_angle="90"
       gap="-0.01"
       copies_to_360="true"
       mirror_copies="false"
       split_items="false"
       link_styles="false" /><inkscape:path-effect
       effect="tiling"
       id="path-effect8"
       is_visible="true"
       lpeversion="1"
       unit="mm"
       seed="1;1"
       lpesatellites=""
       num_rows="4"
       num_cols="4"
       gapx="5"
       gapy="5"
       offset="0"
       offset_type="false"
       scale="0"
       rotate="0"
       mirrorrowsx="false"
       mirrorrowsy="false"
       mirrorcolsx="false"
       mirrorcolsy="false"
       mirrortrans="false"
       shrink_interp="false"
       split_items="false"
       link_styles="false"
       interpolate_scalex="false"
       interpolate_scaley="true"
       interpolate_rotatex="false"
       interpolate_rotatey="true"
       random_scale="false"
       random_rotate="false"
       random_gap_y="false"
       random_gap_x="false"
       transformorigin="" /><inkscape:path-effect
       effect="tiling"
       id="path-effect5"
       is_visible="true"
       lpeversion="1"
       unit="mm"
       seed="1;1"
       lpesatellites=""
       num_rows="4"
       num_cols="4"
       gapx="5"
       gapy="5"
       offset="0"
       offset_type="false"
       scale="0"
       rotate="0"
       mirrorrowsx="false"
       mirrorrowsy="false"
       mirrorcolsx="false"
       mirrorcolsy="false"
       mirrortrans="false"
       shrink_interp="false"
       split_items="false"
       link_styles="false"
       interpolate_scalex="false"
       interpolate_scaley="true"
       interpolate_rotatex="false"
       interpolate_rotatey="true"
       random_scale="false"
       random_rotate="false"
       random_gap_y="false"
       random_gap_x="false"
       transformorigin="" /><inkscape:path-effect
       effect="tiling"
       id="path-effect4"
       is_visible="true"
       lpeversion="1"
       unit="mm"
       seed="1;1"
       lpesatellites=""
       num_rows="4"
       num_cols="4"
       gapx="19"
       gapy="19"
       offset="0"
       offset_type="false"
       scale="0"
       rotate="0"
       mirrorrowsx="false"
       mirrorrowsy="false"
       mirrorcolsx="false"
       mirrorcolsy="false"
       mirrortrans="false"
       shrink_interp="false"
       split_items="false"
       link_styles="false"
       interpolate_scalex="false"
       interpolate_scaley="true"
       interpolate_rotatex="false"
       interpolate_rotatey="true"
       random_scale="false"
       random_rotate="false"
       random_gap_y="false"
       random_gap_x="false"
       transformorigin="" /><inkscape:path-effect
       effect="clone_original"
       linkeditem=""
       id="path-effect2"
       is_visible="true"
       lpeversion="1"
       method="d"
       attributes=""
       css_properties=""
       allow_transforms="true" /><inkscape:path-effect
       effect="copy_rotate"
       starting_point="22.499999,277"
       origin="19.999999,277"
       id="path-effect3-9"
       is_visible="true"
       lpeversion="1.2"
       lpesatellites=""
       method="normal"
       num_copies="4"
       starting_angle="0"
       rotation_angle="90"
       gap="-0.01"
       copies_to_360="true"
       mirror_copies="false"
       split_items="false"
       link_styles="false" /><inkscape:path-effect
       effect="copy_rotate"
       starting_point="22.499999,277"
       origin="19.999999,277"
       id="path-effect1-7"
       is_visible="true"
       lpeversion="1.2"
       lpesatellites=""
       method="normal"
       num_copies="4"
       starting_angle="0"
       rotation_angle="90"
       gap="-0.01"
       copies_to_360="true"
       mirror_copies="false"
       split_items="false"
       link_styles="false" /><inkscape:path-effect
       effect="copy_rotate"
       starting_point="22.499999,277"
       origin="19.999999,277"
       id="path-effect1-8-4"
       is_visible="true"
       lpeversion="1.2"
       lpesatellites=""
       method="normal"
       num_copies="4"
       starting_angle="0"
       rotation_angle="90"
       gap="-0.01"
       copies_to_360="true"
       mirror_copies="false"
       split_items="false"
       link_styles="false" /><inkscape:path-effect
       effect="copy_rotate"
       starting_point="22.499999,277"
       origin="19.999999,277"
       id="path-effect3-0-4"
       is_visible="true"
       lpeversion="1.2"
       lpesatellites=""
       method="normal"
       num_copies="4"
       starting_angle="0"
       rotation_angle="90"
       gap="-0.01"
       copies_to_360="true"
       mirror_copies="false"
       split_items="false"
       link_styles="false" /><style
       type="text/css"
       id="style1">&#10;   <![CDATA[
    .str0 {stroke:#373435;stroke-width:17.57;stroke-linecap:round;stroke-linejoin:round;stroke-miterlimit:2.61313}
    .fil0 {fill:none}
   ]]>&#10;  </style><marker
       id="DistanceX"
       orient="auto"
       refX="0.0"
       refY="0.0"
       style="overflow:visible"><path
         d="M 3,-3 L -3,3 M 0,-5 L  0,5"
         style="stroke:#000000; stroke-width:0.5"
         id="path1" /></marker><pattern
       id="Hatch"
       patternUnits="userSpaceOnUse"
       width="8"
       height="8"
       x="0"
       y="0"><path
         d="M8 4 l-4,4"
         stroke="#000000"
         stroke-width="0.25"
         linecap="square"
         id="path2" /><path
         d="M6 2 l-4,4"
         stroke="#000000"
         stroke-width="0.25"
         linecap="square"
         id="path3" /><path
         d="M4 0 l-4,4"
         stroke="#000000"
         stroke-width="0.25"
         linecap="square"
         id="path4" /></pattern><symbol
       id="$MODEL_SPACE" /><symbol
       id="$PAPER_SPACE" /><inkscape:path-effect
       effect="tiling"
       id="path-effect4-4"
       is_visible="true"
       lpeversion="1"
       unit="mm"
       seed="1;1"
       lpesatellites=""
       num_rows="4"
       num_cols="4"
       gapx="52.91"
       gapy="5.0270833"
       offset="0"
       offset_type="false"
       scale="0"
       rotate="0"
       mirrorrowsx="false"
       mirrorrowsy="false"
       mirrorcolsx="false"
       mirrorcolsy="false"
       mirrortrans="false"
       shrink_interp="false"
       split_items="false"
       link_styles="false"
       interpolate_scalex="false"
       interpolate_scaley="true"
       interpolate_rotatex="false"
       interpolate_rotatey="true"
       random_scale="false"
       random_rotate="false"
       random_gap_y="false"
       random_gap_x="false"
       transformorigin="" /><inkscape:path-effect
       effect="tiling"
       id="path-effect5-5"
       is_visible="true"
       lpeversion="1"
       unit="mm"
       seed="1;1"
       lpesatellites=""
       num_rows="4"
       num_cols="4"
       gapx="5"
       gapy="5"
       offset="0"
       offset_type="false"
       scale="0"
       rotate="0"
       mirrorrowsx="false"
       mirrorrowsy="false"
       mirrorcolsx="false"
       mirrorcolsy="false"
       mirrortrans="false"
       shrink_interp="false"
       split_items="false"
       link_styles="false"
       interpolate_scalex="false"
       interpolate_scaley="true"
       interpolate_rotatex="false"
       interpolate_rotatey="true"
       random_scale="false"
       random_rotate="false"
       random_gap_y="false"
       random_gap_x="false"
       transformorigin="" /></defs><g
     id="g1"
     transform="translate(-94.635098,36.11685)"
     inkscape:label="case--control--power"><path
       id="rect1"
       style="vector-effect:non-scaling-stroke;fill:#808080;fill-rule:evenodd;stroke:#000000;stroke-width:0.264583;stroke-linecap:round;stroke-linejoin:round;-inkscape-stroke:hairline;paint-order:stroke fill markers"
       inkscape:label="case--control--power--base"
       d="M 97.135204 -36.11685 C 97.135204 -34.736143 96.015801 -33.616744 94.635098 -33.616744 L 94.635098 1.3831866 C 96.015801 1.3831866 97.135204 2.5025872 97.135204 3.8832924 L 132.13513 3.8832924 C 132.13513 2.5025872 133.25454 1.3831866 134.63524 1.3831866 L 134.63524 -33.616744 C 133.25454 -33.616744 132.13513 -34.736143 132.13513 -36.11685 L 97.135204 -36.11685 z M 99.63531 -33.616744 C 101.01602 -33.616744 102.1349 -32.497348 102.1349 -31.116638 C 102.1349 -29.73593 101.01602 -28.617049 99.63531 -28.617049 C 98.254605 -28.617049 97.135204 -29.73593 97.135204 -31.116638 C 97.135204 -32.497348 98.254605 -33.616744 99.63531 -33.616744 z M 109.63522 -33.616744 C 111.01592 -33.616744 112.13532 -32.497348 112.13532 -31.116638 C 112.13532 -29.73593 111.01592 -28.617049 109.63522 -28.617049 C 108.25452 -28.617049 107.13511 -29.73593 107.13511 -31.116638 C 107.13511 -32.497348 108.25452 -33.616744 109.63522 -33.616744 z M 119.63512 -33.616744 C 121.01583 -33.616744 122.13523 -32.497348 122.13523 -31.116638 C 122.13523 -29.73593 121.01583 -28.617049 119.63512 -28.617049 C 118.25442 -28.617049 117.13502 -29.73593 117.13502 -31.116638 C 117.13502 -32.497348 118.25442 -33.616744 119.63512 -33.616744 z M 129.63503 -33.616744 C 131.01574 -33.616744 132.13513 -32.497348 132.13513 -31.116638 C 132.13513 -29.73593 131.01574 -28.617049 129.63503 -28.617049 C 128.25433 -28.617049 127.13492 -29.73593 127.13492 -31.116638 C 127.13492 -32.497348 128.25433 -33.616744 129.63503 -33.616744 z M 99.63531 -23.616838 C 101.01602 -23.616838 102.1349 -22.497442 102.1349 -21.116732 C 102.1349 -19.736022 101.01602 -18.616626 99.63531 -18.616626 C 98.254605 -18.616626 97.135204 -19.736022 97.135204 -21.116732 C 97.135204 -22.497442 98.254605 -23.616838 99.63531 -23.616838 z M 129.63503 -23.616838 C 131.01574 -23.616838 132.13513 -22.497442 132.13513 -21.116732 C 132.13513 -19.736022 131.01574 -18.616626 129.63503 -18.616626 C 128.25433 -18.616626 127.13492 -19.736022 127.13492 -21.116732 C 127.13492 -22.497442 128.25433 -23.616838 129.63503 -23.616838 z M 114.63491 -21.116732 C 117.39637 -21.116732 119.63512 -18.878489 119.63512 -16.117037 C 119.63512 -13.355586 117.39637 -11.116826 114.63491 -11.116826 C 111.87346 -11.116826 109.63522 -13.355586 109.63522 -16.117037 C 109.63522 -18.878489 111.87346 -21.116732 114.63491 -21.116732 z M 99.63531 -13.616931 C 101.01602 -13.616931 102.1349 -12.497534 102.1349 -11.116826 C 102.1349 -9.7361161 101.01602 -8.6167198 99.63531 -8.6167198 C 98.254605 -8.6167198 97.135204 -9.7361161 97.135204 -11.116826 C 97.135204 -12.497534 98.254605 -13.616931 99.63531 -13.616931 z M 129.63503 -13.616931 C 131.01574 -13.616931 132.13513 -12.497534 132.13513 -11.116826 C 132.13513 -9.7361161 131.01574 -8.6167198 129.63503 -8.6167198 C 128.25433 -8.6167198 127.13492 -9.7361161 127.13492 -11.116826 C 127.13492 -12.497534 128.25433 -13.616931 129.63503 -13.616931 z M 99.63531 -3.617025 C 101.01602 -3.617025 102.1349 -2.4976288 102.1349 -1.1169192 C 102.1349 0.26378944 101.01602 1.3831866 99.63531 1.3831866 C 98.254605 1.3831866 97.135204 0.26378944 97.135204 -1.1169192 C 97.135204 -2.4976288 98.254605 -3.617025 99.63531 -3.617025 z M 109.63522 -3.617025 C 111.01592 -3.617025 112.13532 -2.4976288 112.13532 -1.1169192 C 112.13532 0.26378944 111.01592 1.3831866 109.63522 1.3831866 C 108.25452 1.3831866 107.13511 0.26378944 107.13511 -1.1169192 C 107.13511 -2.4976288 108.25452 -3.617025 109.63522 -3.617025 z M 119.63512 -3.617025 C 121.01583 -3.617025 122.13523 -2.4976288 122.13523 -1.1169192 C 122.13523 0.26378944 121.01583 1.3831866 119.63512 1.3831866 C 118.25442 1.3831866 117.13502 0.26378944 117.13502 -1.1169192 C 117.13502 -2.4976288 118.25442 -3.617025 119.63512 -3.617025 z M 129.63503 -3.617025 C 131.01574 -3.617025 132.13513 -2.4976288 132.13513 -1.1169192 C 132.13513 0.26378944 131.01574 1.3831866 129.63503 1.3831866 C 128.25433 1.3831866 127.13492 0.26378944 127.13492 -1.1169192 C 127.13492 -2.4976288 128.25433 -3.617025 129.63503 -3.617025 z " /></g></svg>
