<?xml version="1.0" encoding="UTF-8" standalone="no"?>
<!-- Created with Inkscape (http://www.inkscape.org/) -->

<svg
   width="46mm"
   height="46mm"
   viewBox="0 0 46 46"
   version="1.1"
   id="svg1"
   inkscape:version="1.3 (0e150ed6c4, 2023-07-21)"
   sodipodi:docname="winder--base--coupling.svg"
   xmlns:inkscape="http://www.inkscape.org/namespaces/inkscape"
   xmlns:sodipodi="http://sodipodi.sourceforge.net/DTD/sodipodi-0.dtd"
   xmlns="http://www.w3.org/2000/svg"
   xmlns:svg="http://www.w3.org/2000/svg">
  <sodipodi:namedview
     id="namedview1"
     pagecolor="#ffffff"
     bordercolor="#000000"
     borderopacity="0.25"
     inkscape:showpageshadow="2"
     inkscape:pageopacity="0.0"
     inkscape:pagecheckerboard="0"
     inkscape:deskcolor="#d1d1d1"
     inkscape:document-units="mm"
     showgrid="true"
     inkscape:zoom="3.2252323"
     inkscape:cx="49.918885"
     inkscape:cy="55.189824"
     inkscape:window-width="2496"
     inkscape:window-height="1558"
     inkscape:window-x="-11"
     inkscape:window-y="-11"
     inkscape:window-maximized="1"
     inkscape:current-layer="layer1">
    <inkscape:grid
       id="grid1"
       units="mm"
       originx="0"
       originy="-6.608137e-06"
       spacingx="0.99999998"
       spacingy="1"
       empcolor="#0099e5"
       empopacity="0.30196078"
       color="#0099e5"
       opacity="0.14901961"
       empspacing="10"
       dotted="false"
       gridanglex="30"
       gridanglez="30"
       visible="true" />
  </sodipodi:namedview>
  <defs
     id="defs1" />
  <g
     inkscape:label="Layer 1"
     inkscape:groupmode="layer"
     id="layer1"
     transform="translate(0,-251)">
    <path
       id="path1"
       style="vector-effect:non-scaling-stroke;fill:#808080;fill-rule:evenodd;stroke:none;stroke-width:0.061272;stroke-linecap:round;stroke-linejoin:round;-inkscape-stroke:hairline;paint-order:stroke fill markers"
       d="m -1.9998649,274.00022 v 1.14308 c -10.5318141,0.9846 -18.8724571,9.32489 -19.8570601,19.85667 H -23 v 4.00027 h 1.143075 c 0.984603,10.53178 9.325246,18.87207 19.8570601,19.85667 V 320 h 4.0002466 v -1.14309 C 12.532196,317.87231 20.872325,309.53202 21.856925,299.00024 H 23 v -4.00027 H 21.9055 C 20.939209,284.4327 12.567683,276.06102 2.0003817,275.09473 v -1.09451 z m 2.00141527,7.00009 c 8.83553173,5.3e-4 15.99836163,7.163 15.99892163,15.99851 0.001,8.83667 -7.1622859,16.00107 -15.99892163,16.0016 -8.83770377,9.6e-4 -16.00198837,-7.16386 -16.00098837,-16.0016 5.6e-4,-8.83657 7.1643886,-15.99947 16.00098837,-15.99851 z" />
  </g>
</svg>
