<?xml version="1.0" encoding="UTF-8" standalone="no"?>
<!-- Created with Inkscape (http://www.inkscape.org/) -->

<svg
   width="40mm"
   height="40mm"
   viewBox="0 0 40 40"
   version="1.1"
   id="svg1"
   inkscape:version="1.3 (0e150ed6c4, 2023-07-21)"
   sodipodi:docname="logo--nyc-resistor.svg"
   xml:space="preserve"
   xmlns:inkscape="http://www.inkscape.org/namespaces/inkscape"
   xmlns:sodipodi="http://sodipodi.sourceforge.net/DTD/sodipodi-0.dtd"
   xmlns="http://www.w3.org/2000/svg"
   xmlns:svg="http://www.w3.org/2000/svg"><sodipodi:namedview
     id="namedview1"
     pagecolor="#ffffff"
     bordercolor="#000000"
     borderopacity="0.25"
     inkscape:showpageshadow="2"
     inkscape:pageopacity="0.0"
     inkscape:pagecheckerboard="0"
     inkscape:deskcolor="#d1d1d1"
     inkscape:document-units="mm"
     showgrid="true"
     inkscape:zoom="2.8284271"
     inkscape:cx="42.77996"
     inkscape:cy="-13.788582"
     inkscape:window-width="2496"
     inkscape:window-height="1558"
     inkscape:window-x="-11"
     inkscape:window-y="-11"
     inkscape:window-maximized="1"
     inkscape:current-layer="svg1"><inkscape:grid
       id="grid1"
       units="mm"
       originx="0"
       originy="0"
       spacingx="0.99999997"
       spacingy="0.99999997"
       empcolor="#0099e5"
       empopacity="0.30196078"
       color="#0099e5"
       opacity="0.14902"
       empspacing="10"
       dotted="false"
       gridanglex="30"
       gridanglez="30"
       visible="true" /></sodipodi:namedview><defs
     id="defs1"><inkscape:path-effect
   effect="copy_rotate"
   starting_point="22.499999,277"
   origin="19.999999,277"
   id="path-effect3"
   is_visible="true"
   lpeversion="1.2"
   lpesatellites=""
   method="normal"
   num_copies="4"
   starting_angle="0"
   rotation_angle="90"
   gap="-0.01"
   copies_to_360="true"
   mirror_copies="false"
   split_items="false"
   link_styles="false" /><inkscape:path-effect
   effect="copy_rotate"
   starting_point="22.499999,277"
   origin="19.999999,277"
   id="path-effect1"
   is_visible="true"
   lpeversion="1.2"
   lpesatellites=""
   method="normal"
   num_copies="4"
   starting_angle="0"
   rotation_angle="90"
   gap="-0.01"
   copies_to_360="true"
   mirror_copies="false"
   split_items="false"
   link_styles="false" /><inkscape:path-effect
   effect="copy_rotate"
   starting_point="22.499999,277"
   origin="19.999999,277"
   id="path-effect1-8"
   is_visible="true"
   lpeversion="1.2"
   lpesatellites=""
   method="normal"
   num_copies="4"
   starting_angle="0"
   rotation_angle="90"
   gap="-0.01"
   copies_to_360="true"
   mirror_copies="false"
   split_items="false"
   link_styles="false" /><inkscape:path-effect
   effect="copy_rotate"
   starting_point="22.499999,277"
   origin="19.999999,277"
   id="path-effect3-0"
   is_visible="true"
   lpeversion="1.2"
   lpesatellites=""
   method="normal"
   num_copies="4"
   starting_angle="0"
   rotation_angle="90"
   gap="-0.01"
   copies_to_360="true"
   mirror_copies="false"
   split_items="false"
   link_styles="false" /><style
   type="text/css"
   id="style1">&#10;   <![CDATA[
    .str0 {stroke:#373435;stroke-width:17.63;stroke-linecap:round;stroke-linejoin:round;stroke-miterlimit:2.61313}
    .fil0 {fill:none}
    .fil1 {fill:#424041}
   ]]>&#10;  </style>&#10;   &#10;   &#10;  <style
   type="text/css"
   id="style1-5">&#10;   <![CDATA[
    .str0 {stroke:#373435;stroke-width:17.57;stroke-linecap:round;stroke-linejoin:round;stroke-miterlimit:2.61313}
    .fil0 {fill:none}
    .fil3 {fill:#424041}
    .fil1 {fill:#858182}
    .fil2 {fill:white}
   ]]>&#10;  </style>&#10;   &#10;   &#10;   &#10;   &#10;   &#10;   &#10;   &#10;   &#10;   &#10;   &#10;   &#10;   &#10;   &#10;   &#10;   &#10;  </defs><path
     id="path2"
     style="clip-rule:evenodd;fill:#000000;fill-rule:evenodd;stroke-width:0.0100328;image-rendering:optimizeQuality;shape-rendering:geometricPrecision;text-rendering:geometricPrecision"
     class="fil1"
     d="m 20.082268,10.000152 c -0.122164,-9.432e-4 -0.244259,5.32e-4 -0.366386,0.0047 -1.519807,0.05124 -3.028873,0.494055 -4.332553,1.333252 -0.508961,0.327672 -1.079016,0.770506 -1.497582,1.206128 -0.637284,0.662667 -1.148934,1.325222 -1.576132,2.190048 -1.112836,2.252156 -1.228252,4.730292 -0.306441,7.086388 0.205472,0.524817 0.460755,0.983394 0.731738,1.425236 0.318341,0.519198 0.498174,0.676616 0.813904,1.07642 0.04374,0.05538 0.08139,0.08621 0.127641,0.137977 0.649722,0.727178 1.532834,1.391443 2.455147,1.857768 2.200892,1.112833 4.792479,1.215189 7.085873,0.302307 0.75918,-0.301988 1.76512,-0.878859 2.360062,-1.422136 0.213599,-0.195135 0.344483,-0.295972 0.56069,-0.517797 0.244098,-0.25072 0.550112,-0.58583 0.747758,-0.86093 0.342618,-0.476756 0.550193,-0.769829 0.829407,-1.327051 0.506385,-1.010766 0.819996,-2.10583 0.90382,-3.397726 v -5.21e-4 C 28.702887,17.806517 28.446847,16.471079 28.0177,15.410153 27.399682,13.88236 26.472827,12.716744 25.216321,11.74216 23.739999,10.59693 21.914723,10.014239 20.082268,10.000147 Z m 0.596345,6.42028 c 0.0063,5.82e-4 0.01203,0.0029 0.01809,0.0041 0.0063,0.0013 0.01259,0.0021 0.0186,0.0041 0.01728,0.0057 0.03323,0.01422 0.04858,0.0248 0.0049,0.0034 0.0097,0.007 0.01447,0.01085 0.0086,0.0069 0.0163,0.01556 0.02429,0.02377 0.01233,0.01271 0.02417,0.02576 0.03514,0.04083 0.0068,0.0094 0.0133,0.0189 0.01964,0.02894 0.0074,0.01175 0.0139,0.02326 0.02067,0.03566 0.02354,0.04291 0.04305,0.08541 0.05994,0.128158 0.01617,0.04082 0.02876,0.07413 0.04031,0.10387 0.0028,0.0071 0.0067,0.01868 0.0093,0.0248 1.1e-4,2.61e-4 4.11e-4,7.72e-4 5.22e-4,0.001 l 0.556038,1.283643 5.22e-4,0.001 c 0.126038,0.286473 0.244681,0.569065 0.371036,0.855244 1.61e-4,3.52e-4 3.61e-4,6.83e-4 5.22e-4,0.001 0.03002,0.06802 0.111094,0.263333 0.191203,0.450619 0.03124,0.07304 0.06001,0.138584 0.08785,0.201022 0.04363,0.09781 0.08148,0.178932 0.09715,0.199471 0.201964,-0.559357 0.393079,-1.12063 0.58446,-1.682068 0.144322,-0.423638 0.289414,-0.847547 0.4408,-1.270207 0.0095,-0.02667 0.0183,-0.05344 0.0279,-0.0801 0.03448,-0.09572 0.06026,-0.208247 0.113689,-0.285771 0.01369,-0.01973 0.02949,-0.03707 0.04754,-0.05116 0.0029,-0.0023 0.0047,-0.0061 0.0078,-0.0083 0.03572,-0.02468 0.07251,-0.03532 0.108521,-0.03824 0.02706,-0.0023 0.05353,6.42e-4 0.07855,0.0083 0.0057,0.0017 0.01101,0.0035 0.01654,0.0057 0.02401,0.0094 0.04589,0.02317 0.06563,0.03979 0.0039,0.0033 0.0076,0.0063 0.01137,0.0098 0.01996,0.019 0.0371,0.04125 0.04961,0.06563 8.43e-4,0.0017 0.0023,0.003 0.0031,0.0047 0.03306,0.06908 0.06392,0.143561 0.0956,0.216524 0.01976,0.0455 0.04058,0.08879 0.05994,0.134875 l 5.21e-4,5.11e-4 c 0.05032,0.119782 0.09934,0.240411 0.148311,0.355534 v 5.22e-4 c 0.0434,0.102302 0.08824,0.203945 0.132292,0.305408 0.0576,0.13288 0.114673,0.265523 0.173116,0.399976 l 5.22e-4,5.11e-4 c 0.03458,0.07975 0.09205,0.226261 0.150895,0.366903 1.71e-4,4.12e-4 3.41e-4,6.22e-4 5.22e-4,0.001 0.02945,0.07037 0.05915,0.139291 0.0863,0.197404 v 5.21e-4 c 0.02695,0.05765 0.05161,0.104764 0.0708,0.132293 l 1.087788,-5.22e-4 c 0.04463,-0.116253 0.08618,-0.212294 0.13591,-0.294555 v -5.22e-4 c 0.04983,-0.08234 0.108125,-0.150728 0.187585,-0.210322 0.401445,-0.301138 0.904867,-0.211534 1.191658,0.100251 0.07811,0.08491 0.140364,0.186274 0.179834,0.300757 0.007,0.02025 0.01149,0.042 0.01705,0.06305 0.0048,0.01829 0.0108,0.03591 0.01447,0.05478 0.0061,0.03128 0.0091,0.06386 0.01188,0.09664 8.63e-4,0.01015 0.0031,0.01968 0.0036,0.02997 0,3.51e-4 0,6.82e-4 0,0.001 0.0031,0.05996 4.41e-4,0.117891 -0.0072,0.173633 0,3.31e-4 0,7.02e-4 0,0.001 -0.0077,0.05571 -0.02092,0.109296 -0.03824,0.160197 -0.104649,0.307565 -0.373158,0.521617 -0.678511,0.578259 -0.487394,0.0904 -0.888774,-0.243444 -0.989604,-0.601513 -0.0675,-0.0013 -0.135785,-5.62e-4 -0.203605,-0.001 -0.203495,-0.0014 -0.407175,-0.0019 -0.610815,-0.001 -0.06789,2.91e-4 -0.135984,0.001 -0.203605,0.001 -0.308948,0 -0.389704,-0.01212 -0.450619,-0.117305 -1.7e-4,-2.91e-4 -3.51e-4,-7.42e-4 -5.12e-4,-0.001 -4.11e-4,-7.02e-4 -6.22e-4,-0.0019 -0.001,-0.0026 -0.03585,-0.06314 -0.06595,-0.15842 -0.131866,-0.303839 -0.206776,-0.456691 -0.394169,-0.964005 -0.612882,-1.410766 -0.04866,0.07294 -0.876264,2.508477 -0.952914,2.724381 -0.05889,0.165642 -0.174289,0.590701 -0.274918,0.653707 -0.07261,0.04549 -0.134487,0.05043 -0.187069,0.03152 -0.02629,-0.0095 -0.04994,-0.02464 -0.07183,-0.04444 -0.02167,-0.01944 -0.04114,-0.04287 -0.05891,-0.06873 l -5.22e-4,-5.21e-4 c -6.52e-4,-9.54e-4 -9.02e-4,-0.0021 -0.0016,-0.0031 -0.03471,-0.05151 -0.06285,-0.111517 -0.08475,-0.165881 v -5.22e-4 c -0.02219,-0.05512 -0.03843,-0.10406 -0.05064,-0.132808 -1.51e-4,-3.51e-4 -3.72e-4,-6.82e-4 -5.22e-4,-0.001 -0.04681,-0.10977 -0.0982,-0.223529 -0.146244,-0.334347 -0.167889,-0.387282 -0.338387,-0.777027 -0.511034,-1.168954 -0.222061,-0.504102 -0.441329,-1.006428 -0.640271,-1.494482 -5.51e-4,7.02e-4 -0.0035,0.0082 -0.0041,0.0093 -0.01521,0.02318 -0.06898,0.165487 -0.141593,0.367419 -0.08244,0.229413 -0.189368,0.535393 -0.300758,0.857829 v 5.21e-4 c -0.214537,0.621031 -0.440158,1.285038 -0.513147,1.492417 -0.02944,0.08394 -0.07381,0.232561 -0.122472,0.367936 -0.04883,0.136142 -0.101986,0.258684 -0.149862,0.288354 -0.288241,0.178383 -0.400204,-0.260311 -0.455786,-0.386022 l -1.11156,-2.570904 c -0.03251,-0.07334 -0.06122,-0.138628 -0.08992,-0.208256 -0.01435,-0.03431 -0.028,-0.06344 -0.04496,-0.103869 -0.0089,-0.02047 -0.01489,-0.03965 -0.02532,-0.05891 l -0.02894,-0.04238 c -0.0617,0.09571 -0.218775,0.606287 -0.272852,0.761194 l -0.781894,2.253095 c -0.04063,0.114374 -0.07445,0.286126 -0.164848,0.349333 -0.13464,0.09401 -0.283139,0.01541 -0.336413,-0.09405 -0.142265,-0.291555 -0.870241,-2.089715 -0.932244,-2.110984 l -1.07797,0.0088 c -0.118086,0.271593 -0.121625,0.340757 -0.326595,0.501783 -0.151696,0.119391 -0.385903,0.203591 -0.63562,0.1757 -0.315306,-0.0354 -0.587836,-0.242538 -0.710034,-0.531751 -0.02026,-0.04781 -0.03653,-0.09795 -0.04806,-0.149861 -10e-5,-3.31e-4 10e-5,-7.02e-4 0,-0.001 -0.01147,-0.05193 -0.01841,-0.1055 -0.02015,-0.160714 0,-3.51e-4 10e-6,-6.82e-4 0,-0.001 -0.0013,-0.04392 5.72e-4,-0.08688 0.0052,-0.128673 0,-3.42e-4 0,-6.93e-4 0,-0.001 0.0046,-0.04177 0.01213,-0.08208 0.02222,-0.121441 0.142445,-0.555833 0.80481,-0.857319 1.342553,-0.507462 0.0052,0.0034 0.0074,0.0065 0.0124,0.0098 0.049,0.03296 0.08824,0.06575 0.120406,0.09767 0.0083,0.0083 0.01639,0.0166 0.02377,0.0248 0.02853,0.0315 0.05128,0.06255 0.07028,0.09353 0.04803,0.07873 0.07581,0.156252 0.126607,0.236161 0.261857,0.03251 0.727598,0.0052 1.011824,0.0052 0.01808,0 0.02425,0.0015 0.04082,0.0016 0.08138,3.81e-4 0.146482,0.0026 0.197921,0.0078 0.07621,0.008 0.131732,0.02291 0.167948,0.05426 0.0162,0.01403 0.03001,0.03083 0.04289,0.05168 v 5.22e-4 c 0.01287,0.0209 0.02527,0.04535 0.03773,0.07441 v 5.22e-4 c 0.02501,0.0584 0.05209,0.134216 0.09302,0.233577 0.101336,0.246057 0.212741,0.493761 0.322977,0.74104 0.09535,0.213804 0.189107,0.426936 0.273886,0.63872 0.0042,0.01059 0.0092,0.02146 0.01344,0.03204 l 0.09198,-0.229443 v 0.001 l 5.21e-4,-5.22e-4 c 0.02719,-0.07765 0.05243,-0.147017 0.07752,-0.220658 0.05177,-0.150893 0.105327,-0.303117 0.157097,-0.45682 l 0.633553,-1.821077 c 0.03349,-0.09453 0.06332,-0.194259 0.09457,-0.289388 0.02495,-0.07606 0.05131,-0.146957 0.08113,-0.208256 0.02172,-0.04456 0.04548,-0.08467 0.07235,-0.115239 0.01804,-0.0205 0.03773,-0.03739 0.05891,-0.04961 0.0036,-0.0021 0.0072,-0.0039 0.01085,-0.0057 0.02344,-0.0115 0.04848,-0.01786 0.07648,-0.01757 0.0029,0 0.0059,-1.6e-4 0.0088,0 0.02893,0.0016 0.06053,0.0098 0.09508,0.02584 0.0017,7.93e-4 0.0029,7.23e-4 0.0047,0.0016 0.01501,0.0072 0.03141,0.02352 0.04909,0.04599 0.01146,0.01453 0.02394,0.03571 0.03618,0.05529 0.0064,0.01033 0.01252,0.01744 0.01912,0.02894 l 5.22e-4,5.22e-4 c 0.03844,0.06704 0.07914,0.152137 0.118339,0.240813 1.7e-4,3.81e-4 3.51e-4,6.52e-4 5.22e-4,0.001 0.01351,0.03059 0.01906,0.04631 0.03204,0.077 0.06229,0.14735 0.124426,0.304358 0.152963,0.370003 l 0.74104,1.714107 c 0.02874,0.0662 0.09453,0.226835 0.15813,0.379306 0.01255,0.03009 0.01826,0.04481 0.03101,0.07493 1.8e-4,4.31e-4 3.31e-4,6.02e-4 5.21e-4,0.001 0.03851,0.09099 0.0768,0.179513 0.110071,0.250631 2.01e-4,4.21e-4 3.21e-4,0.0011 5.22e-4,0.0015 0.03299,0.07039 0.06123,0.124028 0.07855,0.144694 0.319043,-0.853187 0.637105,-1.845722 0.95033,-2.731616 0.03333,-0.09427 0.07577,-0.239906 0.12299,-0.370521 0.03555,-0.09835 0.07407,-0.187732 0.114204,-0.240812 0.01344,-0.01777 0.02657,-0.03184 0.04031,-0.04031 0.0039,-0.0024 0.007,-0.002 0.01085,-0.0041 0.02793,-0.0159 0.05392,-0.02618 0.07855,-0.03101 0.0026,-4.91e-4 0.0057,-0.0027 0.0083,-0.0031 0.0041,-6.22e-4 0.0074,8.63e-4 0.01137,5.22e-4 0.01083,-9.73e-4 0.02184,-0.002 0.03204,-0.001 z m -7.403682,1.353923 c -0.02565,4.31e-4 -0.05185,0.003 -0.07855,0.0078 v 5.21e-4 c -0.680222,0.120596 -0.467658,1.091657 0.166917,0.973069 0.239282,-0.04475 0.450374,-0.28185 0.394291,-0.580326 -0.04082,-0.216395 -0.234749,-0.405148 -0.482658,-0.401009 z m 13.449308,0.593762 c -0.03449,4.72e-4 -0.06993,0.0046 -0.106453,0.01292 -0.667783,0.152098 -0.410821,1.116205 0.220142,0.961699 0.233864,-0.05709 0.433399,-0.295186 0.362768,-0.593762 -0.04863,-0.206212 -0.235001,-0.384172 -0.476457,-0.380855 z m -4.016809,9.518282 c -0.103933,0.0021 -0.2087,0.02488 -0.305924,0.07441 -0.233359,0.118889 -0.423798,0.449479 -0.260966,0.7922 0.153703,0.323558 0.49807,0.251221 0.700733,0.476457 0.127513,0.141659 -0.03481,0.320681 -0.167949,0.330212 -0.174969,0.01244 -0.294002,-0.140141 -0.381889,-0.19482 -0.05488,0.05919 -0.25062,0.281937 -0.28112,0.346749 0.04996,0.02789 0.113415,0.08908 0.169499,0.129708 0.20497,0.148582 0.461881,0.200833 0.708484,0.115755 0.246405,-0.08478 0.525429,-0.360588 0.456303,-0.716752 -0.06913,-0.355262 -0.33944,-0.403935 -0.635103,-0.559139 -0.114274,-0.0599 -0.268491,-0.201194 -0.120407,-0.350883 0.131129,-0.132333 0.314206,0.03179 0.434599,0.06821 l 0.238745,-0.257349 c 0.03134,-0.03636 0.008,10e-5 0.02842,-0.03927 -0.130432,-0.125536 -0.354774,-0.220213 -0.583427,-0.215491 z m -6.781498,0.0047 c -0.992275,0.01909 -1.379738,1.369211 -0.521415,1.95802 0.376732,0.258341 0.716585,0.126509 1.122412,0.03411 l -5.11e-4,-0.49196 v -5.22e-4 c -0.112769,0.03582 -0.207479,0.106184 -0.346233,0.145211 -0.415258,0.117083 -0.80026,-0.09537 -0.786515,-0.605131 0.0081,-0.302288 0.146088,-0.509665 0.380856,-0.579293 0.315528,-0.09351 0.529479,0.08407 0.752408,0.167948 l -0.0026,-0.483691 c -0.104943,-0.08227 -0.386218,-0.140881 -0.550355,-0.144694 -0.01605,-3.71e-4 -0.03231,-3.01e-4 -0.04806,0 z m 4.583183,0 c -0.106013,0.0027 -0.209883,0.0236 -0.299206,0.06718 -0.236173,0.115574 -0.429043,0.437574 -0.268718,0.786515 0.153702,0.33449 0.519455,0.26848 0.701249,0.476456 0.123404,0.141162 -0.01812,0.323402 -0.15968,0.337448 -0.180089,0.01746 -0.30758,-0.143493 -0.376204,-0.192754 -0.04926,0.03843 -0.26232,0.280255 -0.293522,0.33383 0.05769,0.07625 0.227367,0.190518 0.343647,0.239779 0.16183,0.06883 0.344074,0.07887 0.515731,0.02429 0.258144,-0.08197 0.534718,-0.355456 0.475424,-0.716236 -0.05869,-0.357364 -0.3466,-0.410358 -0.633036,-0.562756 -0.118588,-0.06301 -0.273282,-0.223051 -0.122991,-0.360702 0.134139,-0.122701 0.320893,0.03931 0.447001,0.07803 h 5.22e-4 c 0.101127,-0.148582 0.203898,-0.204929 0.254764,-0.30024 -0.109671,-0.132916 -0.351748,-0.216769 -0.584977,-0.21084 z m 5.355746,0.0057 c -0.546621,4.41e-4 -0.955711,0.391904 -1.016993,0.8847 -0.08026,0.646711 0.312423,1.136486 0.870749,1.205612 0.644704,0.07976 1.100568,-0.333565 1.178222,-0.890386 h 5.21e-4 c 0.08789,-0.628853 -0.329233,-1.109855 -0.858861,-1.187007 -0.05927,-0.0086 -0.117086,-0.01297 -0.173633,-0.01292 z m 1.659329,0.01085 c -0.145582,0.0012 -0.296215,0.0092 -0.442349,0.0098 l 0.0057,2.054655 h 0.431498 c 0.02538,-0.179584 -0.03042,-0.674901 0.01654,-0.791683 0.06431,0.0069 0.06336,0.03097 0.09767,0.08475 l 0.198954,0.298173 c 0.0912,0.136141 0.176351,0.268687 0.273368,0.408243 l 0.502295,-0.0016 c -0.07194,-0.150894 -0.497744,-0.719883 -0.562756,-0.861446 l -5.22e-4,-5.22e-4 c 0.420876,-0.152398 0.459241,-0.714498 0.268718,-0.95498 -0.172577,-0.217756 -0.46881,-0.248205 -0.7891,-0.245464 z m -10.4991,0.0026 c -0.103707,0.0011 -0.196548,0.0052 -0.249597,0.01395 l 0.0026,2.046903 0.435115,0.001 c 0.01876,-0.162829 -0.01665,-0.727965 0.02067,-0.794783 0.08046,0.02027 0.517328,0.719537 0.56689,0.794783 h 0.497644 l -0.559656,-0.853177 c 0.175976,-0.104141 0.273319,-0.162548 0.343649,-0.384474 0.129022,-0.406927 -0.08176,-0.791059 -0.582394,-0.814937 -0.09939,-0.0048 -0.302063,-0.01114 -0.474906,-0.0093 z m -4.061251,0.0021 c -0.08836,0 -0.177471,0.0044 -0.219108,0.01137 l -10e-4,1.293461 -0.93431,-1.298113 -0.444418,0.001 0.0036,2.051037 0.438733,-0.0015 v -1.312065 c 0.04796,0.03712 0.09665,0.1194 0.128157,0.164849 l 0.810287,1.148766 0.431498,-0.0057 0.001,-2.038118 c -0.03822,-0.01064 -0.126093,-0.01501 -0.214457,-0.01499 z m 8.851656,0.0047 -0.443384,0.0093 0.0026,2.04432 0.440799,0.0016 z m -8.064624,5.21e-4 -0.463537,0.0015 0.505395,0.853695 v 5.22e-4 c 0.154204,0.257041 0.14211,0.183137 0.14211,0.539502 0,0.199047 -0.01473,0.467232 0.0041,0.658357 l 0.433048,-0.0046 10e-4,-0.836125 c 0,-0.176778 0.05736,-0.214506 0.132809,-0.339515 0.138653,-0.229145 0.414785,-0.673357 0.515214,-0.869197 l -0.492477,-0.0031 c -0.03712,0.0917 -0.126851,0.219167 -0.182934,0.313676 l -0.196887,0.306957 c -0.07946,-0.10113 -0.332897,-0.58615 -0.397909,-0.621667 z m 5.902999,0 -1.156001,0.0031 0.0036,2.05052 1.151867,-0.001 -0.0021,-0.405143 -0.710552,-5.22e-4 5.22e-4,-0.425297 0.712101,-5.21e-4 -0.0052,-0.399975 -0.708484,-0.02325 0.0088,-0.390675 0.705384,-0.0036 z m 3.760494,5.22e-4 v 0.283187 0.152446 l 0.467155,0.0031 0.0067,1.615405 0.436666,-0.0067 0.0057,-1.611271 0.465088,-0.0036 5.22e-4,-0.430982 z m -6.113322,0.364835 c 0.183799,-0.0014 0.349269,0.05912 0.361735,0.235128 0.01595,0.225337 -0.155759,0.31632 -0.378788,0.301274 l -0.06253,-0.0057 v -0.526067 c 0.02661,-0.0026 0.05332,-0.0044 0.07958,-0.0047 z m 10.226766,5.22e-4 h 0.05736 c 0.225337,-5.02e-4 0.406384,0.05791 0.382405,0.29869 -0.02207,0.221223 -0.213927,0.237465 -0.439766,0.236161 z m -1.651062,0.02015 c 0.699802,-0.01495 0.775497,1.15659 0.100769,1.276408 -0.376431,0.06682 -0.632164,-0.199597 -0.671794,-0.522448 -0.04796,-0.39138 0.137156,-0.683899 0.463021,-0.742591 0.03742,-0.0067 0.07359,-0.01063 0.108004,-0.01137 z"
     inkscape:label="logo--nyc-resistor" /></svg>
