<?xml version="1.0" encoding="UTF-8" standalone="no"?>
<!-- Created with Inkscape (http://www.inkscape.org/) -->

<svg
   width="40mm"
   height="40mm"
   viewBox="0 0 40 40"
   version="1.1"
   id="svg1"
   inkscape:version="1.3 (0e150ed6c4, 2023-07-21)"
   sodipodi:docname="logo--os.svg"
   xml:space="preserve"
   xmlns:inkscape="http://www.inkscape.org/namespaces/inkscape"
   xmlns:sodipodi="http://sodipodi.sourceforge.net/DTD/sodipodi-0.dtd"
   xmlns="http://www.w3.org/2000/svg"
   xmlns:svg="http://www.w3.org/2000/svg"><sodipodi:namedview
     id="namedview1"
     pagecolor="#ffffff"
     bordercolor="#000000"
     borderopacity="0.25"
     inkscape:showpageshadow="2"
     inkscape:pageopacity="0.0"
     inkscape:pagecheckerboard="0"
     inkscape:deskcolor="#d1d1d1"
     inkscape:document-units="mm"
     showgrid="true"
     inkscape:zoom="4"
     inkscape:cx="58.5"
     inkscape:cy="68.250001"
     inkscape:window-width="2496"
     inkscape:window-height="1558"
     inkscape:window-x="-11"
     inkscape:window-y="-11"
     inkscape:window-maximized="1"
     inkscape:current-layer="Layer_x0020_1"><inkscape:grid
       id="grid1"
       units="mm"
       originx="0"
       originy="0"
       spacingx="0.99999997"
       spacingy="0.99999997"
       empcolor="#0099e5"
       empopacity="0.30196078"
       color="#0099e5"
       opacity="0.14902"
       empspacing="10"
       dotted="false"
       gridanglex="30"
       gridanglez="30"
       visible="true" /></sodipodi:namedview><defs
     id="defs1"><inkscape:path-effect
   effect="copy_rotate"
   starting_point="22.499999,277"
   origin="19.999999,277"
   id="path-effect3"
   is_visible="true"
   lpeversion="1.2"
   lpesatellites=""
   method="normal"
   num_copies="4"
   starting_angle="0"
   rotation_angle="90"
   gap="-0.01"
   copies_to_360="true"
   mirror_copies="false"
   split_items="false"
   link_styles="false" /><inkscape:path-effect
   effect="copy_rotate"
   starting_point="22.499999,277"
   origin="19.999999,277"
   id="path-effect1"
   is_visible="true"
   lpeversion="1.2"
   lpesatellites=""
   method="normal"
   num_copies="4"
   starting_angle="0"
   rotation_angle="90"
   gap="-0.01"
   copies_to_360="true"
   mirror_copies="false"
   split_items="false"
   link_styles="false" /><inkscape:path-effect
   effect="copy_rotate"
   starting_point="22.499999,277"
   origin="19.999999,277"
   id="path-effect1-8"
   is_visible="true"
   lpeversion="1.2"
   lpesatellites=""
   method="normal"
   num_copies="4"
   starting_angle="0"
   rotation_angle="90"
   gap="-0.01"
   copies_to_360="true"
   mirror_copies="false"
   split_items="false"
   link_styles="false" /><inkscape:path-effect
   effect="copy_rotate"
   starting_point="22.499999,277"
   origin="19.999999,277"
   id="path-effect3-0"
   is_visible="true"
   lpeversion="1.2"
   lpesatellites=""
   method="normal"
   num_copies="4"
   starting_angle="0"
   rotation_angle="90"
   gap="-0.01"
   copies_to_360="true"
   mirror_copies="false"
   split_items="false"
   link_styles="false" /><style
   type="text/css"
   id="style1">&#10;   <![CDATA[
    .str0 {stroke:#373435;stroke-width:17.63;stroke-linecap:round;stroke-linejoin:round;stroke-miterlimit:2.61313}
    .fil0 {fill:none}
    .fil1 {fill:#424041}
   ]]>&#10;  </style>&#10;   &#10;   &#10;  <style
   type="text/css"
   id="style1-5">&#10;   <![CDATA[
    .str0 {stroke:#373435;stroke-width:17.57;stroke-linecap:round;stroke-linejoin:round;stroke-miterlimit:2.61313}
    .fil0 {fill:none}
    .fil3 {fill:#424041}
    .fil1 {fill:#858182}
    .fil2 {fill:white}
   ]]>&#10;  </style>&#10;   &#10;   &#10;   &#10;   &#10;   &#10;   &#10;   &#10;   &#10;   &#10;   &#10;   &#10;   &#10;   &#10;   &#10;   &#10;  <filter
   id="selectable_hidder_filter"
   width="1"
   height="1"
   x="0"
   y="0"
   style="color-interpolation-filters:sRGB;"
   inkscape:label="LPE boolean visibility"><feComposite
     id="boolops_hidder_primitive"
     result="composite1"
     operator="arithmetic"
     in2="SourceGraphic"
     in="BackgroundImage" /></filter><inkscape:path-effect
   effect="bool_op"
   operand-path=""
   id="path-effect29"
   is_visible="true"
   lpeversion="1"
   operation="union"
   swap-operands="false"
   filltype-this="from-curve"
   filter=""
   filltype-operand="from-curve" /><inkscape:path-effect
   effect="knot"
   id="path-effect28"
   is_visible="true"
   lpeversion="1"
   switcher_size="15.8"
   interruption_width="4"
   prop_to_stroke_width="true"
   add_stroke_width="inkscape_1.0_and_up"
   both="false"
   inverse_width="false"
   add_other_stroke_width="inkscape_1.0_and_up"
   crossing_points_vector="" /><inkscape:path-effect
   effect="fill_between_many"
   id="path-effect27"
   is_visible="true"
   lpeversion="1.2"
   linkedpaths=""
   method="bsplinespiro"
   join="true"
   close="true"
   autoreverse="true" /><inkscape:path-effect
   effect="copy_rotate"
   starting_point="22.499999,277"
   origin="19.999999,277"
   id="path-effect3-7"
   is_visible="true"
   lpeversion="1.2"
   lpesatellites=""
   method="normal"
   num_copies="4"
   starting_angle="0"
   rotation_angle="90"
   gap="-0.01"
   copies_to_360="true"
   mirror_copies="false"
   split_items="false"
   link_styles="false" /><inkscape:path-effect
   effect="copy_rotate"
   starting_point="22.499999,277"
   origin="19.999999,277"
   id="path-effect1-6"
   is_visible="true"
   lpeversion="1.2"
   lpesatellites=""
   method="normal"
   num_copies="4"
   starting_angle="0"
   rotation_angle="90"
   gap="-0.01"
   copies_to_360="true"
   mirror_copies="false"
   split_items="false"
   link_styles="false" /><inkscape:path-effect
   effect="copy_rotate"
   starting_point="22.499999,277"
   origin="19.999999,277"
   id="path-effect1-8-5"
   is_visible="true"
   lpeversion="1.2"
   lpesatellites=""
   method="normal"
   num_copies="4"
   starting_angle="0"
   rotation_angle="90"
   gap="-0.01"
   copies_to_360="true"
   mirror_copies="false"
   split_items="false"
   link_styles="false" /><inkscape:path-effect
   effect="copy_rotate"
   starting_point="22.499999,277"
   origin="19.999999,277"
   id="path-effect3-0-1"
   is_visible="true"
   lpeversion="1.2"
   lpesatellites=""
   method="normal"
   num_copies="4"
   starting_angle="0"
   rotation_angle="90"
   gap="-0.01"
   copies_to_360="true"
   mirror_copies="false"
   split_items="false"
   link_styles="false" /><style
   type="text/css"
   id="style1-1">&#10;   <![CDATA[
    .str0 {stroke:#373435;stroke-width:17.63;stroke-linecap:round;stroke-linejoin:round;stroke-miterlimit:2.61313}
    .fil0 {fill:none}
    .fil1 {fill:#424041}
   ]]>&#10;  </style><style
   type="text/css"
   id="style1-5-2">&#10;   <![CDATA[
    .str0 {stroke:#373435;stroke-width:17.57;stroke-linecap:round;stroke-linejoin:round;stroke-miterlimit:2.61313}
    .fil0 {fill:none}
    .fil3 {fill:#424041}
    .fil1 {fill:#858182}
    .fil2 {fill:white}
   ]]>&#10;  </style><style
   type="text/css"
   id="style1-9">&#10;   <![CDATA[
    .fil0 {fill:black;fill-rule:nonzero}
   ]]>&#10;  </style><style
   type="text/css"
   id="style1-12">&#10;   <![CDATA[
    .str0 {stroke:#373435;stroke-width:17.63;stroke-linecap:round;stroke-linejoin:round;stroke-miterlimit:2.61313}
    .fil0 {fill:none}
    .fil2 {fill:#424041}
    .fil1 {fill:#424041;fill-rule:nonzero}
   ]]>&#10;  </style></defs><g
     id="Layer_x0020_1"
     inkscape:label="logo--os"
     inkscape:groupmode="layer"
     transform="matrix(0.01,0,0,0.01,-22.526255,-25.282131)"
     style="clip-rule:evenodd;fill-rule:evenodd;image-rendering:optimizeQuality;shape-rendering:geometricPrecision;text-rendering:geometricPrecision">&#10;  <metadata
   id="CorelCorpID_0Corel-Layer" />&#10;  &#10;  &#10; </g><g
     id="_2831794447088"
     style="clip-rule:evenodd;fill:#000000;fill-rule:evenodd;image-rendering:optimizeQuality;shape-rendering:geometricPrecision;text-rendering:geometricPrecision"
     transform="matrix(0.01,0,0,0.01,-0.08825,-0.08829889)">&#10;   <path
   class="fil1"
   d="m 1426.29,2921.52 c 0,-5.13 0.56,-10.07 1.71,-14.84 1.17,-4.76 2.96,-9.07 5.46,-12.81 2.5,-3.75 5.78,-6.75 9.81,-8.97 4.02,-2.22 8.87,-3.33 14.65,-3.33 5.79,0 10.69,1.11 14.71,3.33 4.03,2.22 7.26,5.22 9.8,8.97 2.5,3.74 4.3,8.05 5.46,12.81 1.16,4.77 1.71,9.71 1.71,14.84 0,4.9 -0.55,9.67 -1.71,14.29 -1.16,4.62 -2.96,8.79 -5.46,12.48 -2.54,3.71 -5.77,6.67 -9.8,8.89 -4.02,2.21 -8.92,3.33 -14.71,3.33 -5.78,0 -10.63,-1.12 -14.65,-3.33 -4.03,-2.22 -7.31,-5.18 -9.81,-8.89 -2.5,-3.69 -4.29,-7.86 -5.46,-12.48 -1.15,-4.62 -1.71,-9.39 -1.71,-14.29 z m -25.61,0 c 0,8.47 1.29,16.37 3.93,23.72 2.59,7.36 6.33,13.79 11.23,19.2 4.91,5.41 10.92,9.66 18.04,12.76 7.12,3.1 15.12,4.67 24.04,4.67 9.02,0 17.12,-1.57 24.19,-4.67 7.08,-3.1 13.04,-7.35 17.94,-12.76 4.86,-5.41 8.6,-11.84 11.24,-19.2 2.63,-7.35 3.93,-15.25 3.93,-23.72 0,-8.69 -1.3,-16.78 -3.93,-24.23 -2.64,-7.44 -6.38,-13.92 -11.24,-19.46 -4.9,-5.56 -10.86,-9.9 -17.94,-13.09 -7.07,-3.15 -15.17,-4.72 -24.19,-4.72 -8.92,0 -16.92,1.57 -24.04,4.72 -7.12,3.19 -13.13,7.53 -18.04,13.09 -4.9,5.54 -8.64,12.02 -11.23,19.46 -2.64,7.45 -3.93,15.54 -3.93,24.23 z m 171.18,42.59 c -3.7,0 -6.84,-0.78 -9.43,-2.31 -2.64,-1.52 -4.72,-3.51 -6.29,-5.96 -1.58,-2.46 -2.74,-5.28 -3.42,-8.56 -0.7,-3.24 -1.07,-6.57 -1.07,-9.94 0,-3.47 0.32,-6.84 0.97,-10.12 0.65,-3.24 1.76,-6.11 3.33,-8.61 1.58,-2.49 3.65,-4.53 6.2,-6.15 2.54,-1.57 5.73,-2.36 9.57,-2.36 3.7,0 6.84,0.79 9.39,2.36 2.54,1.62 4.62,3.66 6.24,6.2 1.62,2.54 2.82,5.46 3.52,8.74 0.69,3.28 1.06,6.56 1.06,9.94 0,3.37 -0.33,6.7 -0.97,9.94 -0.65,3.28 -1.76,6.1 -3.33,8.56 -1.57,2.45 -3.66,4.44 -6.2,5.96 -2.54,1.53 -5.74,2.31 -9.57,2.31 z m -42.55,-69.18 v 113.9 h 23.13 v -40 h 0.37 c 2.82,4.12 6.43,7.26 10.82,9.38 4.39,2.13 9.2,3.19 14.43,3.19 6.19,0 11.6,-1.2 16.22,-3.6 4.63,-2.36 8.51,-5.6 11.61,-9.62 3.1,-4.02 5.42,-8.65 6.94,-13.87 1.53,-5.22 2.26,-10.64 2.26,-16.32 0,-5.97 -0.73,-11.71 -2.26,-17.2 -1.52,-5.51 -3.89,-10.32 -7.03,-14.43 -3.15,-4.12 -7.12,-7.45 -11.88,-9.95 -4.81,-2.49 -10.55,-3.74 -17.16,-3.74 -5.22,0 -9.99,1.02 -14.33,3.1 -4.36,2.08 -7.96,5.36 -10.78,9.94 h -0.32 v -10.78 z m 155.46,33.11 h -37.68 c 0.14,-1.62 0.51,-3.47 1.1,-5.54 0.61,-2.09 1.62,-4.03 3.1,-5.88 1.44,-1.85 3.42,-3.42 5.88,-4.67 2.45,-1.25 5.5,-1.85 9.2,-1.85 5.64,0 9.85,1.53 12.62,4.58 2.78,3.06 4.72,7.49 5.78,13.36 z m -37.68,14.71 h 60.85 c 0.41,-6.52 -0.09,-12.81 -1.61,-18.77 -1.53,-5.97 -4.03,-11.33 -7.46,-16 -3.41,-4.67 -7.81,-8.38 -13.12,-11.15 -5.32,-2.77 -11.57,-4.16 -18.73,-4.16 -6.43,0 -12.26,1.16 -17.52,3.42 -5.33,2.27 -9.86,5.41 -13.65,9.34 -3.83,3.98 -6.75,8.7 -8.83,14.1 -2.08,5.46 -3.1,11.33 -3.1,17.67 0,6.52 1.02,12.48 3.05,17.9 1.99,5.45 4.86,10.13 8.55,14.05 3.7,3.94 8.24,6.94 13.56,9.06 5.31,2.13 11.28,3.19 17.94,3.19 9.57,0 17.7,-2.16 24.46,-6.51 6.75,-4.35 11.75,-11.56 14.99,-21.69 h -20.4 c -0.74,2.59 -2.78,5.04 -6.16,7.4 -3.37,2.36 -7.44,3.51 -12.11,3.51 -6.52,0 -11.51,-1.71 -14.98,-5.08 -3.46,-3.38 -5.41,-8.79 -5.73,-16.28 z m 73.66,-47.82 v 84.35 h 23.11 v -44.2 c 0,-8.61 1.44,-14.81 4.26,-18.55 2.82,-3.74 7.4,-5.6 13.74,-5.6 5.49,0 9.38,1.72 11.55,5.14 2.18,3.42 3.28,8.6 3.28,15.58 v 47.63 h 23.13 v -51.88 c 0,-5.23 -0.46,-9.99 -1.34,-14.29 -0.93,-4.31 -2.55,-7.91 -4.81,-10.92 -2.32,-3 -5.46,-5.31 -9.39,-7.02 -3.98,-1.67 -9.07,-2.5 -15.26,-2.5 -4.9,0 -9.67,1.11 -14.34,3.32 -4.67,2.23 -8.5,5.79 -11.46,10.69 h -0.46 v -11.75 z m 115.69,45.69 h -24.79 c -0.14,7.17 1.21,13.37 3.93,18.59 2.73,5.23 6.38,9.48 11.01,12.85 4.57,3.38 9.89,5.88 15.95,7.45 6.06,1.58 12.25,2.36 18.68,2.36 7.95,0 14.94,-0.92 21,-2.77 6.01,-1.85 11.05,-4.44 15.16,-7.77 4.07,-3.29 7.13,-7.22 9.2,-11.8 2.08,-4.57 3.1,-9.52 3.1,-14.84 0,-6.52 -1.39,-11.88 -4.16,-16.09 -2.77,-4.17 -6.06,-7.49 -9.85,-9.99 -3.83,-2.49 -7.68,-4.34 -11.51,-5.5 -3.84,-1.16 -6.89,-1.94 -9.07,-2.36 -7.26,-1.85 -13.17,-3.38 -17.66,-4.58 -4.54,-1.15 -8.09,-2.36 -10.64,-3.56 -2.54,-1.2 -4.25,-2.49 -5.13,-3.93 -0.88,-1.43 -1.3,-3.28 -1.3,-5.55 0,-2.49 0.56,-4.58 1.62,-6.2 1.07,-1.62 2.46,-3 4.17,-4.06 1.66,-1.07 3.55,-1.85 5.64,-2.27 2.08,-0.42 4.11,-0.65 6.19,-0.65 3.15,0 6.06,0.28 8.75,0.79 2.63,0.56 4.98,1.48 7.07,2.77 2.08,1.34 3.75,3.14 4.99,5.41 1.25,2.26 1.95,5.18 2.18,8.65 h 24.78 c 0,-6.75 -1.29,-12.49 -3.84,-17.25 -2.54,-4.72 -6.01,-8.6 -10.35,-11.65 -4.35,-3.05 -9.3,-5.27 -14.9,-6.61 -5.59,-1.34 -11.46,-2.04 -17.57,-2.04 -5.22,0 -10.4,0.7 -15.63,2.13 -5.22,1.43 -9.93,3.6 -14.06,6.52 -4.11,2.91 -7.48,6.61 -10.03,11.01 -2.54,4.39 -3.84,9.62 -3.84,15.58 0,5.31 1.02,9.85 3.06,13.59 1.99,3.75 4.62,6.89 7.9,9.39 3.29,2.55 6.99,4.57 11.1,6.15 4.11,1.57 8.37,2.92 12.72,3.98 4.2,1.2 8.42,2.31 12.53,3.28 4.11,0.97 7.81,2.13 11.1,3.43 3.28,1.29 5.91,2.91 7.95,4.85 1.99,1.98 3.01,4.53 3.01,7.72 0,2.91 -0.74,5.31 -2.27,7.21 -1.53,1.9 -3.46,3.43 -5.73,4.49 -2.26,1.11 -4.72,1.85 -7.35,2.22 -2.64,0.42 -5.09,0.6 -7.36,0.6 -3.37,0 -6.61,-0.41 -9.75,-1.25 -3.19,-0.78 -5.93,-2.03 -8.23,-3.74 -2.37,-1.71 -4.22,-3.89 -5.65,-6.62 -1.43,-2.72 -2.12,-6 -2.12,-9.94 z m 114.44,-45.69 v -25.29 h -23.17 v 25.29 h -14.06 v 15.49 h 14.06 v 49.76 c 0,4.26 0.7,7.68 2.13,10.26 1.39,2.65 3.33,4.63 5.78,6.06 2.45,1.44 5.27,2.36 8.46,2.88 3.19,0.5 6.62,0.73 10.22,0.73 2.27,0 4.62,-0.05 7.03,-0.14 2.35,-0.14 4.53,-0.37 6.47,-0.69 v -17.94 c -1.06,0.23 -2.22,0.37 -3.37,0.46 -1.2,0.14 -2.45,0.19 -3.8,0.19 -3.92,0 -6.52,-0.65 -7.81,-1.99 -1.3,-1.3 -1.94,-3.89 -1.94,-7.82 v -41.76 h 16.92 v -15.49 z m 27.14,0 v 84.35 h 23.12 v -38.01 c 0,-3.79 0.37,-7.31 1.15,-10.59 0.79,-3.28 2.04,-6.15 3.84,-8.6 1.81,-2.46 4.16,-4.34 7.12,-5.78 2.91,-1.44 6.52,-2.13 10.73,-2.13 1.44,0 2.92,0.1 4.44,0.23 1.53,0.19 2.82,0.37 3.88,0.6 v -21.55 c -1.85,-0.51 -3.51,-0.78 -5.04,-0.78 -2.91,0 -5.73,0.41 -8.46,1.3 -2.73,0.87 -5.32,2.07 -7.67,3.64 -2.41,1.58 -4.54,3.47 -6.38,5.7 -1.85,2.26 -3.33,4.67 -4.4,7.3 h -0.32 v -15.68 z m 141.58,84.35 v -84.35 h -23.12 v 44.21 c 0,8.61 -1.43,14.76 -4.26,18.49 -2.82,3.75 -7.39,5.65 -13.73,5.65 -5.5,0 -9.39,-1.71 -11.56,-5.13 -2.17,-3.43 -3.28,-8.6 -3.28,-15.59 v -47.63 h -23.12 v 51.89 c 0,5.22 0.46,9.94 1.38,14.24 0.89,4.3 2.5,7.95 4.81,10.96 2.27,3 5.42,5.32 9.39,6.94 3.93,1.62 9.02,2.44 15.22,2.44 4.9,0 9.71,-1.1 14.38,-3.28 4.67,-2.17 8.46,-5.68 11.41,-10.59 h 0.47 v 11.75 z m 74.12,-54.66 h 22.7 c -0.32,-5.41 -1.66,-10.12 -3.92,-14.1 -2.27,-3.98 -5.23,-7.31 -8.89,-9.99 -3.65,-2.64 -7.76,-4.63 -12.39,-5.92 -4.62,-1.29 -9.43,-1.94 -14.47,-1.94 -6.84,0 -12.95,1.16 -18.26,3.42 -5.32,2.27 -9.85,5.46 -13.51,9.52 -3.69,4.08 -6.52,8.93 -8.41,14.53 -1.9,5.59 -2.88,11.7 -2.88,18.22 0,6.29 1.03,12.07 3.1,17.34 2.09,5.27 4.95,9.8 8.65,13.59 3.71,3.84 8.19,6.8 13.46,8.92 5.27,2.13 11.05,3.19 17.39,3.19 11.18,0 20.39,-2.95 27.56,-8.82 7.17,-5.87 11.51,-14.39 13.04,-25.62 h -22.34 c -0.79,5.22 -2.63,9.38 -5.64,12.48 -3.01,3.1 -7.26,4.67 -12.8,4.67 -3.57,0 -6.62,-0.83 -9.12,-2.45 -2.49,-1.62 -4.48,-3.75 -5.96,-6.29 -1.48,-2.54 -2.54,-5.41 -3.19,-8.55 -0.65,-3.15 -0.97,-6.25 -0.97,-9.3 0,-3.14 0.32,-6.33 0.97,-9.57 0.65,-3.19 1.75,-6.15 3.37,-8.78 1.57,-2.64 3.61,-4.81 6.11,-6.52 2.5,-1.72 5.6,-2.55 9.29,-2.55 9.9,0 15.58,4.85 17.11,14.52 z m 64.69,-29.69 v -25.29 h -23.17 v 25.29 h -14.06 v 15.49 h 14.06 v 49.76 c 0,4.26 0.69,7.68 2.13,10.26 1.38,2.65 3.33,4.63 5.77,6.06 2.46,1.44 5.28,2.36 8.47,2.88 3.19,0.5 6.61,0.73 10.22,0.73 2.26,0 4.63,-0.05 7.03,-0.14 2.36,-0.14 4.53,-0.37 6.47,-0.69 v -17.94 c -1.06,0.23 -2.22,0.37 -3.38,0.46 -1.2,0.14 -2.44,0.19 -3.78,0.19 -3.94,0 -6.52,-0.65 -7.82,-1.99 -1.3,-1.3 -1.94,-3.89 -1.94,-7.82 v -41.76 h 16.92 v -15.49 z m 106.21,84.35 v -84.35 h -23.13 v 44.21 c 0,8.61 -1.43,14.76 -4.25,18.49 -2.82,3.75 -7.39,5.65 -13.73,5.65 -5.51,0 -9.38,-1.71 -11.56,-5.13 -2.18,-3.43 -3.29,-8.6 -3.29,-15.59 v -47.63 h -23.11 v 51.89 c 0,5.22 0.45,9.94 1.38,14.24 0.88,4.3 2.5,7.95 4.81,10.96 2.26,3 5.41,5.32 9.39,6.94 3.93,1.62 9.01,2.44 15.21,2.44 4.9,0 9.71,-1.1 14.38,-3.28 4.67,-2.17 8.47,-5.68 11.43,-10.59 h 0.46 v 11.75 z m 16.73,-84.35 v 84.35 h 23.13 v -38.01 c 0,-3.79 0.36,-7.31 1.15,-10.59 0.78,-3.28 2.04,-6.15 3.84,-8.6 1.8,-2.46 4.16,-4.34 7.12,-5.78 2.91,-1.44 6.52,-2.13 10.72,-2.13 1.44,0 2.92,0.1 4.44,0.23 1.53,0.19 2.83,0.37 3.89,0.6 v -21.55 c -1.85,-0.51 -3.52,-0.78 -5.04,-0.78 -2.91,0 -5.73,0.41 -8.46,1.3 -2.73,0.87 -5.32,2.07 -7.68,3.64 -2.4,1.58 -4.53,3.47 -6.38,5.7 -1.85,2.26 -3.33,4.67 -4.4,7.3 h -0.32 v -15.68 z m 116.31,33.11 h -37.68 c 0.14,-1.62 0.51,-3.47 1.11,-5.54 0.6,-2.09 1.62,-4.03 3.1,-5.88 1.43,-1.85 3.42,-3.42 5.87,-4.67 2.45,-1.25 5.5,-1.85 9.2,-1.85 5.64,0 9.85,1.53 12.63,4.58 2.77,3.06 4.71,7.49 5.77,13.36 z m -37.68,14.71 h 60.86 c 0.41,-6.52 -0.1,-12.81 -1.62,-18.77 -1.53,-5.97 -4.03,-11.33 -7.45,-16 -3.42,-4.67 -7.82,-8.38 -13.13,-11.15 -5.32,-2.77 -11.56,-4.16 -18.73,-4.16 -6.42,0 -12.26,1.16 -17.52,3.42 -5.32,2.27 -9.85,5.41 -13.65,9.34 -3.83,3.98 -6.75,8.7 -8.83,14.1 -2.08,5.46 -3.1,11.33 -3.1,17.67 0,6.52 1.02,12.48 3.05,17.9 2,5.45 4.86,10.13 8.56,14.05 3.7,3.94 8.23,6.94 13.55,9.06 5.32,2.13 11.28,3.19 17.94,3.19 9.57,0 17.71,-2.16 24.46,-6.51 6.75,-4.35 11.75,-11.56 14.99,-21.69 h -20.4 c -0.74,2.59 -2.78,5.04 -6.15,7.4 -3.37,2.36 -7.45,3.51 -12.12,3.51 -6.52,0 -11.51,-1.71 -14.97,-5.08 -3.47,-3.38 -5.42,-8.79 -5.74,-16.28 z m 91.6,9.11 h -22.06 c 0.23,5.68 1.48,10.36 3.84,14.1 2.36,3.75 5.32,6.8 8.97,9.06 3.65,2.27 7.81,3.94 12.48,4.9 4.67,0.98 9.48,1.48 14.38,1.48 4.77,0 9.48,-0.45 14.11,-1.38 4.62,-0.92 8.74,-2.54 12.3,-4.81 3.56,-2.26 6.48,-5.31 8.74,-9.06 2.22,-3.75 3.33,-8.42 3.33,-13.97 0,-3.93 -0.74,-7.22 -2.27,-9.85 -1.53,-2.63 -3.55,-4.9 -6.06,-6.71 -2.49,-1.8 -5.35,-3.23 -8.55,-4.29 -3.19,-1.06 -6.47,-1.99 -9.85,-2.78 -3.28,-0.79 -6.47,-1.47 -9.62,-2.13 -3.19,-0.64 -5.96,-1.38 -8.42,-2.21 -2.44,-0.79 -4.43,-1.85 -5.96,-3.19 -1.52,-1.3 -2.26,-2.97 -2.26,-5.04 0,-1.71 0.41,-3.1 1.29,-4.17 0.88,-1.01 1.94,-1.8 3.2,-2.35 1.24,-0.56 2.63,-0.93 4.15,-1.07 1.53,-0.13 2.92,-0.23 4.21,-0.23 4.12,0 7.72,0.78 10.78,2.36 3.05,1.57 4.72,4.57 5.03,9.06 h 22.06 c -0.41,-5.22 -1.75,-9.57 -3.97,-12.99 -2.27,-3.42 -5.04,-6.15 -8.42,-8.23 -3.38,-2.09 -7.21,-3.52 -11.51,-4.39 -4.31,-0.89 -8.74,-1.3 -13.32,-1.3 -4.58,0 -9.01,0.41 -13.37,1.2 -4.34,0.83 -8.27,2.26 -11.74,4.25 -3.47,2 -6.29,4.77 -8.37,8.24 -2.13,3.47 -3.19,7.95 -3.19,13.36 0,3.7 0.74,6.84 2.27,9.38 1.52,2.55 3.51,4.68 6.05,6.34 2.5,1.71 5.37,3.05 8.56,4.07 3.19,1.06 6.47,1.95 9.84,2.73 8.28,1.76 14.71,3.52 19.34,5.23 4.62,1.76 6.94,4.34 6.94,7.81 0,2.08 -0.47,3.79 -1.44,5.14 -0.97,1.38 -2.22,2.49 -3.7,3.28 -1.48,0.83 -3.1,1.43 -4.9,1.8 -1.81,0.37 -3.52,0.55 -5.14,0.55 -2.26,0 -4.48,-0.28 -6.61,-0.82 -2.12,-0.52 -3.97,-1.35 -5.59,-2.51 -1.62,-1.15 -2.96,-2.63 -3.98,-4.43 -1.06,-1.81 -1.57,-3.94 -1.57,-6.43 z"
   id="path2"
   style="fill:#000000;fill-rule:nonzero" />&#10;   <g
   id="g5"
   style="fill:#000000">&#10;    <path
   class="fil1"
   d="m 1180.15,1837.6 c 0,-228.81 92.77,-436.03 242.77,-586.02 149.96,-149.96 357.15,-242.75 586,-242.75 228.74,0 435.9,92.8 585.86,242.81 149.96,149.99 242.72,357.19 242.72,585.96 0,228.77 -92.76,435.97 -242.72,585.97 -149.96,150 -357.12,242.8 -585.86,242.8 -228.85,0 -436.04,-92.79 -586,-242.75 -150,-149.99 -242.77,-357.21 -242.77,-586.02 z m 258.06,-570.73 c -146.07,146.07 -236.42,347.88 -236.42,570.72 0,222.85 90.35,424.66 236.42,570.73 146.05,146.04 347.82,236.4 570.71,236.4 222.82,0 424.57,-90.34 570.56,-236.38 146.05,-146.07 236.38,-347.89 236.38,-570.75 0,-222.86 -90.33,-424.67 -236.38,-570.75 -145.99,-146.03 -347.74,-236.38 -570.56,-236.38 -222.89,0 -424.66,90.36 -570.71,236.41 z"
   id="path3"
   style="fill:#000000;fill-rule:nonzero" />&#10;    <path
   class="fil2"
   d="m 1420.21,1783.89 c -3.41,21.06 -5.11,43.12 -5.11,66.16 0,22.31 1.68,43.72 5.07,64.22 3.4,20.59 8.51,40.44 15.34,59.49 6.82,19.26 15.05,37.18 24.7,53.67 9.66,16.48 20.78,31.71 33.32,45.56 12.57,13.87 26.57,26.28 41.97,37.18 15.56,10.95 32.54,20.46 50.87,28.44 18.25,7.94 37.74,13.95 58.46,17.99 20.75,4.04 42.79,6.07 66.12,6.07 23.55,0 45.82,-2.03 66.69,-6.06 20.89,-4.03 40.47,-10.05 58.63,-18 18.24,-7.98 35.06,-17.47 50.45,-28.42 15.38,-10.95 29.34,-23.35 41.84,-37.15 12.46,-13.88 23.53,-29.12 33.19,-45.61 9.73,-16.62 18.04,-34.55 24.89,-53.67 6.82,-19.04 11.94,-38.9 15.34,-59.49 3.39,-20.5 5.06,-41.91 5.06,-64.22 0,-23.04 -1.69,-45.1 -5.1,-66.1 -3.37,-20.88 -8.49,-41.04 -15.36,-60.44 -6.86,-19.37 -15.13,-37.43 -24.81,-54.19 -9.7,-16.8 -20.82,-32.36 -33.32,-46.65 -12.61,-14.26 -26.56,-26.98 -41.85,-38.12 -15.26,-11.13 -32.1,-20.84 -50.5,-29.14 -18,-8.04 -37.48,-14.09 -58.33,-18.14 -20.98,-4.08 -43.27,-6.12 -66.82,-6.12 -23.28,0 -45.3,2.03 -66.06,6.11 -20.68,4.05 -40.18,10.13 -58.46,18.2 -18.3,8.18 -35.21,17.9 -50.73,29.15 -15.51,11.24 -29.53,23.95 -42.06,38.12 -12.58,14.25 -23.75,29.79 -33.45,46.59 -9.7,16.8 -17.91,34.84 -24.62,54.13 -6.87,19.46 -11.99,39.62 -15.36,60.44 z m 104.88,66.16 c 0,-14.33 0.8,-28.55 2.41,-42.62 1.58,-13.86 4.02,-27.61 7.32,-41.21 3.35,-13.82 7.66,-26.97 12.91,-39.32 5.26,-12.33 11.47,-23.93 18.63,-34.68 7.42,-11.09 16.02,-21.12 25.79,-30.06 9.81,-8.97 20.64,-16.75 32.41,-23.24 12.02,-6.63 25.33,-11.62 39.94,-14.94 14.36,-3.26 29.84,-4.91 46.45,-4.91 16.61,0 32.14,1.65 46.57,4.91 14.67,3.32 28.04,8.31 40.06,14.94 11.91,6.56 22.69,14.34 32.39,23.24 9.57,8.8 18.13,18.81 25.71,29.96 l 0.11,0.1 c 7.16,10.75 13.37,22.35 18.62,34.68 5.26,12.35 9.57,25.5 12.92,39.32 3.3,13.61 5.73,27.36 7.32,41.21 1.61,14.07 2.4,28.29 2.4,42.62 0,13.76 -0.79,27.42 -2.4,40.97 -1.6,13.48 -4.04,26.81 -7.32,39.95 -3.3,13.21 -7.58,25.88 -12.86,37.97 -5.3,12.17 -11.55,23.62 -18.74,34.27 l -0.11,0.11 c -7.54,10.96 -16.1,20.83 -25.71,29.55 -9.68,8.79 -20.45,16.48 -32.33,23.03 -12.01,6.63 -25.39,11.62 -40.06,14.94 -14.43,3.26 -29.96,4.9 -46.57,4.9 -16.61,0 -32.09,-1.64 -46.45,-4.9 -14.61,-3.32 -27.92,-8.31 -39.94,-14.94 -11.79,-6.5 -22.62,-14.21 -32.43,-23.09 -9.8,-8.87 -18.4,-18.76 -25.71,-29.6 -7.19,-10.65 -13.44,-22.1 -18.75,-34.27 -5.27,-12.09 -9.55,-24.76 -12.85,-37.97 -3.28,-13.14 -5.73,-26.47 -7.32,-39.95 -1.61,-13.55 -2.41,-27.21 -2.41,-40.97 z"
   id="path4"
   style="fill:#000000" />&#10;    <path
   class="fil2"
   d="m 2126.68,1774.61 c 4.96,9.34 10.67,17.86 17.12,25.51 6.44,7.7 13.68,14.6 21.69,20.68 l 0.11,0.06 c 8.24,6.38 17.09,12.18 26.53,17.4 9.19,5.14 19.2,9.74 29.95,13.85 11.12,4.24 22.31,8.14 33.48,11.64 11.33,3.53 22.58,6.69 33.69,9.4 l 0.57,0.12 c 12.42,3.55 23.95,6.73 34.36,9.45 10.23,2.68 21.22,5.42 32.89,8.17 11.07,2.61 21.87,5.56 32.31,8.77 10.68,3.29 20.63,6.78 29.81,10.4 9.65,3.8 18.44,8.15 26.34,12.97 8.07,4.93 15.22,10.39 21.44,16.33 l 0.28,0.23 c 6.78,6.77 11.93,14.58 15.4,23.44 3.4,8.67 5.12,18.19 5.12,28.61 0,9.3 -1.23,17.95 -3.72,25.91 -2.56,8.23 -6.49,15.65 -11.77,22.21 -4.81,5.96 -10.33,11.4 -16.44,16.19 -6.02,4.7 -12.64,8.78 -19.77,12.12 -6.9,3.37 -13.96,6.14 -21.14,8.31 -7.26,2.18 -14.88,3.85 -22.82,4.96 -7.8,1.2 -14.98,2.07 -21.52,2.59 -7.13,0.56 -13.9,0.83 -20.3,0.83 -9.45,0 -19.03,-0.63 -28.72,-1.85 -9.55,-1.22 -18.81,-3.03 -27.79,-5.41 -9.38,-2.31 -18.2,-5.37 -26.43,-9.12 -8.31,-3.78 -15.98,-8.29 -23,-13.46 -7.28,-5.25 -13.83,-11.31 -19.66,-18.14 -5.83,-6.9 -10.89,-14.42 -15.2,-22.64 -4.52,-8.59 -7.86,-17.99 -10.04,-28.22 -1.22,-5.72 -2.09,-11.7 -2.61,-17.94 h -106 c 0.47,12.87 1.94,25.1 4.39,36.66 3.29,15.68 8.38,30.01 15.16,43.01 6.85,13.12 14.91,25.07 24.18,35.89 9.25,10.8 19.66,20.4 31.2,28.83 11.77,8.65 24.44,16.17 37.98,22.48 13.55,6.33 28.1,11.53 43.63,15.55 15.86,4.12 31.88,7.21 48.07,9.25 15.94,2.01 32.46,3.02 49.58,3.02 21.17,0 40.8,-1.2 58.88,-3.59 18.16,-2.39 35.05,-5.98 50.67,-10.75 15.54,-4.8 29.77,-10.5 42.64,-17.1 12.62,-6.46 24.21,-13.98 34.72,-22.48 10.23,-8.21 19.12,-17.21 26.72,-26.96 7.53,-9.67 13.9,-20.23 19.09,-31.66 5.23,-11.56 9.13,-23.47 11.67,-35.73 2.56,-12.31 3.83,-25.26 3.83,-38.8 0,-16.57 -1.72,-31.47 -5.14,-44.69 -3.34,-12.99 -8.36,-24.54 -14.97,-34.58 -7.05,-10.52 -14.68,-19.96 -22.89,-28.3 -8.19,-8.31 -16.99,-15.56 -26.34,-21.73 -9.95,-6.45 -19.82,-12.05 -29.57,-16.72 -9.61,-4.6 -19.32,-8.4 -29.12,-11.34 -10.56,-3.18 -19.61,-5.75 -27.12,-7.7 -7.78,-2.03 -14.7,-3.62 -20.59,-4.74 l -54.41,-13.95 -42.18,-11.04 c -12.21,-3.1 -23.46,-6.41 -33.65,-9.81 -10.31,-3.45 -19.19,-6.95 -26.58,-10.44 -7.8,-3.69 -14.45,-7.6 -19.89,-11.76 -6.04,-4.61 -10.74,-9.63 -14.07,-15.07 -3.19,-5.21 -5.55,-11.11 -7.05,-17.63 -1.42,-6.14 -2.11,-12.8 -2.11,-19.94 0,-7.85 0.92,-15.25 2.7,-22.11 1.87,-7.15 4.72,-13.64 8.49,-19.36 3.5,-5.33 7.52,-10.26 12.03,-14.67 4.51,-4.41 9.48,-8.34 14.93,-11.73 5.26,-3.35 10.93,-6.28 16.91,-8.67 5.96,-2.39 12.14,-4.27 18.45,-5.53 5.79,-1.15 11.81,-2.09 18.09,-2.76 6.26,-0.67 12.37,-1.02 18.31,-1.02 8.37,0 16.92,0.41 25.53,1.17 8.7,0.79 16.86,1.92 24.49,3.37 l 0.28,0.05 c 7.96,1.67 15.52,3.91 22.61,6.69 7.2,2.83 14.02,6.24 20.41,10.21 l 0.17,0.12 c 13.34,8.59 23.99,20.11 31.92,34.5 3.98,7.2 7.05,15.39 9.31,24.49 1.17,4.72 2.11,9.68 2.84,14.88 h 106.51 c -0.66,-11.86 -2.14,-22.94 -4.45,-33.25 -3.18,-14.26 -7.93,-27.26 -14.18,-39 -6.34,-11.69 -13.84,-22.42 -22.45,-32.11 -8.65,-9.73 -18.45,-18.43 -29.32,-26.07 -11.05,-7.76 -22.85,-14.46 -35.39,-20.04 -12.68,-5.64 -26.15,-10.2 -40.36,-13.6 -14.48,-3.47 -29.54,-6.13 -45.1,-7.92 -15.16,-1.75 -30.77,-2.65 -46.81,-2.65 -13.72,0 -27.19,0.89 -40.43,2.67 -13.52,1.83 -27.01,4.59 -40.49,8.29 -13.3,3.64 -26.08,8.3 -38.24,13.93 -12.01,5.57 -23.19,12 -33.45,19.27 -10.18,7.2 -19.56,15.5 -28.04,24.8 -8.39,9.2 -15.82,19.34 -22.17,30.33 -6.22,10.74 -10.92,22.54 -14.06,35.31 -3.17,12.87 -4.77,26.87 -4.77,41.94 0,26.45 4.92,48.73 14.74,66.8 z"
   id="path5"
   style="fill:#000000" />&#10;   </g>&#10;  </g></svg>
