<?xml version="1.0" encoding="UTF-8" standalone="no"?>
<!-- Created with Inkscape (http://www.inkscape.org/) -->

<svg
   width="40mm"
   height="40mm"
   viewBox="0 0 40 40"
   version="1.1"
   id="svg1"
   inkscape:version="1.3 (0e150ed6c4, 2023-07-21)"
   sodipodi:docname="logo--open-hardware.svg"
   xml:space="preserve"
   xmlns:inkscape="http://www.inkscape.org/namespaces/inkscape"
   xmlns:sodipodi="http://sodipodi.sourceforge.net/DTD/sodipodi-0.dtd"
   xmlns="http://www.w3.org/2000/svg"
   xmlns:svg="http://www.w3.org/2000/svg"><sodipodi:namedview
     id="namedview1"
     pagecolor="#ffffff"
     bordercolor="#000000"
     borderopacity="0.25"
     inkscape:showpageshadow="2"
     inkscape:pageopacity="0.0"
     inkscape:pagecheckerboard="0"
     inkscape:deskcolor="#d1d1d1"
     inkscape:document-units="mm"
     showgrid="true"
     inkscape:zoom="0.92262131"
     inkscape:cx="65.032099"
     inkscape:cy="-31.432181"
     inkscape:window-width="2496"
     inkscape:window-height="1558"
     inkscape:window-x="-11"
     inkscape:window-y="-11"
     inkscape:window-maximized="1"
     inkscape:current-layer="svg1"><inkscape:grid
       id="grid1"
       units="mm"
       originx="0"
       originy="0"
       spacingx="0.99999997"
       spacingy="0.99999997"
       empcolor="#0099e5"
       empopacity="0.30196078"
       color="#0099e5"
       opacity="0.14902"
       empspacing="10"
       dotted="false"
       gridanglex="30"
       gridanglez="30"
       visible="true" /></sodipodi:namedview><defs
     id="defs1"><inkscape:path-effect
       effect="copy_rotate"
       starting_point="22.499999,277"
       origin="19.999999,277"
       id="path-effect3"
       is_visible="true"
       lpeversion="1.2"
       lpesatellites=""
       method="normal"
       num_copies="4"
       starting_angle="0"
       rotation_angle="90"
       gap="-0.01"
       copies_to_360="true"
       mirror_copies="false"
       split_items="false"
       link_styles="false" /><inkscape:path-effect
       effect="copy_rotate"
       starting_point="22.499999,277"
       origin="19.999999,277"
       id="path-effect1"
       is_visible="true"
       lpeversion="1.2"
       lpesatellites=""
       method="normal"
       num_copies="4"
       starting_angle="0"
       rotation_angle="90"
       gap="-0.01"
       copies_to_360="true"
       mirror_copies="false"
       split_items="false"
       link_styles="false" /><inkscape:path-effect
       effect="copy_rotate"
       starting_point="22.499999,277"
       origin="19.999999,277"
       id="path-effect1-8"
       is_visible="true"
       lpeversion="1.2"
       lpesatellites=""
       method="normal"
       num_copies="4"
       starting_angle="0"
       rotation_angle="90"
       gap="-0.01"
       copies_to_360="true"
       mirror_copies="false"
       split_items="false"
       link_styles="false" /><inkscape:path-effect
       effect="copy_rotate"
       starting_point="22.499999,277"
       origin="19.999999,277"
       id="path-effect3-0"
       is_visible="true"
       lpeversion="1.2"
       lpesatellites=""
       method="normal"
       num_copies="4"
       starting_angle="0"
       rotation_angle="90"
       gap="-0.01"
       copies_to_360="true"
       mirror_copies="false"
       split_items="false"
       link_styles="false" /><style
       type="text/css"
       id="style1">&#10;   <![CDATA[
    .str0 {stroke:#373435;stroke-width:17.64;stroke-miterlimit:2.61313}
    .str1 {stroke:#424041;stroke-width:7.62;stroke-miterlimit:2.61313}
    .fil7 {fill:none;fill-rule:nonzero}
    .fil0 {fill:#FEFEFE}
    .fil1 {fill:#424041}
    .fil2 {fill:#858182}
    .fil3 {fill:white}
    .fil5 {fill:#141414;fill-rule:nonzero}
    .fil4 {fill:#424041;fill-rule:nonzero}
    .fil6 {fill:#848688;fill-rule:nonzero}
   ]]>&#10;  </style></defs><path
     class="fil1"
     d="m 11.133498,14.385951 c 0.1326,0.3478 0.8201,1.236 1.064699,1.6031 0.7414,1.1124 0.7346,0.5513 -0.176199,2.69869 -0.2167,0.5109 -0.2877,0.3968 -0.8699,0.5061 -0.435499,0.0817 -1.9773977,0.3067 -2.2280967,0.4716 -0.0539,0.6219 -0.02,1.9943 -0.0194,2.6932 3e-4,0.3926 0.1046,0.3153 0.876399,0.4621 0.3859987,0.0734 0.7721987,0.1414 1.1747987,0.2102 1.097798,0.1877 0.766399,0.0866 1.323998,1.3846 0.5367,1.2494 0.5056,0.9969 -0.0711,1.8451 -0.199999,0.2943 -1.005199,1.37939 -1.074399,1.64939 0.083,0.1689 1.872699,1.9625 2.073298,2.0855 0.2506,-0.0466 1.376899,-0.859 1.703599,-1.0864 0.256599,-0.1785 0.530699,-0.5133 0.894799,-0.3565 0.296099,0.1274 0.628999,0.4171 0.944999,0.4554 0.147,-0.1944 2.004898,-4.62579 2.007598,-4.94309 -1.158299,-0.7039 -2.201898,-1.8218 -1.787898,-3.6163 0.311099,-1.3489 1.522598,-2.4326 3.087986,-2.4081 2.377498,0.0374 3.836897,2.6163 2.621198,4.697 -0.3812,0.6523 -0.796499,0.8739 -1.428899,1.338 -0.0019,0.4466 1.712899,4.15579 1.966198,4.92769 0.4085,-0.0455 0.6578,-0.3053 0.977299,-0.4471 0.2346,-0.1041 0.2645,-0.0891 0.4793,0.0551 0.332,0.2228 1.947598,1.4145 2.116898,1.3883 0.2052,-0.1146 1.973098,-1.8898 2.078098,-2.0895 -0.0705,-0.3083 -0.849199,-1.31229 -1.074599,-1.65139 -0.6544,-0.9847 -0.5321,-0.668 -0.0644,-1.8424 0.597099,-1.4993 0.0728,-1.1774 3.022497,-1.6913 0.2952,-0.0515 0.353999,-0.0485 0.353999,-0.3663 l 2e-4,-2.4213 c 0,-0.4135 -0.0819,-0.3395 -0.892199,-0.4849 -0.383099,-0.0688 -0.747199,-0.1461 -1.121699,-0.2148 -1.155898,-0.2122 -0.872399,-0.0111 -1.444398,-1.3452 -0.5043,-1.17629 -0.5649,-0.81189 0.135,-1.86509 0.2464,-0.3708 1.041899,-1.3444 1.078799,-1.7005 -0.1107,-0.177 -1.872198,-1.9592 -2.071298,-2.0614 -0.2477,0.0533 -1.431399,0.913 -1.679999,1.0867 -0.989999,0.6911 -0.673099,0.6914 -1.863298,0.2045 -0.301399,-0.1232 -0.673599,-0.2429 -0.968399,-0.3957 -0.330599,-0.1714 -0.453799,-1.5724 -0.589899,-2.2275 -0.2048,-0.9858984 0.415599,-0.9761984 -2.871087,-0.905598 l -0.2732,0.0117 c -0.2953,0.462898 -0.4158,2.731498 -0.682499,3.033598 -0.076,0.086 -1.135099,0.4971 -1.326199,0.5743 -0.979599,0.3964 -0.4712,0.4832 -2.415998,-0.8239 -0.735699,-0.4946 -0.816799,-0.7072 -1.132898,-0.3734 -0.3167,0.3345 -1.739999,1.6469 -1.853699,1.9358 z"
     id="path14"
     style="clip-rule:evenodd;fill:#000000;fill-rule:evenodd;stroke-width:0.00999999;image-rendering:optimizeQuality;shape-rendering:geometricPrecision;text-rendering:geometricPrecision"
     inkscape:label="logo--open-hardware" /></svg>
