<?xml version="1.0" encoding="UTF-8" standalone="no"?>
<!-- Created with Inkscape (http://www.inkscape.org/) -->

<svg
   width="40mm"
   height="40mm"
   viewBox="0 0 40 40"
   version="1.1"
   id="svg1"
   inkscape:version="1.3 (0e150ed6c4, 2023-07-21)"
   sodipodi:docname="logo--precious-plastic.svg"
   xml:space="preserve"
   xmlns:inkscape="http://www.inkscape.org/namespaces/inkscape"
   xmlns:sodipodi="http://sodipodi.sourceforge.net/DTD/sodipodi-0.dtd"
   xmlns="http://www.w3.org/2000/svg"
   xmlns:svg="http://www.w3.org/2000/svg"><sodipodi:namedview
     id="namedview1"
     pagecolor="#ffffff"
     bordercolor="#000000"
     borderopacity="0.25"
     inkscape:showpageshadow="2"
     inkscape:pageopacity="0.0"
     inkscape:pagecheckerboard="0"
     inkscape:deskcolor="#d1d1d1"
     inkscape:document-units="mm"
     showgrid="true"
     inkscape:zoom="4"
     inkscape:cx="58.5"
     inkscape:cy="68.250001"
     inkscape:window-width="2496"
     inkscape:window-height="1558"
     inkscape:window-x="-11"
     inkscape:window-y="-11"
     inkscape:window-maximized="1"
     inkscape:current-layer="svg1"><inkscape:grid
       id="grid1"
       units="mm"
       originx="0"
       originy="0"
       spacingx="0.99999997"
       spacingy="0.99999997"
       empcolor="#0099e5"
       empopacity="0.30196078"
       color="#0099e5"
       opacity="0.14902"
       empspacing="10"
       dotted="false"
       gridanglex="30"
       gridanglez="30"
       visible="true" /></sodipodi:namedview><defs
     id="defs1"><inkscape:path-effect
   effect="copy_rotate"
   starting_point="22.499999,277"
   origin="19.999999,277"
   id="path-effect3"
   is_visible="true"
   lpeversion="1.2"
   lpesatellites=""
   method="normal"
   num_copies="4"
   starting_angle="0"
   rotation_angle="90"
   gap="-0.01"
   copies_to_360="true"
   mirror_copies="false"
   split_items="false"
   link_styles="false" /><inkscape:path-effect
   effect="copy_rotate"
   starting_point="22.499999,277"
   origin="19.999999,277"
   id="path-effect1"
   is_visible="true"
   lpeversion="1.2"
   lpesatellites=""
   method="normal"
   num_copies="4"
   starting_angle="0"
   rotation_angle="90"
   gap="-0.01"
   copies_to_360="true"
   mirror_copies="false"
   split_items="false"
   link_styles="false" /><inkscape:path-effect
   effect="copy_rotate"
   starting_point="22.499999,277"
   origin="19.999999,277"
   id="path-effect1-8"
   is_visible="true"
   lpeversion="1.2"
   lpesatellites=""
   method="normal"
   num_copies="4"
   starting_angle="0"
   rotation_angle="90"
   gap="-0.01"
   copies_to_360="true"
   mirror_copies="false"
   split_items="false"
   link_styles="false" /><inkscape:path-effect
   effect="copy_rotate"
   starting_point="22.499999,277"
   origin="19.999999,277"
   id="path-effect3-0"
   is_visible="true"
   lpeversion="1.2"
   lpesatellites=""
   method="normal"
   num_copies="4"
   starting_angle="0"
   rotation_angle="90"
   gap="-0.01"
   copies_to_360="true"
   mirror_copies="false"
   split_items="false"
   link_styles="false" /><style
   type="text/css"
   id="style1">&#10;   <![CDATA[
    .str0 {stroke:#373435;stroke-width:17.63;stroke-linecap:round;stroke-linejoin:round;stroke-miterlimit:2.61313}
    .fil0 {fill:none}
    .fil1 {fill:#424041}
   ]]>&#10;  </style>&#10;   &#10;   &#10;  <style
   type="text/css"
   id="style1-5">&#10;   <![CDATA[
    .str0 {stroke:#373435;stroke-width:17.57;stroke-linecap:round;stroke-linejoin:round;stroke-miterlimit:2.61313}
    .fil0 {fill:none}
    .fil3 {fill:#424041}
    .fil1 {fill:#858182}
    .fil2 {fill:white}
   ]]>&#10;  </style>&#10;   &#10;   &#10;   &#10;   &#10;   &#10;   &#10;   &#10;   &#10;   &#10;   &#10;   &#10;   &#10;   &#10;   &#10;   &#10;  <filter
   id="selectable_hidder_filter"
   width="1"
   height="1"
   x="0"
   y="0"
   style="color-interpolation-filters:sRGB;"
   inkscape:label="LPE boolean visibility"><feComposite
     id="boolops_hidder_primitive"
     result="composite1"
     operator="arithmetic"
     in2="SourceGraphic"
     in="BackgroundImage" /></filter><inkscape:path-effect
   effect="bool_op"
   operand-path=""
   id="path-effect29"
   is_visible="true"
   lpeversion="1"
   operation="union"
   swap-operands="false"
   filltype-this="from-curve"
   filter=""
   filltype-operand="from-curve" /><inkscape:path-effect
   effect="knot"
   id="path-effect28"
   is_visible="true"
   lpeversion="1"
   switcher_size="15.8"
   interruption_width="4"
   prop_to_stroke_width="true"
   add_stroke_width="inkscape_1.0_and_up"
   both="false"
   inverse_width="false"
   add_other_stroke_width="inkscape_1.0_and_up"
   crossing_points_vector="" /><inkscape:path-effect
   effect="fill_between_many"
   id="path-effect27"
   is_visible="true"
   lpeversion="1.2"
   linkedpaths=""
   method="bsplinespiro"
   join="true"
   close="true"
   autoreverse="true" /><inkscape:path-effect
   effect="copy_rotate"
   starting_point="22.499999,277"
   origin="19.999999,277"
   id="path-effect3-7"
   is_visible="true"
   lpeversion="1.2"
   lpesatellites=""
   method="normal"
   num_copies="4"
   starting_angle="0"
   rotation_angle="90"
   gap="-0.01"
   copies_to_360="true"
   mirror_copies="false"
   split_items="false"
   link_styles="false" /><inkscape:path-effect
   effect="copy_rotate"
   starting_point="22.499999,277"
   origin="19.999999,277"
   id="path-effect1-6"
   is_visible="true"
   lpeversion="1.2"
   lpesatellites=""
   method="normal"
   num_copies="4"
   starting_angle="0"
   rotation_angle="90"
   gap="-0.01"
   copies_to_360="true"
   mirror_copies="false"
   split_items="false"
   link_styles="false" /><inkscape:path-effect
   effect="copy_rotate"
   starting_point="22.499999,277"
   origin="19.999999,277"
   id="path-effect1-8-5"
   is_visible="true"
   lpeversion="1.2"
   lpesatellites=""
   method="normal"
   num_copies="4"
   starting_angle="0"
   rotation_angle="90"
   gap="-0.01"
   copies_to_360="true"
   mirror_copies="false"
   split_items="false"
   link_styles="false" /><inkscape:path-effect
   effect="copy_rotate"
   starting_point="22.499999,277"
   origin="19.999999,277"
   id="path-effect3-0-1"
   is_visible="true"
   lpeversion="1.2"
   lpesatellites=""
   method="normal"
   num_copies="4"
   starting_angle="0"
   rotation_angle="90"
   gap="-0.01"
   copies_to_360="true"
   mirror_copies="false"
   split_items="false"
   link_styles="false" /><style
   type="text/css"
   id="style1-1">&#10;   <![CDATA[
    .str0 {stroke:#373435;stroke-width:17.63;stroke-linecap:round;stroke-linejoin:round;stroke-miterlimit:2.61313}
    .fil0 {fill:none}
    .fil1 {fill:#424041}
   ]]>&#10;  </style><style
   type="text/css"
   id="style1-5-2">&#10;   <![CDATA[
    .str0 {stroke:#373435;stroke-width:17.57;stroke-linecap:round;stroke-linejoin:round;stroke-miterlimit:2.61313}
    .fil0 {fill:none}
    .fil3 {fill:#424041}
    .fil1 {fill:#858182}
    .fil2 {fill:white}
   ]]>&#10;  </style><style
   type="text/css"
   id="style1-9">&#10;   <![CDATA[
    .fil0 {fill:black;fill-rule:nonzero}
   ]]>&#10;  </style><style
   type="text/css"
   id="style1-12">&#10;   <![CDATA[
    .str0 {stroke:#373435;stroke-width:17.63;stroke-linecap:round;stroke-linejoin:round;stroke-miterlimit:2.61313}
    .fil0 {fill:none}
    .fil2 {fill:#424041}
    .fil1 {fill:#424041;fill-rule:nonzero}
   ]]>&#10;  </style><style
   type="text/css"
   id="style1-2">&#10;   <![CDATA[
    .str0 {stroke:#373435;stroke-width:17.63;stroke-linecap:round;stroke-linejoin:round;stroke-miterlimit:2.61313}
    .fil0 {fill:none}
    .fil1 {fill:#424041;fill-rule:nonzero}
   ]]>&#10;  </style>&#10;  &#10;  &#10;  &#10; </defs><path
     id="path2-2"
     style="clip-rule:evenodd;fill:#000000;fill-rule:nonzero;stroke-width:0.01;image-rendering:optimizeQuality;shape-rendering:geometricPrecision;text-rendering:geometricPrecision"
     class="fil1"
     d="m 20.698537,10.003092 c -0.2543,-0.01 -0.504942,0.0078 -0.747242,0.02481 h -0.0072 c -0.1273,0.0088 -0.259057,0.01815 -0.387057,0.02325 -0.2203,0.0081 -0.435239,0.01951 -0.645438,0.06821 -0.3231,0.0754 -0.657186,0.135053 -0.979786,0.192753 l -0.09147,0.01602 c -0.065,0.0117 -0.132204,0.02326 -0.197404,0.03256 l -0.01395,0.0021 c -0.1757,0.0242 -0.350233,0.05894 -0.521932,0.102836 -0.1792,0.0496 -0.351198,0.114667 -0.517798,0.177767 h -0.0026 c -0.1024,0.0389 -0.209209,0.07899 -0.311609,0.113688 -0.4426,0.1482 -0.902274,0.358859 -1.447973,0.661459 -0.624399,0.345899 -1.214298,0.761383 -1.753898,1.229382 -0.228099,0.1988 -0.44224,0.446777 -0.65474,0.757577 -0.125,0.182799 -0.243084,0.372521 -0.357084,0.555521 l -0.0041,0.0062 c -0.092,0.1474 -0.186304,0.299651 -0.283704,0.445451 -0.3641,0.549 -0.676542,1.13558 -0.929142,1.74408 l -0.05426,0.129708 c -0.134,0.317699 -0.271691,0.646169 -0.38809,0.982369 -0.1683,0.482099 -0.24126,0.966134 -0.31316,1.502233 -0.0312,0.2328 -0.03966,0.463397 -0.04806,0.687297 -0.0061,0.1593 -0.01237,0.324175 -0.02687,0.483175 -0.035599,0.390799 -0.017255,0.814862 0.05684,1.299662 0.0104,0.0698 0.02069,0.13949 0.03049,0.20929 0.0354,0.249399 0.07198,0.50706 0.141076,0.76016 0.1788,0.665599 0.419352,1.31785 0.713652,1.94045 0.3403,0.712899 0.76018,1.381536 1.12758,1.952335 0.239899,0.3754 0.505733,0.736487 0.793233,1.075387 0.2632,0.3071 0.578359,0.567045 0.929659,0.765845 0.1453,0.0841 0.295698,0.176148 0.428397,0.257348 0.156,0.0955 0.317375,0.194221 0.480075,0.287321 0.132699,0.0761 0.265273,0.157245 0.393773,0.235645 0.3529,0.2163 0.718197,0.440144 1.131197,0.587044 0.1271,0.0452 0.256489,0.100162 0.381889,0.152962 l 0.0098,0.0041 c 0.2508,0.106199 0.509934,0.216185 0.793234,0.273885 0.1101,0.0233 0.220528,0.03931 0.327628,0.05581 l 0.01705,0.0031 c 0.0598,0.0093 0.119518,0.01874 0.179318,0.02894 0.1135,0.0171 0.230298,0.02892 0.345198,0.03462 l 0.0041,5.2e-4 c 0.1015,0.0044 0.203975,0.01436 0.304375,0.02945 0.293499,0.0495 0.588015,0.0589 0.872814,0.0677 h 0.0036 c 0.163,0.0049 0.332477,0.01026 0.495577,0.02325 0.112,0.0091 0.227231,0.01344 0.343131,0.01344 0.3509,-0.0027 0.701515,-0.03798 1.045415,-0.101285 0.126699,-0.0233 0.259806,-0.03718 0.388606,-0.05168 h 0.0062 c 0.214199,-0.0233 0.43559,-0.04859 0.65629,-0.107487 0.1361,-0.0364 0.270009,-0.08052 0.401009,-0.124023 l 0.0041,-0.0016 c 0.089,-0.0296 0.180668,-0.06002 0.270268,-0.08682 0.4593,-0.1345 0.905818,-0.315752 1.329118,-0.537952 0.2561,-0.136699 0.508276,-0.287148 0.751375,-0.433048 l 0.0067,-0.0041 c 0.2794,-0.1685 0.570714,-0.34291 0.866614,-0.49351 0.1497,-0.0763 0.322338,-0.174462 0.466638,-0.325562 0.3555,-0.370399 0.772438,-0.815277 1.169438,-1.290877 0.307,-0.3693 0.627014,-0.767999 0.869714,-1.229899 0.0699,-0.1315 0.133036,-0.26854 0.189136,-0.38964 l 0.0016,-0.0031 c 0.0797,-0.1787 0.169451,-0.355649 0.266651,-0.525549 0.1444,-0.2414 0.314262,-0.625667 0.504362,-1.142566 0.0024,-0.006 0.201029,-0.552917 0.241329,-0.706417 0.081,-0.25 0.13258,-0.524847 0.16278,-0.864547 0.0093,-0.1045 0.02181,-0.211409 0.03411,-0.314709 l 0.0015,-0.01137 c 0.0278,-0.2302 0.05641,-0.468202 0.05271,-0.715202 -0.0046,-0.413399 -0.02421,-0.793737 -0.05891,-1.163236 -0.0086,-0.0931 -0.01454,-0.191903 -0.01964,-0.280603 -0.0062,-0.1706 -0.02254,-0.342697 -0.04754,-0.511597 -0.0731,-0.4391 -0.195707,-0.900942 -0.385507,-1.453141 -0.1383,-0.4021 -0.263842,-0.763629 -0.398942,-1.119829 -0.0314,-0.0828 -0.06103,-0.170264 -0.09043,-0.254764 l -0.0021,-0.0057 c -0.0917,-0.266099 -0.186432,-0.541048 -0.349332,-0.781347 -0.1274,-0.1886 -0.248453,-0.389394 -0.365353,-0.582394 l -0.0057,-0.0093 c -0.2151,-0.356199 -0.437786,-0.724616 -0.717786,-1.057816 -0.274099,-0.3259 -0.503012,-0.537117 -0.767911,-0.706417 -0.2028,-0.1299 -0.354257,-0.256992 -0.476457,-0.400492 -0.3528,-0.4176 -0.79061,-0.756638 -1.282609,-0.993738 -0.5271,-0.2528 -1.091419,-0.515766 -1.683618,-0.701766 -0.0624,-0.0196 -0.124704,-0.04038 -0.194304,-0.06408 h -0.0026 c -0.186199,-0.0633 -0.380678,-0.129297 -0.591178,-0.163297 -0.2465,-0.0386 -0.536972,-0.08675 -0.822172,-0.152446 -0.342,-0.0771 -0.692631,-0.122242 -1.04283,-0.133842 z m -0.0093,0.233578 c 0.3364,0.0117 0.673189,0.05477 1.001489,0.128674 0.2922,0.0671 0.587175,0.116663 0.837675,0.156063 0.1909,0.0302 0.375038,0.09285 0.552938,0.152445 h 0.0021 c 0.071,0.0233 0.135088,0.04655 0.199988,0.06615 0.577399,0.1813 1.132513,0.440064 1.652612,0.689364 0.463,0.2223 0.875679,0.542527 1.207678,0.934826 0.1373,0.1615 0.3045,0.302251 0.5271,0.445451 0.2431,0.156 0.456785,0.353625 0.714685,0.660425 0.2687,0.3192 0.486615,0.679345 0.697115,1.027844 l 0.0057,0.0093 c 0.1185,0.1965 0.241088,0.399846 0.372588,0.593246 0.144999,0.214699 0.234627,0.475187 0.321427,0.727087 l 0.0021,0.0052 c 0.0298,0.0863 0.06042,0.175382 0.09302,0.261482 0.133899,0.3532 0.258741,0.713628 0.395841,1.113627 0.1862,0.5396 0.305105,0.989102 0.376204,1.414901 0.0237,0.1606 0.03981,0.326159 0.04651,0.488859 0.0052,0.0882 0.01105,0.188488 0.02015,0.286288 0.034,0.363399 0.05333,0.738267 0.05943,1.145666 2e-4,0.2307 -0.02756,0.460563 -0.05426,0.683163 l -10e-4,0.01188 c -0.0124,0.105 -0.02554,0.213628 -0.03514,0.321428 -0.0286,0.321999 -0.07694,0.580387 -0.152445,0.813387 l -0.0057,0.01757 c -0.0438,0.137099 -0.409736,1.265137 -0.719336,1.782836 -0.1016,0.1762 -0.195619,0.360737 -0.278019,0.546737 l -0.0016,0.0031 c -0.055,0.1185 -0.117368,0.252605 -0.183968,0.379305 -0.2328,0.442299 -0.543743,0.829892 -0.842843,1.189591 -0.392099,0.4714 -0.805369,0.910359 -1.158069,1.277958 -0.1204,0.1255 -0.272426,0.21187 -0.404626,0.27957 -0.3026,0.1542 -0.596567,0.330345 -0.880567,0.500745 l -0.0067,0.0041 c -0.2408,0.144399 -0.488841,0.293781 -0.741041,0.42788 -0.409199,0.2147 -0.84171,0.390266 -1.285709,0.519865 -0.0932,0.0277 -0.185986,0.05888 -0.276986,0.08888 l -0.0062,0.0021 c -0.1259,0.0419 -0.255806,0.08529 -0.385506,0.119889 -0.2037,0.0543 -0.416901,0.07829 -0.622701,0.101286 h -0.0062 c -0.1322,0.0149 -0.26896,0.03044 -0.40256,0.05374 -0.330699,0.0621 -0.668523,0.09539 -1.005623,0.09818 -0.1096,0 -0.219279,-0.0041 -0.326078,-0.0124 -0.1687,-0.0136 -0.340246,-0.01885 -0.506946,-0.02325 l -0.0031,-5.2e-4 c -0.2772,-0.0088 -0.563392,-0.0176 -0.841292,-0.0646 -0.1081,-0.0162 -0.218746,-0.02766 -0.328145,-0.03256 -0.0011,-10e-5 -0.0025,-5.2e-4 -0.0036,-5.2e-4 -0.0012,0 -0.002,4.2e-4 -0.0031,5.2e-4 l -0.08475,-0.0062 c -0.0785,-0.0056 -0.157294,-0.01264 -0.234094,-0.02584 -0.061,-0.0105 -0.122451,-0.02037 -0.183451,-0.02997 l -0.01705,-0.0026 c -0.104199,-0.016 -0.211659,-0.03266 -0.316259,-0.05426 -0.2607,-0.0531 -0.509326,-0.158133 -0.749825,-0.259933 l -0.0093,-0.0041 c -0.1283,-0.0542 -0.261208,-0.110113 -0.394808,-0.157613 -0.3902,-0.1396 -0.744573,-0.356374 -1.087272,-0.566374 -0.1299,-0.0796 -0.264275,-0.161562 -0.399975,-0.239261 -0.1599,-0.0918 -0.319373,-0.189204 -0.473873,-0.283704 -0.1341,-0.082 -0.286265,-0.175049 -0.433565,-0.260449 -0.3284,-0.186 -0.623181,-0.427769 -0.868681,-0.714169 -0.281499,-0.331299 -0.540946,-0.685399 -0.775146,-1.051098 -0.3634,-0.5648 -0.778811,-1.225998 -1.113111,-1.926498 -0.286299,-0.610299 -0.523582,-1.24981 -0.699182,-1.902209 -0.0652,-0.2388 -0.100475,-0.489139 -0.134875,-0.731738 -0.0101,-0.0699 -0.02031,-0.141057 -0.03101,-0.211357 -0.0698,-0.4656 -0.08899,-0.871219 -0.05529,-1.242818 0.0149,-0.1653 0.02139,-0.333411 0.02739,-0.496611 0.0082,-0.2175 0.01722,-0.442159 0.04702,-0.664559 0.0698,-0.523599 0.141008,-0.994359 0.302307,-1.456758 0.1143,-0.3289 0.251456,-0.653917 0.383956,-0.968417 l 0.05426,-0.129707 c 0.248,-0.595 0.555206,-1.168657 0.909506,-1.706356 0.0989,-0.1485 0.194621,-0.302836 0.287321,-0.451136 l 0.0041,-0.0062 c 0.1127,-0.181199 0.229516,-0.36897 0.351916,-0.54777 0.2012,-0.2942 0.40225,-0.527535 0.61495,-0.713135 0.526699,-0.457599 1.102891,-0.862043 1.71359,-1.200443 0.531199,-0.2964 0.978332,-0.500572 1.406632,-0.643372 0.1081,-0.036 0.216311,-0.07687 0.32091,-0.116272 h 0.0031 c 0.1611,-0.0609 0.327611,-0.124132 0.496611,-0.170532 0.163099,-0.0419 0.330027,-0.07612 0.497127,-0.09922 l 0.01344,-0.0021 c 0.0663,-0.0105 0.134755,-0.02149 0.202055,-0.03359 l 0.09147,-0.01602 c 0.3259,-0.0582 0.662671,-0.118537 0.991671,-0.195337 0.189899,-0.044 0.392913,-0.05431 0.601513,-0.06201 0.1318,-0.0049 0.265192,-0.01467 0.394291,-0.02377 h 0.0072 c 0.2363,-0.0168 0.48052,-0.03375 0.72192,-0.02325 z M 19.2609,11.307405 c -0.0387,0 -0.07746,0.003 -0.115755,0.0078 -0.1364,0.0137 -0.267222,0.06163 -0.379822,0.139526 -0.1084,0.0763 -0.192579,0.182291 -0.242879,0.304891 -0.0395,0.0993 -0.05995,0.205126 -0.05995,0.312126 0,0.0375 0.0023,0.07555 0.0072,0.112654 0.0134,0.1444 0.06405,0.282643 0.146244,0.402043 0.0763,0.1083 0.182291,0.192779 0.304891,0.242879 0.0922,0.037 0.190605,0.05633 0.289905,0.05633 h 0.0062 c 0.0348,0 0.06937,-0.0024 0.10387,-0.0062 0.089,-0.0086 0.176816,-0.02986 0.259416,-0.06356 0.0766,-0.0332 0.149741,-0.07534 0.217041,-0.12454 0.0329,-0.022 0.05271,-0.059 0.05271,-0.0987 0,-0.0059 -6.5e-4,-0.01167 -0.0016,-0.01757 -0.0024,-0.0306 -0.01692,-0.05915 -0.04082,-0.07855 -0.0204,-0.0159 -0.04593,-0.0248 -0.07183,-0.0248 -0.0057,0 -0.01135,7.5e-4 -0.01705,0.0016 -0.0185,0.0019 -0.03649,0.008 -0.05219,0.01809 -0.0517,0.0353 -0.106831,0.06572 -0.164331,0.08992 -0.0608,0.0239 -0.124652,0.03928 -0.189652,0.04548 -0.0269,0.0039 -0.05445,0.0057 -0.08165,0.0057 -0.0737,0 -0.146874,-0.01437 -0.214974,-0.04237 -0.0808,-0.0351 -0.149704,-0.09333 -0.197404,-0.167431 -0.0623,-0.1034 -0.09509,-0.222332 -0.09509,-0.343132 0,-0.0703 0.01127,-0.140522 0.03307,-0.207222 0.03,-0.0829 0.08403,-0.155023 0.15503,-0.207223 0.0822,-0.0583 0.178552,-0.0934 0.279052,-0.101802 0.03,-0.0038 0.06065,-0.0057 0.09095,-0.0057 0.0349,0 0.06999,0.0027 0.104386,0.0078 0.0616,0.0109 0.122568,0.02774 0.180868,0.05064 0.0128,0.0047 0.02619,0.0072 0.03979,0.0072 0.0049,0 0.0096,-4.3e-4 0.01447,-10e-4 0.0321,-0.0025 0.06195,-0.01843 0.08165,-0.04392 0.0155,-0.0198 0.02429,-0.04456 0.02429,-0.06976 0,-0.0045 -4.3e-4,-0.0089 -10e-4,-0.01344 -0.0032,-0.0458 -0.03255,-0.0853 -0.07545,-0.101803 -0.0765,-0.033 -0.156946,-0.05766 -0.238746,-0.07286 -0.0498,-0.0082 -0.100395,-0.01292 -0.150895,-0.01292 z m 1.533757,0.01447 c -0.03,0 -0.05873,0.01101 -0.08113,0.03101 -0.0268,0.022 -0.04351,0.05387 -0.04651,0.08837 l -0.120406,1.286744 c -4e-4,0.004 -5.2e-4,0.008 -5.2e-4,0.01188 0,0.0665 0.05059,0.122358 0.116789,0.128158 l 10e-4,5.2e-4 h 0.01395 5.2e-4 c 0.0296,0 0.05813,-0.01024 0.08113,-0.02894 0.027,-0.0216 0.04391,-0.05377 0.04651,-0.08837 l 0.120922,-1.28571 c 4e-4,-0.004 5.2e-4,-0.0083 5.2e-4,-0.0124 0,-0.0678 -0.05136,-0.124441 -0.118856,-0.130741 -0.0046,-5e-4 -0.0094,-5.2e-4 -0.01395,-5.2e-4 z m 1.644861,0.339514 c -0.0506,0 -0.101196,0.0048 -0.150896,0.01447 -0.129199,0.0269 -0.248231,0.08979 -0.343131,0.181385 -0.1704,0.166899 -0.26665,0.396086 -0.26665,0.634586 0,0.046 0.0038,0.09206 0.01085,0.13746 0.0217,0.129799 0.07993,0.251132 0.167431,0.349332 0.0951,0.1041 0.2167,0.181226 0.3514,0.222726 0.0861,0.0291 0.17575,0.04426 0.26665,0.04496 0.1823,-2e-4 0.35766,-0.0709 0.488859,-0.197404 0.1696,-0.1646 0.265617,-0.391569 0.265617,-0.627869 0,-0.0471 -0.004,-0.09406 -0.01137,-0.140559 -0.0212,-0.1306 -0.0791,-0.252617 -0.166398,-0.351917 -0.0941,-0.104 -0.215232,-0.181009 -0.349332,-0.222209 -0.0845,-0.0297 -0.173433,-0.04496 -0.263033,-0.04496 z m -5.059123,0.03359 c -0.0157,0 -0.03139,0.003 -0.04599,0.0088 l -0.782898,0.302307 c -0.0328,0.012 -0.05945,0.03778 -0.07235,0.07028 -0.0067,0.0157 -0.0098,0.03251 -0.0098,0.04961 0,0.0171 0.0031,0.03381 0.0098,0.04961 l 0.45837,1.187008 c 0.019,0.0495 0.06637,0.08198 0.119372,0.08268 0.0164,-10e-5 0.03224,-0.0032 0.04754,-0.0093 l 0.783414,-0.303858 c 0.0309,-0.0112 0.05658,-0.03418 0.07028,-0.06408 0.0073,-0.0158 0.01085,-0.03314 0.01085,-0.05064 0,-0.0152 -0.0031,-0.03076 -0.0088,-0.04496 -0.0183,-0.0482 -0.06415,-0.0801 -0.115755,-0.0801 -0.0156,0 -0.03149,0.0031 -0.04599,0.0088 l -0.660941,0.256315 -0.142627,-0.368453 0.590145,-0.229444 c 0.0309,-0.0113 0.05596,-0.03418 0.06976,-0.06408 0.0074,-0.0158 0.01137,-0.03314 0.01137,-0.05064 0,-0.0152 -0.0031,-0.03076 -0.0088,-0.04496 -0.0184,-0.0482 -0.06416,-0.0801 -0.115756,-0.0801 -0.0156,0 -0.03149,0.0031 -0.04599,0.0088 l -0.590661,0.228926 -0.14211,-0.366386 0.660941,-0.256315 c 0.031,-0.0112 0.05606,-0.03418 0.06976,-0.06408 0.0075,-0.0158 0.01137,-0.03314 0.01137,-0.05064 0,-0.0154 -0.003,-0.03066 -0.0088,-0.04496 -0.0182,-0.0482 -0.06415,-0.0801 -0.115755,-0.0801 z m 5.063257,0.216007 h 5.2e-4 c 0.0613,5e-4 0.122034,0.01069 0.179834,0.03049 0.0916,0.0278 0.173794,0.08075 0.237194,0.152446 0.0574,0.067 0.09457,0.149378 0.106971,0.236678 0.0035,0.0266 0.0052,0.0533 0.0052,0.0801 0,0.0689 -0.01151,0.138089 -0.03411,0.203089 -0.0287,0.0916 -0.07841,0.174912 -0.145211,0.243912 -0.0618,0.0629 -0.140343,0.106908 -0.226343,0.126608 -0.0342,0.0063 -0.06897,0.0098 -0.103869,0.0098 -0.1576,0 -0.308596,-0.06547 -0.415996,-0.180867 -0.0568,-0.0671 -0.09322,-0.149579 -0.10542,-0.236678 -0.0029,-0.025 -0.0047,-0.05067 -0.0047,-0.07597 0,-0.1677 0.0641,-0.328835 0.178801,-0.451135 0.0616,-0.0627 0.139709,-0.107024 0.225309,-0.127124 0.0333,-0.0077 0.0676,-0.01137 0.101803,-0.01137 z m 2.000911,0.610816 c -0.0086,0 -0.01754,8.8e-4 -0.02584,0.0026 -0.0339,0.0062 -0.0638,0.02566 -0.0832,0.05426 l -0.47749,0.677994 c -0.0708,0.0952 -0.110722,0.209646 -0.114722,0.328146 -10e-5,0.0037 0,0.0077 0,0.01137 0,0.103299 0.0276,0.205139 0.0801,0.294038 0.106399,0.1819 0.287243,0.307799 0.494543,0.345199 0.0349,0.0065 0.07044,0.0098 0.105937,0.0098 0.0711,0 0.141856,-0.01274 0.208256,-0.03824 0.1101,-0.0442 0.203617,-0.121458 0.268717,-0.220658 l 0.474907,-0.677478 c 0.0154,-0.022 0.02377,-0.04855 0.02377,-0.07545 0,-0.0427 -0.02091,-0.08289 -0.05581,-0.107487 -0.0211,-0.0152 -0.04676,-0.02377 -0.07286,-0.02377 -0.0085,0 -0.01702,8.8e-4 -0.02532,0.0026 -0.0339,0.0063 -0.0638,0.02628 -0.0832,0.05478 l -0.478524,0.682645 c -0.0374,0.0574 -0.091,0.102608 -0.153996,0.129708 -0.0391,0.0159 -0.08079,0.02429 -0.12299,0.02429 -0.0194,0 -0.03878,-0.0018 -0.05788,-0.0052 -0.1276,-0.0237 -0.238774,-0.101941 -0.304374,-0.213941 -0.0289,-0.0499 -0.04444,-0.106631 -0.04444,-0.164331 0,-0.0041 4.2e-4,-0.0083 5.2e-4,-0.0124 0.0042,-0.0685 0.02836,-0.134336 0.06976,-0.189136 l 0.478524,-0.683162 c 0.0154,-0.022 0.02377,-0.04813 0.02377,-0.07493 0,-0.0429 -0.02071,-0.08299 -0.05581,-0.107487 -0.021,-0.0154 -0.04635,-0.02377 -0.07235,-0.02377 z m -9.059912,0.234611 c -0.124334,3.1e-4 -0.262847,0.0552 -0.412378,0.163297 l -0.39429,0.288355 c -0.0286,0.02 -0.04706,0.05118 -0.05116,0.08578 -9e-4,0.0063 -0.0015,0.01282 -0.0015,0.01912 0,0.0279 0.0091,0.0547 0.02584,0.077 l 0.756025,1.035595 c 0.0197,0.0282 0.05075,0.04719 0.08475,0.05219 0.0067,10e-4 0.01345,0.0015 0.02015,0.0015 h 5.2e-4 c 0.0272,0 0.05385,-0.0088 0.07545,-0.02532 0.0282,-0.0199 0.04701,-0.05023 0.05271,-0.08423 0.0013,-0.0073 0.0021,-0.01524 0.0021,-0.02274 0,-0.0272 -0.0089,-0.05333 -0.02532,-0.07493 l -0.266134,-0.364319 0.321944,-0.235127 c 0.0699,-0.051 0.133769,-0.07248 0.190169,-0.06408 0.055,0.0068 0.106712,0.02996 0.148312,0.06666 0.0462,0.042 0.08846,0.08883 0.125057,0.139526 l 0.03669,0.05116 c 0.0196,0.0285 0.05003,0.04773 0.08423,0.05323 0.0059,8e-4 0.01209,0.001 0.01809,0.001 0.0291,0 0.0573,-0.0094 0.0801,-0.02739 0.0279,-0.0196 0.04668,-0.05043 0.05168,-0.08423 0.0012,-0.007 0.0015,-0.01357 0.0015,-0.02067 0,-0.0271 -0.0086,-0.05385 -0.0248,-0.07545 l -0.05684,-0.07803 c -0.0619,-0.0826 -0.13851,-0.153589 -0.22531,-0.209289 -0.0541,-0.0376 -0.118068,-0.05788 -0.183968,-0.05788 -0.0134,0 -0.02691,8.8e-4 -0.04031,0.0026 0.0261,-0.0544 0.03979,-0.11375 0.03979,-0.17415 0,-0.0045 10e-5,-0.009 0,-0.01344 -0.0027,-0.0888 -0.03298,-0.17468 -0.08578,-0.245979 -0.0737,-0.1071 -0.193278,-0.173518 -0.322978,-0.179318 -0.0082,-4.7e-4 -0.016,-5.4e-4 -0.02429,-5.2e-4 z m -0.01344,0.257348 c 0.0645,3e-4 0.124464,0.03345 0.159164,0.08785 0.0269,0.0341 0.04186,0.07659 0.04186,0.119889 0,0.02434 -0.0051,0.04916 -0.01395,0.07183 -0.02638,0.07274 -0.08592,0.143322 -0.176733,0.209289 l -0.276472,0.203606 -0.272851,-0.372587 0.26975,-0.196887 c 0.1113,-0.0812 0.201934,-0.12299 0.269234,-0.12299 z m 4.982125,0.587561 c -0.1295,0 -0.256039,0.0093 -0.380338,0.01809 -0.0798,0.0056 -0.170199,0.01169 -0.255799,0.01499 -0.1362,0.0011 -0.272043,0.01557 -0.405143,0.04237 -0.2117,0.0491 -0.429054,0.08807 -0.639754,0.125574 l -0.05633,0.01034 c -0.0466,0.0082 -0.09298,0.01535 -0.137976,0.02325 -0.1114,0.0154 -0.221929,0.03731 -0.330729,0.06511 -0.1122,0.0308 -0.221278,0.07234 -0.326078,0.112137 h -0.0021 c -0.0673,0.0256 -0.137289,0.05141 -0.206189,0.07441 -0.2817,0.0932 -0.575292,0.228097 -0.924492,0.422197 -0.400199,0.2221 -0.776812,0.486715 -1.122412,0.786515 -0.156899,0.1411 -0.295978,0.301274 -0.412378,0.476974 -0.0801,0.1164 -0.156043,0.239284 -0.229442,0.357084 l -0.0031,0.0052 c -0.0594,0.0954 -0.121169,0.193655 -0.183969,0.288355 -0.232699,0.3526 -0.431462,0.727762 -0.593762,1.117761 l -0.03514,0.08372 c -0.0861,0.2047 -0.175414,0.416586 -0.250114,0.631486 -0.1062,0.3063 -0.153154,0.615181 -0.198954,0.958081 -0.0196,0.1471 -0.02519,0.2947 -0.03049,0.437699 -0.004,0.1036 -0.0079,0.21086 -0.01757,0.31626 -0.0233,0.2472 -0.01063,0.516423 0.03617,0.823723 0.0065,0.0419 0.0125,0.08367 0.0186,0.125573 l 0.0015,0.01034 c 0.0192,0.161999 0.04938,0.324574 0.08888,0.483174 0.1148,0.4266 0.269653,0.844552 0.457853,1.243852 0.2186,0.458199 0.48892,0.888021 0.72502,1.25522 0.153299,0.2394 0.323245,0.469997 0.506945,0.687297 0.1652,0.1927 0.363344,0.355891 0.583944,0.480591 0.0961,0.0556 0.193036,0.115032 0.278536,0.167431 l 0.0052,0.0031 c 0.0987,0.0603 0.200824,0.122684 0.302824,0.181384 0.0868,0.0496 0.172699,0.102479 0.255799,0.153479 0.225399,0.138 0.458536,0.280887 0.719336,0.372587 0.0859,0.0305 0.172398,0.06724 0.255798,0.102837 0.159,0.0673 0.323528,0.137016 0.500228,0.173116 0.0699,0.0144 0.142407,0.02527 0.212907,0.03617 0.0415,0.0065 0.08302,0.01315 0.124023,0.02015 0.0709,0.0111 0.143691,0.0185 0.215491,0.0217 h 0.0031 c 0.0681,0.0031 0.136722,0.0099 0.204122,0.02015 0.1863,0.0314 0.374572,0.03729 0.557072,0.04289 0.1011,0.003 0.215612,0.0069 0.324011,0.0155 0.071,0.0056 0.143042,0.0083 0.217041,0.0083 0.223,-0.0017 0.44596,-0.02338 0.664559,-0.06408 0.0861,-0.0151 0.173699,-0.02512 0.258899,-0.03462 0.1395,-0.0121 0.279162,-0.03541 0.414962,-0.06821 0.0862,-0.0232 0.171098,-0.05116 0.255798,-0.07906 0.0554,-0.0184 0.118634,-0.03926 0.179834,-0.05736 0.2927,-0.0851 0.577294,-0.200798 0.847494,-0.342098 0.1643,-0.0875 0.325758,-0.184353 0.482658,-0.279053 l 0.0041,-0.0031 c 0.182,-0.109199 0.370407,-0.22201 0.564307,-0.32091 0.104699,-0.049 0.200803,-0.115788 0.283703,-0.196887 0.2294,-0.2391 0.498226,-0.524858 0.752926,-0.830957 0.196,-0.2356 0.400388,-0.490315 0.554488,-0.783415 0.0431,-0.0822 0.08272,-0.167181 0.120923,-0.249081 0.0527,-0.118099 0.112533,-0.234749 0.176733,-0.346748 0.2014,-0.3371 0.43059,-1.038756 0.47439,-1.176156 v -0.0031 c 0.055,-0.177199 0.08974,-0.361636 0.102836,-0.546736 0.0065,-0.072 0.01555,-0.146807 0.02325,-0.212907 0.0214,-0.15 0.03331,-0.301703 0.03411,-0.453202 -0.0042,-0.2657 -0.01717,-0.510042 -0.03927,-0.747242 -0.0047,-0.06083 -0.0079,-0.122457 -0.01137,-0.181901 v -5.2e-4 c -0.004,-0.108729 -0.01451,-0.218031 -0.03049,-0.325561 -0.0466,-0.2794 -0.124997,-0.574209 -0.246497,-0.928109 -0.0887,-0.258 -0.169715,-0.49072 -0.256315,-0.72192 -0.02,-0.0531 -0.03928,-0.10878 -0.05788,-0.16278 l -0.0026,-0.0078 c -0.058,-0.1679 -0.117858,-0.341259 -0.217558,-0.488859 -0.0854,-0.1265 -0.168012,-0.263673 -0.240812,-0.384472 -0.1378,-0.2284 -0.280587,-0.464045 -0.458887,-0.676445 -0.1725,-0.2051 -0.316308,-0.338201 -0.481108,-0.443901 -0.1202,-0.0737 -0.229144,-0.165718 -0.321944,-0.271818 -0.2221,-0.262499 -0.498636,-0.476185 -0.808736,-0.625284 -0.3385,-0.1629 -0.700521,-0.330902 -1.079521,-0.450102 -0.0405,-0.0126 -0.08069,-0.02649 -0.119889,-0.03979 l -0.0088,-0.0031 c -0.1211,-0.045 -0.246721,-0.079 -0.373621,-0.101802 -0.160899,-0.0253 -0.349068,-0.05714 -0.535367,-0.09974 -0.2169,-0.0488 -0.439676,-0.07797 -0.661976,-0.08527 -0.0298,-0.0012 -0.0612,-0.0021 -0.0956,-0.0021 z m 0.0015,0.231511 c 0.0312,0 0.05982,1.5e-4 0.08682,0.0015 0.2079,0.0071 0.416084,0.03398 0.619083,0.07958 0.1925,0.044 0.386588,0.07674 0.551388,0.102836 0.1135,0.0211 0.226363,0.05272 0.334863,0.09302 l 0.0067,0.0021 c 0.0409,0.014 0.08347,0.02834 0.125574,0.04134 0.3641,0.114599 0.717382,0.279199 1.047481,0.437699 0.2809,0.1357 0.530322,0.329941 0.731222,0.568441 0.1078,0.1239 0.234337,0.230676 0.374137,0.316776 0.1439,0.0931 0.271898,0.211192 0.428398,0.397392 0.1669,0.1981 0.304816,0.426806 0.438216,0.647506 0.0742,0.1231 0.158313,0.262474 0.247013,0.393774 0.0824,0.1225 0.137586,0.281533 0.190686,0.435632 l 0.0026,0.0072 c 0.0191,0.0556 0.03854,0.112899 0.05995,0.169499 0.0866,0.2284 0.166765,0.459102 0.254765,0.715202 0.116399,0.341299 0.192694,0.624618 0.237194,0.891418 0.0142,0.099 0.02411,0.199623 0.02791,0.299723 0.0033,0.0589 0.0068,0.125786 0.01292,0.190686 0.0216,0.231 0.03434,0.469338 0.03824,0.728638 -0.0011,0.1412 -0.01256,0.283313 -0.03256,0.422713 h 5.2e-4 c -0.0081,0.0677 -0.01745,0.143925 -0.02325,0.219625 -0.0118,0.1679 -0.04384,0.334677 -0.09353,0.495577 l -0.001,0.0047 c -0.0426,0.1329 -0.264603,0.811863 -0.453203,1.127063 -0.0685,0.1192 -0.131585,0.24337 -0.187585,0.36897 -0.037,0.0794 -0.07527,0.161745 -0.116272,0.238745 -0.1436,0.2731 -0.339217,0.51659 -0.527616,0.74259 -0.2498,0.3006 -0.515057,0.582272 -0.741557,0.819072 -0.065,0.0619 -0.140192,0.112995 -0.221692,0.150895 -0.2012,0.1022 -0.39276,0.217679 -0.578259,0.329179 l -0.0047,0.0026 c -0.1541,0.0931 -0.313123,0.187852 -0.472323,0.272852 -0.2558,0.1347 -0.526369,0.244162 -0.803568,0.325562 -0.0645,0.0193 -0.129203,0.04096 -0.188103,0.06046 -0.0792,0.0263 -0.161612,0.05321 -0.240812,0.07441 -0.1251,0.0299 -0.252338,0.0506 -0.380338,0.0615 -0.0845,0.0096 -0.180686,0.02039 -0.273885,0.03669 -0.3168,0.0556 -0.57809,0.07253 -0.822689,0.05323 -0.114,-0.0091 -0.231264,-0.01292 -0.334864,-0.01602 -0.174599,-0.0055 -0.355666,-0.01109 -0.526066,-0.03979 -0.0719,-0.0113 -0.144857,-0.01904 -0.217557,-0.02274 -0.0896,-0.3173 -0.19071,-0.740717 -0.22841,-1.057817 -0.0101,-0.0851 -0.02082,-0.170298 -0.03152,-0.255798 -0.0298,-0.2618 -0.07607,-0.524782 -0.134875,-0.782381 l -0.0186,-0.07648 c -0.0466,-0.1876 -0.09329,-0.381442 -0.129191,-0.574642 -0.0121,-0.0652 -0.02306,-0.132404 -0.03256,-0.197404 -0.0254,-0.1615 -0.05165,-0.328159 -0.106454,-0.488859 -0.0081,-0.0233 -0.01585,-0.04783 -0.02325,-0.07183 -0.0358,-0.128199 -0.06597,-0.260224 -0.08837,-0.392224 l -0.01033,-0.05581 c -0.0203,-0.1061 -0.04418,-0.213377 -0.06718,-0.316777 -0.0117,-0.0524 -0.02291,-0.104396 -0.03411,-0.157096 -0.0056,-0.027 -0.01747,-0.08862 -0.03307,-0.173116 h 10e-4 c 0.0177,0.0048 0.03519,0.01077 0.05219,0.01757 0.0234,0.0103 0.04753,0.01937 0.07183,0.02687 0.0112,0.0037 0.02329,0.0077 0.03359,0.01188 0.0435,0.0161 0.08749,0.03008 0.12609,0.04237 0.0466,0.0149 0.08901,0.02863 0.129708,0.04393 0.0555,0.0225 0.110498,0.04786 0.163298,0.07596 0.0628,0.0339 0.128537,0.0641 0.195337,0.0894 0.0366,0.0133 0.07305,0.02564 0.109554,0.03824 l 0.0083,0.0031 c 0.1213,0.0369 0.239933,0.08538 0.352433,0.144177 0.0233,0.0132 0.04786,0.02596 0.07286,0.03876 0.2014,0.1004 0.41412,0.178911 0.63252,0.231511 0.099,0.0254 0.198822,0.04669 0.296622,0.06149 0.1244,0.0208 0.251355,0.03152 0.377755,0.03152 0.0529,0 0.106564,-0.0021 0.159163,-0.0057 0.1828,-0.0154 0.414688,-0.0083 0.640788,-0.0016 0.1902,0.0056 0.3697,0.01032 0.5271,0.0036 0.0664,-0.003 0.142959,-10e-5 0.223759,0.0016 h 0.0031 c 0.0469,0.0022 0.09481,0.0036 0.142111,0.0036 0.0473,0 0.09573,-0.001 0.142627,-0.0031 0.0212,-0.0024 0.04268,-0.0036 0.06408,-0.0036 0.0214,0 0.04288,8e-4 0.06408,0.0031 0.0482,0.0041 0.09681,0.0067 0.145211,0.0067 0.0408,0 0.08146,-0.0019 0.121956,-0.0047 0.062,-0.0032 0.141959,1.5e-4 0.220659,0.0015 0.0861,0.0026 0.175414,0.0051 0.250114,0 0.0183,-0.001 0.03689,-0.0015 0.05529,-0.0015 0.0299,0 0.06012,0.0011 0.08992,0.0036 h 0.0021 c 0.033,0.0023 0.06313,0.0047 0.09663,0.0047 h 0.0026 c 0.0338,-10e-5 0.0682,-0.0025 0.101803,-0.0067 0.089,-0.011 0.178,-0.02726 0.2651,-0.04806 l 0.08992,-0.0217 0.04651,-0.01137 c 0.0412,-0.0132 0.08181,-0.02949 0.120406,-0.04909 l 0.01705,-0.0083 0.02015,-0.0088 c 0.0611,-0.0265 0.1212,-0.05662 0.1788,-0.08992 0.0366,-0.0203 0.07452,-0.04133 0.117822,-0.06253 0.0145,-0.007 0.02921,-0.01354 0.04341,-0.01964 0.0516,-0.0209 0.10613,-0.03497 0.16123,-0.04237 0.1068,-0.0126 0.208556,-0.05322 0.294556,-0.117822 0.0381,-0.0299 0.07187,-0.06507 0.100769,-0.10387 0.0795,-0.100799 0.144453,-0.212662 0.192753,-0.331762 l 0.0057,-0.01447 c 8e-4,-0.0013 0.0014,-0.0025 0.0016,-0.0041 0.103599,-0.270699 0.153012,-0.500683 0.151412,-0.702282 10e-5,-0.0072 0,-0.0146 0,-0.02171 0,-0.115799 -0.009,-0.231315 -0.02584,-0.345715 -0.0053,-0.0523 -0.0083,-0.105013 -0.0083,-0.157613 0,-0.09 0.0083,-0.180318 0.02429,-0.268717 0.0277,-0.1765 -0.05878,-0.340776 -0.134875,-0.486276 l -0.0021,-0.0036 c -0.0205,-0.0391 -0.03971,-0.07602 -0.05581,-0.111621 -0.0305,-0.0664 -0.06065,-0.121632 -0.08785,-0.170532 -0.0485,-0.0824 -0.08877,-0.16985 -0.119373,-0.26045 -0.0157,-0.0478 -0.03449,-0.09528 -0.05529,-0.141076 -0.0058,-0.0126 -0.01104,-0.02524 -0.01654,-0.03824 -0.038,-0.101 -0.09897,-0.191917 -0.177767,-0.265617 -0.0268,-0.0252 -0.02804,-0.09008 -0.02894,-0.147277 v -0.01189 c -0.0023,-0.1085 -0.01236,-0.235885 -0.07286,-0.360185 -0.0931,-0.1918 -0.24312,-0.286038 -0.45682,-0.287838 -0.0862,0 -0.15791,2.7e-4 -0.22841,0.0021 -0.1069,0.0016 -0.207881,0.0034 -0.341581,-0.0026 h -0.0031 c -0.0493,-6e-4 -0.09839,-0.0099 -0.144694,-0.02687 -0.223699,-0.1012 -0.405013,-0.09809 -0.598413,-0.09509 -0.0271,0.0011 -0.05538,0.0016 -0.08268,0.0016 -0.0932,0 -0.186536,-0.0066 -0.278536,-0.02015 -0.0053,0 -0.02638,-0.0033 -0.08578,-0.0098 -0.0945,-0.0103 -0.316231,-0.03484 -0.340031,-0.04134 -0.2009,-0.0699 -0.368186,-0.19783 -0.545186,-0.33383 l -0.04341,-0.03359 c -0.1988,-0.1518 -0.434321,-0.234256 -0.638721,-0.294556 -0.319,-0.0943 -0.654544,-0.112744 -1.024744,-0.05684 -0.252799,0.0381 -0.494954,0.112935 -0.729154,0.186035 l -0.0052,0.0015 c -0.0995,0.0307 -0.201707,0.06243 -0.302307,0.09043 -0.1111,0.0309 -0.226381,0.04824 -0.341581,0.05064 -0.1663,0.0025 -0.335611,-0.0065 -0.499711,-0.0155 -0.1415,-0.0093 -0.284748,-0.0155 -0.426848,-0.0155 -0.0703,0 -0.14279,0.0019 -0.21239,0.0041 l -0.09663,0.0047 c -0.0477,0.0026 -0.07667,0.0038 -0.100769,0.0047 -0.0375,0.0014 -0.06407,0.0023 -0.131775,0.0072 l -0.0057,5.2e-4 -0.0047,0.0016 c -0.0042,0.0017 -0.0082,0.0029 -0.0124,0.0041 -0.027,-0.1436 -0.08859,-0.416029 -0.116789,-0.503328 -0.0021,-0.0061 -0.0031,-0.0122 -0.0031,-0.0186 0,-0.0163 0.0069,-0.03199 0.01912,-0.04289 0.0215,-0.0229 0.04076,-0.04823 0.05736,-0.07493 0.0087,-0.0128 0.01712,-0.02476 0.02532,-0.03566 0.1012,-0.1313 0.02149,-0.297419 -0.03411,-0.453719 -0.0563,-0.1577 -0.190184,-0.274842 -0.353984,-0.309542 -0.2449,-0.0566 -0.489301,0.03509 -0.622701,0.234094 -0.0603,0.0906 -0.04279,0.199173 -0.02739,0.295073 0.0016,0.0107 0.0033,0.02154 0.0047,0.03204 0.0352,0.2377 0.206007,0.372341 0.385507,0.482141 0.0785,0.0482 0.09187,0.08749 0.09457,0.116789 0.0024,0.0233 0.02359,0.195057 0.03669,0.300757 -0.0097,-0.0018 -0.01932,-0.0045 -0.02842,-0.0078 l -0.01034,-0.0036 -0.01033,0.0026 c -0.0092,0.0022 -0.01816,0.0058 -0.02636,0.01034 -0.0277,0.0156 -0.04531,0.04426 -0.04651,0.07596 -2e-4,0.0058 -5.2e-4,0.01177 -5.2e-4,0.01757 0,0.0527 0.0082,0.105247 0.02377,0.155547 0.01,0.0349 0.0173,0.07097 0.0217,0.10697 0.0082,0.068 0.03632,0.229817 0.124023,0.268717 0.0271,0.0116 0.05512,0.0211 0.08372,0.02791 0.0545,0.2145 0.09969,0.43344 0.132292,0.65164 l 0.0067,0.04134 c 0.0109,0.064 0.02157,0.12792 0.03307,0.19172 0.0361,0.2007 0.07244,0.401531 0.109037,0.60203 0.0073,0.0398 0.01417,0.08009 0.02067,0.11989 0.0163,0.0961 0.03298,0.195172 0.05788,0.291972 0.0857,0.332699 0.156025,0.674988 0.219625,0.995288 0.0035,0.0194 0.0064,0.03921 0.0078,0.05891 -0.0505,0.0233 -0.07868,0.05608 -0.08268,0.09819 -0.0426,0.2058 0.06677,0.311836 0.168465,0.367936 3e-4,0.0038 0.0011,0.0077 0.0021,0.01137 0.0233,0.0815 0.0436,0.165015 0.0615,0.256315 0.01,0.0498 0.02334,0.09789 0.03824,0.144694 l 0.0057,0.01757 c 0.0144,0.0458 0.02602,0.09284 0.03462,0.140043 0.0592,0.3613 0.152913,0.716115 0.243913,1.048515 0.0665,0.2585 0.120246,0.522249 0.155546,0.787549 0.0233,0.1511 0.05105,0.302502 0.07855,0.450102 0.0135,0.0724 0.02699,0.145257 0.03979,0.217557 0.0106,0.0609 0.02146,0.121718 0.03256,0.182418 l 0.0062,0.03721 c 0.0519,0.2908 0.105696,0.591385 0.157096,0.887285 0.0396,0.227899 0.100163,0.46406 0.156063,0.67076 -0.1264,-0.0385 -0.252187,-0.08584 -0.372587,-0.140043 -0.0869,-0.0368 -0.176318,-0.07459 -0.268718,-0.107487 -0.238,-0.0847 -0.460511,-0.220951 -0.675411,-0.35295 -0.0847,-0.0519 -0.172399,-0.10518 -0.261999,-0.15658 -0.0996,-0.0568 -0.19984,-0.118884 -0.29714,-0.178284 l -0.0057,-0.0031 c -0.0863,-0.0531 -0.18397,-0.113016 -0.28267,-0.170016 -0.1978,-0.1116 -0.375066,-0.257331 -0.522966,-0.429431 -0.1767,-0.2094 -0.341876,-0.433342 -0.489376,-0.664042 -0.232798,-0.3608 -0.49775,-0.783366 -0.710549,-1.228866 -0.1823,-0.386299 -0.330834,-0.791378 -0.441834,-1.204577 -0.0371,-0.149 -0.06562,-0.302153 -0.08372,-0.454753 l -0.0015,-0.01034 c -0.0061,-0.0426 -0.012,-0.08504 -0.0186,-0.127641 -0.044,-0.2885 -0.05542,-0.539629 -0.03462,-0.768429 0.0102,-0.111699 0.01419,-0.222062 0.01809,-0.328662 0.0052,-0.137699 0.01074,-0.279595 0.02894,-0.415995 0.0442,-0.3301 0.0889,-0.626706 0.188102,-0.912606 0.0721,-0.207899 0.15943,-0.415717 0.244429,-0.617016 l 0.03514,-0.08423 c 0.1563,-0.376 0.349109,-0.737554 0.573609,-1.077454 0.0647,-0.0975 0.127351,-0.197955 0.186551,-0.294555 l 0.0031,-0.0052 c 0.0722,-0.1164 0.146976,-0.235433 0.224276,-0.349332 0.105,-0.1593 0.230271,-0.305449 0.37207,-0.433049 0.3331,-0.2892 0.697039,-0.544093 1.083138,-0.758093 0.3361,-0.1863 0.616984,-0.315527 0.884184,-0.404627 0.0734,-0.0247 0.145574,-0.05173 0.214974,-0.07803 h 0.0021 c 0.1004,-0.038 0.204442,-0.07752 0.306441,-0.10542 0.1005,-0.026 0.203125,-0.04575 0.305925,-0.05995 0.0466,-0.0072 0.09409,-0.01485 0.141593,-0.02325 l 0.05633,-0.01033 c 0.213499,-0.0382 0.434456,-0.07714 0.652156,-0.127641 0.1185,-0.0234 0.239285,-0.03621 0.360185,-0.03721 0.0903,-0.0032 0.182883,-0.0096 0.264583,-0.0155 0.1194,-0.0083 0.242802,-0.01705 0.363802,-0.01705 z m 5.806881,0.291455 c -0.016,0 -0.03216,9.8e-4 -0.04806,0.0026 -0.0828,0.0104 -0.160676,0.04512 -0.224276,0.09922 -0.0702,0.0538 -0.117458,0.132742 -0.131258,0.220142 -0.0028,0.022 -0.0041,0.04405 -0.0041,0.06615 0,0.0566 0.0092,0.112998 0.02739,0.166398 0.0322,0.0913 0.07067,0.181617 0.113171,0.268717 0.037,0.0784 0.06423,0.140635 0.08113,0.186035 0.0144,0.0366 0.0217,0.07584 0.0217,0.115239 v 0.0031 c -10e-5,0.0302 -0.01412,0.05913 -0.03772,0.07803 -0.0313,0.0298 -0.07256,0.04599 -0.115755,0.04599 -0.0165,0 -0.03329,-0.0024 -0.04909,-0.0072 -0.0631,-0.0191 -0.132589,-0.07291 -0.206189,-0.160714 -0.0893,-0.104599 -0.155186,-0.227568 -0.193786,-0.359667 -0.005,-0.0177 -0.01394,-0.03448 -0.02584,-0.04858 -0.0208,-0.0259 -0.05207,-0.04149 -0.08527,-0.04289 -0.0021,-10e-5 -0.004,0 -0.0062,0 -0.0566,0 -0.106306,0.03812 -0.120406,0.09302 -0.0036,0.012 -0.0052,0.02471 -0.0052,0.03721 0,0.0125 0.0016,0.02469 0.0052,0.03669 0.0508,0.1683 0.135997,0.324687 0.249597,0.458887 0.0634,0.0784 0.142411,0.143686 0.231511,0.190686 0.068,0.0356 0.143958,0.05471 0.220658,0.05581 0.0102,0 0.01999,-3.5e-4 0.03049,-0.0015 0.0825,-0.006 0.161276,-0.03818 0.224276,-0.09198 0.0792,-0.0661 0.125826,-0.140692 0.139526,-0.221692 0.0043,-0.0259 0.0067,-0.05225 0.0067,-0.07855 0,-0.0513 -0.0084,-0.102295 -0.0248,-0.150895 -0.0315,-0.089 -0.06986,-0.176649 -0.112655,-0.260449 -0.0316,-0.0605 -0.06017,-0.123352 -0.08527,-0.186552 -0.0141,-0.0355 -0.0217,-0.07332 -0.0217,-0.111621 0,-0.005 3.2e-4,-0.0105 5.2e-4,-0.0155 0.0023,-0.0368 0.02021,-0.07072 0.04961,-0.09302 0.0295,-0.0255 0.06745,-0.03927 0.106453,-0.03927 0.0211,0 0.042,0.0039 0.0615,0.01189 0.0699,0.0233 0.139773,0.07635 0.205673,0.155546 0.0709,0.0843 0.127514,0.180187 0.166914,0.283186 0.0044,0.0155 0.0117,0.03029 0.0217,0.04289 0.0209,0.0263 0.0527,0.04124 0.0863,0.04134 h 0.0021 c 0.0298,0 0.05833,-0.01036 0.08113,-0.02946 0.0297,-0.0219 0.04754,-0.05663 0.04754,-0.09353 0,-0.0151 -0.0031,-0.03002 -0.0088,-0.04392 -0.0509,-0.1368 -0.125659,-0.263854 -0.220659,-0.374654 -0.0662,-0.0831 -0.150163,-0.150921 -0.245463,-0.197921 -0.0646,-0.0323 -0.136056,-0.04909 -0.208256,-0.04909 z m -12.358366,0.06821 c -0.0656,0 -0.130769,0.01487 -0.190169,0.04237 -0.0931,0.0396 -0.182934,0.113676 -0.269234,0.221175 l -0.29869,0.372587 c -0.0184,0.0222 -0.02842,0.05026 -0.02842,0.07906 0,0.0059 2.3e-4,0.01187 10e-4,0.01757 0.004,0.0342 0.02138,0.0652 0.04857,0.0863 l 1.00149,0.803052 c 0.0224,0.0188 0.05038,0.02894 0.07958,0.02894 h 0.01499 c 0.0343,-0.0034 0.06592,-0.02076 0.08682,-0.04806 0.0191,-0.023 0.02946,-0.05227 0.02946,-0.08217 0,-0.0043 -1.2e-4,-0.0085 -5.2e-4,-0.01292 -0.0024,-0.0346 -0.01921,-0.06687 -0.04651,-0.08837 l -0.322461,-0.258899 0.216524,-0.269751 c 0.0864,-0.1076 0.13973,-0.212075 0.15813,-0.310575 0.0071,-0.0319 0.01085,-0.06455 0.01085,-0.09715 0,-0.0588 -0.01181,-0.117266 -0.03411,-0.171566 -0.0345,-0.0777 -0.08771,-0.145937 -0.154513,-0.198437 -0.0655,-0.053 -0.143226,-0.08975 -0.225826,-0.106453 -0.0255,-0.0044 -0.0511,-0.0067 -0.077,-0.0067 z m -0.01395,0.261482 c 0.1274,0 0.233429,0.09728 0.244429,0.224276 0.0056,0.0698 -0.03367,0.157566 -0.116272,0.260966 l -0.205155,0.255798 -0.390157,-0.312642 0.205155,-0.256315 c 0.0829,-0.1034 0.16056,-0.160216 0.22996,-0.170016 0.0106,-0.0014 0.02134,-0.0021 0.03204,-0.0021 z m 2.702159,1.489832 h 0.0057 c 0.0078,0 0.01555,0.0011 0.02325,0.0021 0.0554,0.0029 0.107678,0.0258 0.147278,0.0646 0.0042,0.0044 0.008,0.009 0.01137,0.01395 0.0024,0.0105 0.004,0.02134 0.0041,0.03204 -0.0016,0.0582 -0.03395,0.111126 -0.08475,0.139526 -0.0243,0.0035 -0.04878,0.0057 -0.07338,0.0057 h -0.0052 -0.06511 c -0.053,0 -0.06977,-0.0037 -0.09147,-0.02997 -0.0216,-0.0263 -0.0179,-0.08311 0,-0.117306 0.0081,-0.0201 0.02091,-0.03809 0.03721,-0.05219 0.0238,-0.0186 0.04891,-0.03619 0.07441,-0.05219 0.0048,-0.0033 0.01064,-0.0056 0.01654,-0.0062 z m 3.927409,0.921907 c 0.1571,0.0085 0.308103,0.03473 0.454753,0.07803 0.1886,0.0558 0.404826,0.130483 0.580326,0.264583 l 0.04341,0.03359 c 0.1234,0.0947 0.407743,0.263836 0.577743,0.364835 0.0666,0.0396 0.129542,0.07657 0.136942,0.08217 0.0331,0.0297 0.0682,0.05748 0.104903,0.08268 l 0.02739,0.01964 c 0.0583,0.0446 0.114865,0.09294 0.168465,0.143144 0.0842,0.0763 0.171815,0.155038 0.256315,0.201538 l 0.0057,0.0036 c 0.0542,0.0298 0.108797,0.05918 0.163297,0.08888 0.013,0.0072 0.02706,0.01085 0.04186,0.01085 h 10e-4 c 0.0497,-2e-4 0.08992,-0.04022 0.08992,-0.08992 0,-0.0331 -0.01793,-0.06378 -0.04703,-0.07958 l -0.128674,-0.06976 -0.03927,-0.0217 c -0.0775,-0.0426 -0.161996,-0.118836 -0.243396,-0.192236 -0.0545,-0.0493 -0.111082,-0.09988 -0.165882,-0.141077 l 0.01964,0.0036 c 0.0154,0.003 0.03379,0.0058 0.05219,0.0088 l 0.02945,0.0047 c 0.1012,0.0151 0.203941,0.02326 0.306441,0.02326 0.0297,0 0.0599,-7.7e-4 0.0894,-0.0021 0.178799,-0.0028 0.333181,-0.0056 0.520381,0.07906 0.068,0.0271 0.140324,0.04179 0.213424,0.04289 0.1397,0.0063 0.243384,0.0045 0.353984,0.0026 0.0699,-0.0014 0.139642,-0.0023 0.223242,-0.0016 0.1443,0.0014 0.232806,0.05683 0.296106,0.186035 0.0452,0.0931 0.05339,0.195837 0.05529,0.284737 v 0.01137 c 0.0014,0.0834 0.0031,0.197318 0.08527,0.274918 0.0601,0.0567 0.106375,0.127039 0.134875,0.204639 0.0058,0.014 0.0119,0.02747 0.0186,0.04237 0.0181,0.04 0.03426,0.08087 0.04806,0.122473 0.0342,0.1024 0.07956,0.201239 0.134358,0.294039 0.0263,0.048 0.0533,0.09756 0.0801,0.156062 0.0193,0.0426 0.04223,0.08614 0.06253,0.124541 0.0661,0.1262 0.134472,0.256154 0.116272,0.374654 -0.0171,0.0963 -0.02584,0.194272 -0.02584,0.291972 0,0.0616 0.0036,0.123285 0.01034,0.184484 0.0157,0.1057 0.02377,0.212778 0.02377,0.319878 0,0.0086 -5.2e-4,0.01806 -5.2e-4,0.02636 0.0014,0.181799 -0.04566,0.392972 -0.143661,0.646472 -0.0083,0.003 -0.01694,0.005 -0.02584,0.0062 -0.0366,0.0038 -0.07369,0.0062 -0.110587,0.0062 -0.008,0 -0.01639,-4.2e-4 -0.02429,-5.2e-4 -0.1227,0 -0.275246,0.0011 -0.414445,0.06253 -0.1022,0.0392 -0.210578,0.05943 -0.319878,0.05943 -0.006,0 -0.01219,10e-5 -0.01809,0 -0.0522,0 -0.143487,-0.03823 -0.193787,-0.05943 -0.0191,-0.0079 -0.03441,-0.01472 -0.04651,-0.01912 -0.1348,-0.0465 -0.231576,-0.08656 -0.316776,-0.121957 h -0.0026 c -0.0869,-0.0385 -0.177634,-0.07157 -0.269234,-0.09767 -0.1504,-0.0432 -0.305337,-0.07635 -0.460437,-0.09715 -0.1646,-0.0167 -0.332578,-0.02481 -0.498678,-0.02481 h -0.04599 c -0.2451,-0.0014 -0.505472,-0.03183 -0.819071,-0.09353 -0.3005,-0.0603 -0.606869,-0.07872 -0.892969,-0.08992 -0.0627,-0.0021 -0.125936,-0.0031 -0.189136,-0.0031 -0.1862,0 -0.374022,0.0091 -0.558622,0.01809 h -0.0036 c -0.1073,0.0052 -0.218412,0.01097 -0.327112,0.01447 -0.0899,0.0027 -0.179951,0.0046 -0.269751,0.0067 l -0.05943,0.0016 -0.132292,0.0031 h -0.04134 c -0.0407,0.0011 -0.08241,2.2e-4 -0.126607,-0.0026 h -0.0026 c -0.105,-0.0047 -0.213644,-0.0097 -0.321944,0.02429 -0.0241,0.0071 -0.04931,0.01034 -0.07441,0.01034 -0.0151,0 -0.03006,-0.0011 -0.04496,-0.0036 l -0.01912,-0.0021 c -0.0181,-0.0016 -0.03744,-0.0028 -0.05995,-0.0031 h -0.01602 c -0.0166,-5e-4 -0.03343,-0.001 -0.05013,-0.001 -0.0352,0 -0.07094,0.0016 -0.105937,0.0041 -0.0286,0.0032 -0.058,0.0056 -0.0894,0.0067 -0.0634,0.0031 -0.128904,0.0017 -0.194304,0.001 -0.0773,0 -0.157095,-0.002 -0.237195,0.0036 -0.0572,0.0051 -0.114715,0.01584 -0.170015,0.03204 h -0.0031 c -0.0336,0.0099 -0.06865,0.01827 -0.103353,0.02377 l -0.01292,-0.0047 c -0.154399,-0.0512 -0.184949,-0.106435 -0.174149,-0.186035 0.0051,-0.0016 0.01105,-0.0038 0.01705,-0.0052 l 0.01033,-0.0021 0.03566,-0.0036 c 0.0986,-0.0138 0.198156,-0.02067 0.297656,-0.02067 0.0085,0 0.01722,5.2e-4 0.02532,5.2e-4 0.044,0.0012 0.08796,0.0057 0.131258,0.01344 0.2882,0.0522 0.576345,0.0271 0.855245,0.0031 0.1466,-0.0128 0.298168,-0.02577 0.445967,-0.02687 h 0.08527 0.138492 c 0.0866,-0.0012 0.172799,-0.01479 0.255799,-0.03979 0.0515,-0.0163 0.12223,-0.03847 0.15813,-0.116272 0.0501,-0.1096 0.09896,-0.22173 0.146761,-0.330729 l 0.03514,-0.07958 c 0.0945,-0.2142 0.07915,-0.302456 -0.08165,-0.473356 l -0.01137,-0.01189 -0.0036,-0.0036 -0.0067,-0.0067 c -0.0173,-0.0177 -0.03356,-0.03684 -0.04806,-0.05684 -0.0021,-0.0031 -0.0041,-0.0057 -0.0067,-0.0088 -0.0025,-0.003 -0.0022,-0.006 -0.0036,-0.0088 -0.0046,-0.0103 -0.01116,-0.02472 0.03824,-0.10542 0.055,-0.0892 0.08423,-0.191823 0.08423,-0.296623 0,-0.0152 -8.7e-4,-0.03079 -0.0021,-0.04599 -0.0024,-0.0914 -0.01277,-0.183568 -0.02997,-0.273368 -0.0203,-0.0956 -0.03049,-0.193239 -0.03049,-0.290939 0,-0.0599 0.0039,-0.1194 0.01137,-0.1788 0.0128,-0.0991 0.03546,-0.197589 0.06666,-0.292489 h 0.0031 l 0.0088,0.0026 c 0.0361,0.0116 0.04829,0.01597 0.104386,0.07597 0.017,0.0183 0.04083,0.02832 0.06563,0.02842 0.0497,-5e-4 0.08992,-0.04073 0.08992,-0.09043 0,-0.0229 -0.0088,-0.0447 -0.02429,-0.0615 -0.0841,-0.0899 -0.121985,-0.104924 -0.181385,-0.124024 l -0.0088,-0.0031 c -0.0314,-0.01 -0.06292,-0.01931 -0.09302,-0.02791 -0.1467,-0.0417 -0.295461,-0.07254 -0.408761,-0.09353 -0.1134,-0.0209 -0.221379,-0.04981 -0.329179,-0.07751 l -0.0052,-0.0016 c -0.0415,-0.0105 -0.08261,-0.02101 -0.123507,-0.03101 l -0.09508,-0.02584 -0.03514,-0.0098 c -0.0132,-0.005 -0.02651,-0.0091 -0.04031,-0.0124 l -0.0894,-0.0217 c -0.1395,-0.0374 -0.282714,-0.06657 -0.425814,-0.08527 -0.2429,-0.0265 -0.489221,-0.02944 -0.728121,-0.03204 -0.0593,0 -0.13549,-0.0039 -0.20929,-0.0072 -0.1071,-0.0044 -0.20845,-0.0084 -0.26665,-0.0057 -0.026,0 -0.03791,0.0021 -0.04651,0.0026 -0.0131,0 -0.01739,0.001 -0.05839,0.001 h -0.05013 l -0.0677,5.2e-4 c -0.027,0 -0.0553,-1e-6 -0.0832,-0.0031 -0.064,-0.0037 -0.127419,-0.01531 -0.188619,-0.03411 -0.0161,-0.0421 -0.02706,-0.08646 -0.03256,-0.131258 -0.0056,-0.0453 -0.0153,-0.09036 -0.0279,-0.134359 -0.0023,-0.0077 -0.0041,-0.01449 -0.0057,-0.02119 0.0247,0.0035 0.04993,0.0052 0.07493,0.0052 0.0164,0 0.03279,-9.8e-4 0.04909,-0.0026 0.0607,-0.0065 0.121768,-0.01214 0.180868,-0.01654 0.141799,-0.0114 0.285563,-0.01864 0.424263,-0.02584 l 0.09715,-0.0052 c 0.0665,-0.0021 0.133921,-0.0036 0.201021,-0.0036 0.139,0 0.280279,0.0051 0.418579,0.01499 0.1669,0.0089 0.339614,0.0183 0.512114,0.0155 0.129999,-0.002 0.260523,-0.02103 0.386023,-0.05633 0.104499,-0.0289 0.209775,-0.06163 0.310575,-0.09353 l 0.0047,-0.0016 c 0.2275,-0.0698 0.462966,-0.142901 0.701766,-0.178801 0.17215,-0.02595 0.335376,-0.03489 0.492476,-0.02635 z m -3.232877,0.879017 c 0.138299,0.0058 0.277745,0.0079 0.414445,0.0093 0.232799,0.0028 0.475834,0.0049 0.710034,0.03049 0.1355,0.0181 0.271076,0.04625 0.403076,0.08165 l 0.04186,0.01033 0.07183,0.01964 0.0041,0.0021 c 0.0011,0.0037 0.0015,0.0076 0.0015,0.01137 0,0.0014 10e-5,0.0027 0,0.0041 -0.0019,0.0778 0.02691,0.142288 0.05271,0.199988 0.0142,0.029 0.02541,0.05985 0.03411,0.09095 l 0.0021,0.0072 c 0.0314,0.163 0.0231,0.325861 0.0124,0.498161 l -0.0036,0.0615 c -0.0045,0.0866 -0.01599,0.175583 -0.02739,0.261483 -0.0208,0.1539 -0.04197,0.31274 -0.02687,0.47594 0.0031,0.0336 0.0081,0.06757 0.01447,0.100769 0.0211,0.0906 0.03204,0.183469 0.03204,0.276469 v 0.01447 c -3e-4,0.0086 -5.2e-4,0.01724 -5.2e-4,0.02584 0,0.0086 2.2e-4,0.01734 5.2e-4,0.02584 0.0043,0.0723 0.01394,0.144491 0.02894,0.21549 0.0246,0.1131 0.0613,0.224213 0.108004,0.330213 0.0114,0.0264 0.01935,0.0547 0.02325,0.0832 0.0012,0.0076 0.0018,0.01555 0.0021,0.02325 -0.142899,0.0028 -0.285446,0.01507 -0.423746,0.02687 -0.2668,0.0233 -0.543003,0.0466 -0.807703,0 -0.0214,-0.0039 -0.0427,-0.0068 -0.06459,-0.0093 -0.0142,-0.0785 -0.03008,-0.15746 -0.04548,-0.23306 -0.0121,-0.0591 -0.02336,-0.118467 -0.03566,-0.177767 -0.0166,-0.0867 -0.03364,-0.172599 -0.05064,-0.258899 -0.0545,-0.2763 -0.111112,-0.562327 -0.151412,-0.845427 -0.0177,-0.125 -0.04608,-0.248219 -0.07338,-0.367419 -0.0123,-0.0533 -0.02529,-0.108081 -0.03669,-0.162781 -0.0103,-0.0466 -0.01996,-0.09564 -0.02946,-0.143144 -0.0283,-0.156899 -0.06615,-0.312488 -0.112654,-0.465087 -0.0068,-0.0207 -0.01399,-0.04151 -0.02119,-0.06201 -0.0072,-0.0205 -0.01207,-0.03333 -0.01757,-0.05013 -0.0123,-0.0365 -0.02204,-0.07402 -0.02894,-0.111621 z m 1.830379,0.202571 0.08372,0.02119 c 0.110599,0.0284 0.225214,0.058 0.339514,0.0801 0.0845,0.0163 0.192891,0.03826 0.304891,0.06666 -0.0337,0.103499 -0.05773,0.210843 -0.07183,0.318843 -0.0088,0.0675 -0.01343,0.135922 -0.01343,0.204122 0,0.1094 0.01171,0.219178 0.03411,0.326078 0.0154,0.0804 0.02384,0.16263 0.02584,0.24443 0.0012,0.0118 0.0021,0.02366 0.0021,0.03566 0,0.0717 -0.02006,0.141988 -0.05736,0.203088 -0.0619,0.1011 -0.09114,0.182552 -0.04754,0.275952 0.0036,0.0078 0.0081,0.0154 0.01395,0.0217 0.0025,0.0083 0.0065,0.01616 0.01137,0.02326 0.0195,0.0273 0.04129,0.05331 0.0646,0.07751 0.0044,0.0047 0.0087,0.009 0.01344,0.01344 0.0047,0.0045 0.0053,0.0051 0.0083,0.0083 0.1131,0.1202 0.114476,0.128003 0.04858,0.277503 l -0.03876,0.09147 c -0.0466,0.1038 -0.09354,0.211243 -0.140043,0.315743 -0.0021,0.0046 -0.01403,0.0093 -0.05013,0.02067 -0.0669,0.0198 -0.136389,0.03021 -0.206188,0.03101 h -0.0739 c -7e-4,-0.0166 -0.0023,-0.03279 -0.0047,-0.04909 -0.0069,-0.0435 -0.01972,-0.08631 -0.03772,-0.126607 -0.0417,-0.0952 -0.07402,-0.195023 -0.09612,-0.296623 -0.0132,-0.062 -0.02204,-0.125836 -0.02584,-0.189136 0,-0.0091 -0.0014,-0.02356 0,-0.03256 10e-5,-0.0096 5.2e-4,-0.01976 5.2e-4,-0.02946 0,-0.102199 -0.01172,-0.204257 -0.03462,-0.303857 -0.0051,-0.0272 -0.0094,-0.05532 -0.01189,-0.08372 -0.0135,-0.1422 0.0052,-0.284515 0.02532,-0.435115 0.0114,-0.085 0.02455,-0.181436 0.02945,-0.275436 l 0.0031,-0.06253 c 0.0102,-0.1828 0.01988,-0.355886 -0.01602,-0.542086 l -0.0021,-0.01085 c -0.0111,-0.0435 -0.02681,-0.08611 -0.04651,-0.126607 -0.0147,-0.0297 -0.02631,-0.06092 -0.03411,-0.09302 z m 1.303279,3.111438 c 0.12175,-0.0033 0.243553,-0.0043 0.363802,0 0.2793,0.0107 0.575847,0.02882 0.864547,0.08682 0.3259,0.0652 0.596678,0.09627 0.853178,0.09767 0.0162,-3e-4 0.03424,0 0.05064,0 0.1578,0 0.31769,0.0081 0.47439,0.02325 0.147199,0.0205 0.293432,0.05182 0.435632,0.09302 0.0837,0.024 0.16648,0.05442 0.24598,0.08992 0.0831,0.0344 0.186179,0.07732 0.329179,0.127124 0.0088,0.003 0.02106,0.0083 0.03566,0.01447 h 0.0031 c 0.0698,0.0289 0.17305,0.07286 0.26355,0.07286 h 0.01705 c 0.1309,0 0.261339,-0.02431 0.383439,-0.07131 l 0.0057,-0.0021 c 0.106599,-0.0466 0.232798,-0.04808 0.345198,-0.04858 h 0.06201 c -0.0211,0.0347 -0.04456,0.06845 -0.06976,0.100252 -0.0185,0.0254 -0.03986,0.04886 -0.06356,0.06976 -0.0638,0.0489 -0.140242,0.07925 -0.220142,0.08785 -0.0685,0.0093 -0.135571,0.02744 -0.199471,0.05374 -0.0179,0.0074 -0.03603,0.01555 -0.05323,0.02325 -0.0466,0.0233 -0.08661,0.04478 -0.126607,0.06718 -0.0525,0.0299 -0.106647,0.05755 -0.161747,0.08165 -0.0073,0.003 -0.01754,0.0076 -0.02894,0.01292 l -0.01499,0.0067 c -0.0277,0.0138 -0.05678,0.02631 -0.08578,0.03721 l -0.03411,0.0083 -0.101285,0.02325 c -0.0809,0.0195 -0.163897,0.03466 -0.246497,0.04496 -0.0267,0.0034 -0.0534,0.0052 -0.0801,0.0052 -0.0286,0 -0.055,-0.0017 -0.0832,-0.0036 h -0.0026 c -0.0347,-0.003 -0.06959,-0.0047 -0.104387,-0.0047 -0.0222,0 -0.04456,8.7e-4 -0.06666,0.0021 -0.0661,0.0039 -0.151561,0.0014 -0.233061,0 -0.0815,-0.0014 -0.165728,-0.0051 -0.235128,-0.0016 -0.0373,0.0027 -0.07505,0.0047 -0.112654,0.0047 -0.0433,0 -0.08713,-0.0019 -0.130225,-0.0057 -0.026,-0.0026 -0.05225,-0.0041 -0.07855,-0.0041 -0.0262,0 -0.05245,0.0015 -0.07855,0.0041 -0.0441,0.0022 -0.08966,0.0031 -0.134359,0.0031 -0.0446,0 -0.09006,-0.0013 -0.134359,-0.0036 -0.0804,-0.0023 -0.163078,-0.0048 -0.236678,-0.0015 -0.1499,0.0065 -0.32608,0.0018 -0.51418,-0.0036 -0.2295,-0.0067 -0.466542,-0.01393 -0.660942,0.0021 -0.0495,0.0038 -0.09996,0.0057 -0.149862,0.0057 -0.115199,0 -0.230765,-0.01014 -0.344165,-0.02894 -0.0932,-0.0144 -0.186469,-0.03398 -0.279569,-0.05788 -0.2056,-0.0488 -0.405296,-0.121474 -0.594796,-0.214974 -0.0233,-0.0119 -0.04476,-0.02306 -0.06666,-0.03566 -0.1224,-0.0641 -0.251856,-0.118247 -0.383956,-0.158647 -0.0382,-0.0128 -0.07601,-0.02547 -0.114205,-0.03927 -0.0598,-0.0226 -0.11795,-0.0497 -0.17415,-0.0801 -0.0581,-0.0309 -0.118634,-0.05993 -0.179834,-0.08423 -0.0445,-0.017 -0.08951,-0.03106 -0.132808,-0.04496 l -0.0093,-0.0031 c -0.0382,-0.0123 -0.07824,-0.02486 -0.115238,-0.03876 -0.0126,-0.0047 -0.02562,-0.0096 -0.04082,-0.01447 -0.0178,-0.0054 -0.03519,-0.01162 -0.05219,-0.01912 -0.0239,-0.0099 -0.04848,-0.01864 -0.07338,-0.02584 -0.0173,-0.0049 -0.03446,-0.01129 -0.05116,-0.01809 -0.0136,-0.006 -0.02679,-0.01007 -0.03979,-0.01447 h -0.0015 c -0.0093,-0.0519 -0.0178,-0.101094 -0.02481,-0.141594 l 0.07183,-0.0015 h 0.0047 c 0.0645,0 0.131121,0.0021 0.197921,-10e-4 0.0368,-0.0016 0.0702,-0.0046 0.101802,-0.0083 0.0282,-0.003 0.08232,-0.0025 0.120923,-0.0021 0.0095,0.0079 0.02011,0.01497 0.03101,0.02067 h 0.001 c 0.0233,0.0149 0.07002,0.04453 0.130224,0.07803 0.0839,0.0466 0.203023,0.102638 0.296623,0.112138 h 0.0031 l 0.0124,0.0016 c 0.0887,0.0121 0.16706,0.02585 0.226859,0.07545 l 0.0031,0.0026 0.0067,0.0047 0.0072,0.0036 0.0052,0.0031 0.0047,0.001 c 0.003,0.0011 0.0061,0.0024 0.0093,0.0031 l 0.0052,0.0015 c 0.0054,9e-4 0.01052,0.001 0.01602,0.001 h 5.2e-4 c 0.0078,0 0.01575,-9e-4 0.02325,-0.0031 l 0.0062,-0.0021 c 0.0055,-0.0019 0.01102,-0.0042 0.01602,-0.0072 l 0.0057,-0.0036 c 0.005,-0.0036 0.0098,-0.0079 0.01395,-0.0124 l 0.0041,-0.0041 c 0.0044,-0.0055 0.0079,-0.01127 0.01085,-0.01757 8e-4,-0.0015 0.0019,-0.0036 0.0026,-0.0052 l 0.0021,-0.0057 c 0,0 -1.7e-4,-0.0021 10e-4,-0.0031 0.0256,-0.0698 0.0098,-0.14474 -0.0041,-0.21084 -0.0045,-0.0202 -0.0089,-0.04153 -0.01137,-0.05943 v -0.0015 l 0.07338,-0.0021 c 0.0957,-0.002 0.190987,-0.0044 0.286287,-0.0072 0.1083,-0.0034 0.217911,-0.0086 0.324011,-0.01395 h 0.01395 c 0.11955,-0.0059 0.241019,-0.01174 0.362768,-0.01499 z m -1.474328,0.03721 c 0.04085,-9.6e-4 0.08322,7.8e-4 0.127124,0.0026 0.0342,0.0016 0.06989,0.0036 0.104386,0.0036 0,0.0068 0.0017,0.01335 0.0026,0.02015 v 10e-4 l 0.001,0.0021 c 0.0035,0.0245 0.0085,0.04801 0.01343,0.07131 0.0012,0.0056 0.0027,0.01961 0.0041,0.03411 -0.0538,-0.0238 -0.110782,-0.03996 -0.168982,-0.04806 l -0.02171,-0.0031 c -0.0626,-0.0119 -0.1232,-0.0335 -0.1788,-0.0646 v -0.0047 c 0.0369,-0.0095 0.07594,-0.01351 0.116789,-0.01447 z m 6.391858,4.331519 c -0.0062,0 -0.0125,5.5e-4 -0.0186,0.0016 -0.0828,0.01 -0.164379,0.02958 -0.242879,0.05788 -0.0832,0.0316 -0.162161,0.07561 -0.233061,0.129707 -0.1109,0.08 -0.199982,0.186876 -0.258382,0.310576 -0.0419,0.0911 -0.06356,0.190121 -0.06356,0.290421 0,0.0317 0.0018,0.06378 0.0062,0.09509 0.0491,0.289 0.233594,0.537376 0.496094,0.668176 0.0911,0.0419 0.190638,0.06408 0.290938,0.06408 0.0317,0 0.06317,-0.0024 0.09457,-0.0067 0.1354,-0.0201 0.263787,-0.07441 0.372587,-0.157613 0.0724,-0.0524 0.13722,-0.115135 0.19172,-0.186035 0.0495,-0.0673 0.09207,-0.140541 0.125574,-0.217041 0.008,-0.0162 0.01189,-0.03409 0.01189,-0.05219 0,-0.0271 -0.0095,-0.05331 -0.02636,-0.07441 -0.0186,-0.025 -0.0462,-0.04116 -0.077,-0.04496 -0.0056,-8e-4 -0.01135,-0.0016 -0.01705,-0.0016 -0.0259,0 -0.05091,0.0089 -0.07131,0.0248 -0.015,0.0111 -0.02757,0.02526 -0.03617,0.04186 -0.0268,0.0564 -0.05955,0.110397 -0.09715,0.160197 -0.0405,0.0512 -0.08808,0.09688 -0.141076,0.134876 -0.0792,0.0625 -0.174402,0.102672 -0.274402,0.116272 -0.0169,0.0019 -0.03364,0.0026 -0.05064,0.0026 -0.0708,0 -0.140805,-0.01659 -0.203605,-0.04909 -0.1694,-0.093 -0.289696,-0.255418 -0.329696,-0.444417 -0.0047,-0.0261 -0.0072,-0.05298 -0.0072,-0.07958 0,-0.0608 0.01249,-0.120933 0.03669,-0.176733 0.0421,-0.0916 0.108503,-0.170294 0.191203,-0.227893 0.0518,-0.0397 0.108898,-0.07254 0.169498,-0.09663 0.059,-0.0215 0.119901,-0.03731 0.181901,-0.04651 0.0182,-0.0034 0.03543,-0.01102 0.05013,-0.02222 0.0266,-0.0184 0.04396,-0.04697 0.04806,-0.07906 8e-4,-0.0053 0.0016,-0.01114 0.0016,-0.01654 0,-0.0242 -0.0082,-0.04788 -0.02274,-0.06718 -0.0221,-0.0324 -0.05847,-0.05168 -0.09767,-0.05168 z m -10.03608,0.21394 c -0.0091,0 -0.01807,0.0011 -0.02687,0.0031 -0.0339,0.0066 -0.06368,0.02701 -0.08268,0.05581 l -0.721919,1.060401 c -0.0148,0.0214 -0.02274,0.04676 -0.02274,0.07286 0,0.0428 0.02186,0.08265 0.05736,0.106454 0.0216,0.0151 0.04708,0.02325 0.07338,0.02325 0.0078,-10e-5 0.01555,-8.7e-4 0.02325,-0.0021 0.0345,-0.0054 0.06513,-0.02496 0.08423,-0.05426 l 0.23306,-0.342098 0.286804,0.195854 c 0.113999,0.0775 0.222344,0.122108 0.321944,0.132808 0.0203,0.0027 0.041,0.0047 0.0615,0.0047 0.0711,0 0.140822,-0.01731 0.204122,-0.04961 0.150499,-0.0818 0.252468,-0.231426 0.273368,-0.401526 0.0013,-0.0139 0.0021,-0.02786 0.0021,-0.04186 0,-0.0777 -0.02019,-0.154092 -0.05839,-0.221692 -0.0463,-0.0887 -0.127746,-0.173131 -0.241846,-0.250631 l -0.395325,-0.268717 c -0.0207,-0.0146 -0.04591,-0.02274 -0.07131,-0.02274 z m 0.03979,0.304374 0.270784,0.183968 c 0.1097,0.0748 0.173419,0.147291 0.188619,0.215491 0.0042,0.0177 0.0062,0.03554 0.0062,0.05374 0,0.0482 -0.01499,0.09547 -0.04289,0.134875 -0.0364,0.0569 -0.0963,0.09509 -0.163298,0.104387 -0.0698,0.0109 -0.159634,-0.02142 -0.269234,-0.09612 l -0.270782,-0.183966 z m 8.23929,0.484725 c -0.02,0 -0.03998,0.0046 -0.05788,0.01344 -0.0316,0.0147 -0.05584,0.04215 -0.06614,0.07545 -0.0043,0.0131 -0.0062,0.02702 -0.0062,0.04082 0,0.0203 0.0048,0.04029 0.01395,0.05839 l 0.56689,1.161686 c 0.0145,0.0313 0.04171,0.05525 0.07441,0.06615 0.0134,0.0046 0.02714,0.0072 0.04134,0.0072 0.0198,0 0.03966,-0.0051 0.05736,-0.01395 0.0312,-0.0147 0.05516,-0.0414 0.06666,-0.0739 0.0053,-0.014 0.0083,-0.02851 0.0083,-0.04341 0,-0.0196 -0.005,-0.03893 -0.01395,-0.05633 l -0.566919,-1.161648 c -0.0219,-0.0451 -0.06772,-0.0739 -0.117822,-0.0739 z m -6.699849,0.127124 c -0.018,0 -0.03631,0.0037 -0.05271,0.01085 -0.0315,0.0139 -0.05591,0.04025 -0.06821,0.07235 l -0.460437,1.156002 c -0.0077,0.0196 -0.01189,0.0404 -0.01189,0.0615 0,0.0683 0.0415,0.129529 0.104903,0.155029 l 0.690914,0.275436 c 0.0158,0.0065 0.03313,0.0098 0.05013,0.0098 0.0171,0 0.03381,-0.0033 0.04961,-0.0098 0.0322,-0.0129 0.05756,-0.03881 0.06976,-0.07131 0.0063,-0.0154 0.0098,-0.03198 0.0098,-0.04858 0,-0.0179 -0.0041,-0.03528 -0.01137,-0.05168 -0.0131,-0.0323 -0.03871,-0.05778 -0.07131,-0.07028 l -0.604097,-0.240812 0.425813,-1.068669 c 0.0063,-0.0155 0.0093,-0.03229 0.0093,-0.04909 0,-0.0721 -0.05813,-0.130742 -0.130224,-0.130742 z m 5.919018,0.232027 c -0.012,0 -0.02374,0.0018 -0.03514,0.0052 l -1.003039,0.287838 c -0.032,0.0087 -0.05901,0.03003 -0.07441,0.05943 -0.0096,0.0178 -0.01447,0.03819 -0.01447,0.05839 0,0.0123 0.0016,0.02447 0.0052,0.03617 0.0139,0.0528 0.06209,0.08992 0.116788,0.08992 0.012,0 0.02416,-0.0021 0.03566,-0.0057 l 0.376721,-0.108004 0.321428,1.120346 c 0.0157,0.0547 0.06609,0.09262 0.12299,0.09302 0.0126,0 0.02511,-0.0017 0.03721,-0.0052 0.0333,-0.009 0.06175,-0.03098 0.07855,-0.06098 0.0114,-0.0192 0.01705,-0.04126 0.01705,-0.06356 0,-0.0122 -0.0017,-0.02457 -0.0052,-0.03617 l -0.321437,-1.120333 0.375171,-0.107487 c 0.0317,-0.0085 0.05863,-0.02938 0.07493,-0.05788 0.0106,-0.0182 0.01654,-0.03926 0.01654,-0.06046 0,-0.0117 -0.0018,-0.02342 -0.0052,-0.03462 -0.0089,-0.0318 -0.03043,-0.05861 -0.05943,-0.07441 -0.0182,-0.0103 -0.03905,-0.0155 -0.05995,-0.0155 z m -3.959448,0.342098 c -0.0254,0 -0.05015,0.0063 -0.07235,0.0186 -0.028,0.0159 -0.05163,0.03843 -0.06873,0.06563 l -0.723987,1.16427 c -0.0105,0.016 -0.01739,0.03349 -0.02119,0.05219 -0.0013,0.0074 -0.0021,0.01524 -0.0021,0.02274 0,0.0264 0.0081,0.05198 0.02325,0.07338 0.0202,0.0287 0.0515,0.04738 0.0863,0.05168 0.0069,0.0012 0.01419,0.0021 0.02119,0.0021 0.0186,0 0.03694,-0.0041 0.05374,-0.01189 0.024,-0.0107 0.04429,-0.02813 0.05839,-0.05013 l 0.173116,-0.282153 0.657841,0.103353 0.07855,0.322977 c 0.0067,0.0248 0.02059,0.0474 0.03979,0.0646 0.019,0.0173 0.04281,0.02824 0.06821,0.03204 0.0077,0.0012 0.01546,0.002 0.02326,0.0021 h 0.0015 c 0.0265,0 0.05238,-0.0087 0.07338,-0.0248 0.0273,-0.0203 0.04521,-0.05105 0.04961,-0.08475 7e-4,-0.0059 10e-4,-0.01167 10e-4,-0.01757 0,-0.0133 -0.002,-0.02647 -0.0057,-0.03927 l -0.33228,-1.330151 c -0.008,-0.0309 -0.02346,-0.0597 -0.04496,-0.0832 -0.0237,-0.0254 -0.05593,-0.04191 -0.09043,-0.04651 l -0.02015,-0.0031 c -0.0089,-0.0016 -0.01829,-0.0021 -0.02739,-0.0021 z m 1.967838,0.05943 c -0.0353,0 -0.07084,0.0018 -0.105936,0.0047 -0.1061,0.0052 -0.209958,0.03402 -0.303858,0.08372 -0.078,0.0419 -0.142435,0.104801 -0.186035,0.181901 -0.0343,0.0629 -0.05271,0.133456 -0.05271,0.205156 0,0.0116 6.5e-4,0.02312 0.0015,0.03462 0.0027,0.0885 0.03932,0.172928 0.10232,0.235128 0.0576,0.0537 0.127171,0.09347 0.202571,0.116271 0.0929,0.0267 0.188304,0.04923 0.283704,0.06563 0.0854,0.0159 0.151821,0.03007 0.197921,0.04237 0.0392,0.0096 0.07622,0.02716 0.10852,0.05116 0.0246,0.0178 0.03974,0.04576 0.04134,0.07596 0.0037,0.0507 0.01506,0.204944 -0.315743,0.229444 -0.0257,0.002 -0.0512,0.0031 -0.077,0.0031 -0.1112,0 -0.221996,-0.01903 -0.326596,-0.05633 -0.0144,-0.0051 -0.02966,-0.0078 -0.04496,-0.0078 -0.0032,0 -0.0066,3.2e-4 -0.0098,5.2e-4 -0.0331,0.0019 -0.06363,0.01792 -0.08423,0.04392 -0.0177,0.022 -0.02739,0.04922 -0.02739,0.07752 0,0.029 0.01002,0.05728 0.02842,0.07958 0.0157,0.0196 0.03666,0.03437 0.06046,0.04237 0.1329,0.0461 0.273128,0.06976 0.413928,0.06976 h 0.0031 c 0.0335,0 0.06729,-10e-4 0.101285,-0.0036 0.1006,-0.0056 0.199605,-0.0321 0.289905,-0.077 0.078,-0.0385 0.144086,-0.09797 0.190686,-0.171566 0.0379,-0.0612 0.05788,-0.132122 0.05788,-0.204122 0,-0.0106 -1.3e-4,-0.02092 -0.001,-0.03152 -0.0084,-0.1013 -0.04183,-0.183529 -0.09973,-0.241329 -0.0549,-0.0552 -0.122487,-0.09586 -0.196887,-0.118856 -0.0908,-0.0262 -0.184203,-0.04708 -0.277503,-0.06098 -0.0678,-0.0094 -0.135855,-0.02289 -0.202055,-0.03979 -0.0424,-0.0105 -0.08197,-0.03026 -0.116272,-0.05736 -0.0277,-0.024 -0.04363,-0.0589 -0.04393,-0.0956 -4e-4,-0.0046 -5.2e-4,-0.0093 -5.2e-4,-0.01395 0,-0.0561 0.02888,-0.108176 0.07648,-0.137976 0.0603,-0.0428 0.14308,-0.06966 0.24598,-0.07596 0.0247,-0.0018 0.0493,-0.0026 0.0739,-0.0026 0.0855,0 0.171131,0.01086 0.253731,0.03256 0.0136,0.0049 0.02829,0.0078 0.04289,0.0078 h 0.0036 c 0.0337,-0.0019 0.06473,-0.01953 0.08423,-0.04703 0.0166,-0.022 0.02532,-0.04888 0.02532,-0.07648 0,-0.003 -3.2e-4,-0.0059 -5.2e-4,-0.0088 -0.0014,-0.053 -0.03832,-0.09849 -0.08992,-0.110588 -0.1065,-0.0291 -0.216612,-0.04392 -0.327112,-0.04392 z m -1.987475,0.309542 0.141593,0.583427 -0.455269,-0.07131 z"
     inkscape:label="logo--precious-plastic" /></svg>
