<?xml version="1.0" encoding="UTF-8" standalone="no"?>
<!-- Created with Inkscape (http://www.inkscape.org/) -->

<svg
   width="40mm"
   height="40mm"
   viewBox="0 0 40 40"
   version="1.1"
   id="svg1"
   inkscape:version="1.3 (0e150ed6c4, 2023-07-21)"
   sodipodi:docname="logo--precious-plastic-la-habana.svg"
   xml:space="preserve"
   xmlns:inkscape="http://www.inkscape.org/namespaces/inkscape"
   xmlns:sodipodi="http://sodipodi.sourceforge.net/DTD/sodipodi-0.dtd"
   xmlns="http://www.w3.org/2000/svg"
   xmlns:svg="http://www.w3.org/2000/svg"><sodipodi:namedview
     id="namedview1"
     pagecolor="#ffffff"
     bordercolor="#000000"
     borderopacity="0.25"
     inkscape:showpageshadow="2"
     inkscape:pageopacity="0.0"
     inkscape:pagecheckerboard="0"
     inkscape:deskcolor="#d1d1d1"
     inkscape:document-units="mm"
     showgrid="true"
     inkscape:zoom="4"
     inkscape:cx="66.750001"
     inkscape:cy="102.5"
     inkscape:window-width="2496"
     inkscape:window-height="1558"
     inkscape:window-x="-11"
     inkscape:window-y="-11"
     inkscape:window-maximized="1"
     inkscape:current-layer="svg1"><inkscape:grid
       id="grid1"
       units="mm"
       originx="0"
       originy="0"
       spacingx="0.99999997"
       spacingy="0.99999997"
       empcolor="#0099e5"
       empopacity="0.30196078"
       color="#0099e5"
       opacity="0.14902"
       empspacing="10"
       dotted="false"
       gridanglex="30"
       gridanglez="30"
       visible="true" /></sodipodi:namedview><defs
     id="defs1"><inkscape:path-effect
   effect="copy_rotate"
   starting_point="22.499999,277"
   origin="19.999999,277"
   id="path-effect3"
   is_visible="true"
   lpeversion="1.2"
   lpesatellites=""
   method="normal"
   num_copies="4"
   starting_angle="0"
   rotation_angle="90"
   gap="-0.01"
   copies_to_360="true"
   mirror_copies="false"
   split_items="false"
   link_styles="false" /><inkscape:path-effect
   effect="copy_rotate"
   starting_point="22.499999,277"
   origin="19.999999,277"
   id="path-effect1"
   is_visible="true"
   lpeversion="1.2"
   lpesatellites=""
   method="normal"
   num_copies="4"
   starting_angle="0"
   rotation_angle="90"
   gap="-0.01"
   copies_to_360="true"
   mirror_copies="false"
   split_items="false"
   link_styles="false" /><inkscape:path-effect
   effect="copy_rotate"
   starting_point="22.499999,277"
   origin="19.999999,277"
   id="path-effect1-8"
   is_visible="true"
   lpeversion="1.2"
   lpesatellites=""
   method="normal"
   num_copies="4"
   starting_angle="0"
   rotation_angle="90"
   gap="-0.01"
   copies_to_360="true"
   mirror_copies="false"
   split_items="false"
   link_styles="false" /><inkscape:path-effect
   effect="copy_rotate"
   starting_point="22.499999,277"
   origin="19.999999,277"
   id="path-effect3-0"
   is_visible="true"
   lpeversion="1.2"
   lpesatellites=""
   method="normal"
   num_copies="4"
   starting_angle="0"
   rotation_angle="90"
   gap="-0.01"
   copies_to_360="true"
   mirror_copies="false"
   split_items="false"
   link_styles="false" /><style
   type="text/css"
   id="style1">&#10;   <![CDATA[
    .str0 {stroke:#373435;stroke-width:17.63;stroke-linecap:round;stroke-linejoin:round;stroke-miterlimit:2.61313}
    .fil0 {fill:none}
    .fil1 {fill:#424041}
   ]]>&#10;  </style>&#10;   &#10;   &#10;  <style
   type="text/css"
   id="style1-5">&#10;   <![CDATA[
    .str0 {stroke:#373435;stroke-width:17.57;stroke-linecap:round;stroke-linejoin:round;stroke-miterlimit:2.61313}
    .fil0 {fill:none}
    .fil3 {fill:#424041}
    .fil1 {fill:#858182}
    .fil2 {fill:white}
   ]]>&#10;  </style>&#10;   &#10;   &#10;   &#10;   &#10;   &#10;   &#10;   &#10;   &#10;   &#10;   &#10;   &#10;   &#10;   &#10;   &#10;   &#10;  <filter
   id="selectable_hidder_filter"
   width="1"
   height="1"
   x="0"
   y="0"
   style="color-interpolation-filters:sRGB;"
   inkscape:label="LPE boolean visibility"><feComposite
     id="boolops_hidder_primitive"
     result="composite1"
     operator="arithmetic"
     in2="SourceGraphic"
     in="BackgroundImage" /></filter><inkscape:path-effect
   effect="bool_op"
   operand-path=""
   id="path-effect29"
   is_visible="true"
   lpeversion="1"
   operation="union"
   swap-operands="false"
   filltype-this="from-curve"
   filter=""
   filltype-operand="from-curve" /><inkscape:path-effect
   effect="knot"
   id="path-effect28"
   is_visible="true"
   lpeversion="1"
   switcher_size="15.8"
   interruption_width="4"
   prop_to_stroke_width="true"
   add_stroke_width="inkscape_1.0_and_up"
   both="false"
   inverse_width="false"
   add_other_stroke_width="inkscape_1.0_and_up"
   crossing_points_vector="" /><inkscape:path-effect
   effect="fill_between_many"
   id="path-effect27"
   is_visible="true"
   lpeversion="1.2"
   linkedpaths=""
   method="bsplinespiro"
   join="true"
   close="true"
   autoreverse="true" /><inkscape:path-effect
   effect="copy_rotate"
   starting_point="22.499999,277"
   origin="19.999999,277"
   id="path-effect3-7"
   is_visible="true"
   lpeversion="1.2"
   lpesatellites=""
   method="normal"
   num_copies="4"
   starting_angle="0"
   rotation_angle="90"
   gap="-0.01"
   copies_to_360="true"
   mirror_copies="false"
   split_items="false"
   link_styles="false" /><inkscape:path-effect
   effect="copy_rotate"
   starting_point="22.499999,277"
   origin="19.999999,277"
   id="path-effect1-6"
   is_visible="true"
   lpeversion="1.2"
   lpesatellites=""
   method="normal"
   num_copies="4"
   starting_angle="0"
   rotation_angle="90"
   gap="-0.01"
   copies_to_360="true"
   mirror_copies="false"
   split_items="false"
   link_styles="false" /><inkscape:path-effect
   effect="copy_rotate"
   starting_point="22.499999,277"
   origin="19.999999,277"
   id="path-effect1-8-5"
   is_visible="true"
   lpeversion="1.2"
   lpesatellites=""
   method="normal"
   num_copies="4"
   starting_angle="0"
   rotation_angle="90"
   gap="-0.01"
   copies_to_360="true"
   mirror_copies="false"
   split_items="false"
   link_styles="false" /><inkscape:path-effect
   effect="copy_rotate"
   starting_point="22.499999,277"
   origin="19.999999,277"
   id="path-effect3-0-1"
   is_visible="true"
   lpeversion="1.2"
   lpesatellites=""
   method="normal"
   num_copies="4"
   starting_angle="0"
   rotation_angle="90"
   gap="-0.01"
   copies_to_360="true"
   mirror_copies="false"
   split_items="false"
   link_styles="false" /><style
   type="text/css"
   id="style1-1">&#10;   <![CDATA[
    .str0 {stroke:#373435;stroke-width:17.63;stroke-linecap:round;stroke-linejoin:round;stroke-miterlimit:2.61313}
    .fil0 {fill:none}
    .fil1 {fill:#424041}
   ]]>&#10;  </style><style
   type="text/css"
   id="style1-5-2">&#10;   <![CDATA[
    .str0 {stroke:#373435;stroke-width:17.57;stroke-linecap:round;stroke-linejoin:round;stroke-miterlimit:2.61313}
    .fil0 {fill:none}
    .fil3 {fill:#424041}
    .fil1 {fill:#858182}
    .fil2 {fill:white}
   ]]>&#10;  </style><style
   type="text/css"
   id="style1-9">&#10;   <![CDATA[
    .fil0 {fill:black;fill-rule:nonzero}
   ]]>&#10;  </style><style
   type="text/css"
   id="style1-12">&#10;   <![CDATA[
    .str0 {stroke:#373435;stroke-width:17.63;stroke-linecap:round;stroke-linejoin:round;stroke-miterlimit:2.61313}
    .fil0 {fill:none}
    .fil2 {fill:#424041}
    .fil1 {fill:#424041;fill-rule:nonzero}
   ]]>&#10;  </style><style
   type="text/css"
   id="style1-2">&#10;   <![CDATA[
    .str0 {stroke:#373435;stroke-width:17.63;stroke-linecap:round;stroke-linejoin:round;stroke-miterlimit:2.61313}
    .fil0 {fill:none}
    .fil1 {fill:#424041;fill-rule:nonzero}
   ]]>&#10;  </style>&#10;  &#10;  &#10;  &#10; <style
   type="text/css"
   id="style1-51">&#10;   <![CDATA[
    .str0 {stroke:#373435;stroke-width:17.63;stroke-linecap:round;stroke-linejoin:round;stroke-miterlimit:2.61313}
    .fil2 {fill:none}
    .fil3 {fill:#424041}
    .fil1 {fill:#141414;fill-rule:nonzero}
    .fil0 {fill:#424041;fill-rule:nonzero}
    .fil4 {fill:#424041;fill-rule:nonzero}
   ]]>&#10;  </style></defs><path
     id="path1"
     style="clip-rule:evenodd;fill:#000000;fill-rule:nonzero;stroke-width:0.01;image-rendering:optimizeQuality;shape-rendering:geometricPrecision;text-rendering:geometricPrecision"
     class="fil0"
     d="m 20.538997,10.000134 c -0.2046,0 -0.403746,0.01379 -0.596346,0.02739 h -0.0078 c -0.1246,0.0088 -0.252538,0.01774 -0.377238,0.02274 -0.2237,0.0083 -0.442925,0.0201 -0.660425,0.0708 -0.3159,0.0736 -0.645766,0.132336 -0.963766,0.189136 h -0.0031 l -0.08578,0.0155 c -0.0635,0.0113 -0.129787,0.02314 -0.193787,0.03204 l -0.01292,0.0021 c -0.1781,0.0239 -0.355169,0.05959 -0.529166,0.104387 -0.1827,0.0501 -0.355135,0.115 -0.521932,0.1788 -0.102,0.0384 -0.207058,0.07802 -0.306958,0.111621 -0.4435,0.1479 -0.904127,0.358159 -1.449524,0.661459 -0.6257,0.347697 -1.214401,0.760282 -1.753898,1.229382 -0.2331,0.2032 -0.450843,0.454679 -0.667143,0.769979 -0.125201,0.1829 -0.242552,0.371221 -0.356052,0.552421 l -0.0046,0.0078 c -0.0902,0.1446 -0.183902,0.293783 -0.277502,0.437183 -0.3626,0.549597 -0.675409,1.134149 -0.928109,1.743046 l -0.05374,0.127641 c -0.1331,0.315697 -0.270657,0.642435 -0.387057,0.978235 -0.1686,0.487697 -0.242776,0.971204 -0.313676,1.507401 -0.0315,0.2361 -0.04028,0.466997 -0.04858,0.690397 -0.0059,0.1569 -0.01204,0.318123 -0.02584,0.472323 -0.0361,0.395197 -0.017756,0.824548 0.05684,1.311548 0.0099,0.0651 0.01917,0.129072 0.02997,0.205672 0.0357,0.2504 0.07243,0.508328 0.142627,0.765328 0.178397,0.664997 0.418418,1.3162 0.712618,1.9389 0.339197,0.710597 0.757512,1.375317 1.122412,1.942517 0.240497,0.373997 0.505634,0.734836 0.793234,1.073836 0.2681,0.3134 0.590596,0.578867 0.949296,0.781864 0.1427,0.0828 0.290146,0.173415 0.420646,0.253215 0.1544,0.0946 0.314393,0.192371 0.47749,0.285771 0.1294,0.0741 0.259723,0.15386 0.386023,0.22996 0.3541,0.216997 0.720485,0.441361 1.139982,0.590661 0.1226,0.0435 0.248837,0.09661 0.371037,0.148312 l 0.0098,0.0041 c 0.253097,0.1072 0.514519,0.217752 0.805119,0.275952 0.111397,0.023 0.222395,0.04034 0.329695,0.05684 h 0.0062 l 0.0088,0.0015 c 0.0584,0.0092 0.118534,0.01852 0.176734,0.02842 0.1161,0.0191 0.235983,0.03297 0.353983,0.03927 l 0.0047,5.2e-4 c 0.0973,0.0064 0.197955,0.01281 0.288355,0.02791 0.297597,0.0504 0.592685,0.06005 0.877982,0.06925 h 0.0031 c 0.161,0.0048 0.325825,0.0098 0.484725,0.02274 0.1137,0.0092 0.230316,0.01395 0.348816,0.01395 0.353097,-0.0027 0.706349,-0.03852 1.052649,-0.102319 0.1218,-0.0214 0.251321,-0.03593 0.376721,-0.05013 h 0.0072 c 0.215897,-0.023 0.438875,-0.04925 0.665075,-0.109554 0.138,-0.0368 0.271709,-0.08102 0.401009,-0.124024 h 0.0021 0.0026 c 0.0877,-0.029 0.178117,-0.05927 0.265617,-0.08527 0.4613,-0.134 0.909605,-0.316319 1.334802,-0.540019 0.2566,-0.136697 0.506175,-0.286498 0.748275,-0.431498 l 0.0057,-0.0036 c 0.2761,-0.1655 0.560561,-0.336575 0.849561,-0.483175 0.1567,-0.0801 0.337879,-0.184101 0.492476,-0.345198 0.3528,-0.3681 0.76647,-0.807793 1.16117,-1.282093 0.3074,-0.369497 0.627815,-0.769386 0.872815,-1.235583 0.0691,-0.133 0.133452,-0.269691 0.189652,-0.391191 l 0.0016,-0.0031 c 0.0763,-0.1731 0.164065,-0.34398 0.257865,-0.50798 0.1461,-0.244597 0.316863,-0.631167 0.507463,-1.148767 0.0741,-0.2013 0.135032,-0.380677 0.173632,-0.495577 0.0387,-0.1148 0.05905,-0.176873 0.06925,-0.211873 0.0817,-0.2543 0.133931,-0.532468 0.164331,-0.874365 0.009,-0.1017 0.02159,-0.207192 0.03359,-0.307992 l 0.0015,-0.01085 c 0.0264,-0.2202 0.05641,-0.47022 0.05271,-0.72192 -0.0064,-0.412397 -0.02616,-0.791419 -0.06046,-1.159619 -0.0085,-0.0895 -0.0135,-0.185884 -0.0186,-0.270784 v -0.001 c -0.0059,-0.1734 -0.02348,-0.348148 -0.04858,-0.519348 -0.0734,-0.4402 -0.196123,-0.902692 -0.386023,-1.454692 -0.1369,-0.398397 -0.261125,-0.756826 -0.395325,-1.110526 -0.0306,-0.0805 -0.06038,-0.166297 -0.08888,-0.249597 l -0.0015,-0.0047 c -0.0921,-0.27 -0.189418,-0.548818 -0.358118,-0.798918 -0.124,-0.1841 -0.242484,-0.380508 -0.357084,-0.570508 l -0.0047,-0.0078 -0.0016,-0.0021 c -0.2149,-0.3559 -0.437053,-0.724201 -0.719853,-1.060401 -0.2786,-0.331397 -0.513151,-0.546986 -0.784448,-0.720886 -0.1906,-0.1222 -0.332251,-0.240923 -0.445451,-0.37362 -0.3593,-0.4251 -0.8052,-0.770308 -1.306897,-1.011308 -0.5246,-0.2531 -1.086804,-0.513599 -1.680001,-0.699699 -0.0644,-0.0203 -0.131269,-0.04243 -0.190169,-0.06253 h -0.0026 c -0.1894,-0.0639 -0.385164,-0.130347 -0.603064,-0.164847 -0.2416,-0.038 -0.526019,-0.08534 -0.805119,-0.149345 -0.3452,-0.0784 -0.697499,-0.125393 -1.051099,-0.138493 -0.0494,-0.002 -0.101312,-0.0031 -0.154512,-0.0031 z m 0,0.22996 h 5.2e-4 c 0.04843,7e-6 0.09688,6.9e-4 0.145211,0.0026 0.338897,0.0115 0.67886,0.05521 1.009757,0.129708 0.2831,0.0649 0.573722,0.113546 0.820622,0.152446 0.1993,0.0316 0.386307,0.09486 0.567407,0.156062 0.064,0.0216 0.12972,0.0441 0.19482,0.0646 0.5781,0.1816 1.131279,0.439197 1.648479,0.687297 0.472497,0.227197 0.893466,0.552813 1.231966,0.952913 0.1282,0.1507 0.285477,0.283779 0.495577,0.418579 0.250597,0.1611 0.470074,0.362711 0.732771,0.675411 0.2718,0.3221 0.489733,0.683912 0.700733,1.033012 0.1179,0.1951 0.239136,0.396878 0.367936,0.588078 0.1517,0.224597 0.243046,0.489274 0.331246,0.745174 0.0299,0.0863 0.06048,0.175766 0.09198,0.260966 0.1344,0.354397 0.257041,0.709428 0.392741,1.104325 0.1841,0.5396 0.305104,0.989685 0.376204,1.417485 0.0235,0.164 0.03979,0.330796 0.04599,0.496093 0.0053,0.092 0.01114,0.186753 0.01964,0.279053 0.0339,0.362 0.05323,0.734916 0.05943,1.141016 0.0035,0.2345 -0.02286,0.466897 -0.05116,0.690397 -0.0126,0.1065 -0.02606,0.216664 -0.03566,0.325561 -0.029,0.3272 -0.07896,0.591324 -0.156063,0.829924 0,0.004 -0.39269,1.24451 -0.727087,1.803507 -0.099,0.1719 -0.189985,0.350568 -0.270785,0.532268 -0.0582,0.1254 -0.118568,0.255338 -0.183968,0.380338 -0.2349,0.4468 -0.54706,0.83551 -0.84646,1.19631 -0.390097,0.468797 -0.80012,0.90489 -1.150317,1.26969 -0.1311,0.136697 -0.291482,0.227906 -0.430982,0.299206 -0.294497,0.1501 -0.584013,0.323543 -0.863513,0.491443 -0.2414,0.1448 -0.490843,0.294631 -0.74414,0.429431 -0.4105,0.216 -0.84383,0.392649 -1.289327,0.522449 -0.0921,0.0274 -0.184219,0.05847 -0.274919,0.08837 -0.1268,0.0422 -0.257543,0.08542 -0.38964,0.120922 -0.2092,0.0557 -0.424203,0.08005 -0.632003,0.103353 -0.1309,0.0147 -0.266692,0.02971 -0.397392,0.05271 -0.3327,0.0622 -0.673975,0.0958 -1.013375,0.0987 -0.1128,0 -0.222829,-0.0042 -0.330729,-0.01292 -0.1642,-0.0129 -0.332477,-0.01845 -0.495577,-0.02325 -0.2787,-0.0088 -0.567094,-0.01753 -0.850594,-0.06563 -0.1038,-0.0161 -0.209412,-0.02704 -0.314709,-0.03204 -0.1111,-0.0048 -0.22258,-0.01679 -0.33228,-0.03359 -0.0631,-0.0108 -0.126452,-0.02059 -0.189652,-0.03049 -0.1066,-0.0166 -0.216845,-0.03319 -0.325045,-0.05529 -0.269,-0.055 -0.519947,-0.161267 -0.762744,-0.264067 -0.1284,-0.0543 -0.260641,-0.110513 -0.392741,-0.157613 -0.3967,-0.1411 -0.752374,-0.359191 -1.096574,-0.569991 -0.1279,-0.0782 -0.260291,-0.159111 -0.391191,-0.234611 -0.1595,-0.0921 -0.318306,-0.188253 -0.471806,-0.282153 -0.138097,-0.0849 -0.282913,-0.172899 -0.425813,-0.255799 -0.3362,-0.189997 -0.637218,-0.437921 -0.888318,-0.731221 -0.2806,-0.332 -0.541266,-0.684182 -0.775664,-1.050582 -0.361,-0.560997 -0.773829,-1.218096 -1.107426,-1.917196 -0.2876,-0.609797 -0.522749,-1.247092 -0.698149,-1.898592 -0.0665,-0.2434 -0.102443,-0.494425 -0.136943,-0.737422 -0.0099,-0.069 -0.01999,-0.138223 -0.03049,-0.207223 -0.0716,-0.4687 -0.08979,-0.879971 -0.05529,-1.256771 0.0145,-0.1611 0.02087,-0.325008 0.02687,-0.484208 0.0083,-0.2182 0.01679,-0.443743 0.04599,-0.667143 0.0691,-0.523597 0.141341,-0.995143 0.303341,-1.462443 0.1137,-0.327197 0.249789,-0.651282 0.381889,-0.964282 l 0.05529,-0.129708 c 0.247497,-0.594497 0.551807,-1.167489 0.906404,-1.704289 0.0982,-0.147497 0.193788,-0.301185 0.286288,-0.449585 0.112101,-0.180197 0.228167,-0.366169 0.350367,-0.544669 0.2045,-0.2992 0.409769,-0.536988 0.627869,-0.727088 0.526597,-0.457897 1.103493,-0.863196 1.71359,-1.201993 0.5334,-0.2963 0.981486,-0.500989 1.411283,-0.643889 0.1054,-0.0354 0.212127,-0.07594 0.315227,-0.115238 0.161097,-0.0612 0.329478,-0.124683 0.501778,-0.172083 0.1657,-0.042 0.334862,-0.07602 0.504362,-0.09922 0.069,-0.0108 0.14114,-0.02292 0.21084,-0.03462 l 0.0863,-0.0155 c 0.3222,-0.0573 0.654435,-0.116219 0.978235,-0.191719 0.1978,-0.046 0.4048,-0.05721 0.6165,-0.06511 0.1309,-0.0048 0.264258,-0.01394 0.393258,-0.02274 0.189629,-0.01349 0.384384,-0.02736 0.579809,-0.02739 z m -0.61805,1.244886 -0.02842,5.2e-4 h -0.0062 c -0.0382,0 -0.07649,0.0043 -0.113688,0.0124 -0.037,0.008 -0.07352,0.01966 -0.108521,0.03566 -0.0299,0.0136 -0.05747,0.03141 -0.08216,0.05271 -0.0246,0.0212 -0.04618,0.0464 -0.06408,0.0739 h -5.2e-4 c -0.0156,0.0252 -0.02756,0.05241 -0.03566,0.08061 -0.0081,0.0283 -0.01189,0.05773 -0.01189,0.08733 2e-4,2e-4 3e-4,0.01324 0,0.01344 0,0.0313 0.0055,0.06205 0.01654,0.09095 0.011,0.0288 0.02768,0.05567 0.04858,0.07906 l 5.2e-4,5.2e-4 c 0.0201,0.0214 0.04226,0.04023 0.06666,0.05633 0.0243,0.0161 0.05063,0.02959 0.07803,0.03979 h 5.2e-4 c 0.0339,0.012 0.069,0.02319 0.104903,0.03359 0.0347,0.0102 0.06925,0.01907 0.103353,0.02687 0.0318,0.0077 0.05962,0.0151 0.08371,0.0217 0.0232,0.0063 0.04411,0.0127 0.06201,0.0186 0.0147,0.0047 0.02917,0.01089 0.04237,0.01809 0.0134,0.0073 0.02592,0.01552 0.03772,0.02532 0.0089,0.0074 0.01587,0.01667 0.02067,0.02687 0.0047,0.0102 0.0072,0.02137 0.0072,0.03307 v 0.0016 c 6e-4,0.0512 -0.01781,0.08995 -0.05581,0.115755 -0.0414,0.0282 -0.105736,0.04253 -0.192236,0.04393 l -0.01705,5.2e-4 c -0.0489,0 -0.09708,-0.005 -0.144177,-0.01447 -0.0475,-0.0097 -0.09379,-0.02399 -0.138493,-0.04289 -0.0058,-0.0025 -0.0123,-0.0044 -0.0186,-0.0057 -0.0065,-0.0013 -0.01292,-0.0021 -0.01912,-0.0021 -2e-4,2e-4 -0.0023,10e-5 -0.0026,0 -0.0118,0 -0.02299,0.0024 -0.03359,0.0072 -0.0104,0.0047 -0.02011,0.01135 -0.02791,0.02015 -0.0075,0.0081 -0.01305,0.0178 -0.01705,0.0279 -0.004,0.0102 -0.0062,0.02104 -0.0062,0.03204 v 0.0021 c 2e-4,0.0094 0.0018,0.01879 0.0047,0.02739 0.0029,0.0084 0.007,0.01637 0.0124,0.02377 0.0052,0.0074 0.0117,0.01404 0.0186,0.01964 0.0071,0.0056 0.01495,0.01004 0.02325,0.01344 l 0.03152,0.01344 v -10e-4 c 0.0472,0.0172 0.09601,0.03061 0.14521,0.04031 0.0603,0.0118 0.121535,0.01809 0.182935,0.01809 0.0084,-2e-4 0.01651,-5.2e-4 0.02481,-5.2e-4 0.0369,0 0.07419,-0.0039 0.110587,-0.01137 0.0363,-0.0075 0.07194,-0.01847 0.105937,-0.03307 0.0298,-0.0126 0.05768,-0.02919 0.08268,-0.04909 0.025,-0.0199 0.04725,-0.04295 0.06615,-0.06925 v -5.2e-4 c 0.0169,-0.0242 0.03006,-0.05043 0.03876,-0.07803 0.0087,-0.0277 0.01292,-0.0571 0.01292,-0.0863 -2e-4,-7e-4 -2e-4,-0.01119 0,-0.01189 0,-0.0321 -0.0056,-0.06363 -0.01654,-0.09353 -0.0108,-0.0299 -0.02694,-0.05808 -0.04754,-0.08268 l -5.2e-4,-5.2e-4 c -0.0192,-0.0216 -0.04048,-0.04075 -0.06408,-0.05684 -0.0237,-0.0163 -0.04968,-0.02969 -0.07648,-0.03979 -0.033,-0.0117 -0.06689,-0.02234 -0.101286,-0.03204 -0.0336,-0.0094 -0.06792,-0.0176 -0.102319,-0.0248 -0.0257,-0.0051 -0.05125,-0.01085 -0.07545,-0.01705 -0.0241,-0.0062 -0.0487,-0.01329 -0.0739,-0.02119 -0.0157,-0.0049 -0.03076,-0.01154 -0.04496,-0.01964 -0.0142,-0.0082 -0.02769,-0.01794 -0.03979,-0.02894 -0.0098,-0.0092 -0.01754,-0.02004 -0.02274,-0.03204 -0.0052,-0.0121 -0.0082,-0.02557 -0.0083,-0.03927 v -0.0067 c 0,-0.0226 0.0061,-0.04435 0.01705,-0.06305 0.011,-0.0187 0.02733,-0.03458 0.04703,-0.04547 0.0272,-0.0155 0.0562,-0.02714 0.0863,-0.03514 0.0299,-0.0079 0.061,-0.0124 0.0925,-0.0124 h 0.02429 c 0.0396,0 0.0789,0.0032 0.117305,0.0093 0.0382,0.0062 0.07597,0.01581 0.113172,0.02791 0.0048,0.0021 0.0101,0.0035 0.0155,0.0047 0.0055,0.0013 0.01125,0.0019 0.01705,0.0021 10e-4,0 0.0022,3.2e-4 0.0031,5.2e-4 0.0118,0 0.02341,-0.0027 0.03411,-0.0078 0.0102,-0.0049 0.01989,-0.0126 0.02739,-0.0217 0.007,-0.0083 0.01232,-0.01739 0.01602,-0.02739 v -5.2e-4 c 0.0037,-0.0101 0.0057,-0.02082 0.0057,-0.03152 -10e-5,-6e-4 -10e-5,-0.0042 0,-0.0047 0,-0.0188 -0.0062,-0.03634 -0.01705,-0.05064 -0.0109,-0.0142 -0.02676,-0.02507 -0.04496,-0.02997 -0.0466,-0.0156 -0.09433,-0.02724 -0.142627,-0.03514 -0.0489,-0.008 -0.09798,-0.0124 -0.147278,-0.0124 z m -1.097091,0.0801 c -0.0023,0 -0.0057,2.2e-4 -0.0093,5.2e-4 -0.0028,3e-4 -0.0053,6.3e-4 -0.0078,10e-4 -0.0126,0.0019 -0.02454,0.0065 -0.03514,0.01344 -0.0105,0.0068 -0.01946,0.01565 -0.02636,0.02635 -0.0051,0.0075 -0.0091,0.016 -0.01188,0.02481 -0.0027,0.0089 -0.0041,0.01819 -0.0041,0.02739 0,0.0028 2.2e-4,0.0057 5.2e-4,0.0093 4e-4,0.0033 8.5e-4,0.0067 0.0016,0.0098 l 0.114721,0.612366 c 0.0021,0.0094 0.0037,0.01871 0.0047,0.02791 0.001,0.009 0.0015,0.01862 0.0015,0.02842 0,0.0165 -0.0016,0.03278 -0.0046,0.04858 -0.003,0.016 -0.0071,0.03141 -0.01292,0.04651 -0.0088,0.0214 -0.02084,0.04133 -0.03514,0.05943 -0.0145,0.0182 -0.03164,0.03456 -0.05064,0.04806 -0.0198,0.0141 -0.04085,0.02626 -0.06305,0.03566 -0.0223,0.0094 -0.04545,0.01637 -0.06925,0.02067 -0.0105,0.002 -0.02122,0.0031 -0.03152,0.0041 -0.0098,9e-4 -0.02011,0.0015 -0.03101,0.0015 -0.0138,0 -0.02774,-8.8e-4 -0.04134,-0.0026 -0.0136,-0.0017 -0.02701,-0.0045 -0.04031,-0.0078 -0.0228,-0.0058 -0.04428,-0.01476 -0.06408,-0.02636 -0.0198,-0.0116 -0.03826,-0.02589 -0.05426,-0.04289 -0.0176,-0.0191 -0.03189,-0.04066 -0.04289,-0.06356 -0.011,-0.0229 -0.01874,-0.04768 -0.02274,-0.07338 L 18.173328,11.77194 c -0.0022,-0.0126 -0.0066,-0.02474 -0.01344,-0.03514 -0.0068,-0.0104 -0.01566,-0.01925 -0.02636,-0.02635 -0.0077,-0.0053 -0.0161,-0.0092 -0.0248,-0.01188 -0.0091,-0.0029 -0.01861,-0.0047 -0.02791,-0.0047 -0.0026,0 -0.0058,2.2e-4 -0.0093,5.2e-4 -0.0027,3e-4 -0.0057,10e-4 -0.0083,0.0016 -0.0127,0.0019 -0.02454,0.006 -0.03514,0.01292 -0.0103,0.0068 -0.01936,0.01575 -0.02636,0.02635 -0.0052,0.0076 -0.0092,0.01591 -0.01188,0.02481 -0.0028,0.0089 -0.0041,0.01829 -0.0041,0.02739 0,0.0028 2.2e-4,0.0062 5.2e-4,0.0098 4e-4,0.0033 8.5e-4,0.0063 0.0016,0.0093 l 0.113171,0.605648 c 0.0124,0.085 0.05002,0.162026 0.10542,0.222726 0.0554,0.0606 0.12889,0.105373 0.21239,0.125573 0.0214,0.0052 0.04258,0.0093 0.06408,0.01189 0.0217,0.0027 0.04341,0.0036 0.06511,0.0036 0.0163,0 0.03376,-4.7e-4 0.05116,-0.0021 0.0172,-0.0016 0.03383,-0.004 0.05013,-0.0072 0.0379,-0.007 0.07467,-0.01817 0.110071,-0.03307 0.0355,-0.0151 0.06937,-0.03403 0.100769,-0.05633 0.0565,-0.0391 0.101808,-0.09118 0.132808,-0.150378 0.0311,-0.0593 0.04806,-0.12612 0.04806,-0.19482 0,-0.0153 -8.8e-4,-0.03071 -0.0026,-0.04651 -0.0018,-0.0153 -0.0044,-0.03079 -0.0078,-0.04599 l -0.113688,-0.607198 c -0.0042,-0.0224 -0.01606,-0.04149 -0.03256,-0.05529 -0.0166,-0.0138 -0.03766,-0.02222 -0.06046,-0.02222 z m 2.817399,0.09147 c -0.0088,0 -0.01744,0.0015 -0.02584,0.0041 -0.0084,0.0025 -0.01595,0.0061 -0.02325,0.01085 -0.0105,0.0066 -0.01987,0.01552 -0.02687,0.02532 -0.0072,0.0102 -0.01239,0.02171 -0.01499,0.03411 l -0.223759,0.930175 c -9e-4,0.0037 -0.0016,0.0075 -0.0021,0.01137 -5e-4,0.0043 -5.2e-4,0.0084 -5.2e-4,0.01189 0,0.0084 8e-4,0.0166 0.0031,0.0248 l 0.0021,0.0062 -10e-4,0.0016 0.0088,0.01499 h 5.2e-4 c 0.0065,0.0111 0.01522,0.0206 0.02532,0.02791 0.0101,0.0074 0.02171,0.0128 0.03411,0.0155 0.0035,8e-4 0.0072,0.0016 0.01085,0.0021 0.0044,5e-4 0.0085,5.2e-4 0.01189,5.2e-4 0.0084,0 0.0166,-9e-4 0.0248,-0.0031 0.008,-0.0022 0.01564,-0.0056 0.02274,-0.0098 0.011,-0.0063 0.0205,-0.01471 0.0279,-0.02481 0.0073,-0.0101 0.0129,-0.02171 0.0155,-0.03411 l 0.07235,-0.302824 0.252698,0.06046 c 0.0237,0.0066 0.04785,0.01169 0.07235,0.01499 0.0246,0.0034 0.04908,0.0052 0.07338,0.0052 0.0186,0 0.03775,-0.0011 0.05684,-0.0031 0.019,-0.002 0.03793,-0.0048 0.05633,-0.0088 0.0334,-0.0075 0.06495,-0.02031 0.09405,-0.03721 0.0292,-0.017 0.05607,-0.03826 0.07906,-0.06356 l 5.2e-4,-5.2e-4 c 0.0306,-0.0357 0.05428,-0.07597 0.07028,-0.119373 0.016,-0.0434 0.02429,-0.09004 0.02429,-0.136942 0,-0.0154 -7.8e-4,-0.03101 -0.0026,-0.04651 -0.0018,-0.0152 -0.005,-0.03049 -0.0088,-0.04599 v -5.2e-4 c -0.0091,-0.0329 -0.02304,-0.0642 -0.04134,-0.0925 -0.0184,-0.0283 -0.04098,-0.05375 -0.06718,-0.07545 -0.0339,-0.0275 -0.07109,-0.05085 -0.110587,-0.06925 -0.0395,-0.0185 -0.08122,-0.03242 -0.124024,-0.04082 l -0.344165,-0.08372 c -0.0036,-9e-4 -0.0075,-0.0016 -0.01137,-0.0021 -0.0042,-5e-4 -0.008,-0.001 -0.01137,-0.001 z m 0.07131,0.200505 0.241329,0.05736 c 0.0498,0.0119 0.09037,0.02694 0.122473,0.04444 0.0305,0.0167 0.0535,0.03576 0.0677,0.05736 0.0097,0.0152 0.01722,0.03158 0.02222,0.04858 0.005,0.017 0.0072,0.03461 0.0072,0.05271 0,0.0334 -0.0089,0.06574 -0.02481,0.09354 -0.016,0.0278 -0.039,0.05151 -0.0677,0.06821 -0.0224,0.0129 -0.05088,0.01967 -0.08578,0.02067 -0.0367,0.0012 -0.08001,-0.0041 -0.129708,-0.01602 l -0.241329,-0.05736 z m -4.617806,0.178284 c -0.0388,0 -0.07797,0.004 -0.116272,0.01188 -0.0382,0.0078 -0.0753,0.01942 -0.111104,0.03462 -0.0488,0.0183 -0.09453,0.04318 -0.136426,0.07338 -0.0422,0.0304 -0.08038,0.06627 -0.113171,0.10697 h -5.2e-4 c -0.0305,0.0386 -0.05466,0.08129 -0.07286,0.126091 -0.0182,0.0448 -0.03004,0.09228 -0.03514,0.141076 v 5.2e-4 c -0.001,0.0108 -0.0021,0.02132 -0.0026,0.03152 -5e-4,0.0112 -5.2e-4,0.02151 -5.2e-4,0.03101 0,0.0953 0.02021,0.188568 0.05891,0.273368 0.0385,0.0848 0.09543,0.161576 0.167431,0.224276 0.0372,0.032 0.07879,0.05845 0.12299,0.07855 0.038,0.0171 0.07807,0.02961 0.119373,0.03721 v 0.0015 l 0.02119,0.0021 c 0.0117,0.0013 0.02386,0.0024 0.03566,0.0031 0.0122,6e-4 0.02372,10e-4 0.03462,10e-4 0.0932,0 0.18405,-0.02051 0.26665,-0.05891 0.0826,-0.0384 0.156841,-0.0951 0.217041,-0.166398 l 5.2e-4,-5.2e-4 c 0.0303,-0.0387 0.05518,-0.08109 0.07338,-0.12609 0.0182,-0.045 0.03014,-0.09279 0.03514,-0.141594 0.0011,-0.0112 0.0016,-0.02217 0.0021,-0.03307 6e-4,-0.0117 0.001,-0.02287 0.001,-0.03307 0,-0.0945 -0.02083,-0.186685 -0.05943,-0.270785 -0.0387,-0.0842 -0.09511,-0.160092 -0.166915,-0.221692 -0.0372,-0.032 -0.07859,-0.05877 -0.122989,-0.07906 -0.0443,-0.0203 -0.09164,-0.03404 -0.140044,-0.04134 -0.0133,-0.0018 -0.02647,-0.0032 -0.03927,-0.0041 -0.0133,-9e-4 -0.02626,-0.0016 -0.03876,-0.0016 z m 5.899381,0.0098 c -0.0061,0 -0.0123,7.7e-4 -0.0186,0.0021 -0.0063,0.0013 -0.01249,0.0032 -0.01809,0.0057 -0.0115,0.0048 -0.02189,0.01197 -0.03049,0.02067 -0.0087,0.0089 -0.01514,0.01972 -0.01964,0.03152 l -0.358634,0.856278 c -0.0031,0.0074 -0.0056,0.01504 -0.0072,0.02274 -0.0017,0.0081 -0.0026,0.01639 -0.0026,0.02429 0,0.0078 8.8e-4,0.01577 0.0026,0.02377 0.0016,0.0079 0.0046,0.01544 0.0078,0.02274 0.0057,0.0151 0.01442,0.02849 0.02532,0.03979 0.0113,0.0116 0.02511,0.02119 0.04031,0.02739 l 0.512114,0.214457 c 0.0058,0.0024 0.01167,0.0045 0.01757,0.0057 0.0061,0.0012 0.0124,0.0015 0.0186,0.0015 0.0062,0 0.0125,-3.5e-4 0.0186,-0.0015 0.0058,-0.0012 0.01177,-0.0033 0.01757,-0.0057 0.0117,-0.0046 0.02179,-0.01114 0.03049,-0.01964 0.0089,-0.0088 0.01607,-0.01962 0.02067,-0.03152 0.0024,-0.0058 0.0045,-0.01125 0.0057,-0.01705 0.0012,-0.0061 0.0016,-0.0125 0.0016,-0.0186 0,-0.019 -0.0058,-0.03751 -0.01602,-0.05271 -0.0101,-0.0153 -0.02426,-0.02764 -0.04186,-0.03514 l -0.451136,-0.188619 0.33228,-0.796334 c 0.0024,-0.006 0.0046,-0.01219 0.0057,-0.01809 0.0012,-0.0061 0.0016,-0.01199 0.0016,-0.01809 0,-0.0191 -0.0054,-0.03751 -0.0155,-0.05271 -0.0101,-0.0153 -0.02468,-0.02764 -0.04237,-0.03514 -0.0058,-0.0025 -0.01177,-0.0044 -0.01757,-0.0057 -0.0062,-0.0013 -0.0125,-0.0021 -0.0186,-0.0021 z m -5.902998,0.1726 c 0.0094,0 0.01837,5.3e-4 0.02687,10e-4 0.0089,6e-4 0.01789,0.0014 0.02739,0.0026 0.0325,0.0054 0.06423,0.01535 0.09353,0.02946 0.0295,0.0141 0.05685,0.03248 0.08165,0.05478 0.0494,0.0467 0.08832,0.102932 0.114722,0.164332 0.0266,0.0615 0.04082,0.12797 0.04082,0.19637 v 0.01395 l -5.2e-4,0.01344 c -0.0025,0.0331 -0.0101,0.06542 -0.0217,0.09612 -0.0117,0.0308 -0.02754,0.0599 -0.04754,0.0863 -0.0404,0.0493 -0.09098,0.08854 -0.147278,0.115239 -0.0563,0.0266 -0.118418,0.04082 -0.182418,0.04082 -0.0094,0 -0.01827,0 -0.02687,-5.2e-4 -0.0092,-6e-4 -0.01816,-0.0015 -0.02635,-0.0026 -0.0327,-0.0056 -0.06455,-0.01567 -0.09405,-0.02997 -0.0294,-0.0142 -0.05653,-0.03299 -0.08113,-0.05529 -0.0495,-0.0466 -0.08874,-0.102614 -0.115238,-0.163814 -0.0265,-0.0614 -0.04031,-0.12807 -0.04031,-0.19637 v -0.01395 l 5.2e-4,-0.01395 c 0.0025,-0.033 0.0102,-0.06542 0.0217,-0.09612 0.0115,-0.0304 0.02723,-0.05928 0.04703,-0.08578 0.0404,-0.0493 0.09056,-0.08864 0.146761,-0.115238 0.0563,-0.0267 0.118518,-0.04082 0.182418,-0.04082 z m -1.26659,0.390157 c -0.0082,0 -0.01629,10e-4 -0.02429,0.0031 -0.0081,0.0022 -0.01615,0.0057 -0.02325,0.0098 -0.011,0.0062 -0.0205,0.01449 -0.02791,0.02429 -0.0074,0.0098 -0.0126,0.02129 -0.0155,0.03359 -9e-4,0.0035 -0.0015,0.007 -0.0021,0.01085 -5e-4,0.0044 -0.001,0.0083 -0.001,0.01189 0,0.0083 0.0013,0.01712 0.0036,0.02532 0.0022,0.0082 0.0054,0.01606 0.0098,0.02326 l 0.483175,0.835608 c 0.0061,0.0108 0.01427,0.02009 0.02377,0.02739 0.0097,0.0075 0.02066,0.01282 0.03256,0.01602 0.0037,10e-4 0.0076,0.0021 0.01189,0.0026 0.0043,6e-4 0.0082,0.001 0.01189,0.001 0.0082,0 0.0167,-0.0014 0.0248,-0.0036 0.0081,-0.0023 0.01574,-0.0055 0.02274,-0.0098 0.0108,-0.0061 0.02051,-0.01427 0.02791,-0.02377 0.0075,-0.0094 0.01262,-0.02056 0.01602,-0.03256 0.0013,-0.0042 0.0024,-0.0086 0.0031,-0.01292 6e-4,-0.0044 0.001,-0.0087 0.001,-0.01292 0,-0.0082 -0.0014,-0.01639 -0.0036,-0.02429 -0.0022,-0.0077 -0.005,-0.0148 -0.0093,-0.0217 l -0.483174,-0.835608 c -0.0085,-0.0147 -0.02094,-0.02652 -0.03514,-0.03462 -0.0141,-0.0081 -0.03013,-0.01292 -0.04703,-0.01292 z m 8.567436,0.14366 -0.0057,5.2e-4 c -0.0116,0.0013 -0.02311,0.0042 -0.03411,0.0083 -0.0109,0.0041 -0.02151,0.0094 -0.03101,0.01602 l -0.838708,0.584977 c -0.0058,0.0037 -0.01154,0.0083 -0.01654,0.01344 -0.0048,0.0048 -0.009,0.01064 -0.01292,0.01654 -0.0051,0.0075 -0.0093,0.01559 -0.01188,0.02429 -0.0027,0.0088 -0.0041,0.01745 -0.0041,0.02635 0,0.003 1.2e-4,0.0062 5.2e-4,0.0098 4e-4,0.0033 9.5e-4,0.0068 0.0016,0.0098 0.0028,0.0126 0.0085,0.02462 0.01602,0.03462 0.0073,0.0098 0.01659,0.01809 0.02739,0.02429 0.0075,0.0048 0.01579,0.0084 0.02429,0.01085 0.0087,0.0025 0.01746,0.0036 0.02636,0.0036 h 0.0021 c 0.0095,-2e-4 0.01869,-0.0014 0.02739,-0.0041 0.0088,-0.0028 0.01742,-0.0071 0.02532,-0.0124 l 0.203088,-0.14366 0.42478,0.26665 c -0.0133,0.0812 -0.03242,0.171581 -0.04082,0.252181 l -5.2e-4,0.0067 c 0,0.007 0.0011,0.01429 0.0026,0.02119 0.0014,0.0068 0.0036,0.01335 0.0067,0.02015 0.0039,0.0085 0.0088,0.01635 0.01499,0.02325 0.0061,0.0069 0.01329,0.01277 0.02119,0.01757 0.0073,0.0049 0.01506,0.0084 0.02326,0.01085 0.0086,0.0026 0.01797,0.0041 0.02687,0.0041 0.0035,0 0.0071,-1.2e-4 0.01085,-5.2e-4 0.0032,-4e-4 0.0065,-0.0012 0.01034,-0.0021 0.0122,-0.003 0.02337,-0.0083 0.03307,-0.0155 0.0098,-0.0073 0.0185,-0.01627 0.0248,-0.02687 l 5.2e-4,-10e-4 c 0.0031,-0.0058 0.0057,-0.0118 0.0078,-0.0186 0.002,-0.0061 0.0038,-0.01252 0.0047,-0.01912 l 0.162264,-1.010791 c 5e-4,-0.0036 7.3e-4,-0.0068 0.001,-0.01034 3e-4,-0.0038 5.2e-4,-0.0076 5.2e-4,-0.01085 0,-0.0079 -7.7e-4,-0.01577 -0.0021,-0.02377 -0.0013,-0.0077 -0.0035,-0.01555 -0.0062,-0.02325 v -5.2e-4 c -0.0043,-0.0118 -0.0105,-0.02296 -0.0186,-0.03256 -0.008,-0.0095 -0.01762,-0.01737 -0.02842,-0.02377 l -0.0124,-0.0083 c -0.009,-0.006 -0.01874,-0.01034 -0.02894,-0.01344 -0.0104,-0.0032 -0.02144,-0.0047 -0.03204,-0.0047 z m -0.06821,0.24598 -0.07751,0.454752 -0.299206,-0.187585 z m -9.045443,0.03514 c -0.0024,3e-4 -0.005,6.3e-4 -0.0072,10e-4 -0.031,0.0042 -0.06105,0.01049 -0.09095,0.01809 -0.0301,0.0076 -0.0601,0.01691 -0.0894,0.02791 h -5.2e-4 c -0.0308,0.0123 -0.0607,0.02733 -0.0894,0.04393 -0.0283,0.0164 -0.05555,0.03479 -0.08165,0.05529 -0.0407,0.0303 -0.07734,0.06592 -0.109037,0.10542 -0.0316,0.0393 -0.05817,0.08269 -0.07906,0.129191 -0.0146,0.0328 -0.02567,0.067 -0.03307,0.101803 -0.0075,0.035 -0.01137,0.07075 -0.01137,0.106453 0,0.013 5.5e-4,0.02587 0.0016,0.03927 10e-4,0.0126 0.0025,0.02577 0.0046,0.03927 l 5.2e-4,10e-4 c 0.0202,0.1069 0.06501,0.205905 0.129708,0.289905 0.0647,0.0839 0.148913,0.152671 0.247013,0.199471 h 5.2e-4 c 0.0325,0.0143 0.06659,0.02526 0.101286,0.03256 0.0348,0.0073 0.07002,0.01085 0.10542,0.01085 0.0133,0 0.02671,-4.5e-4 0.04031,-0.0015 0.0093,-7e-4 0.01872,-0.0018 0.02842,-0.0031 l 5.2e-4,5.2e-4 0.01189,-0.0021 c 0.0501,-0.0084 0.09859,-0.02332 0.144694,-0.04393 0.0462,-0.0208 0.08949,-0.04726 0.129191,-0.07906 0.0263,-0.0198 0.05131,-0.0414 0.07441,-0.0646 0.0235,-0.0236 0.04521,-0.04926 0.06511,-0.07596 h 5.2e-4 c 0.018,-0.0252 0.03451,-0.05186 0.04961,-0.07906 0.0152,-0.0274 0.02882,-0.05522 0.04082,-0.08372 0.0025,-0.0055 0.0044,-0.01157 0.0057,-0.01757 0.0015,-0.0064 0.0026,-0.01282 0.0026,-0.01912 0,-0.0103 -0.002,-0.02079 -0.0057,-0.03049 -0.0034,-0.0091 -0.0082,-0.01721 -0.01447,-0.02481 -0.0065,-0.0088 -0.01499,-0.0162 -0.02429,-0.0217 -0.0094,-0.0054 -0.01981,-0.009 -0.03101,-0.01034 l -0.0046,-5.2e-4 h -0.0047 c -0.0098,0 -0.01964,0.0019 -0.02894,0.0052 -0.0092,0.0034 -0.01772,0.0081 -0.02532,0.01447 -0.0051,0.0041 -0.0094,0.0085 -0.01344,0.01344 v 5.2e-4 c -0.0043,0.0055 -0.0082,0.01125 -0.01085,0.01705 v 5.2e-4 c -0.0097,0.0214 -0.02034,0.04191 -0.03204,0.06201 -0.0119,0.0205 -0.02516,0.04031 -0.03876,0.05891 -0.015,0.0195 -0.03118,0.03809 -0.04858,0.05529 -0.0175,0.0172 -0.03569,0.03294 -0.05529,0.04754 l -10e-4,5.2e-4 c -0.0295,0.0242 -0.06182,0.04423 -0.09612,0.05943 -0.0342,0.0152 -0.0704,0.02624 -0.108004,0.03204 -0.007,9e-4 -0.01452,0.0016 -0.02222,0.0021 -0.0072,5e-4 -0.01484,5.2e-4 -0.02274,5.2e-4 -0.0256,0 -0.05085,-0.0031 -0.07545,-0.0088 -0.0246,-0.0057 -0.04871,-0.0138 -0.07131,-0.0248 -0.0644,-0.0339 -0.119897,-0.08116 -0.163297,-0.13746 -0.0435,-0.0563 -0.07507,-0.121853 -0.09147,-0.192753 -0.0021,-0.0106 -0.0037,-0.02114 -0.0046,-0.03204 -0.0011,-0.0105 -0.0016,-0.02157 -0.0016,-0.03307 0,-0.0219 0.002,-0.04371 0.0062,-0.06511 0.0043,-0.0214 0.01072,-0.04253 0.01912,-0.06253 0.015,-0.0349 0.03438,-0.06743 0.05788,-0.09663 0.0235,-0.0294 0.05147,-0.05573 0.08217,-0.07803 l 5.2e-4,-5.2e-4 c 0.0192,-0.0152 0.03926,-0.02936 0.06046,-0.04186 0.0211,-0.0124 0.04355,-0.02357 0.06615,-0.03307 0.0217,-0.0084 0.04406,-0.0154 0.06666,-0.0217 0.0223,-0.0061 0.04501,-0.0115 0.06821,-0.0155 h 5.2e-4 c 0.0068,-0.0013 0.01302,-0.0034 0.01912,-0.0062 0.0057,-0.0026 0.01134,-0.0061 0.01654,-0.01034 0.0094,-0.0067 0.01694,-0.0151 0.02274,-0.02481 0.0058,-0.0098 0.0095,-0.02096 0.01085,-0.03256 l 5.2e-4,-0.0052 5.2e-4,-0.0057 c 0,-0.0088 -0.0018,-0.01724 -0.0047,-0.02584 -0.0027,-0.0079 -0.0066,-0.01584 -0.01188,-0.02274 -0.0079,-0.0115 -0.01881,-0.02047 -0.03101,-0.02687 -0.0122,-0.0064 -0.02589,-0.0098 -0.03979,-0.0098 -0.0019,0 -0.0045,-3e-4 -0.0078,0 z m 10.046416,0.47594 c -0.0139,0 -0.02819,0.0012 -0.04289,0.0031 -0.0142,0.0018 -0.02889,0.0042 -0.04289,0.0078 -0.0299,0.0081 -0.05823,0.02049 -0.08423,0.03669 -0.0256,0.0159 -0.04885,0.03581 -0.06925,0.05891 -0.0229,0.0232 -0.04093,0.0507 -0.05323,0.0801 -0.0124,0.0295 -0.01965,0.06167 -0.02015,0.09457 4e-4,0.0294 0.0045,0.05872 0.01137,0.08682 0.007,0.0282 0.01709,0.05555 0.03049,0.08165 0.0167,0.0319 0.03441,0.06335 0.05271,0.09405 0.0186,0.031 0.03841,0.06168 0.05891,0.09198 0.017,0.0257 0.03251,0.05036 0.04651,0.07286 0.0137,0.0221 0.02457,0.04061 0.03307,0.05581 v 5.2e-4 c 0.0077,0.0135 0.01442,0.02756 0.01912,0.04186 0.0049,0.0144 0.0083,0.02924 0.01034,0.04444 l 5.2e-4,0.0052 v 0.0052 c 0,0.0099 -0.0022,0.01952 -0.0057,0.02842 -0.0034,0.0089 -0.0083,0.01719 -0.01499,0.02429 l -0.0016,0.0021 c -0.0341,0.0376 -0.07344,0.05301 -0.118339,0.04651 -0.0484,-0.007 -0.103915,-0.03867 -0.166915,-0.09457 l -0.0052,-0.0041 c -0.0384,-0.0339 -0.07347,-0.07197 -0.10387,-0.113172 -0.0303,-0.0412 -0.056,-0.08569 -0.077,-0.132291 -0.0028,-0.0062 -0.0065,-0.01185 -0.01033,-0.01705 -0.0037,-0.0051 -0.0081,-0.01 -0.01292,-0.01447 -0.0078,-0.0074 -0.01666,-0.01315 -0.02635,-0.01705 -0.0098,-0.0039 -0.02051,-0.0062 -0.03101,-0.0062 l -0.0083,5.2e-4 c -0.0116,0.0011 -0.02266,0.0045 -0.03256,0.0098 -0.01,0.0052 -0.01895,0.01207 -0.02635,0.02067 -0.0062,0.0069 -0.01129,0.01475 -0.01499,0.02325 -0.0035,0.008 -0.0057,0.01684 -0.0067,0.02584 -7e-4,0.0045 -0.001,0.0088 -0.001,0.01292 0,0.0067 5.7e-4,0.01367 0.0021,0.02067 0.0016,0.0069 0.0038,0.01364 0.0067,0.01964 l 5.2e-4,0.001 c 0.0276,0.0588 0.06103,0.114182 0.09973,0.165882 0.0392,0.0522 0.08339,0.100145 0.132292,0.143143 0.0274,0.0256 0.05728,0.04798 0.08888,0.06718 0.0319,0.0194 0.06547,0.03566 0.100769,0.04806 0.0194,0.007 0.03911,0.01252 0.05891,0.01602 0.0201,0.0035 0.04058,0.0052 0.06098,0.0052 0.0112,0 0.02304,-3.5e-4 0.03514,-0.0016 0.0121,-0.0012 0.02352,-0.003 0.03462,-0.0052 l 5.2e-4,-5.2e-4 c 0.0299,-0.0064 0.05855,-0.01767 0.08475,-0.03307 0.0259,-0.0152 0.04925,-0.03466 0.06925,-0.05736 0.0233,-0.0234 0.04189,-0.0505 0.05529,-0.0801 0.0134,-0.0298 0.02167,-0.06188 0.02377,-0.09508 0,-0.0015 -2e-4,-0.0089 0,-0.0093 0,-0.0272 -0.003,-0.05443 -0.0093,-0.08113 -0.0064,-0.0267 -0.01602,-0.0526 -0.02842,-0.077 v -5.2e-4 c -0.0164,-0.0314 -0.03399,-0.06177 -0.05219,-0.09147 -0.0184,-0.0301 -0.03799,-0.05967 -0.05839,-0.08837 -0.0153,-0.0211 -0.03002,-0.04248 -0.04392,-0.06408 -0.0139,-0.0216 -0.02729,-0.04373 -0.03979,-0.06563 -0.0081,-0.0142 -0.01422,-0.02926 -0.01912,-0.04496 -0.0048,-0.0155 -0.0083,-0.03156 -0.0098,-0.04806 v -0.0031 -0.0031 c 0,-0.0127 0.0026,-0.02529 0.0072,-0.03669 0.0047,-0.0116 0.01145,-0.0221 0.02015,-0.03101 l 0.001,-10e-4 c 0.0116,-0.0134 0.02586,-0.02371 0.04186,-0.03101 0.0159,-0.0072 0.03326,-0.01137 0.05116,-0.01137 0.005,0 0.0097,4.3e-4 0.01447,10e-4 0.0052,6e-4 0.01049,0.0015 0.01499,0.0026 0.0321,0.0075 0.06287,0.01944 0.09147,0.03514 0.0288,0.0158 0.05547,0.03539 0.07906,0.05839 l 5.2e-4,5.2e-4 c 0.031,0.0277 0.05957,0.05823 0.08527,0.09043 0.0259,0.0324 0.04925,0.06705 0.06925,0.103352 0.0022,0.0046 0.005,0.0088 0.0078,0.01292 0.0032,0.0048 0.0065,0.0094 0.01034,0.01344 h 5.2e-4 c 0.0074,0.0072 0.01602,0.01325 0.02532,0.01705 0.0093,0.0038 0.01926,0.0057 0.02946,0.0057 l 0.0062,-5.2e-4 0.0052,-5.2e-4 c 0.0111,-0.0014 0.02172,-0.0045 0.03152,-0.0098 0.0096,-0.0051 0.01864,-0.01195 0.02584,-0.02015 0.0077,-0.0077 0.01337,-0.01697 0.01757,-0.02687 0.0044,-0.0103 0.0067,-0.02146 0.0067,-0.03256 0,-0.0078 -10e-4,-0.01534 -0.0031,-0.02274 -0.0021,-0.0072 -0.0054,-0.01417 -0.0093,-0.02067 -0.0257,-0.0474 -0.0555,-0.09258 -0.0894,-0.134875 -0.0338,-0.0422 -0.07102,-0.08139 -0.111621,-0.116789 -0.0286,-0.0272 -0.06025,-0.05121 -0.09405,-0.07131 -0.0338,-0.0202 -0.06957,-0.03679 -0.106971,-0.04909 -0.0172,-0.0057 -0.03534,-0.01002 -0.05374,-0.01292 -0.0183,-0.003 -0.03616,-0.0047 -0.05426,-0.0047 z m -4.977474,0.291972 c -0.1231,0 -0.246937,0.0086 -0.367937,0.01705 -0.0841,0.006 -0.171565,0.0122 -0.257865,0.0155 -0.1268,7e-4 -0.253874,0.01386 -0.378271,0.03876 -0.212,0.0494 -0.428807,0.08776 -0.638204,0.125057 l -0.05529,0.01034 c -0.046,0.0083 -0.09239,0.01534 -0.138493,0.02274 -0.1055,0.0144 -0.210476,0.0354 -0.313676,0.0615 -0.1065,0.0294 -0.212626,0.0689 -0.315226,0.108004 -0.0677,0.0258 -0.138223,0.05205 -0.207223,0.07545 -0.271297,0.0905 -0.555302,0.220561 -0.894002,0.408761 -0.3883,0.2159 -0.754756,0.472897 -1.089856,0.764294 -0.1478,0.1325 -0.27869,0.283985 -0.38809,0.449585 -0.0776,0.1135 -0.151959,0.233316 -0.223759,0.348816 -0.0603,0.0967 -0.122352,0.196306 -0.186552,0.293006 -0.2252,0.341497 -0.420642,0.706705 -0.577742,1.085205 l -0.03514,0.08268 c -0.0847,0.2009 -0.17213,0.409017 -0.24443,0.617017 -0.1015,0.292697 -0.146603,0.591791 -0.191203,0.924491 -0.0186,0.1397 -0.02274,0.28318 -0.02894,0.42168 -0.0039,0.104497 -0.008,0.212143 -0.01757,0.318843 -0.0214,0.2349 -0.01018,0.492218 0.03462,0.786515 0.0069,0.046 0.01324,0.09029 0.01964,0.135393 0.0189,0.1552 0.0482,0.311121 0.0863,0.463021 0.1116,0.415297 0.261735,0.821245 0.444935,1.209745 0.212797,0.446397 0.478017,0.867932 0.709517,1.227832 0.1485,0.2324 0.314679,0.457576 0.492476,0.668176 0.1545,0.1799 0.339837,0.332168 0.546737,0.449068 0.0937,0.0541 0.187305,0.111515 0.277502,0.166915 0.0987,0.0603 0.200508,0.122668 0.302308,0.180868 0.0867,0.0495 0.172815,0.102679 0.256315,0.153479 0.217697,0.1335 0.442847,0.271234 0.688847,0.358634 0.0884,0.0315 0.175732,0.06939 0.259932,0.104387 0.1521,0.0644 0.309442,0.130931 0.472839,0.164331 0.0676,0.0138 0.137956,0.02454 0.205156,0.03514 0.0415,0.0064 0.08314,0.01254 0.12454,0.01964 0.0671,0.0102 0.135288,0.01767 0.203088,0.02067 0.0714,0.0033 0.143858,0.01069 0.214458,0.02119 0.176097,0.0297 0.35857,0.03522 0.535367,0.04082 0.1067,0.0032 0.217062,0.0067 0.325562,0.0155 0.0669,0.0053 0.135055,0.0078 0.205155,0.0078 v 5.2e-4 c 0.2132,-0.0017 0.427771,-0.02249 0.637171,-0.06149 0.0876,-0.0155 0.176733,-0.02554 0.263033,-0.03514 0.1322,-0.0115 0.26426,-0.03338 0.393257,-0.06408 0.0824,-0.023 0.165164,-0.04968 0.245464,-0.07648 0.0591,-0.0196 0.120167,-0.03968 0.180867,-0.05788 0.2818,-0.0821 0.556371,-0.194013 0.815971,-0.330213 0.1611,-0.0859 0.322257,-0.182018 0.476457,-0.274918 0.182197,-0.1096 0.370823,-0.222245 0.564823,-0.321945 0.0921,-0.043 0.177014,-0.101382 0.250114,-0.172082 0.225,-0.2345 0.488556,-0.514954 0.738456,-0.815454 0.1901,-0.2285 0.387751,-0.474676 0.534851,-0.754476 0.0414,-0.0785 0.07969,-0.160712 0.116789,-0.240812 0.0538,-0.1204 0.113917,-0.239684 0.179317,-0.353984 0.209,-0.349697 0.453737,-1.123849 0.460437,-1.142049 0.0516,-0.167 0.08423,-0.340614 0.09664,-0.515214 0.0065,-0.0718 0.01474,-0.143424 0.02274,-0.213424 0.0202,-0.1429 0.03176,-0.288134 0.03256,-0.432531 -0.0039,-0.2596 -0.01664,-0.498572 -0.03824,-0.729672 -0.0058,-0.0617 -0.0092,-0.123868 -0.01292,-0.183968 -0.0039,-0.103 -0.01322,-0.206925 -0.02842,-0.309025 -0.0449,-0.2704 -0.120945,-0.55607 -0.238745,-0.89917 -0.0875,-0.253097 -0.166917,-0.483451 -0.253214,-0.710551 -0.0214,-0.0566 -0.04148,-0.114965 -0.06098,-0.171565 -0.055,-0.159 -0.111538,-0.32192 -0.201538,-0.45682 -0.0852,-0.1259 -0.164429,-0.257792 -0.241329,-0.384989 -0.133897,-0.2221 -0.273086,-0.451724 -0.443383,-0.654224 -0.1625,-0.1935 -0.297088,-0.317679 -0.449585,-0.415479 -0.129,-0.0787 -0.245699,-0.177238 -0.345199,-0.290938 -0.209,-0.2475 -0.468577,-0.448611 -0.760677,-0.589111 -0.3309,-0.1588 -0.684618,-0.323433 -1.051615,-0.438733 -0.0433,-0.0136 -0.08656,-0.02827 -0.128158,-0.04237 -0.1132,-0.0423 -0.230852,-0.07505 -0.349849,-0.09715 -0.1611,-0.0253 -0.351752,-0.05724 -0.537952,-0.09973 -0.2074,-0.047 -0.420339,-0.07413 -0.633036,-0.08113 -0.0299,-0.0011 -0.06002,-0.0016 -0.08992,-0.0016 z m -6.224427,0.108003 c -0.0125,0 -0.02487,0.0028 -0.03617,0.0078 -0.0111,0.0048 -0.02086,0.01189 -0.02946,0.02119 l -0.426847,0.45992 c -0.008,0.0084 -0.0144,0.01812 -0.0186,0.02842 -0.0043,0.0107 -0.0062,0.02219 -0.0062,0.03359 2e-4,9e-4 0,0.005 0,0.0062 6e-4,0.0125 0.0037,0.02456 0.0088,0.03566 0.0052,0.0111 0.0124,0.02096 0.0217,0.02946 l 0.696082,0.645955 c 0.0085,0.0081 0.01875,0.0143 0.02946,0.0186 0.0108,0.0044 0.02241,0.0067 0.03411,0.0067 l 0.0031,-5.2e-4 c 0.0126,-4e-4 0.02476,-0.0031 0.03566,-0.0083 0.0108,-0.0051 0.02084,-0.0125 0.02894,-0.0217 l 0.426847,-0.460437 c 0.008,-0.0084 0.0144,-0.01802 0.0186,-0.02842 0.0043,-0.0107 0.0062,-0.02209 0.0062,-0.03359 v -0.0016 c -10e-5,-0.0121 -0.0029,-0.02392 -0.0078,-0.03462 -0.005,-0.0108 -0.01219,-0.02001 -0.02119,-0.02791 -0.0081,-0.0076 -0.0176,-0.01399 -0.0279,-0.01809 -0.0106,-0.0042 -0.02177,-0.0062 -0.03307,-0.0062 -0.0125,0 -0.02487,0.0028 -0.03617,0.0078 -0.0112,0.0049 -0.02147,0.01199 -0.02997,0.02119 l -0.362252,0.390674 -0.221175,-0.205156 0.324012,-0.348816 c 0.008,-0.0084 0.0144,-0.01854 0.0186,-0.02894 0.0043,-0.0107 0.0062,-0.02209 0.0062,-0.03359 v -0.0016 c -2e-4,-0.0121 -0.0028,-0.02402 -0.0078,-0.03462 -0.0049,-0.0108 -0.01177,-0.02052 -0.02067,-0.02842 -0.0081,-0.0075 -0.01781,-0.01295 -0.02791,-0.01705 -0.0105,-0.0041 -0.02136,-0.0067 -0.03256,-0.0067 -0.0012,10e-5 -0.0029,5.2e-4 -0.0041,5.2e-4 -0.012,4e-4 -0.02351,0.0033 -0.03411,0.0083 -0.0104,0.0048 -0.02,0.01135 -0.0279,0.02015 l -0.324011,0.348816 -0.219108,-0.203605 0.361735,-0.390674 c 0.0079,-0.0082 0.0144,-0.01802 0.0186,-0.02842 0.0043,-0.0106 0.0067,-0.02199 0.0067,-0.03359 l -5.2e-4,-0.0016 c -2e-4,-0.0121 -0.0029,-0.02392 -0.0078,-0.03462 -0.005,-0.0107 -0.01209,-0.02052 -0.02119,-0.02842 -0.0081,-0.0075 -0.01761,-0.01357 -0.02791,-0.01757 -0.0105,-0.0043 -0.02177,-0.0062 -0.03307,-0.0062 z m 6.226494,0.12144 c 0.029,0 0.05532,4.7e-4 0.08062,0.0021 0.1982,0.0059 0.396862,0.03205 0.590662,0.07545 0.194197,0.0447 0.388821,0.07684 0.552421,0.102836 0.105497,0.0199 0.210392,0.04922 0.311092,0.08682 h 10e-4 l 0.0062,0.0021 c 0.0412,0.0141 0.08342,0.02836 0.127124,0.04186 0.3526,0.1107 0.697827,0.27175 1.021127,0.426847 0.263097,0.1266 0.496929,0.30772 0.685229,0.530717 0.1137,0.1309 0.247525,0.244997 0.395325,0.335897 0.1319,0.0847 0.251111,0.195306 0.397908,0.370003 0.1592,0.1892 0.292897,0.410369 0.422197,0.624769 0.0744,0.123097 0.15853,0.26301 0.24753,0.394807 0.073,0.1086 0.124666,0.258377 0.174666,0.403077 l 0.0031,0.0083 c 0.0191,0.0557 0.03866,0.113432 0.06046,0.170532 0.0849,0.2241 0.163831,0.450919 0.250631,0.703316 0.1137,0.3309 0.18646,0.604966 0.22996,0.861963 0.0134,0.0939 0.02214,0.189521 0.02584,0.284221 0.0034,0.0591 0.0074,0.126453 0.01344,0.192753 0.0212,0.225297 0.03351,0.457984 0.03721,0.711584 -0.001,0.1342 -0.01201,0.268926 -0.03101,0.401526 -0.0083,0.0677 -0.01724,0.144261 -0.02274,0.220658 -0.0109,0.1572 -0.0403,0.313872 -0.0863,0.464572 l -0.0016,0.0052 c -0.1151,0.3571 -0.297083,0.856973 -0.437183,1.090373 -0.0701,0.1214 -0.134203,0.246754 -0.191203,0.374654 -0.0361,0.0775 -0.07344,0.15726 -0.112137,0.22996 -0.1366,0.26 -0.32598,0.495652 -0.50798,0.713652 -0.244597,0.294297 -0.506204,0.571154 -0.727604,0.803051 -0.0556,0.052 -0.119619,0.09481 -0.188619,0.126608 -0.2022,0.1029 -0.393259,0.217562 -0.578259,0.328662 l -0.0057,0.0036 c -0.150697,0.0904 -0.30622,0.183717 -0.45992,0.265617 -0.2461,0.1289 -0.506296,0.234445 -0.773596,0.312642 -0.0656,0.0195 -0.130802,0.04085 -0.188102,0.05995 h -0.0015 c -0.0767,0.0253 -0.155661,0.05183 -0.229961,0.07183 -0.117497,0.0275 -0.238751,0.04758 -0.359151,0.05788 -0.0854,0.0094 -0.181702,0.01989 -0.277502,0.03669 -0.1966,0.0366 -0.397916,0.05721 -0.598413,0.05891 l -0.0016,0.0031 c -0.0633,0 -0.126268,-0.0024 -0.187068,-0.0072 -0.1149,-0.0092 -0.233331,-0.01282 -0.336931,-0.01602 -0.168797,-0.0051 -0.343245,-0.01052 -0.503845,-0.03772 -0.0783,-0.0115 -0.158195,-0.01985 -0.237195,-0.02325 h -0.0026 c -0.0589,-0.0026 -0.118433,-0.0085 -0.176733,-0.01705 -0.0461,-0.0079 -0.08947,-0.01447 -0.128674,-0.02067 -0.0653,-0.0102 -0.131887,-0.02089 -0.193787,-0.03359 -0.1411,-0.0287 -0.287414,-0.09058 -0.428914,-0.150379 -0.0879,-0.0373 -0.178452,-0.07514 -0.272852,-0.109037 -0.01355,-0.0048 -0.02683,-0.01135 -0.04031,-0.01654 l 0.04651,-0.09095 c 0.026,-0.1628 0.206953,-0.395505 0.275953,-0.555005 0.127596,0.0208 0.07934,0.03886 0.207739,0.06356 l 0.131775,-0.06821 c 0.205296,0.1033 0.14799,0.123869 0.38809,-0.164331 -0.0433,-0.136896 -0.06019,-0.193261 -0.129191,-0.325561 -0.0756,-0.1448 -0.113748,-0.15921 -0.164848,-0.31781 l 1.490865,-2.505274 c 0.1135,-0.205496 0.232182,-0.425255 0.344682,-0.645955 0.1208,-0.2371 0.258589,-0.40982 0.384989,-0.63562 0.1257,-0.2244 0.233583,-0.427838 0.350883,-0.639238 0.0906,-0.163296 0.242102,-0.536591 0.360702,-0.659391 0.0935,0.1117 0.120587,0.174334 0.196887,0.33693 0.0483,0.1032 0.114816,0.22275 0.173116,0.34985 0.2179,0.474196 0.413892,0.53474 0.751892,0.83044 0.2677,0.2343 0.873841,0.834974 1.184941,0.917774 0.377496,0.1004 0.40055,0.248935 0.79375,0.01343 0.294896,-0.176696 0.225223,-0.239409 0.389123,-0.401009 0.2996,-0.295396 0.207721,-0.391199 0.373621,-0.946195 0.0474,-0.1584 0.157524,-0.12816 0.127124,-0.40566 -0.0958,-0.1791 -0.255383,-0.23025 -0.347783,-0.35295 -0.274296,-0.3641 -0.109497,-0.137173 -0.338997,-0.384473 -0.1769,-0.1907 -0.204285,-0.158962 -0.270785,-0.418062 -0.166496,-0.649196 -0.44177,-0.825092 -1.056266,-1.084688 -0.0858,-0.0363 -0.140373,-0.07167 -0.208773,-0.119373 -0.1111,-0.0773 -0.09332,-0.09332 -0.182417,-0.179317 -0.108,-0.1043 -0.263994,-0.274713 -0.406694,-0.333313 0.1278,-0.3099 0.110691,-0.143391 0.286287,-0.301791 0.1104,-0.0996 0.145451,-0.318537 0.0016,-0.463537 -0.05925,-0.05956 -0.157039,-0.113486 -0.251148,-0.104387 -0.05646,0.0055 -0.111767,0.03352 -0.156579,0.09663 -0.1471,0.2071 0.01795,0.324494 -0.06615,0.492994 -0.0645,0.129196 -0.05748,0.03762 -0.134876,0.09612 -0.0559,0.042 -0.111823,0.148605 -0.120923,0.203605 -0.0178,0.1075 0.03535,0.08561 -0.02325,0.209806 L 21.51872,18.05819 c -0.157496,0.3104 -0.120639,0.23582 -0.294039,0.36742 -0.034,0.2753 -0.445455,1.066687 -0.627351,1.343587 -0.0782,0.119 -0.1722,0.326663 -0.262,0.421163 -0.0074,0.005 -0.01854,0.0033 -0.02274,0.01395 l -0.07441,0.03101 c -0.1305,0.0455 -0.138328,0.02451 -0.219624,0.157613 -0.3621,0.0067 -0.550562,-0.323804 -0.852662,-0.548804 -0.575696,-0.4289 -0.423826,-0.421745 -0.580326,-0.571541 l -0.366903,-0.323495 c -0.0577,-0.0336 -0.09536,-0.05589 -0.131258,-0.101286 -0.0422,-0.0533 -0.01351,-0.02529 -0.03721,-0.06149 l -0.02532,-0.03979 c -0.0563,-0.077 -0.08524,-0.02892 -0.204639,-0.08992 l -0.353983,-0.239779 c -0.0513,-0.0715 -0.07402,-0.136721 -0.09922,-0.197921 0.2534,-0.2471 0.138935,-0.293206 0.537435,-0.647506 0.0414,-0.0368 0.13865,-0.155455 0.17725,-0.205155 -0.0874,-0.1015 -0.03177,-0.02136 -0.113172,-0.07906 -0.0575,-0.0407 -0.01138,-0.0072 -0.05168,-0.04703 -0.2339,-0.2306 0.0027,0.112643 -0.246497,-0.297657 0.0227,-0.0596 0.06991,-0.104308 0.06201,-0.129708 -0.0116,-0.0154 -0.150229,-0.07653 -0.241329,-0.04703 -0.1695,0.0548 -0.06943,0.0709 -0.312125,0.02481 -0.0648,-0.1165 0.05912,-0.03202 -0.07338,-0.108521 -0.1248,0.0925 -0.279254,0.157619 -0.374654,0.274919 -0.1475,0.181396 -0.0093,0.157482 -0.232027,0.258382 -0.0216,0.0098 -0.04568,0.01916 -0.06718,0.03256 -0.0303,0.0189 -0.04353,0.03361 -0.06253,0.04961 0.1355,0.468 -0.0802,0.331531 0.0863,0.583427 0.0944,0.1427 0.238797,0.262368 0.181901,0.535368 l -0.01034,0.131775 c -0.0421,0.037 0.0241,0.02141 -0.0894,0.05581 -0.0226,0.0069 -0.08509,0.0066 -0.113688,0.0088 -0.1574,0.0471 -0.272681,0.142356 -0.427881,0.208256 -0.2023,0.086 -0.06681,0.02151 -0.163814,0.132808 -0.0842,0.0966 -0.08023,-0.0021 -0.266134,0.193787 -0.0879,0.0927 -0.128904,-0.0031 -0.286804,0.14056 -0.0621,0.0566 -0.08398,0.119346 -0.168982,0.158646 -0.1046,0.0485 -0.128679,0.01977 -0.239779,0.08837 -0.170196,0.409596 -0.03466,0.683306 0.198438,0.983402 0.468896,0.6037 0.611253,0.354217 0.809253,0.598413 -0.0502,0.1419 -0.147511,0.179774 -0.145211,0.390674 0.0023,0.2121 -0.01147,0.357739 -0.02377,0.559139 -0.045,0.7385 0.09808,0.62435 0.162781,0.96635 0.0372,0.196296 0.05482,0.281853 0.10852,0.457853 0.063,0.2063 -0.05411,0.222279 0.107487,0.418579 0.1363,0.1655 0.340163,0.455831 0.334863,0.691431 -0.0021,0.0928 -0.0026,0.123558 -0.0021,0.131258 l 0.0067,0.09767 c -0.05954,-0.0361 -0.117718,-0.07178 -0.180351,-0.108004 -0.184197,-0.1044 -0.348992,-0.240626 -0.486792,-0.401526 -0.171497,-0.203697 -0.332006,-0.419788 -0.474906,-0.643888 -0.2275,-0.3537 -0.487448,-0.767594 -0.695048,-1.201994 -0.1776,-0.376597 -0.321948,-0.770438 -0.429948,-1.172538 -0.0355,-0.1418 -0.0628,-0.287451 -0.0801,-0.433048 l -0.0016,-0.01085 c -0.006,-0.0423 -0.0121,-0.08483 -0.0186,-0.127124 -0.0421,-0.2762 -0.05287,-0.514605 -0.03307,-0.730705 0.0101,-0.1133 0.01419,-0.224246 0.01809,-0.331246 0.0051,-0.1332 0.01009,-0.270559 0.02739,-0.399459 0.043,-0.3203 0.08627,-0.60755 0.180868,-0.88005 0.0691,-0.201797 0.156162,-0.405864 0.239262,-0.603064 l 0.03462,-0.0832 c 0.1508,-0.364397 0.339455,-0.716414 0.556555,-1.045414 0.0651,-0.0983 0.127288,-0.197956 0.187585,-0.294556 l 0.0026,-0.0041 c 0.0706,-0.1135 0.143592,-0.230247 0.218592,-0.340547 0.099,-0.1499 0.216866,-0.287211 0.350366,-0.407211 0.323197,-0.280597 0.676382,-0.528589 1.050582,-0.736389 0.326097,-0.1814 0.597945,-0.30559 0.855245,-0.39119 0.0748,-0.0251 0.146824,-0.05235 0.216524,-0.07855 h 0.0026 c 0.0967,-0.0366 0.196772,-0.07457 0.291972,-0.100769 0.0954,-0.024 0.191671,-0.04293 0.288871,-0.05633 0.046,-0.0073 0.09486,-0.01495 0.14366,-0.02325 l 0.05529,-0.01034 c 0.2124,-0.0377 0.43219,-0.07684 0.65009,-0.12764 0.109997,-0.0213 0.222546,-0.03301 0.334346,-0.03411 0.0906,-0.0032 0.1791,-0.0093 0.2651,-0.0155 0.1151,-0.0081 0.235917,-0.01705 0.351917,-0.01705 z m 5.818249,0.194303 c -0.0106,0 -0.02152,0.0019 -0.03152,0.0057 -0.01,0.0037 -0.01887,0.0094 -0.02687,0.01654 -0.009,0.0072 -0.0163,0.01594 -0.0217,0.02584 -0.0057,0.0103 -0.0093,0.02179 -0.01034,0.03359 0,0.0025 -4.2e-4,0.0057 -5.2e-4,0.0083 0,0.0103 0.002,0.02069 0.0057,0.03049 0.0035,0.0096 0.0088,0.01855 0.0155,0.02635 l 0.188619,0.227894 -0.67231,0.556555 c -0.0096,0.0078 -0.01797,0.0172 -0.02377,0.0279 l -0.0021,0.0047 -0.0067,-0.0031 c -6e-4,0.0115 0,0.03034 -0.0021,0.04134 0,0.0111 0.0022,0.02216 0.0062,0.03256 0.0039,0.0103 0.0097,0.02012 0.01705,0.02842 0.0076,0.0095 0.01689,0.01704 0.02739,0.02274 0.0107,0.0059 0.02264,0.0097 0.03514,0.01085 l 0.0052,0.001 h 0.0062 c 0.0106,0 0.02091,-0.0019 0.03101,-0.0057 0.0098,-0.0036 0.01887,-0.0092 0.02687,-0.01602 l 0.67231,-0.556039 0.187069,0.227893 c 0.0076,0.0094 0.01689,0.01714 0.02739,0.02274 0.0107,0.0057 0.02252,0.0094 0.03462,0.01034 0.0035,5e-4 0.0069,5.2e-4 0.0098,5.2e-4 0.01,0 0.01986,-0.0021 0.02946,-0.0057 0.0094,-0.0035 0.01814,-0.0084 0.02584,-0.01499 0.0104,-0.0085 0.01869,-0.0192 0.02429,-0.03101 0.0056,-0.0119 0.0088,-0.02474 0.0088,-0.03824 0,-0.0104 -0.0021,-0.02111 -0.0057,-0.03101 -0.0035,-0.0096 -0.0088,-0.01877 -0.0155,-0.02687 l -0.497127,-0.60203 c -0.0075,-0.0092 -0.01689,-0.0163 -0.02739,-0.0217 -0.0103,-0.0053 -0.02189,-0.0085 -0.03359,-0.0093 -0.0025,-2e-4 -0.0047,-5.2e-4 -0.0072,-5.2e-4 z M 13.30843,15.043741 c -0.016,0 -0.03228,10e-4 -0.04858,0.0036 -0.0164,0.0027 -0.03234,0.0068 -0.04754,0.01189 -0.0467,0.0146 -0.09221,0.0414 -0.135909,0.0801 -0.0429,0.03799 -0.08412,0.08763 -0.124024,0.148828 l -0.198954,0.304374 c -0.005,0.0073 -0.0087,0.01569 -0.01137,0.02429 -0.0027,0.0087 -0.0041,0.01755 -0.0041,0.02635 0,0.0035 1.2e-4,0.0072 5.2e-4,0.01085 4e-4,0.0029 7.5e-4,0.0064 0.0015,0.0098 0.0025,0.0126 0.0074,0.02422 0.01447,0.03462 0.0072,0.0104 0.01659,0.01956 0.02739,0.02636 l 0.802018,0.522965 c 0.0076,0.0051 0.01579,0.0088 0.02429,0.01137 0.0089,0.0027 0.01787,0.0041 0.02687,0.0041 h 0.0062 l 5.2e-4,10e-4 0.0124,-0.0031 c 0.0121,-0.0026 0.02317,-0.0076 0.03307,-0.01447 0.0097,-0.0067 0.01821,-0.01502 0.02481,-0.02532 0.0052,-0.0078 0.0091,-0.01642 0.01188,-0.02532 0.0027,-0.0089 0.0041,-0.01799 0.0041,-0.02739 0,-0.0025 -1.2e-4,-0.0057 -5.2e-4,-0.0093 -3e-4,-0.0034 -4.3e-4,-0.0066 -10e-4,-0.0093 -0.0021,-0.0125 -0.0072,-0.02391 -0.01395,-0.03411 -0.007,-0.0106 -0.01587,-0.02007 -0.02687,-0.02687 l -0.284737,-0.185518 0.164331,-0.252181 c 0.0359,-0.0548 0.07522,-0.08662 0.117822,-0.09612 h 5.2e-4 c 0.0081,-0.0019 0.01639,-0.0037 0.02429,-0.0047 0.0079,-9e-4 0.01599,-0.0016 0.02429,-0.0016 0.013,0 0.02552,0.0013 0.03772,0.0036 0.0122,0.0022 0.02437,0.0054 0.03617,0.0098 0.0216,0.0085 0.04318,0.01855 0.06408,0.02945 0.0214,0.0111 0.04168,0.02286 0.06098,0.03566 l 0.03927,0.02584 c 0.0076,0.0052 0.01569,0.0097 0.02429,0.0124 0.009,0.0029 0.01841,0.0041 0.02791,0.0041 0.0024,0 0.0057,-1.2e-4 0.0093,-5.2e-4 0.0033,-3e-4 0.0062,-5.3e-4 0.0088,-10e-4 v -5.2e-4 c 0.0129,-0.0026 0.02516,-0.008 0.03566,-0.0155 0.0102,-0.0073 0.01882,-0.01681 0.02532,-0.02791 0.005,-0.0075 0.0089,-0.01537 0.01137,-0.02377 0.0028,-0.0088 0.0041,-0.01787 0.0041,-0.02687 0,-0.0158 -0.0044,-0.03146 -0.01189,-0.04496 -0.0075,-0.0135 -0.01812,-0.02477 -0.03152,-0.03307 l -0.05994,-0.03927 c -0.0323,-0.0207 -0.06672,-0.03853 -0.102319,-0.05323 -0.0352,-0.0144 -0.07142,-0.02569 -0.108521,-0.03359 -0.0092,-0.0023 -0.01925,-0.0044 -0.02945,-0.0057 -0.0103,-0.0012 -0.02006,-0.0016 -0.02946,-0.0016 -0.0304,0 -0.06027,0.006 -0.08837,0.01705 -0.0093,0.0038 -0.01859,0.0075 -0.02739,0.0124 8e-4,-0.0091 0.0015,-0.01797 0.0015,-0.02687 0,-0.0201 -0.0023,-0.04004 -0.0062,-0.05994 -0.0039,-0.0199 -0.0095,-0.0398 -0.01705,-0.05839 -0.0125,-0.0305 -0.02974,-0.05862 -0.05064,-0.08372 -0.0209,-0.0251 -0.04568,-0.0468 -0.07338,-0.0646 -0.0255,-0.0177 -0.05348,-0.03172 -0.08268,-0.04082 -0.0295,-0.0093 -0.06017,-0.01395 -0.09147,-0.01395 z m -0.0057,0.19172 c 0.0154,0 0.03066,0.0025 0.04496,0.0072 0.0144,0.0047 0.02801,0.01167 0.04031,0.02067 l 0.0016,10e-4 c 0.0222,0.0134 0.04031,0.03184 0.05271,0.05374 0.0123,0.0218 0.01902,0.04728 0.01912,0.07338 v 0.0015 c 4e-4,0.0288 -0.0053,0.05947 -0.01654,0.09147 -0.0114,0.0327 -0.02879,0.06684 -0.05219,0.102836 l -0.14211,0.218592 -0.294555,-0.192237 0.137976,-0.21084 c 0.0292,-0.0446 0.05733,-0.08037 0.08423,-0.10697 0.0258,-0.0256 0.0506,-0.04236 0.0739,-0.05116 0.0081,-0.0031 0.0164,-0.0057 0.0248,-0.0072 0.0082,-0.0015 0.01684,-0.0021 0.02584,-0.0021 z m 13.72061,0.103869 c -0.0091,0 -0.01817,10e-4 -0.02687,0.0036 -0.0087,0.0026 -0.01669,0.0068 -0.02429,0.01188 l -0.813904,0.518832 c -0.0105,0.0065 -0.01967,0.0147 -0.02687,0.0248 v 5.2e-4 c -0.0049,0.0069 -0.0086,0.01422 -0.01137,0.02222 l -10e-4,5.2e-4 -0.0021,0.01085 c -8e-4,0.0035 -0.0017,0.0067 -0.0021,0.0098 -4e-4,0.0036 -5.2e-4,0.0068 -5.2e-4,0.0098 0,0.0091 0.0015,0.01827 0.0041,0.02687 0.0026,0.0085 0.0064,0.01627 0.01137,0.02377 0.0064,0.0104 0.0149,0.01977 0.0248,0.02687 0.01,0.0072 0.02139,0.01219 0.03359,0.01499 0.0034,8e-4 0.0073,0.0017 0.01085,0.0021 0.0041,6e-4 0.0076,10e-4 0.01085,10e-4 0.0088,0 0.01786,-0.0015 0.02636,-0.0041 0.0085,-0.0026 0.01657,-0.0064 0.02377,-0.01137 l 0.81287,-0.517798 c 0.011,-0.0068 0.02029,-0.01586 0.02739,-0.02636 0.0071,-0.0103 0.01259,-0.02202 0.01499,-0.03462 8e-4,-0.0034 0.0012,-0.0067 0.0015,-0.0098 5e-4,-0.0038 5.2e-4,-0.0078 5.2e-4,-0.01137 0,-0.0089 -0.001,-0.01776 -0.0036,-0.02636 -0.0025,-0.0085 -0.0064,-0.01627 -0.01137,-0.02377 -0.0066,-0.0106 -0.01542,-0.01997 -0.02532,-0.02687 -0.0101,-0.007 -0.02181,-0.01155 -0.03411,-0.01395 -0.003,-6e-4 -0.0058,-0.0011 -0.0093,-0.0016 -0.0036,-4e-4 -0.0073,-5.2e-4 -0.01034,-5.2e-4 z m 0.17725,0.763778 c -0.1045,0 -0.206373,0.02423 -0.298173,0.06873 -0.0919,0.0446 -0.173945,0.109519 -0.238745,0.191719 v 5.2e-4 c -0.0292,0.0396 -0.05245,0.08319 -0.06925,0.129191 -0.0167,0.0458 -0.02739,0.09404 -0.03049,0.143144 -3e-4,0.0052 -3.2e-4,0.01107 -5.2e-4,0.01757 l -5.2e-4,0.01705 c 0,0.0449 0.005,0.09004 0.01499,0.133842 0.0099,0.0434 0.02504,0.08569 0.04444,0.12609 0.0135,0.0301 0.02922,0.05943 0.04702,0.08733 0.0179,0.028 0.03793,0.05458 0.05943,0.07958 0.0207,0.0233 0.04285,0.04545 0.06615,0.06615 0.0231,0.0206 0.04736,0.03998 0.07286,0.05788 0.0074,0.0059 0.01549,0.01034 0.02429,0.01344 0.0091,0.0032 0.01872,0.0052 0.02842,0.0052 0.0071,0 0.01429,-7.8e-4 0.02119,-0.0026 0.0063,-0.0016 0.0128,-0.0042 0.0186,-0.0072 0.01,-0.0045 0.01895,-0.01144 0.02635,-0.01964 0.0074,-0.0081 0.01304,-0.01731 0.01654,-0.02791 v -5.2e-4 c 0.0014,-0.0045 0.0024,-0.0091 0.0031,-0.01344 6e-4,-0.0046 0.001,-0.009 0.001,-0.01344 0,-0.0132 -0.0029,-0.02592 -0.0083,-0.03772 -0.0055,-0.0118 -0.01357,-0.02231 -0.02377,-0.03101 l -0.001,-0.001 c -0.0188,-0.0141 -0.03664,-0.02916 -0.05374,-0.04496 -0.0174,-0.0162 -0.03389,-0.03324 -0.04909,-0.05064 -0.0154,-0.0186 -0.02989,-0.03863 -0.04289,-0.05943 -0.0131,-0.021 -0.02462,-0.04239 -0.03462,-0.0646 l -5.2e-4,-0.001 c -0.0146,-0.0291 -0.02557,-0.06008 -0.03307,-0.09198 -0.0075,-0.0318 -0.01137,-0.06425 -0.01137,-0.09715 v -0.01499 c 10e-5,-0.0042 6.3e-4,-0.0094 10e-4,-0.01499 0.0029,-0.0331 0.01064,-0.0653 0.02274,-0.0956 0.0123,-0.0305 0.02891,-0.05895 0.04961,-0.08475 0.0471,-0.0552 0.104998,-0.09919 0.169498,-0.129192 0.0646,-0.03 0.135656,-0.04611 0.208256,-0.04651 0.0329,7e-4 0.06534,0.0062 0.09663,0.01654 0.0312,0.0103 0.06095,0.02544 0.08785,0.04444 0.0308,0.0224 0.05793,0.04821 0.08113,0.07751 0.0235,0.0293 0.04288,0.06183 0.05788,0.09663 l 5.2e-4,0.001 c 0.0107,0.0222 0.02031,0.04491 0.02791,0.06821 0.0074,0.0231 0.01327,0.04691 0.01757,0.07131 0.0024,0.017 0.0045,0.03448 0.0057,0.05168 0.0013,0.0168 0.0016,0.03376 0.0016,0.05116 0,0.0081 10e-5,0.0141 0,0.0186 -1e-4,0.0021 -6.3e-4,0.01977 -0.001,0.02067 0,0.0062 0.0012,0.01272 0.0026,0.01912 0.0014,0.0063 0.0034,0.01229 0.0062,0.01809 0.0045,0.0103 0.01122,0.01979 0.01912,0.02739 0.0083,0.0079 0.01846,0.01409 0.02946,0.01809 0.0046,0.0017 0.0088,0.0028 0.01344,0.0036 0.0047,8e-4 0.0097,0.0016 0.01447,0.0016 0.0058,0 0.01135,-8.7e-4 0.01705,-0.0021 0.0053,-0.0012 0.01072,-0.0029 0.01602,-0.0052 0.0157,-0.0064 0.02884,-0.01699 0.03824,-0.03049 0.0091,-0.0131 0.0146,-0.02888 0.0155,-0.04548 9e-4,-0.0108 0.0016,-0.02266 0.0021,-0.03566 6e-4,-0.0128 0.001,-0.02454 0.001,-0.03514 0,-0.0188 -7.7e-4,-0.03796 -0.0021,-0.05736 -0.0013,-0.0192 -0.0035,-0.0388 -0.0062,-0.05839 v -5.2e-4 c -0.0053,-0.0329 -0.01284,-0.06524 -0.02274,-0.09663 -0.0098,-0.0313 -0.02229,-0.06198 -0.03669,-0.09198 -0.0207,-0.0465 -0.04705,-0.09031 -0.07855,-0.129708 -0.0314,-0.0395 -0.06772,-0.07482 -0.108521,-0.10542 h -5.2e-4 c -0.0396,-0.0291 -0.08287,-0.05213 -0.128675,-0.06873 -0.0458,-0.0166 -0.09404,-0.02645 -0.143144,-0.02945 -0.0077,0 -0.01555,-4.2e-4 -0.02325,-5.2e-4 z m -4.526855,0.07493 c 0.07519,0.0029 0.119006,0.07397 0.07648,0.124023 -0.11,0.1295 -0.148415,0.02792 -0.166915,-0.0026 -0.0325,-0.0536 -0.0089,-0.104039 0.05633,-0.118339 0.01185,-0.0026 0.02336,-0.0035 0.03411,-0.0031 z m -10.061402,0.08682 -0.01447,0.001 c -0.034,0.0034 -0.06687,0.01202 -0.09767,0.02532 -0.0309,0.0132 -0.05989,0.03093 -0.08578,0.05323 -0.033,0.0289 -0.06212,0.06207 -0.08682,0.09767 -0.0246,0.0354 -0.04486,0.07392 -0.06046,0.114722 l -0.14056,0.326595 c -0.0026,0.0057 -0.0044,0.01137 -0.0057,0.01757 -0.0013,0.0062 -0.0021,0.01292 -0.0021,0.01912 0,0.0062 7.7e-4,0.0123 0.0021,0.0186 0.0013,0.0062 0.0035,0.01229 0.0062,0.01809 0.0047,0.0113 0.01165,0.02095 0.02015,0.02945 v 5.2e-4 c 0.0085,0.0086 0.01837,0.01535 0.02997,0.02015 l 0.881083,0.376721 c 0.0056,0.0025 0.01105,0.0045 0.01705,0.0057 0.0063,0.0013 0.0126,0.0021 0.0186,0.0021 0.0061,0 0.0124,-7.7e-4 0.0186,-0.0021 0.0062,-0.0013 0.01249,-0.0032 0.01809,-0.0057 0.0112,-0.0045 0.02106,-0.01092 0.02946,-0.01912 0.0087,-0.0084 0.01587,-0.01857 0.02067,-0.02997 0.0026,-0.006 0.0044,-0.0125 0.0057,-0.0186 0.0014,-0.0065 0.0021,-0.01272 0.0021,-0.01912 0,-0.0057 -4.5e-4,-0.01157 -0.0015,-0.01757 -0.001,-0.0054 -0.0026,-0.01104 -0.0047,-0.01654 -0.0044,-0.0119 -0.01104,-0.02263 -0.01964,-0.03152 -0.0087,-0.009 -0.01931,-0.01597 -0.03101,-0.02067 l -0.286287,-0.122473 0.102319,-0.240296 c 0.017,-0.0358 0.02996,-0.07344 0.03876,-0.112137 0.0087,-0.0387 0.01343,-0.07822 0.01343,-0.117823 -2e-4,-0.0078 -10e-4,-0.01555 -10e-4,-0.02325 -0.0017,-0.034 -0.0084,-0.06762 -0.02015,-0.09922 -0.0119,-0.0316 -0.02861,-0.06157 -0.04961,-0.08837 l -5.2e-4,-5.2e-4 c -0.0375,-0.045 -0.08421,-0.08019 -0.135909,-0.104387 -0.0519,-0.0243 -0.108515,-0.03721 -0.166915,-0.03721 z m 0.02119,0.189136 c 0.039,0 0.07585,0.01239 0.106453,0.03359 0.0305,0.0212 0.05461,0.05135 0.06821,0.08785 0.0088,0.0242 0.0111,0.05387 0.0062,0.08837 -0.005,0.0363 -0.01762,0.07755 -0.03772,0.12454 l -0.09818,0.227894 -0.348816,-0.148829 0.09767,-0.227893 c 0.0201,-0.0471 0.04189,-0.08489 0.06459,-0.113688 0.0216,-0.0273 0.0439,-0.04634 0.0677,-0.05684 0.0117,-0.005 0.02397,-0.0089 0.03617,-0.01137 0.0121,-0.0024 0.02482,-0.0036 0.03772,-0.0036 z m 9.642305,0.327629 0.453719,0.323494 c 0.0422,0.0404 0.04196,0.05077 0.07597,0.08527 0.0471,0.0478 0.101662,0.09574 0.156062,0.140043 0.4345,0.3543 0.488135,0.247236 0.799435,0.451136 0.415196,0.271896 0.566344,0.71176 0.673344,1.20096 0.0201,0.0921 0.02122,0.167614 0.04082,0.253214 0.0079,0.0343 0.01529,0.08314 0.04599,0.118339 0.0502,0.0575 0.01612,0.02578 0.102319,0.05478 0.0303,-0.1305 -0.03848,-0.199286 -0.05168,-0.369486 0.1487,0.0702 0.249135,0.216816 0.343131,0.348816 0.2206,0.309696 0.510466,0.239977 0.260966,0.584977 -0.0901,0.1247 -0.0354,0.115649 -0.0677,0.260449 -0.1321,0.5923 -0.125372,0.485514 -0.295072,0.690914 -0.2718,0.3292 0.0682,0.08067 -0.459404,0.467672 -0.102696,-0.0543 -0.08188,-0.08008 -0.187585,-0.134876 -0.3841,-0.199396 -0.155921,-0.04198 -0.444417,-0.507979 -0.1973,-0.3187 -0.396631,-0.386773 -0.602031,-0.649573 -0.354196,-0.453196 -0.434257,-0.455595 -0.812353,-0.767395 L 21.814865,18.9169 c -0.0876,-0.0412 -0.115433,-0.06598 -0.176733,-0.141077 -0.0896,-0.0436 -0.288161,-0.156868 -0.322461,-0.273368 0.1255,-0.0014 0.302661,0.175968 0.322461,0.273368 0.0414,0.0155 0.07502,0.02131 0.117822,0.05581 0.06,0.0483 0.03131,0.02317 0.05891,0.08527 0.183,0.0417 0.338199,0.317746 0.520899,0.331246 0.0914,0.0068 0.245443,-0.07144 0.318843,-0.115239 0.1337,-0.0796 0.111488,-0.09757 0.113688,-0.291972 0.1789,-0.0553 0.193336,-0.101483 0.275436,-0.245979 0.0756,-0.1332 0.145994,-0.164369 0.234094,-0.273369 l 0.132809,0.07803 c 0.0026,-0.0067 0.01419,-0.0036 0.02119,-0.0057 0.0564,-0.158 -0.05776,-0.23367 -0.220658,-0.45837 -0.1089,-0.1503 -0.195175,-0.276228 -0.307475,-0.413928 -0.3293,-0.4038 -0.729069,-0.51031 -0.627869,-0.740006 z m 0.09353,0.40876 c 0.0963,0.0509 0.497578,0.43148 0.588078,0.60048 -0.1366,0.4414 -0.618686,0.564429 -0.807186,1.190625 -0.206096,-0.1135 -0.4037,-0.268865 -0.5302,-0.433565 z m 0.690914,0.734839 c 0.0421,0.0916 0.127269,0.201586 0.187069,0.280086 -0.4239,0.3094 -0.126216,0.307805 -0.595312,0.555005 l -0.01499,0.24753 -0.298173,0.115755 -0.104903,-0.04754 c 0.0714,-0.2188 0.204554,-0.480538 0.371554,-0.623734 l 0.409794,-0.47439 c 0.0273,-0.0422 0.01686,-0.02441 0.04496,-0.05271 z m -1.594734,0.931726 c 0.1163,-0.0042 0.206997,0.121729 0.252697,0.241329 0.0261,0.0685 0.128986,0.233972 0.190686,0.291972 0.1238,-0.0294 0.02713,-0.03433 0.164331,-0.08733 0.1007,0.0807 0.206275,0.178014 0.307475,0.253214 0.3112,0.231 0.306937,0.255546 0.546737,0.506946 0.1002,0.105 0.131445,0.186821 0.238745,0.287321 0.2228,0.2087 0.336296,0.238126 0.508496,0.577226 0.0546,0.1076 0.118839,0.23661 0.207739,0.31781 0.1011,0.0923 0.228159,0.0975 0.310059,0.197404 -0.0679,0.0294 -0.394809,-0.08812 -0.490409,-0.117823 -0.2277,-0.0709 -0.728567,-0.533073 -0.969967,-0.742073 L 22.194175,20.10442 c -0.274596,-0.2723 -0.694337,-1.104869 -0.728637,-1.247469 z m 0.375171,0.244946 c 0.116596,0.0523 0.09055,-0.0027 0.103352,0.138493 -0.0797,-0.0608 -0.05316,-0.02509 -0.103352,-0.138493 z m -5.754688,0.434599 c 0.0516,0.0576 0.05216,0.06427 0.121956,0.125574 0.004,0.3805 0.02448,0.587135 -0.114721,0.891935 -0.2715,0.0804 -0.307514,-0.02371 -0.425814,-0.206706 -0.0744,-0.1152 -0.211078,-0.276365 -0.236678,-0.414961 0.1051,-0.0687 0.114571,-0.06113 0.285771,-0.07183 0.0394,-0.0606 0.102046,-0.166056 0.158646,-0.208256 z m 1.842265,0.04547 c 0.1712,0.1139 0.110927,0.150914 0.232027,0.247014 0.2653,0.2106 0.07793,0.04666 0.222725,0.239262 0.0613,0.0816 0.103103,0.04219 0.188103,0.107487 0.267396,0.205496 -0.09543,0.05443 0.535367,0.318326 0.2757,0.1153 0.550516,0.227187 0.875916,0.280087 0.0171,0.228696 -1.168497,2.044495 -1.396297,2.444295 -0.0782,0.1373 -0.244962,0.499043 -0.328662,0.580843 -0.0639,-0.0926 -0.0035,-0.05718 -0.09715,-0.153479 -0.0741,-0.0761 -0.07123,-0.05446 -0.130225,-0.168465 -0.0721,-0.1389 -0.271252,-1.242462 -0.275952,-1.475362 -0.0126,-0.622 0.130537,-1.081543 -0.05116,-1.616439 -0.0626,-0.1841 -0.154504,-0.267892 -0.194304,-0.397392 0.0509,-0.1369 0.114428,-0.224167 0.145728,-0.356567 0.0533,0.0292 0.06661,0.04103 0.14211,0.05323 z m -2.452047,0.807186 0.105937,0.184485 c -0.0769,-0.0523 -0.04617,-0.0091 -0.09147,-0.0863 -0.012,-0.0203 -0.01487,-0.06789 -0.01447,-0.09819 z m 0.152446,5.80223 c -0.01105,-0.0019 -0.02277,-0.0013 -0.03462,0.0015 -0.0236,0.0057 -0.04219,0.01888 -0.05529,0.03927 l -0.509013,0.79375 c -0.0177,0.0276 -0.02282,0.05663 -0.01602,0.08733 0.0067,0.0308 0.02346,0.05516 0.05116,0.07286 l 0.474906,0.303858 c 0.0204,0.0131 0.04235,0.0172 0.06615,0.0124 0.0239,-0.0049 0.04219,-0.01732 0.05529,-0.03772 0.0132,-0.0206 0.01708,-0.04308 0.01188,-0.06718 -0.0053,-0.0241 -0.01826,-0.04261 -0.03876,-0.05581 l -0.42323,-0.271301 0.47594,-0.743107 c 0.0132,-0.0205 0.01719,-0.04298 0.01189,-0.06718 -0.0052,-0.0241 -0.01826,-0.04261 -0.03876,-0.05581 -0.01025,-0.0066 -0.02047,-0.01101 -0.03152,-0.01292 z m 8.510591,0.168465 c -0.0229,-0.0035 -0.04605,0.0022 -0.06925,0.01705 l -0.01344,0.0088 c -0.0231,0.0148 -0.03794,0.03351 -0.04444,0.05581 -0.0063,0.0224 -0.0078,0.044 -0.0047,0.0646 l 0.174667,1.022676 c 0.0016,0.0065 0.0036,0.01324 0.0052,0.01964 0.0017,0.0065 0.0044,0.01217 0.0078,0.01757 0.0131,0.0205 0.03071,0.03389 0.05271,0.03979 0.0221,0.006 0.0446,0.0015 0.0677,-0.01344 0.0152,-0.0097 0.02651,-0.02212 0.03411,-0.03772 0.0076,-0.0156 0.0097,-0.03309 0.0062,-0.05219 l -0.04444,-0.254248 0.436149,-0.279569 0.21239,0.146761 c 0.0159,0.0112 0.03273,0.01642 0.05013,0.01602 0.0173,-4e-4 0.03338,-0.0053 0.04858,-0.01499 0.0231,-0.0149 0.03651,-0.03383 0.04031,-0.05633 0.0038,-0.0225 -8.5e-4,-0.0442 -0.01395,-0.0646 -0.0035,-0.0054 -0.0077,-0.01017 -0.01292,-0.01447 -0.0052,-0.0041 -0.0103,-0.0082 -0.0155,-0.0124 l -0.856795,-0.586011 c -0.0173,-0.0114 -0.03746,-0.01924 -0.06046,-0.02274 z m 0.05426,0.224793 0.408244,0.283187 -0.32091,0.205672 z m -0.810803,0.196887 c -0.01132,3.2e-4 -0.02249,0.0027 -0.03359,0.0078 -0.0222,0.01 -0.03769,0.02661 -0.04599,0.04961 -0.0081,0.0229 -0.0069,0.0455 0.0031,0.0677 l 0.33228,0.734839 -0.877466,-0.526583 c -0.0181,-0.0093 -0.03734,-0.01537 -0.05684,-0.01757 -0.0196,-0.0022 -0.03854,0.001 -0.05684,0.0093 l -0.0186,0.0083 c -0.0299,0.0135 -0.05083,0.03596 -0.06253,0.06666 -0.0115,0.0308 -0.01038,0.0616 0.0036,0.0925 l 0.390674,0.863514 c 0.01,0.0222 0.02628,0.03749 0.04858,0.04599 0.0224,0.0084 0.04446,0.0079 0.06666,-0.0021 0.0222,-0.01 0.03813,-0.02659 0.04703,-0.04909 0.0089,-0.0227 0.0079,-0.04508 -0.0021,-0.06718 l -0.332796,-0.73639 0.882633,0.529684 c 0.0168,0.0087 0.03401,0.01359 0.05271,0.01499 0.0186,0.0015 0.03741,-0.0015 0.05581,-0.0098 l 0.01705,-0.0083 c 0.0309,-0.0139 0.05248,-0.03628 0.06408,-0.06718 0.0116,-0.0308 0.0105,-0.06095 -0.0031,-0.09095 l -0.390157,-0.863513 c -0.01,-0.0221 -0.02713,-0.03771 -0.05013,-0.04651 -0.0116,-0.0044 -0.02278,-0.006 -0.03411,-0.0057 z m -6.653857,0.04961 c -0.01184,-0.0012 -0.02347,-2.5e-4 -0.03462,0.0031 -0.0222,0.0069 -0.04073,0.01721 -0.05633,0.03101 l -0.762744,0.70435 c -0.0046,0.0049 -0.0089,0.0096 -0.01344,0.01447 -0.0046,0.005 -0.0083,0.01022 -0.01085,0.01602 -0.01,0.0221 -0.01165,0.04445 -0.0047,0.06615 0.007,0.0217 0.02296,0.03831 0.04806,0.04961 0.0164,0.0074 0.03344,0.0099 0.05064,0.0078 0.0172,-0.0021 0.03283,-0.0099 0.04703,-0.02325 l 0.189136,-0.1757 0.471805,0.213424 -0.0072,0.258382 c -7e-4,0.0195 0.0042,0.03624 0.01395,0.05064 0.0098,0.0143 0.02287,0.02506 0.03927,0.03256 0.0251,0.0113 0.04825,0.0122 0.06925,0.0031 0.0209,-0.0091 0.03599,-0.02493 0.04599,-0.04703 0.0027,-0.0059 0.0044,-0.0119 0.0052,-0.0186 6e-4,-0.0067 0.0014,-0.01345 0.0021,-0.02015 l 0.0248,-1.037146 c 2e-4,-0.0208 -0.0049,-0.04185 -0.01447,-0.06305 -0.0095,-0.0211 -0.02658,-0.03769 -0.05168,-0.04909 l -0.01447,-0.0062 c -0.0125,-0.0056 -0.02485,-0.0092 -0.03669,-0.01034 z m -0.05581,0.233061 -0.01499,0.496611 -0.347266,-0.15658 z m 1.35909,0.253215 c -0.01104,0.0019 -0.02132,0.0063 -0.03152,0.01292 -0.0204,0.0132 -0.03377,0.03169 -0.03927,0.05529 l -0.220142,0.954464 c -0.0054,0.0237 -0.0018,0.04543 0.01085,0.06563 0.0126,0.0203 0.03108,0.03326 0.05478,0.03876 0.0237,0.0055 0.04586,0.0022 0.06666,-0.01034 0.0208,-0.0125 0.03387,-0.03118 0.03927,-0.05478 l 0.09147,-0.395841 0.555522,0.128157 -0.09147,0.396359 c -0.0055,0.0237 -0.0023,0.04533 0.01034,0.06563 0.0128,0.0203 0.03098,0.03326 0.05478,0.03876 0.0237,0.0054 0.04638,0.0023 0.06718,-0.01033 0.0208,-0.0125 0.03377,-0.03108 0.03927,-0.05478 l 0.220659,-0.954464 c 0.0055,-0.0236 0.0011,-0.04566 -0.01189,-0.06666 -0.0131,-0.0209 -0.03108,-0.03429 -0.05478,-0.03979 -0.0238,-0.0055 -0.04616,-0.0013 -0.06666,0.01189 -0.0204,0.0132 -0.03336,0.03159 -0.03876,0.05529 l -0.09147,0.395841 -0.555005,-0.128157 0.09147,-0.395842 c 0.0054,-0.0237 0.0017,-0.04618 -0.01137,-0.06718 -0.0131,-0.021 -0.03159,-0.03429 -0.05529,-0.03979 -0.01185,-0.0028 -0.02359,-0.003 -0.03462,-10e-4 z m 3.878833,0.01188 c -0.01183,-0.0012 -0.02432,1e-6 -0.03772,0.0031 l -0.0155,0.0036 c -0.0268,0.0062 -0.04676,0.01892 -0.06046,0.03772 -0.0134,0.019 -0.02236,0.03841 -0.02636,0.05891 l -0.179317,1.02216 c -6e-4,0.0066 -9.5e-4,0.01355 -0.0016,0.02015 -6e-4,0.0067 -4.7e-4,0.01292 10e-4,0.01912 0.0054,0.0237 0.01747,0.04229 0.03617,0.05529 0.0188,0.013 0.04193,0.01653 0.06873,0.01033 0.0175,-0.004 0.03204,-0.01219 0.04444,-0.02429 0.0124,-0.0121 0.02057,-0.02783 0.02377,-0.04702 l 0.04393,-0.254765 0.503846,-0.116272 0.151412,0.209289 c 0.0112,0.0159 0.02484,0.02664 0.04134,0.03204 0.0165,0.0054 0.03366,0.0061 0.05116,0.0021 0.0268,-0.0062 0.04564,-0.01927 0.05684,-0.03927 0.0111,-0.0199 0.01377,-0.04151 0.0083,-0.06511 -0.0014,-0.0063 -0.0037,-0.01239 -0.0072,-0.01809 -0.0034,-0.0057 -0.0068,-0.01145 -0.01034,-0.01705 l -0.609782,-0.840258 c -0.0125,-0.0166 -0.02911,-0.03024 -0.04961,-0.04134 -0.0102,-0.0055 -0.02125,-0.0091 -0.03307,-0.01033 z m -1.030428,0.203089 c -0.02694,-0.0014 -0.05544,-0.0013 -0.08578,0.001 l -0.373621,0.02842 c -0.0242,0.0019 -0.04444,0.01231 -0.05994,0.03101 -0.0155,0.0187 -0.02247,0.0404 -0.02067,0.06459 l 0.07338,0.960665 c 0.0018,0.0243 0.01187,0.04434 0.02997,0.05995 0.0181,0.0156 0.03926,0.02247 0.06356,0.02067 l 0.383439,-0.02946 c 0.0759,-0.0058 0.139519,-0.01834 0.191719,-0.03824 0.052,-0.0199 0.09451,-0.04528 0.126608,-0.07648 0.0322,-0.0311 0.05395,-0.06732 0.06615,-0.10852 0.0123,-0.0413 0.01662,-0.08628 0.01292,-0.134876 -0.0028,-0.0369 -0.011,-0.06939 -0.0248,-0.09819 -0.0138,-0.0286 -0.03151,-0.05361 -0.05271,-0.07441 -0.0212,-0.0206 -0.04523,-0.03779 -0.07183,-0.05219 -0.0265,-0.0144 -0.0539,-0.02526 -0.0832,-0.03256 l 0.02067,0.0047 c 0.0342,-0.025 0.06287,-0.05822 0.08527,-0.09922 0.0223,-0.041 0.03085,-0.09131 0.02635,-0.151412 -0.0069,-0.0909 -0.04359,-0.161277 -0.110587,-0.211873 -0.05033,-0.03802 -0.116061,-0.05924 -0.196888,-0.06356 z m -1.280025,0.02325 c -0.0275,-0.0021 -0.05065,0.0042 -0.06925,0.01809 -0.0185,0.014 -0.03247,0.03028 -0.04237,0.04858 l -0.476457,0.921907 c -0.0026,0.0062 -0.0046,0.0125 -0.0072,0.0186 -0.0026,0.0062 -0.0047,0.0122 -0.0052,0.0186 -0.0018,0.0242 0.0046,0.04556 0.0186,0.06356 0.0141,0.018 0.03451,0.02839 0.06201,0.03049 0.0179,0.0013 0.03463,-0.0019 0.05013,-0.0098 0.0154,-0.0078 0.02747,-0.02032 0.03617,-0.03772 l 0.117822,-0.22996 0.516248,0.03927 0.08165,0.244946 c 0.006,0.0185 0.01577,0.03279 0.02997,0.04289 0.0141,0.0101 0.03016,0.01575 0.04806,0.01705 0.0274,0.0021 0.04945,-0.0046 0.06615,-0.02015 0.0165,-0.0157 0.02611,-0.03575 0.02791,-0.05995 5e-4,-0.0064 -4.7e-4,-0.01314 -0.0021,-0.01964 -0.0017,-0.0064 -0.0031,-0.01272 -0.0047,-0.01912 l -0.331154,-0.983904 c -0.007,-0.0196 -0.01884,-0.03756 -0.03514,-0.05426 -0.0162,-0.0166 -0.03771,-0.02581 -0.06511,-0.02791 z m 2.319238,0.01344 0.288872,0.404109 -0.371037,0.08578 z m -1.075386,0.130741 c 0.04529,0.0016 0.08245,0.01131 0.111621,0.02946 0.0391,0.0241 0.06016,0.05802 0.06356,0.102319 0.0018,0.0233 -4e-4,0.04555 -0.0062,0.06615 -0.0059,0.0206 -0.01721,0.03868 -0.03411,0.05478 -0.0168,0.0163 -0.0403,0.03002 -0.0708,0.04082 -0.0306,0.0108 -0.06884,0.01769 -0.115239,0.02119 l -0.247013,0.0186 -0.02377,-0.311609 0.273885,-0.02067 c 0.01687,-0.0013 0.03296,-0.0016 0.04806,-10e-4 z m -1.254187,0.09715 0.155029,0.471806 -0.379822,-0.02894 z m 1.311031,0.374137 c 0.05745,6e-4 0.10391,0.0096 0.13901,0.02687 0.0469,0.0229 0.0727,0.06289 0.077,0.119889 0.0019,0.0243 -8.5e-4,0.04691 -0.0078,0.06821 -0.0069,0.0212 -0.01977,0.03993 -0.03927,0.05633 -0.0195,0.0164 -0.0464,0.02971 -0.0801,0.04031 -0.0337,0.0105 -0.07549,0.0178 -0.12609,0.0217 l -0.280603,0.02119 -0.02481,-0.33073 0.281637,-0.0217 c 0.02162,-0.0016 0.04183,-0.0023 0.06098,-0.0021 z"
     inkscape:label="logo--precious-plastic-la-habana" /></svg>
