<?xml version="1.0" encoding="UTF-8" standalone="no"?>
<!-- Created with Inkscape (http://www.inkscape.org/) -->

<svg
   width="40mm"
   height="40mm"
   viewBox="0 0 40 40"
   version="1.1"
   id="svg1"
   inkscape:version="1.3 (0e150ed6c4, 2023-07-21)"
   sodipodi:docname="logo--copincha.svg"
   xml:space="preserve"
   xmlns:inkscape="http://www.inkscape.org/namespaces/inkscape"
   xmlns:sodipodi="http://sodipodi.sourceforge.net/DTD/sodipodi-0.dtd"
   xmlns="http://www.w3.org/2000/svg"
   xmlns:svg="http://www.w3.org/2000/svg"><sodipodi:namedview
     id="namedview1"
     pagecolor="#ffffff"
     bordercolor="#000000"
     borderopacity="0.25"
     inkscape:showpageshadow="2"
     inkscape:pageopacity="0.0"
     inkscape:pagecheckerboard="0"
     inkscape:deskcolor="#d1d1d1"
     inkscape:document-units="mm"
     showgrid="true"
     inkscape:zoom="4"
     inkscape:cx="58.5"
     inkscape:cy="68.250001"
     inkscape:window-width="2496"
     inkscape:window-height="1558"
     inkscape:window-x="-11"
     inkscape:window-y="-11"
     inkscape:window-maximized="1"
     inkscape:current-layer="svg1"><inkscape:grid
       id="grid1"
       units="mm"
       originx="0"
       originy="0"
       spacingx="0.99999997"
       spacingy="0.99999997"
       empcolor="#0099e5"
       empopacity="0.30196078"
       color="#0099e5"
       opacity="0.14902"
       empspacing="10"
       dotted="false"
       gridanglex="30"
       gridanglez="30"
       visible="true" /></sodipodi:namedview><defs
     id="defs1"><inkscape:path-effect
   effect="copy_rotate"
   starting_point="22.499999,277"
   origin="19.999999,277"
   id="path-effect3"
   is_visible="true"
   lpeversion="1.2"
   lpesatellites=""
   method="normal"
   num_copies="4"
   starting_angle="0"
   rotation_angle="90"
   gap="-0.01"
   copies_to_360="true"
   mirror_copies="false"
   split_items="false"
   link_styles="false" /><inkscape:path-effect
   effect="copy_rotate"
   starting_point="22.499999,277"
   origin="19.999999,277"
   id="path-effect1"
   is_visible="true"
   lpeversion="1.2"
   lpesatellites=""
   method="normal"
   num_copies="4"
   starting_angle="0"
   rotation_angle="90"
   gap="-0.01"
   copies_to_360="true"
   mirror_copies="false"
   split_items="false"
   link_styles="false" /><inkscape:path-effect
   effect="copy_rotate"
   starting_point="22.499999,277"
   origin="19.999999,277"
   id="path-effect1-8"
   is_visible="true"
   lpeversion="1.2"
   lpesatellites=""
   method="normal"
   num_copies="4"
   starting_angle="0"
   rotation_angle="90"
   gap="-0.01"
   copies_to_360="true"
   mirror_copies="false"
   split_items="false"
   link_styles="false" /><inkscape:path-effect
   effect="copy_rotate"
   starting_point="22.499999,277"
   origin="19.999999,277"
   id="path-effect3-0"
   is_visible="true"
   lpeversion="1.2"
   lpesatellites=""
   method="normal"
   num_copies="4"
   starting_angle="0"
   rotation_angle="90"
   gap="-0.01"
   copies_to_360="true"
   mirror_copies="false"
   split_items="false"
   link_styles="false" /><style
   type="text/css"
   id="style1">&#10;   <![CDATA[
    .str0 {stroke:#373435;stroke-width:17.63;stroke-linecap:round;stroke-linejoin:round;stroke-miterlimit:2.61313}
    .fil0 {fill:none}
    .fil1 {fill:#424041}
   ]]>&#10;  </style>&#10;   &#10;   &#10;  <style
   type="text/css"
   id="style1-5">&#10;   <![CDATA[
    .str0 {stroke:#373435;stroke-width:17.57;stroke-linecap:round;stroke-linejoin:round;stroke-miterlimit:2.61313}
    .fil0 {fill:none}
    .fil3 {fill:#424041}
    .fil1 {fill:#858182}
    .fil2 {fill:white}
   ]]>&#10;  </style>&#10;   &#10;   &#10;   &#10;   &#10;   &#10;   &#10;   &#10;   &#10;   &#10;   &#10;   &#10;   &#10;   &#10;   &#10;   &#10;  <filter
   id="selectable_hidder_filter"
   width="1"
   height="1"
   x="0"
   y="0"
   style="color-interpolation-filters:sRGB;"
   inkscape:label="LPE boolean visibility"><feComposite
     id="boolops_hidder_primitive"
     result="composite1"
     operator="arithmetic"
     in2="SourceGraphic"
     in="BackgroundImage" /></filter><inkscape:path-effect
   effect="bool_op"
   operand-path=""
   id="path-effect29"
   is_visible="true"
   lpeversion="1"
   operation="union"
   swap-operands="false"
   filltype-this="from-curve"
   filter=""
   filltype-operand="from-curve" /><inkscape:path-effect
   effect="knot"
   id="path-effect28"
   is_visible="true"
   lpeversion="1"
   switcher_size="15.8"
   interruption_width="4"
   prop_to_stroke_width="true"
   add_stroke_width="inkscape_1.0_and_up"
   both="false"
   inverse_width="false"
   add_other_stroke_width="inkscape_1.0_and_up"
   crossing_points_vector="" /><inkscape:path-effect
   effect="fill_between_many"
   id="path-effect27"
   is_visible="true"
   lpeversion="1.2"
   linkedpaths=""
   method="bsplinespiro"
   join="true"
   close="true"
   autoreverse="true" /><inkscape:path-effect
   effect="copy_rotate"
   starting_point="22.499999,277"
   origin="19.999999,277"
   id="path-effect3-7"
   is_visible="true"
   lpeversion="1.2"
   lpesatellites=""
   method="normal"
   num_copies="4"
   starting_angle="0"
   rotation_angle="90"
   gap="-0.01"
   copies_to_360="true"
   mirror_copies="false"
   split_items="false"
   link_styles="false" /><inkscape:path-effect
   effect="copy_rotate"
   starting_point="22.499999,277"
   origin="19.999999,277"
   id="path-effect1-6"
   is_visible="true"
   lpeversion="1.2"
   lpesatellites=""
   method="normal"
   num_copies="4"
   starting_angle="0"
   rotation_angle="90"
   gap="-0.01"
   copies_to_360="true"
   mirror_copies="false"
   split_items="false"
   link_styles="false" /><inkscape:path-effect
   effect="copy_rotate"
   starting_point="22.499999,277"
   origin="19.999999,277"
   id="path-effect1-8-5"
   is_visible="true"
   lpeversion="1.2"
   lpesatellites=""
   method="normal"
   num_copies="4"
   starting_angle="0"
   rotation_angle="90"
   gap="-0.01"
   copies_to_360="true"
   mirror_copies="false"
   split_items="false"
   link_styles="false" /><inkscape:path-effect
   effect="copy_rotate"
   starting_point="22.499999,277"
   origin="19.999999,277"
   id="path-effect3-0-1"
   is_visible="true"
   lpeversion="1.2"
   lpesatellites=""
   method="normal"
   num_copies="4"
   starting_angle="0"
   rotation_angle="90"
   gap="-0.01"
   copies_to_360="true"
   mirror_copies="false"
   split_items="false"
   link_styles="false" /><style
   type="text/css"
   id="style1-1">&#10;   <![CDATA[
    .str0 {stroke:#373435;stroke-width:17.63;stroke-linecap:round;stroke-linejoin:round;stroke-miterlimit:2.61313}
    .fil0 {fill:none}
    .fil1 {fill:#424041}
   ]]>&#10;  </style><style
   type="text/css"
   id="style1-5-2">&#10;   <![CDATA[
    .str0 {stroke:#373435;stroke-width:17.57;stroke-linecap:round;stroke-linejoin:round;stroke-miterlimit:2.61313}
    .fil0 {fill:none}
    .fil3 {fill:#424041}
    .fil1 {fill:#858182}
    .fil2 {fill:white}
   ]]>&#10;  </style><style
   type="text/css"
   id="style1-9">&#10;   <![CDATA[
    .fil0 {fill:black;fill-rule:nonzero}
   ]]>&#10;  </style><style
   type="text/css"
   id="style1-12">&#10;   <![CDATA[
    .str0 {stroke:#373435;stroke-width:17.63;stroke-linecap:round;stroke-linejoin:round;stroke-miterlimit:2.61313}
    .fil0 {fill:none}
    .fil2 {fill:#424041}
    .fil1 {fill:#424041;fill-rule:nonzero}
   ]]>&#10;  </style></defs><path
     id="path1"
     style="clip-rule:evenodd;fill:#000000;fill-rule:evenodd;stroke:none;stroke-width:0.20623;stroke-linecap:round;stroke-linejoin:round;stroke-miterlimit:2.61313;image-rendering:optimizeQuality;shape-rendering:geometricPrecision;text-rendering:geometricPrecision"
     class="fil0 str0"
     inkscape:label="logo--copincha--icon"
     d="m 20.000001,9.9999951 c -4.247498,7.79e-5 -7.692464,3.4448899 -7.692464,7.6924619 0,4.247417 3.44489,7.69206 7.692464,7.69206 4.247649,0 7.692462,-3.444565 7.692462,-7.69206 0,-4.247494 -3.444813,-7.6924629 -7.692462,-7.6924619 z m -1.646516,2.3074559 0.422101,0.731024 0.36531,-0.211051 0.421698,0.731024 c 0.466158,0.807469 0.189622,1.84042 -0.617846,2.306652 -0.807468,0.46616 -1.84009,0.189298 -2.306249,-0.618249 l -0.421697,-0.731024 0.365713,-0.21105 -0.422101,-0.731024 0.731024,-0.422101 0.421698,0.731025 0.731023,-0.421699 -0.421698,-0.731024 z m 3.293433,4.03e-4 0.731023,0.4221 -0.421698,0.731024 0.730622,0.4221 0.422101,-0.731426 0.731023,0.422504 -0.422101,0.730621 0.365713,0.21105 -0.422503,0.731427 c -0.466234,0.807468 -1.49878,1.084006 -2.306248,0.617846 -0.807469,-0.466232 -1.083927,-1.49878 -0.617846,-2.306249 l 0.4221,-0.731427 0.365713,0.211454 z m -6.28922,3.6962 h 0.843799 v 4.03e-4 c 0.932392,0 1.688402,0.756011 1.688402,1.688403 0,0.932322 -0.75601,1.687598 -1.688402,1.687598 h -0.843799 v -0.422101 h -0.844202 v -0.843799 h 0.844202 v -0.844202 h -0.844202 v -0.844201 h 0.844202 z m 8.440806,0 h 0.844604 v 0.421699 h 0.843798 v 0.844603 h -0.843798 v 0.844202 h 0.843798 v 0.843799 h -0.843798 v 0.422101 h -0.844605 c -0.932393,0 -1.687999,-0.755687 -1.687999,-1.688001 0,-0.932391 0.755606,-1.688403 1.688,-1.688403 z m -3.798503,0.422101 c 0.699082,0 1.265899,0.567217 1.265899,1.266302 v 4.03e-4 c -1.56e-4,0.699085 -0.566971,1.265497 -1.265899,1.265497 -0.698853,0 -1.265746,-0.56649 -1.2659,-1.265497 v -4.03e-4 c 0,-0.699085 0.566817,-1.266302 1.2659,-1.266302 z M 18.0647,19.29346 c 0.298618,-0.0067 0.602507,0.06646 0.880048,0.226758 0.807468,0.46623 1.083927,1.498455 0.617846,2.305846 l -0.421698,0.731023 -0.36531,-0.21105 -0.422101,0.731024 -0.731024,-0.422101 0.422101,-0.731024 -0.731426,-0.422101 -0.421698,0.731025 -0.731024,-0.422101 0.422101,-0.730622 -0.365713,-0.211452 0.421697,-0.730622 h 4.03e-4 C 16.944828,19.60821 17.494696,19.306226 18.0647,19.29346 Z m 3.78924,4.02e-4 c 0.598697,-0.01553 1.187019,0.289041 1.50756,0.844201 l 0.422101,0.730622 -0.365713,0.211452 0.4221,0.731024 -0.731023,0.4221 -0.422101,-0.731426 -0.730621,0.422101 0.421697,0.731024 -0.731023,0.422101 -0.421697,-0.731024 -0.365714,0.21105 -0.4221,-0.731023 c -0.466159,-0.807469 -0.189221,-1.839764 0.618248,-2.305846 0.25231,-0.145694 0.52613,-0.219279 0.798286,-0.226356 z"
     sodipodi:nodetypes="csssccccccccccccccccccccccccccccccccssccccccccccsccccccccccssssssssssccccccccccccccccccccccccccccccc" /><path
     class="fil0"
     d="m 13.247475,29.374686 c -0.133743,0 -0.257588,-0.02292 -0.371691,-0.06882 -0.114025,-0.04582 -0.213709,-0.110124 -0.298818,-0.191336 -0.08519,-0.08199 -0.151436,-0.178949 -0.198667,-0.291102 -0.04715,-0.111999 -0.07077,-0.235922 -0.07077,-0.37099 0,-0.130393 0.02354,-0.252991 0.07077,-0.367717 0.04716,-0.114648 0.113402,-0.215033 0.198667,-0.300844 0.08511,-0.08519 0.184793,-0.152683 0.298818,-0.202564 0.114025,-0.0498 0.239273,-0.07466 0.375588,-0.07466 0.167725,0 0.314562,0.03149 0.440434,0.09438 0.125793,0.06289 0.225477,0.149487 0.298818,0.259536 l -0.24769,0.271307 -0.02362,0.02759 -0.03148,-0.02362 c 0,-0.02096 -0.0026,-0.04263 -0.0079,-0.06492 -0.0052,-0.02221 -0.02222,-0.0491 -0.05105,-0.08059 -0.0498,-0.0498 -0.104906,-0.08324 -0.165152,-0.10023 -0.06033,-0.01707 -0.129769,-0.02556 -0.20841,-0.02556 -0.06555,0 -0.12782,0.01309 -0.186898,0.03928 -0.05892,0.02688 -0.111998,0.06422 -0.159229,0.113401 -0.04716,0.04848 -0.08394,0.109505 -0.110206,0.182222 -0.02618,0.07272 -0.03928,0.15728 -0.03928,0.252366 0,0.08511 0.01379,0.162581 0.04131,0.231323 0.02751,0.06953 0.06422,0.128444 0.110128,0.176922 0.04582,0.04918 0.09961,0.08651 0.161256,0.113401 0.06157,0.02619 0.126495,0.03929 0.194691,0.03929 0.05502,0 0.108803,-0.0078 0.161257,-0.02354 0.05246,-0.01575 0.104204,-0.03999 0.155332,-0.07272 0.05112,-0.03273 0.0989,-0.07669 0.143564,-0.131795 l 0.24769,0.283152 c -0.09703,0.107478 -0.209734,0.185495 -0.338178,0.233974 -0.128443,0.04848 -0.258212,0.07272 -0.389305,0.07272 z m 1.852377,0 c -0.16258,0 -0.310041,-0.03936 -0.442381,-0.117298 -0.132419,-0.07802 -0.236624,-0.187522 -0.312692,-0.328435 -0.07599,-0.140836 -0.114025,-0.304119 -0.114025,-0.488289 0,-0.176921 0.03803,-0.335605 0.114025,-0.476519 0.07607,-0.140913 0.180273,-0.252444 0.312692,-0.33428 0.13234,-0.08191 0.279878,-0.123222 0.442381,-0.123222 0.165153,0 0.313939,0.04131 0.446357,0.123222 0.132418,0.08191 0.237324,0.193367 0.31464,0.33428 0.07731,0.140836 0.115974,0.29952 0.115974,0.476519 0,0.18417 -0.03866,0.347375 -0.115974,0.488289 -0.07732,0.140913 -0.182222,0.250418 -0.31464,0.328435 -0.132418,0.07794 -0.281204,0.117298 -0.446357,0.117298 z m 0,-0.353922 c 0.08651,0 0.161256,-0.02494 0.224153,-0.07404 0.06289,-0.04918 0.113401,-0.117377 0.151358,-0.204513 0.03803,-0.08714 0.05706,-0.187443 0.05706,-0.301468 0,-0.118623 -0.01902,-0.220879 -0.05706,-0.306768 -0.03796,-0.08589 -0.08846,-0.15276 -0.151358,-0.19929 -0.06289,-0.04653 -0.137562,-0.07015 -0.224153,-0.07015 -0.07864,0 -0.15011,0.02354 -0.214332,0.07015 -0.06422,0.04645 -0.11535,0.113323 -0.153384,0.19929 -0.03803,0.08581 -0.05706,0.188145 -0.05706,0.306768 0,0.114025 0.01839,0.214332 0.0551,0.301468 0.03663,0.08714 0.08714,0.155333 0.151358,0.204513 0.06422,0.0491 0.137015,0.07404 0.218228,0.07404 z m 1.175867,0.979227 -0.0039,-2.454066 h 0.440432 v 0.255562 c 0.04193,-0.06812 0.08846,-0.123846 0.13959,-0.167102 0.05105,-0.04326 0.108802,-0.07536 0.173024,-0.09633 0.06423,-0.02097 0.131718,-0.03148 0.202564,-0.03148 0.09961,0 0.193367,0.01964 0.281204,0.05955 0.08784,0.03936 0.164529,0.09828 0.230076,0.177624 0.06555,0.07934 0.117298,0.176921 0.155332,0.29305 0.03796,0.115973 0.05706,0.251665 0.05706,0.407699 0,0.155333 -0.01964,0.292349 -0.059,0.409648 -0.03928,0.117298 -0.09368,0.214333 -0.163204,0.291024 -0.06952,0.07599 -0.148162,0.133744 -0.235999,0.171778 -0.08776,0.03865 -0.178871,0.05768 -0.273255,0.05768 -0.06555,0 -0.129145,-0.0078 -0.190716,-0.02354 -0.06157,-0.01582 -0.118623,-0.03873 -0.171077,-0.0689 -0.05246,-0.03016 -0.09571,-0.06749 -0.129769,-0.111999 v 0.829818 h -0.452276 z m 0.821945,-0.971433 c 0.05775,0 0.111373,-0.0098 0.161254,-0.03016 0.0498,-0.02026 0.09376,-0.05308 0.131796,-0.09961 0.03796,-0.04645 0.06749,-0.108802 0.08846,-0.186819 0.02088,-0.07802 0.03149,-0.17435 0.03149,-0.290402 0,-0.115271 -0.01575,-0.214956 -0.04716,-0.299519 -0.03149,-0.08394 -0.07607,-0.148786 -0.133744,-0.193991 -0.05776,-0.04528 -0.127118,-0.06882 -0.208409,-0.07147 -0.06298,-0.0026 -0.118701,0.0072 -0.16718,0.03016 -0.04848,0.02229 -0.08979,0.059 -0.123922,0.109504 -0.03398,0.0498 -0.06025,0.114025 -0.07864,0.192042 -0.01839,0.07794 -0.02752,0.1717 -0.02752,0.282451 0.0026,0.07537 0.0091,0.143564 0.01964,0.203811 0.01045,0.06025 0.02556,0.112076 0.0452,0.155956 0.01964,0.04396 0.04396,0.08067 0.07279,0.109504 0.02884,0.02884 0.06289,0.0505 0.102177,0.06555 0.03936,0.01512 0.08394,0.02292 0.133743,0.02292 z m 1.286071,0.314641 v -0.350024 h 0.448306 v -1.097149 h -0.424768 v -0.350024 h 0.873073 v 1.447173 h 0.409024 v 0.350024 z m 0.652817,-2.174811 c -0.07607,0 -0.141615,-0.02618 -0.196639,-0.07864 -0.0551,-0.05246 -0.08262,-0.115349 -0.08262,-0.188768 0,-0.07872 0.02618,-0.14294 0.07864,-0.192743 0.05245,-0.04972 0.119325,-0.07466 0.200615,-0.07466 0.07334,0 0.138262,0.02619 0.194614,0.07864 0.05643,0.05245 0.08464,0.11535 0.08464,0.188846 0,0.07334 -0.02821,0.136315 -0.08464,0.188769 -0.05635,0.05246 -0.121273,0.07864 -0.194614,0.07864 z m 1.199483,2.174811 v -1.797274 h 0.444407 v 0.255562 c 0.04458,-0.05768 0.09306,-0.108803 0.145513,-0.153306 0.05238,-0.04458 0.110751,-0.07934 0.174973,-0.104205 0.06422,-0.02494 0.133119,-0.03733 0.20646,-0.03733 0.107557,0 0.205837,0.02486 0.294922,0.07529 0.08916,0.0498 0.161256,0.130469 0.21628,0.241299 0.0551,0.110128 0.08262,0.255562 0.08262,0.435835 v 1.084132 h -0.444413 v -1.071661 c 0,-0.10023 -0.01045,-0.180897 -0.03148,-0.242469 -0.02097,-0.06095 -0.05175,-0.106855 -0.09244,-0.136393 -0.04061,-0.02946 -0.08846,-0.04388 -0.143563,-0.04388 -0.04972,0 -0.0989,0.0097 -0.147461,0.02884 -0.04848,0.01902 -0.09244,0.04778 -0.131716,0.08651 -0.03936,0.03795 -0.07085,0.08386 -0.09446,0.136315 -0.02354,0.05245 -0.03531,0.112077 -0.03531,0.178247 v 1.064491 h -0.44441 z m 2.843371,0.03149 c -0.133744,0 -0.257588,-0.02292 -0.371691,-0.06883 -0.114026,-0.04582 -0.21371,-0.110127 -0.298819,-0.19134 -0.08519,-0.08199 -0.151435,-0.178948 -0.198667,-0.291102 -0.04715,-0.111998 -0.07077,-0.235921 -0.07077,-0.370989 0,-0.130393 0.02354,-0.252991 0.07077,-0.367717 0.04716,-0.114648 0.113401,-0.215034 0.198667,-0.300845 0.08511,-0.08519 0.184793,-0.152683 0.298819,-0.202564 0.114024,-0.0498 0.239272,-0.07466 0.375588,-0.07466 0.167724,0 0.314562,0.03149 0.440432,0.09439 0.125794,0.06289 0.225479,0.149486 0.29882,0.259536 l -0.24769,0.271307 -0.02362,0.02759 -0.03148,-0.02361 c 0,-0.02096 -0.0026,-0.04263 -0.0079,-0.06493 -0.0052,-0.02221 -0.02222,-0.0491 -0.05105,-0.08059 -0.0498,-0.0498 -0.104906,-0.08324 -0.165152,-0.10023 -0.06032,-0.01707 -0.129769,-0.02556 -0.208409,-0.02556 -0.06555,0 -0.12782,0.01309 -0.186898,0.03928 -0.05892,0.02689 -0.111998,0.06422 -0.15923,0.113401 -0.04715,0.04848 -0.08394,0.109505 -0.110205,0.182221 -0.02619,0.07272 -0.03928,0.157281 -0.03928,0.252367 0,0.08511 0.01379,0.162581 0.04131,0.231323 0.02752,0.06952 0.06423,0.128444 0.110128,0.176921 0.04583,0.04918 0.09961,0.08651 0.161256,0.113402 0.06157,0.02618 0.126495,0.03928 0.194692,0.03928 0.05502,0 0.108803,-0.0078 0.161255,-0.02354 0.05245,-0.01575 0.104205,-0.03999 0.155333,-0.07272 0.05113,-0.03273 0.09891,-0.07669 0.143564,-0.131795 l 0.24769,0.283152 c -0.09703,0.107478 -0.209734,0.185495 -0.338178,0.233973 -0.128443,0.04848 -0.258211,0.07272 -0.389305,0.07272 z m 1.089432,-2.646737 h 0.444409 0.03531 v 0.03608 c -0.01309,0.01575 -0.02159,0.03273 -0.02556,0.05105 -0.0039,0.01909 -0.0059,0.0505 -0.0059,0.09579 v 0.878918 c 0.04466,-0.06555 0.09571,-0.118623 0.153383,-0.159307 0.05768,-0.04061 0.119948,-0.07147 0.186821,-0.09236 0.06687,-0.02097 0.131716,-0.03148 0.194614,-0.03148 0.117999,0 0.220878,0.02486 0.308717,0.07529 0.08784,0.0498 0.156034,0.131094 0.204512,0.24317 0.04848,0.111375 0.07272,0.256263 0.07272,0.433886 v 1.084133 h -0.448383 v -1.071663 c 0,-0.104827 -0.01045,-0.188767 -0.03148,-0.251665 -0.02097,-0.06298 -0.05042,-0.106854 -0.08846,-0.132418 -0.03803,-0.02556 -0.08324,-0.03865 -0.135692,-0.03865 -0.04465,0 -0.08784,0.0065 -0.129768,0.01901 -0.04201,0.01309 -0.07997,0.03273 -0.114025,0.05963 -0.03406,0.02689 -0.06492,0.05962 -0.09244,0.09828 -0.02752,0.03796 -0.04786,0.08191 -0.06095,0.130392 -0.01309,0.04848 -0.01964,0.102256 -0.01964,0.161256 v 1.025834 h -0.448345 v -2.615254 z m 2.528731,2.646732 c -0.201861,0 -0.358519,-0.04716 -0.469893,-0.140914 -0.111454,-0.09376 -0.16718,-0.215034 -0.16718,-0.363742 0,-0.09509 0.02159,-0.183546 0.06492,-0.264135 0.04326,-0.08129 0.108179,-0.151435 0.194615,-0.210435 0.08651,-0.05892 0.194068,-0.104828 0.322512,-0.137017 0.128443,-0.03219 0.275279,-0.04786 0.440433,-0.04786 0.02089,0 0.04715,0 0.07864,0 0.02712,0 0.05627,5.45e-4 0.08729,0.0015 -0.0078,-0.05853 -0.01988,-0.107867 -0.03616,-0.148318 -0.03148,-0.07794 -0.07739,-0.13234 -0.137641,-0.163828 -0.06025,-0.03148 -0.136314,-0.04716 -0.228127,-0.04716 -0.08394,0 -0.163205,0.01379 -0.237947,0.04131 -0.07466,0.02759 -0.147461,0.07802 -0.21823,0.151436 l -0.24379,-0.267517 c 0.102257,-0.09703 0.216281,-0.166478 0.342152,-0.208409 0.125794,-0.04201 0.251743,-0.06289 0.377537,-0.06289 0.11535,0 0.222827,0.01309 0.322435,0.03865 0.09961,0.02556 0.186819,0.06883 0.261562,0.129067 0.07466,0.06032 0.133667,0.142941 0.176923,0.247145 0.04326,0.104205 0.06485,0.233272 0.06485,0.387279 v 1.034329 h -0.460074 v -0.212384 c -0.03406,0.04458 -0.07085,0.08262 -0.110207,0.114025 -0.03928,0.03149 -0.08129,0.05643 -0.125794,0.07466 -0.04458,0.01839 -0.09173,0.03218 -0.141535,0.04131 -0.0498,0.0092 -0.102257,0.01379 -0.157361,0.01379 z m 0.557654,-0.85242 -0.08379,-0.0029 c -0.03803,-0.0013 -0.07015,-0.0019 -0.09641,-0.0019 -0.104827,0 -0.193366,0.0072 -0.265459,0.02222 -0.07209,0.01512 -0.130471,0.03608 -0.175052,0.06227 -0.04458,0.02619 -0.07732,0.05768 -0.09828,0.09376 -0.02097,0.03663 -0.03148,0.07599 -0.03148,0.118623 0,0.03998 0.0072,0.07404 0.02159,0.101554 0.01442,0.02759 0.03406,0.04918 0.059,0.06555 0.02486,0.01645 0.0544,0.02822 0.08846,0.03601 0.03406,0.0072 0.07077,0.01115 0.110129,0.01115 0.07864,0 0.14746,-0.01177 0.20646,-0.03601 0.05892,-0.02362 0.108803,-0.06157 0.149487,-0.114648 0.04061,-0.05245 0.07077,-0.118701 0.09041,-0.197966 0.01177,-0.04754 0.02003,-0.09999 0.02479,-0.15767 z"
     id="path1-7"
     style="clip-rule:evenodd;fill:#000000;fill-rule:nonzero;stroke-width:0.00779393;image-rendering:optimizeQuality;shape-rendering:geometricPrecision;text-rendering:geometricPrecision"
     inkscape:label="logo--copincha--text" /><g
     id="Layer_x0020_1"
     inkscape:label="Layer 1"
     inkscape:groupmode="layer"
     transform="matrix(0.01,0,0,0.01,-22.526255,-25.282131)"
     style="clip-rule:evenodd;fill-rule:evenodd;image-rendering:optimizeQuality;shape-rendering:geometricPrecision;text-rendering:geometricPrecision">&#10;  <metadata
   id="CorelCorpID_0Corel-Layer" />&#10;  &#10;  &#10; </g></svg>
