<?xml version="1.0" encoding="UTF-8" standalone="no"?>
<!-- Created with Inkscape (http://www.inkscape.org/) -->

<svg
   width="40mm"
   height="40mm"
   viewBox="0 0 40 40"
   version="1.1"
   id="svg1"
   inkscape:version="1.3 (0e150ed6c4, 2023-07-21)"
   sodipodi:docname="case--cover--right--inside.svg"
   xml:space="preserve"
   xmlns:inkscape="http://www.inkscape.org/namespaces/inkscape"
   xmlns:sodipodi="http://sodipodi.sourceforge.net/DTD/sodipodi-0.dtd"
   xmlns="http://www.w3.org/2000/svg"
   xmlns:svg="http://www.w3.org/2000/svg"><sodipodi:namedview
     id="namedview1"
     pagecolor="#ffffff"
     bordercolor="#000000"
     borderopacity="0.25"
     inkscape:showpageshadow="2"
     inkscape:pageopacity="0.0"
     inkscape:pagecheckerboard="0"
     inkscape:deskcolor="#d1d1d1"
     inkscape:document-units="mm"
     showgrid="true"
     inkscape:zoom="2.2805836"
     inkscape:cx="10.962106"
     inkscape:cy="-31.570866"
     inkscape:window-width="2496"
     inkscape:window-height="1558"
     inkscape:window-x="-11"
     inkscape:window-y="-11"
     inkscape:window-maximized="1"
     inkscape:current-layer="g1"><inkscape:grid
       id="grid1"
       units="mm"
       originx="0"
       originy="0"
       spacingx="0.99999997"
       spacingy="0.99999997"
       empcolor="#0099e5"
       empopacity="0.30196078"
       color="#0099e5"
       opacity="0.14902"
       empspacing="10"
       dotted="false"
       gridanglex="30"
       gridanglez="30"
       visible="true" /></sodipodi:namedview><defs
     id="defs1"><inkscape:path-effect
       effect="copy_rotate"
       starting_point="22.499999,277"
       origin="19.999999,277"
       id="path-effect3"
       is_visible="true"
       lpeversion="1.2"
       lpesatellites=""
       method="normal"
       num_copies="4"
       starting_angle="0"
       rotation_angle="90"
       gap="-0.01"
       copies_to_360="true"
       mirror_copies="false"
       split_items="false"
       link_styles="false" /><inkscape:path-effect
       effect="copy_rotate"
       starting_point="22.499999,277"
       origin="19.999999,277"
       id="path-effect1"
       is_visible="true"
       lpeversion="1.2"
       lpesatellites=""
       method="normal"
       num_copies="4"
       starting_angle="0"
       rotation_angle="90"
       gap="-0.01"
       copies_to_360="true"
       mirror_copies="false"
       split_items="false"
       link_styles="false" /><inkscape:path-effect
       effect="copy_rotate"
       starting_point="22.499999,277"
       origin="19.999999,277"
       id="path-effect1-8"
       is_visible="true"
       lpeversion="1.2"
       lpesatellites=""
       method="normal"
       num_copies="4"
       starting_angle="0"
       rotation_angle="90"
       gap="-0.01"
       copies_to_360="true"
       mirror_copies="false"
       split_items="false"
       link_styles="false" /><inkscape:path-effect
       effect="copy_rotate"
       starting_point="22.499999,277"
       origin="19.999999,277"
       id="path-effect3-0"
       is_visible="true"
       lpeversion="1.2"
       lpesatellites=""
       method="normal"
       num_copies="4"
       starting_angle="0"
       rotation_angle="90"
       gap="-0.01"
       copies_to_360="true"
       mirror_copies="false"
       split_items="false"
       link_styles="false" /><inkscape:path-effect
       effect="tiling"
       id="path-effect8"
       is_visible="true"
       lpeversion="1"
       unit="mm"
       seed="1;1"
       lpesatellites=""
       num_rows="4"
       num_cols="4"
       gapx="5"
       gapy="5"
       offset="0"
       offset_type="false"
       scale="0"
       rotate="0"
       mirrorrowsx="false"
       mirrorrowsy="false"
       mirrorcolsx="false"
       mirrorcolsy="false"
       mirrortrans="false"
       shrink_interp="false"
       split_items="false"
       link_styles="false"
       interpolate_scalex="false"
       interpolate_scaley="true"
       interpolate_rotatex="false"
       interpolate_rotatey="true"
       random_scale="false"
       random_rotate="false"
       random_gap_y="false"
       random_gap_x="false"
       transformorigin="" /><inkscape:path-effect
       effect="tiling"
       id="path-effect5"
       is_visible="true"
       lpeversion="1"
       unit="mm"
       seed="1;1"
       lpesatellites=""
       num_rows="4"
       num_cols="4"
       gapx="5"
       gapy="5"
       offset="0"
       offset_type="false"
       scale="0"
       rotate="0"
       mirrorrowsx="false"
       mirrorrowsy="false"
       mirrorcolsx="false"
       mirrorcolsy="false"
       mirrortrans="false"
       shrink_interp="false"
       split_items="false"
       link_styles="false"
       interpolate_scalex="false"
       interpolate_scaley="true"
       interpolate_rotatex="false"
       interpolate_rotatey="true"
       random_scale="false"
       random_rotate="false"
       random_gap_y="false"
       random_gap_x="false"
       transformorigin="" /><inkscape:path-effect
       effect="tiling"
       id="path-effect4"
       is_visible="true"
       lpeversion="1"
       unit="mm"
       seed="1;1"
       lpesatellites=""
       num_rows="4"
       num_cols="4"
       gapx="19"
       gapy="19"
       offset="0"
       offset_type="false"
       scale="0"
       rotate="0"
       mirrorrowsx="false"
       mirrorrowsy="false"
       mirrorcolsx="false"
       mirrorcolsy="false"
       mirrortrans="false"
       shrink_interp="false"
       split_items="false"
       link_styles="false"
       interpolate_scalex="false"
       interpolate_scaley="true"
       interpolate_rotatex="false"
       interpolate_rotatey="true"
       random_scale="false"
       random_rotate="false"
       random_gap_y="false"
       random_gap_x="false"
       transformorigin="" /><inkscape:path-effect
       effect="clone_original"
       linkeditem=""
       id="path-effect2"
       is_visible="true"
       lpeversion="1"
       method="d"
       attributes=""
       css_properties=""
       allow_transforms="true" /><inkscape:path-effect
       effect="copy_rotate"
       starting_point="22.499999,277"
       origin="19.999999,277"
       id="path-effect3-9"
       is_visible="true"
       lpeversion="1.2"
       lpesatellites=""
       method="normal"
       num_copies="4"
       starting_angle="0"
       rotation_angle="90"
       gap="-0.01"
       copies_to_360="true"
       mirror_copies="false"
       split_items="false"
       link_styles="false" /><inkscape:path-effect
       effect="copy_rotate"
       starting_point="22.499999,277"
       origin="19.999999,277"
       id="path-effect1-7"
       is_visible="true"
       lpeversion="1.2"
       lpesatellites=""
       method="normal"
       num_copies="4"
       starting_angle="0"
       rotation_angle="90"
       gap="-0.01"
       copies_to_360="true"
       mirror_copies="false"
       split_items="false"
       link_styles="false" /><inkscape:path-effect
       effect="copy_rotate"
       starting_point="22.499999,277"
       origin="19.999999,277"
       id="path-effect1-8-4"
       is_visible="true"
       lpeversion="1.2"
       lpesatellites=""
       method="normal"
       num_copies="4"
       starting_angle="0"
       rotation_angle="90"
       gap="-0.01"
       copies_to_360="true"
       mirror_copies="false"
       split_items="false"
       link_styles="false" /><inkscape:path-effect
       effect="copy_rotate"
       starting_point="22.499999,277"
       origin="19.999999,277"
       id="path-effect3-0-4"
       is_visible="true"
       lpeversion="1.2"
       lpesatellites=""
       method="normal"
       num_copies="4"
       starting_angle="0"
       rotation_angle="90"
       gap="-0.01"
       copies_to_360="true"
       mirror_copies="false"
       split_items="false"
       link_styles="false" /><style
       type="text/css"
       id="style1">&#10;   <![CDATA[
    .str0 {stroke:#373435;stroke-width:17.57;stroke-linecap:round;stroke-linejoin:round;stroke-miterlimit:2.61313}
    .fil0 {fill:none}
   ]]>&#10;  </style><marker
       id="DistanceX"
       orient="auto"
       refX="0.0"
       refY="0.0"
       style="overflow:visible"><path
         d="M 3,-3 L -3,3 M 0,-5 L  0,5"
         style="stroke:#000000; stroke-width:0.5"
         id="path1" /></marker><pattern
       id="Hatch"
       patternUnits="userSpaceOnUse"
       width="8"
       height="8"
       x="0"
       y="0"><path
         d="M8 4 l-4,4"
         stroke="#000000"
         stroke-width="0.25"
         linecap="square"
         id="path2" /><path
         d="M6 2 l-4,4"
         stroke="#000000"
         stroke-width="0.25"
         linecap="square"
         id="path3" /><path
         d="M4 0 l-4,4"
         stroke="#000000"
         stroke-width="0.25"
         linecap="square"
         id="path4" /></pattern><symbol
       id="$MODEL_SPACE" /><symbol
       id="$PAPER_SPACE" /><inkscape:path-effect
       effect="tiling"
       id="path-effect4-4"
       is_visible="true"
       lpeversion="1"
       unit="mm"
       seed="1;1"
       lpesatellites=""
       num_rows="4"
       num_cols="4"
       gapx="52.91"
       gapy="5.0270833"
       offset="0"
       offset_type="false"
       scale="0"
       rotate="0"
       mirrorrowsx="false"
       mirrorrowsy="false"
       mirrorcolsx="false"
       mirrorcolsy="false"
       mirrortrans="false"
       shrink_interp="false"
       split_items="false"
       link_styles="false"
       interpolate_scalex="false"
       interpolate_scaley="true"
       interpolate_rotatex="false"
       interpolate_rotatey="true"
       random_scale="false"
       random_rotate="false"
       random_gap_y="false"
       random_gap_x="false"
       transformorigin="" /><inkscape:path-effect
       effect="tiling"
       id="path-effect5-5"
       is_visible="true"
       lpeversion="1"
       unit="mm"
       seed="1;1"
       lpesatellites=""
       num_rows="4"
       num_cols="4"
       gapx="5"
       gapy="5"
       offset="0"
       offset_type="false"
       scale="0"
       rotate="0"
       mirrorrowsx="false"
       mirrorrowsy="false"
       mirrorcolsx="false"
       mirrorcolsy="false"
       mirrortrans="false"
       shrink_interp="false"
       split_items="false"
       link_styles="false"
       interpolate_scalex="false"
       interpolate_scaley="true"
       interpolate_rotatex="false"
       interpolate_rotatey="true"
       random_scale="false"
       random_rotate="false"
       random_gap_y="false"
       random_gap_x="false"
       transformorigin="" /><inkscape:path-effect
       effect="tiling"
       id="path-effect8-1"
       is_visible="true"
       lpeversion="1"
       unit="mm"
       seed="1;1"
       lpesatellites=""
       num_rows="4"
       num_cols="4"
       gapx="5"
       gapy="5"
       offset="0"
       offset_type="false"
       scale="0"
       rotate="0"
       mirrorrowsx="false"
       mirrorrowsy="false"
       mirrorcolsx="false"
       mirrorcolsy="false"
       mirrortrans="false"
       shrink_interp="false"
       split_items="false"
       link_styles="false"
       interpolate_scalex="false"
       interpolate_scaley="true"
       interpolate_rotatex="false"
       interpolate_rotatey="true"
       random_scale="false"
       random_rotate="false"
       random_gap_y="false"
       random_gap_x="false"
       transformorigin="" /><inkscape:path-effect
       effect="tiling"
       id="path-effect5-3"
       is_visible="true"
       lpeversion="1"
       unit="mm"
       seed="1;1"
       lpesatellites=""
       num_rows="4"
       num_cols="4"
       gapx="5"
       gapy="5"
       offset="0"
       offset_type="false"
       scale="0"
       rotate="0"
       mirrorrowsx="false"
       mirrorrowsy="false"
       mirrorcolsx="false"
       mirrorcolsy="false"
       mirrortrans="false"
       shrink_interp="false"
       split_items="false"
       link_styles="false"
       interpolate_scalex="false"
       interpolate_scaley="true"
       interpolate_rotatex="false"
       interpolate_rotatey="true"
       random_scale="false"
       random_rotate="false"
       random_gap_y="false"
       random_gap_x="false"
       transformorigin="" /><inkscape:path-effect
       effect="tiling"
       id="path-effect4-9"
       is_visible="true"
       lpeversion="1"
       unit="mm"
       seed="1;1"
       lpesatellites=""
       num_rows="4"
       num_cols="4"
       gapx="19"
       gapy="19"
       offset="0"
       offset_type="false"
       scale="0"
       rotate="0"
       mirrorrowsx="false"
       mirrorrowsy="false"
       mirrorcolsx="false"
       mirrorcolsy="false"
       mirrortrans="false"
       shrink_interp="false"
       split_items="false"
       link_styles="false"
       interpolate_scalex="false"
       interpolate_scaley="true"
       interpolate_rotatex="false"
       interpolate_rotatey="true"
       random_scale="false"
       random_rotate="false"
       random_gap_y="false"
       random_gap_x="false"
       transformorigin="" /><inkscape:path-effect
       effect="clone_original"
       linkeditem=""
       id="path-effect2-3"
       is_visible="true"
       lpeversion="1"
       method="d"
       attributes=""
       css_properties=""
       allow_transforms="true" /><inkscape:path-effect
       effect="copy_rotate"
       starting_point="22.499999,277"
       origin="19.999999,277"
       id="path-effect3-1"
       is_visible="true"
       lpeversion="1.2"
       lpesatellites=""
       method="normal"
       num_copies="4"
       starting_angle="0"
       rotation_angle="90"
       gap="-0.01"
       copies_to_360="true"
       mirror_copies="false"
       split_items="false"
       link_styles="false" /><inkscape:path-effect
       effect="copy_rotate"
       starting_point="22.499999,277"
       origin="19.999999,277"
       id="path-effect1-5"
       is_visible="true"
       lpeversion="1.2"
       lpesatellites=""
       method="normal"
       num_copies="4"
       starting_angle="0"
       rotation_angle="90"
       gap="-0.01"
       copies_to_360="true"
       mirror_copies="false"
       split_items="false"
       link_styles="false" /><inkscape:path-effect
       effect="copy_rotate"
       starting_point="22.499999,277"
       origin="19.999999,277"
       id="path-effect1-8-0"
       is_visible="true"
       lpeversion="1.2"
       lpesatellites=""
       method="normal"
       num_copies="4"
       starting_angle="0"
       rotation_angle="90"
       gap="-0.01"
       copies_to_360="true"
       mirror_copies="false"
       split_items="false"
       link_styles="false" /><inkscape:path-effect
       effect="copy_rotate"
       starting_point="22.499999,277"
       origin="19.999999,277"
       id="path-effect3-0-3"
       is_visible="true"
       lpeversion="1.2"
       lpesatellites=""
       method="normal"
       num_copies="4"
       starting_angle="0"
       rotation_angle="90"
       gap="-0.01"
       copies_to_360="true"
       mirror_copies="false"
       split_items="false"
       link_styles="false" /><style
       type="text/css"
       id="style1-4">&#10;   <![CDATA[
    .str0 {stroke:#373435;stroke-width:17.57;stroke-linecap:round;stroke-linejoin:round;stroke-miterlimit:2.61313}
    .fil0 {fill:none}
   ]]>&#10;  </style><marker
       id="DistanceX-9"
       orient="auto"
       refX="0.0"
       refY="0.0"
       style="overflow:visible"><path
         d="M 3,-3 L -3,3 M 0,-5 L  0,5"
         style="stroke:#000000; stroke-width:0.5"
         id="path1-1" /></marker><pattern
       id="Hatch-8"
       patternUnits="userSpaceOnUse"
       width="8"
       height="8"
       x="0"
       y="0"><path
         d="M8 4 l-4,4"
         stroke="#000000"
         stroke-width="0.25"
         linecap="square"
         id="path2-8" /><path
         d="M6 2 l-4,4"
         stroke="#000000"
         stroke-width="0.25"
         linecap="square"
         id="path3-5" /><path
         d="M4 0 l-4,4"
         stroke="#000000"
         stroke-width="0.25"
         linecap="square"
         id="path4-3" /></pattern><symbol
       id="$MODEL_SPACE-3" /><symbol
       id="$PAPER_SPACE-1" /><inkscape:path-effect
       effect="tiling"
       id="path-effect4-4-3"
       is_visible="true"
       lpeversion="1"
       unit="mm"
       seed="1;1"
       lpesatellites=""
       num_rows="4"
       num_cols="4"
       gapx="52.91"
       gapy="5.0270833"
       offset="0"
       offset_type="false"
       scale="0"
       rotate="0"
       mirrorrowsx="false"
       mirrorrowsy="false"
       mirrorcolsx="false"
       mirrorcolsy="false"
       mirrortrans="false"
       shrink_interp="false"
       split_items="false"
       link_styles="false"
       interpolate_scalex="false"
       interpolate_scaley="true"
       interpolate_rotatex="false"
       interpolate_rotatey="true"
       random_scale="false"
       random_rotate="false"
       random_gap_y="false"
       random_gap_x="false"
       transformorigin="" /><inkscape:path-effect
       effect="tiling"
       id="path-effect5-5-4"
       is_visible="true"
       lpeversion="1"
       unit="mm"
       seed="1;1"
       lpesatellites=""
       num_rows="4"
       num_cols="4"
       gapx="5"
       gapy="5"
       offset="0"
       offset_type="false"
       scale="0"
       rotate="0"
       mirrorrowsx="false"
       mirrorrowsy="false"
       mirrorcolsx="false"
       mirrorcolsy="false"
       mirrortrans="false"
       shrink_interp="false"
       split_items="false"
       link_styles="false"
       interpolate_scalex="false"
       interpolate_scaley="true"
       interpolate_rotatex="false"
       interpolate_rotatey="true"
       random_scale="false"
       random_rotate="false"
       random_gap_y="false"
       random_gap_x="false"
       transformorigin="" /></defs><g
     id="g1"
     transform="translate(-94.635098,36.11685)"
     inkscape:label="case--control--power"><path
       id="rect1"
       style="vector-effect:non-scaling-stroke;fill:#808080;fill-rule:evenodd;stroke:#000000;stroke-width:0.264583;stroke-linecap:round;stroke-linejoin:round;-inkscape-stroke:hairline;paint-order:stroke fill markers"
       inkscape:label="case--control--power--base"
       d="m 57.135194,-36.117133 c 0,1.380706 -1.119405,2.500105 -2.500096,2.500105 v 74.999557 c 1.380691,0 2.49958,1.1194 2.49958,2.500105 l 75.000322,5.17e-4 c 0,-1.380704 1.1194,-2.500106 2.5001,-2.500106 v -75.000073 c -1.3807,0 -2.5001,-1.119399 -2.5001,-2.500105 z m 2.500097,2.500105 c 1.380698,0 2.500097,1.119399 2.500097,2.500106 0,1.380709 -1.119399,2.500106 -2.500097,2.500106 -1.380697,0 -2.500097,-1.119397 -2.500097,-2.500106 0,-1.380707 1.1194,-2.500106 2.500097,-2.500106 z m 9.999872,0 c 1.380697,0 2.500096,1.119399 2.500096,2.500106 0,1.380709 -1.119399,2.500106 -2.500096,2.500106 -1.380699,0 -2.500097,-1.119397 -2.500097,-2.500106 0,-1.380707 1.119398,-2.500106 2.500097,-2.500106 z m 9.99987,0 c 1.380703,0 2.500097,1.119399 2.500097,2.500106 0,1.380709 -1.119394,2.500106 -2.500097,2.500106 -1.380693,0 -2.500097,-1.119397 -2.500097,-2.500106 0,-1.380707 1.119404,-2.500106 2.500097,-2.500106 z m 9.999871,0 c 1.380703,0 2.500097,1.119399 2.500097,2.500106 0,1.380709 -1.119394,2.500106 -2.500097,2.500106 -1.380691,0 -2.49958,-1.119397 -2.49958,-2.500106 0,-1.380707 1.118889,-2.500106 2.49958,-2.500106 z m 10.000388,0 c 1.380698,0 2.499578,1.119399 2.499578,2.500106 0,1.380709 -1.11888,2.500106 -2.499578,2.500106 -1.380699,0 -2.500097,-1.119397 -2.500097,-2.500106 0,-1.380707 1.119398,-2.500106 2.500097,-2.500106 z m 9.999878,0 c 1.38068,0 2.50009,1.119399 2.50009,2.500106 0,1.380709 -1.11941,2.500106 -2.50009,2.500106 -1.38071,0 -2.5001,-1.119397 -2.5001,-2.500106 0,-1.380707 1.11939,-2.500106 2.5001,-2.500106 z m 9.99986,0 c 1.38071,0 2.5001,1.119399 2.5001,2.500106 0,1.380709 -1.11939,2.500106 -2.5001,2.500106 -1.38069,0 -2.50009,-1.119397 -2.50009,-2.500106 0,-1.380707 1.1194,-2.500106 2.50009,-2.500106 z m 9.99988,0 c 1.3807,0 2.50009,1.119399 2.50009,2.500106 0,1.380709 -1.11939,2.500106 -2.50009,2.500106 -1.3807,0 -2.50011,-1.119397 -2.50011,-2.500106 0,-1.380707 1.11941,-2.500106 2.50011,-2.500106 z m -69.999619,9.999907 c 1.380698,0 2.500097,1.119397 2.500097,2.500106 0,1.380708 -1.119399,2.500106 -2.500097,2.500105 -1.380697,0 -2.500097,-1.119398 -2.500097,-2.500105 0,-1.380709 1.1194,-2.500106 2.500097,-2.500106 z m 9.999872,0 c 1.380697,0 2.500096,1.119397 2.500096,2.500106 0,1.380708 -1.119399,2.500106 -2.500096,2.500105 -1.380699,0 -2.500097,-1.119398 -2.500097,-2.500105 0,-1.380709 1.119398,-2.500106 2.500097,-2.500106 z m 9.99987,0 c 1.380703,0 2.500097,1.119397 2.500097,2.500106 0,1.380708 -1.119394,2.500106 -2.500097,2.500105 -1.380693,0 -2.500097,-1.119398 -2.500097,-2.500105 0,-1.380709 1.119404,-2.500106 2.500097,-2.500106 z m 9.999871,0 c 1.380703,0 2.500097,1.119397 2.500097,2.500106 0,1.380708 -1.119394,2.500106 -2.500097,2.500105 -1.380691,0 -2.49958,-1.119398 -2.49958,-2.500105 0,-1.380709 1.118889,-2.500106 2.49958,-2.500106 z m 10.000388,0 c 1.380698,0 2.499578,1.119397 2.499578,2.500106 0,1.380708 -1.11888,2.500106 -2.499578,2.500105 -1.380699,0 -2.500097,-1.119398 -2.500097,-2.500105 0,-1.380709 1.119398,-2.500106 2.500097,-2.500106 z m 9.999878,0 c 1.38068,0 2.50009,1.119397 2.50009,2.500106 0,1.380708 -1.11941,2.500106 -2.50009,2.500105 -1.38071,0 -2.5001,-1.119398 -2.5001,-2.500105 0,-1.380709 1.11939,-2.500106 2.5001,-2.500106 z m 9.99986,0 c 1.38071,0 2.5001,1.119397 2.5001,2.500106 0,1.380708 -1.11939,2.500106 -2.5001,2.500105 -1.38069,0 -2.50009,-1.119398 -2.50009,-2.500105 0,-1.380709 1.1194,-2.500106 2.50009,-2.500106 z m 9.99988,0 c 1.3807,0 2.50009,1.119397 2.50009,2.500106 0,1.380708 -1.11939,2.500106 -2.50009,2.500105 -1.3807,0 -2.50011,-1.119398 -2.50011,-2.500105 0,-1.380709 1.11941,-2.500106 2.50011,-2.500106 z m -69.999619,9.999906 c 1.380698,0 2.500097,1.119398 2.500097,2.500106 0,1.3807087 -1.119399,2.5001057 -2.500097,2.5001057 -1.380697,0 -2.500097,-1.119397 -2.500097,-2.5001057 0,-1.380708 1.1194,-2.500105 2.500097,-2.500106 z m 9.999872,0 c 1.380697,0 2.500096,1.119398 2.500096,2.500106 0,1.3807087 -1.119399,2.5001057 -2.500096,2.5001057 -1.380699,0 -2.500097,-1.119397 -2.500097,-2.5001057 0,-1.380708 1.119398,-2.500105 2.500097,-2.500106 z m 9.99987,0 c 1.380703,0 2.500097,1.119398 2.500097,2.500106 0,1.3807087 -1.119394,2.5001057 -2.500097,2.5001057 -1.380693,0 -2.500097,-1.119397 -2.500097,-2.5001057 0,-1.380708 1.119404,-2.500105 2.500097,-2.500106 z m 9.999871,0 c 1.380703,0 2.500097,1.119398 2.500097,2.500106 0,1.3807087 -1.119394,2.5001057 -2.500097,2.5001057 -1.380691,0 -2.49958,-1.119397 -2.49958,-2.5001057 0,-1.380708 1.118889,-2.500105 2.49958,-2.500106 z m 10.000388,0 c 1.380698,0 2.499578,1.119398 2.499578,2.500106 0,1.3807087 -1.11888,2.5001057 -2.499578,2.5001057 -1.380699,0 -2.500097,-1.119397 -2.500097,-2.5001057 0,-1.380708 1.119398,-2.500105 2.500097,-2.500106 z m 9.999878,0 c 1.38068,0 2.50009,1.119398 2.50009,2.500106 0,1.3807087 -1.11941,2.5001057 -2.50009,2.5001057 -1.38071,0 -2.5001,-1.119397 -2.5001,-2.5001057 0,-1.380708 1.11939,-2.500105 2.5001,-2.500106 z m 9.99986,0 c 1.38071,0 2.5001,1.119398 2.5001,2.500106 0,1.3807087 -1.11939,2.5001057 -2.5001,2.5001057 -1.38069,0 -2.50009,-1.119397 -2.50009,-2.5001057 0,-1.380708 1.1194,-2.500105 2.50009,-2.500106 z m 9.99988,0 c 1.3807,0 2.50009,1.119398 2.50009,2.500106 0,1.3807087 -1.11939,2.5001057 -2.50009,2.5001057 -1.3807,0 -2.50011,-1.119397 -2.50011,-2.5001057 0,-1.380708 1.11941,-2.500105 2.50011,-2.500106 z M 59.635291,-3.6167923 c 1.380698,0 2.500097,1.118882 2.500097,2.499589 0,1.38070801 -1.119399,2.500106 -2.500097,2.500106 -1.380697,0 -2.500097,-1.11939799 -2.500097,-2.500106 0,-1.380707 1.1194,-2.499589 2.500097,-2.499589 z m 9.999872,0 c 1.380697,0 2.500096,1.118882 2.500096,2.499589 0,1.38070801 -1.119399,2.500106 -2.500096,2.500106 -1.380699,0 -2.500097,-1.11939799 -2.500097,-2.500106 0,-1.380707 1.119398,-2.499589 2.500097,-2.499589 z m 9.99987,0 c 1.380703,0 2.500097,1.118882 2.500097,2.499589 0,1.38070801 -1.119394,2.500106 -2.500097,2.500106 -1.380693,0 -2.500097,-1.11939799 -2.500097,-2.500106 0,-1.380707 1.119404,-2.499589 2.500097,-2.499589 z m 9.999871,0 c 1.380703,0 2.500097,1.118882 2.500097,2.499589 0,1.38070801 -1.119394,2.500106 -2.500097,2.500106 -1.380691,0 -2.49958,-1.11939799 -2.49958,-2.500106 0,-1.380707 1.118889,-2.499589 2.49958,-2.499589 z m 10.000388,0 c 1.380698,0 2.499578,1.118882 2.499578,2.499589 0,1.38070801 -1.11888,2.500106 -2.499578,2.500106 -1.380699,0 -2.500097,-1.11939799 -2.500097,-2.500106 0,-1.380707 1.119398,-2.499589 2.500097,-2.499589 z m 9.999878,0 c 1.38068,0 2.50009,1.118882 2.50009,2.499589 0,1.38070801 -1.11941,2.500106 -2.50009,2.500106 -1.38071,0 -2.5001,-1.11939799 -2.5001,-2.500106 0,-1.380707 1.11939,-2.499589 2.5001,-2.499589 z m 9.99986,0 c 1.38071,0 2.5001,1.118882 2.5001,2.499589 0,1.38070801 -1.11939,2.500106 -2.5001,2.500106 -1.38069,0 -2.50009,-1.11939799 -2.50009,-2.500106 0,-1.380707 1.1194,-2.499589 2.50009,-2.499589 z m 9.99988,0 c 1.3807,0 2.50009,1.118882 2.50009,2.499589 0,1.38070801 -1.11939,2.500106 -2.50009,2.500106 -1.3807,0 -2.50011,-1.11939799 -2.50011,-2.500106 0,-1.380707 1.11941,-2.499589 2.50011,-2.499589 z m -70.000136,9.99939 c 1.380698,0 2.500097,1.119397 2.500097,2.500106 0,1.3807073 -1.119399,2.5001063 -2.500097,2.5001063 -1.380697,0 -2.500096,-1.119399 -2.500096,-2.5001063 0,-1.380709 1.119399,-2.500106 2.500096,-2.500106 z m 9.999872,0 c 1.380697,0 2.500097,1.119397 2.500097,2.500106 0,1.3807073 -1.1194,2.5001063 -2.500097,2.5001063 -1.380699,0 -2.49958,-1.119399 -2.49958,-2.5001063 0,-1.380709 1.118881,-2.500106 2.49958,-2.500106 z m 10.000387,0 c 1.380703,0 2.49958,1.119397 2.49958,2.500106 0,1.3807073 -1.118877,2.5001063 -2.49958,2.5001063 -1.380693,0 -2.500097,-1.119399 -2.500097,-2.5001063 0,-1.380709 1.119404,-2.500106 2.500097,-2.500106 z m 9.999871,0 c 1.380703,0 2.500097,1.119397 2.500097,2.500106 0,1.3807073 -1.119394,2.5001063 -2.500097,2.5001063 -1.380691,0 -2.500096,-1.119399 -2.500096,-2.5001063 0,-1.380709 1.119405,-2.500106 2.500096,-2.500106 z m 10.000388,5.17e-4 c 1.380708,0 2.499578,1.119397 2.499578,2.500106 0,1.3807063 -1.11887,2.4995893 -2.499578,2.4995893 -1.380699,0 -2.500097,-1.118883 -2.500097,-2.4995893 0,-1.380709 1.119398,-2.500106 2.500097,-2.500106 z m 9.999878,0 c 1.38068,0 2.50009,1.119397 2.50009,2.500106 0,1.3807063 -1.11941,2.4995893 -2.50009,2.4995893 -1.3807,0 -2.5001,-1.118883 -2.5001,-2.4995893 0,-1.380709 1.1194,-2.500106 2.5001,-2.500106 z m 9.99986,0 c 1.38071,0 2.5001,1.119397 2.5001,2.500106 0,1.3807063 -1.11939,2.4995893 -2.5001,2.4995893 -1.38069,0 -2.50009,-1.118883 -2.50009,-2.4995893 0,-1.380709 1.1194,-2.500106 2.50009,-2.500106 z m 9.99988,0 c 1.3807,0 2.50009,1.119397 2.50009,2.500106 0,1.3807063 -1.11939,2.4995893 -2.50009,2.4995893 -1.3807,0 -2.50011,-1.118883 -2.50011,-2.4995893 0,-1.380709 1.11941,-2.500106 2.50011,-2.500106 z M 59.634774,16.382504 c 1.380698,0 2.500097,1.119399 2.500097,2.500106 0,1.38071 -1.119399,2.500107 -2.500097,2.500106 -1.380697,0 -2.500096,-1.119397 -2.500096,-2.500106 0,-1.380707 1.119399,-2.500106 2.500096,-2.500106 z m 9.999872,0 c 1.380697,0 2.500097,1.119399 2.500097,2.500106 0,1.38071 -1.1194,2.500107 -2.500097,2.500106 -1.380699,0 -2.49958,-1.119397 -2.49958,-2.500106 0,-1.380707 1.118881,-2.500106 2.49958,-2.500106 z m 10.000387,0 c 1.380703,0 2.49958,1.119399 2.49958,2.500106 0,1.38071 -1.118877,2.500107 -2.49958,2.500106 -1.380693,0 -2.500097,-1.119397 -2.500097,-2.500106 0,-1.380707 1.119404,-2.500106 2.500097,-2.500106 z m 9.999871,0 c 1.380703,0 2.500097,1.119399 2.500097,2.500106 0,1.38071 -1.119394,2.500107 -2.500097,2.500106 -1.380691,0 -2.500096,-1.119397 -2.500096,-2.500106 0,-1.380707 1.119405,-2.500106 2.500096,-2.500106 z m 10.000388,5.17e-4 c 1.380708,0 2.499578,1.119397 2.499578,2.500106 0,1.380709 -1.11887,2.500106 -2.499578,2.500106 -1.380699,0 -2.500097,-1.119397 -2.500097,-2.500106 0,-1.380709 1.119398,-2.500106 2.500097,-2.500106 z m 29.999618,0 c 1.3807,0 2.50009,1.119397 2.50009,2.500106 0,1.380709 -1.11939,2.500106 -2.50009,2.500106 -1.3807,0 -2.50011,-1.119397 -2.50011,-2.500106 0,-1.380709 1.11941,-2.500106 2.50011,-2.500106 z m -15.00007,2.500106 c 2.76145,0 5.00019,2.238246 5.00019,4.999695 0,2.761448 -2.23874,5.000211 -5.00019,5.000211 -2.76144,0 -4.99967,-2.238763 -4.99967,-5.000211 0,-2.761449 2.23823,-4.999695 4.99967,-4.999695 z m -55.000066,7.499801 c 1.380698,0 2.500097,1.118881 2.500097,2.499589 0,1.380708 -1.119399,2.500105 -2.500097,2.500105 -1.380697,0 -2.500096,-1.119397 -2.500096,-2.500105 0,-1.380708 1.119399,-2.499588 2.500096,-2.499589 z m 9.999872,0 c 1.380697,0 2.500097,1.118881 2.500097,2.499589 0,1.380708 -1.1194,2.500105 -2.500097,2.500105 -1.380699,0 -2.49958,-1.119397 -2.49958,-2.500105 0,-1.380708 1.118881,-2.499588 2.49958,-2.499589 z m 10.000387,0 c 1.380703,0 2.49958,1.118881 2.49958,2.499589 0,1.380708 -1.118877,2.500105 -2.49958,2.500105 -1.380693,0 -2.500097,-1.119397 -2.500097,-2.500105 0,-1.380708 1.119404,-2.499588 2.500097,-2.499589 z m 9.999871,0 c 1.380703,0 2.500097,1.118881 2.500097,2.499589 0,1.380708 -1.119394,2.500105 -2.500097,2.500105 -1.380691,0 -2.500096,-1.119397 -2.500096,-2.500105 0,-1.380708 1.119405,-2.499588 2.500096,-2.499589 z m 10.000388,0 c 1.380708,0 2.499578,1.119399 2.499578,2.500105 0,1.380709 -1.11887,2.500106 -2.499578,2.500106 -1.380699,0 -2.500097,-1.119397 -2.500097,-2.500106 0,-1.380706 1.119398,-2.500105 2.500097,-2.500105 z m 29.999618,0 c 1.3807,0 2.50009,1.119399 2.50009,2.500105 0,1.380709 -1.11939,2.500106 -2.50009,2.500106 -1.3807,0 -2.50011,-1.119397 -2.50011,-2.500106 0,-1.380706 1.11941,-2.500105 2.50011,-2.500105 z m -70.000136,9.999906 c 1.380698,0 2.500097,1.11888 2.500097,2.499589 0,1.380707 -1.119399,2.500106 -2.500097,2.500106 -1.380697,0 -2.500096,-1.119399 -2.500096,-2.500106 0,-1.380709 1.119399,-2.499589 2.500096,-2.499589 z m 9.999872,0 c 1.380697,0 2.500097,1.11888 2.500097,2.499589 0,1.380707 -1.1194,2.500106 -2.500097,2.500106 -1.380699,0 -2.49958,-1.119399 -2.49958,-2.500106 0,-1.380709 1.118881,-2.499589 2.49958,-2.499589 z m 10.000387,0 c 1.380703,0 2.49958,1.11888 2.49958,2.499589 0,1.380707 -1.118877,2.500106 -2.49958,2.500106 -1.380693,0 -2.500097,-1.119399 -2.500097,-2.500106 0,-1.380709 1.119404,-2.499589 2.500097,-2.499589 z m 9.999871,0 c 1.380703,0 2.500097,1.11888 2.500097,2.499589 0,1.380707 -1.119394,2.500106 -2.500097,2.500106 -1.380691,0 -2.500096,-1.119399 -2.500096,-2.500106 0,-1.380709 1.119405,-2.499589 2.500096,-2.499589 z m 10.000388,0 c 1.380708,0 2.499578,1.119397 2.499578,2.500106 0,1.380707 -1.11887,2.500105 -2.499578,2.500105 -1.380699,0 -2.500097,-1.119398 -2.500097,-2.500105 0,-1.380709 1.119398,-2.500106 2.500097,-2.500106 z m 9.999878,0 c 1.38068,0 2.50009,1.119397 2.50009,2.500106 0,1.380707 -1.11941,2.500105 -2.50009,2.500105 -1.3807,0 -2.5001,-1.119398 -2.5001,-2.500105 0,-1.380709 1.1194,-2.500106 2.5001,-2.500106 z m 9.99986,0 c 1.38071,0 2.5001,1.119397 2.5001,2.500106 0,1.380707 -1.11939,2.500105 -2.5001,2.500105 -1.38069,0 -2.50009,-1.119398 -2.50009,-2.500105 0,-1.380709 1.1194,-2.500106 2.50009,-2.500106 z m 9.99988,0 c 1.3807,0 2.50009,1.119397 2.50009,2.500106 0,1.380707 -1.11939,2.500105 -2.50009,2.500105 -1.3807,0 -2.50011,-1.119398 -2.50011,-2.500105 0,-1.380709 1.11941,-2.500106 2.50011,-2.500106 z"
       sodipodi:nodetypes="cccccccccsssssssssssssssssssssssssssssssssssssssssssssssssssssssssssssssssssssssssssssssssssssssssssssssssssssssssssssssssssssssssssssssssssssssssssssssssssssssssssssssssssssssssssssssssssssssssssssssssssssssssssssssssssssssssssssssssssssssssssssssssssssssssssssssssssssssssssssssssssssssssssssssssssssssssssssssss" /></g></svg>
