<?xml version="1.0" encoding="UTF-8" standalone="no"?>
<!-- Created with Inkscape (http://www.inkscape.org/) -->

<svg
   width="40mm"
   height="74mm"
   viewBox="0 0 40 74"
   version="1.1"
   id="svg1"
   inkscape:version="1.3 (0e150ed6c4, 2023-07-21)"
   sodipodi:docname="tensioning-rod--holder--m8.svg"
   xml:space="preserve"
   xmlns:inkscape="http://www.inkscape.org/namespaces/inkscape"
   xmlns:sodipodi="http://sodipodi.sourceforge.net/DTD/sodipodi-0.dtd"
   xmlns="http://www.w3.org/2000/svg"
   xmlns:svg="http://www.w3.org/2000/svg"><sodipodi:namedview
     id="namedview1"
     pagecolor="#ffffff"
     bordercolor="#000000"
     borderopacity="0.25"
     inkscape:showpageshadow="2"
     inkscape:pageopacity="0.0"
     inkscape:pagecheckerboard="0"
     inkscape:deskcolor="#d1d1d1"
     inkscape:document-units="mm"
     showgrid="true"
     inkscape:zoom="2.2805836"
     inkscape:cx="65.772638"
     inkscape:cy="105.23622"
     inkscape:window-width="2496"
     inkscape:window-height="1558"
     inkscape:window-x="-11"
     inkscape:window-y="-11"
     inkscape:window-maximized="1"
     inkscape:current-layer="svg1"
     showguides="true"><inkscape:grid
       id="grid5"
       units="mm"
       originx="0"
       originy="-1.1293907e-05"
       spacingx="0.99999997"
       spacingy="0.99999997"
       empcolor="#0099e5"
       empopacity="0.30196078"
       color="#0099e5"
       opacity="0.14902"
       empspacing="10"
       dotted="false"
       gridanglex="30"
       gridanglez="30"
       visible="true" /></sodipodi:namedview><defs
     id="defs1"><inkscape:path-effect
       effect="fillet_chamfer"
       id="path-effect6"
       is_visible="true"
       lpeversion="1"
       nodesatellites_param="F,0,0,1,0,1,0,1 @ F,0,0,1,0,1,0,1 @ F,0,0,1,0,122.86441,0,1 @ F,0,0,1,0,1,0,1 @ F,0,0,1,0,1,0,1 @ F,0,0,1,0,1,0,1 @ F,0,0,1,0,1,0,1 @ F,0,0,1,0,1,0,1 @ F,0,0,1,0,1,0,1 @ F,0,0,1,0,1,0,1 @ F,0,0,1,0,1,0,1 @ F,0,0,1,0,1,0,1 @ F,0,0,1,0,1,0,1 @ F,0,0,1,0,1,0,1 | F,0,0,1,0,1,0,1 @ F,0,0,1,0,1,0,1 @ F,0,0,1,0,1,0,1 @ F,0,0,1,0,1,0,1 @ F,0,0,1,0,1,0,1 @ F,0,0,1,0,1,0,1 @ F,0,0,1,0,1,0,1 @ F,0,0,1,0,1,0,1 @ F,0,0,1,0,1,0,1"
       radius="0"
       unit="mm"
       method="auto"
       mode="F"
       chamfer_steps="1"
       flexible="false"
       use_knot_distance="true"
       apply_no_radius="true"
       apply_with_radius="true"
       only_selected="false"
       hide_knots="false" /><inkscape:path-effect
       effect="mirror_symmetry"
       start_point="987.31329,4.3463149"
       end_point="987.31329,3616.6899"
       center_point="987.31329,1810.5181"
       id="path-effect5"
       is_visible="true"
       lpeversion="1.2"
       lpesatellites=""
       mode="free"
       discard_orig_path="false"
       fuse_paths="false"
       oposite_fuse="false"
       split_items="false"
       split_open="false"
       link_styles="false" /><inkscape:path-effect
       effect="fillet_chamfer"
       id="path-effect4"
       is_visible="true"
       lpeversion="1"
       nodesatellites_param="F,0,0,1,0,1,0,1 @ F,0,0,1,0,1,0,1 @ F,0,0,1,0,122.86441,0,1 @ F,0,0,1,0,1,0,1 @ F,0,0,1,0,1,0,1 @ F,0,0,1,0,1,0,1 @ F,0,0,1,0,1,0,1 @ F,0,0,1,0,1,0,1 @ F,0,0,1,0,1,0,1 @ F,0,0,1,0,1,0,1 @ F,0,0,1,0,1,0,1 @ F,0,0,1,0,1,0,1 @ F,0,0,1,0,1,0,1 @ F,0,0,1,0,1,0,1 | F,0,0,1,0,1,0,1 @ F,0,0,1,0,1,0,1 @ F,0,0,1,0,1,0,1 @ F,0,0,1,0,1,0,1 @ F,0,0,1,0,1,0,1 @ F,0,0,1,0,1,0,1 @ F,0,0,1,0,1,0,1 @ F,0,0,1,0,1,0,1 @ F,0,0,1,0,1,0,1"
       radius="0"
       unit="mm"
       method="auto"
       mode="F"
       chamfer_steps="1"
       flexible="false"
       use_knot_distance="true"
       apply_no_radius="true"
       apply_with_radius="true"
       only_selected="false"
       hide_knots="false" /><inkscape:path-effect
       effect="copy_rotate"
       starting_point="22.499999,277"
       origin="19.999999,277"
       id="path-effect3"
       is_visible="true"
       lpeversion="1.2"
       lpesatellites=""
       method="normal"
       num_copies="4"
       starting_angle="0"
       rotation_angle="90"
       gap="-0.01"
       copies_to_360="true"
       mirror_copies="false"
       split_items="false"
       link_styles="false" /><inkscape:path-effect
       effect="copy_rotate"
       starting_point="22.499999,277"
       origin="19.999999,277"
       id="path-effect1"
       is_visible="true"
       lpeversion="1.2"
       lpesatellites=""
       method="normal"
       num_copies="4"
       starting_angle="0"
       rotation_angle="90"
       gap="-0.01"
       copies_to_360="true"
       mirror_copies="false"
       split_items="false"
       link_styles="false" /><inkscape:path-effect
       effect="copy_rotate"
       starting_point="22.499999,277"
       origin="19.999999,277"
       id="path-effect1-8"
       is_visible="true"
       lpeversion="1.2"
       lpesatellites=""
       method="normal"
       num_copies="4"
       starting_angle="0"
       rotation_angle="90"
       gap="-0.01"
       copies_to_360="true"
       mirror_copies="false"
       split_items="false"
       link_styles="false" /><inkscape:path-effect
       effect="copy_rotate"
       starting_point="22.499999,277"
       origin="19.999999,277"
       id="path-effect3-0"
       is_visible="true"
       lpeversion="1.2"
       lpesatellites=""
       method="normal"
       num_copies="4"
       starting_angle="0"
       rotation_angle="90"
       gap="-0.01"
       copies_to_360="true"
       mirror_copies="false"
       split_items="false"
       link_styles="false" /><style
       type="text/css"
       id="style1">&#10;   <![CDATA[
    .str0 {stroke:#373435;stroke-width:8.67;stroke-miterlimit:2.61313}
    .fil1 {fill:none}
    .fil0 {fill:#6B809B}
   ]]>&#10;  </style><inkscape:path-effect
       effect="fillet_chamfer"
       id="path-effect4-4"
       is_visible="true"
       lpeversion="1"
       nodesatellites_param="F,0,0,1,0,1,0,1 @ F,0,0,1,0,1,0,1 @ F,0,0,1,0,122.86441,0,1 @ F,0,0,1,0,1,0,1 @ F,0,0,1,0,1,0,1 @ F,0,0,1,0,1,0,1 @ F,0,0,1,0,1,0,1 @ F,0,0,1,0,1,0,1 @ F,0,0,1,0,1,0,1 @ F,0,0,1,0,1,0,1 @ F,0,0,1,0,1,0,1 @ F,0,0,1,0,1,0,1 @ F,0,0,1,0,1,0,1 @ F,0,0,1,0,1,0,1 | F,0,0,1,0,1,0,1 @ F,0,0,1,0,1,0,1 @ F,0,0,1,0,1,0,1 @ F,0,0,1,0,1,0,1 @ F,0,0,1,0,1,0,1 @ F,0,0,1,0,1,0,1 @ F,0,0,1,0,1,0,1 @ F,0,0,1,0,1,0,1 @ F,0,0,1,0,1,0,1"
       radius="0"
       unit="mm"
       method="auto"
       mode="F"
       chamfer_steps="1"
       flexible="false"
       use_knot_distance="true"
       apply_no_radius="true"
       apply_with_radius="true"
       only_selected="false"
       hide_knots="false" /><inkscape:path-effect
       effect="mirror_symmetry"
       start_point="987.31329,4.3463038"
       end_point="987.31329,3616.6899"
       center_point="987.31329,1810.5181"
       id="path-effect5-7"
       is_visible="true"
       lpeversion="1.2"
       lpesatellites=""
       mode="free"
       discard_orig_path="false"
       fuse_paths="false"
       oposite_fuse="false"
       split_items="false"
       split_open="false"
       link_styles="false" /></defs><path
     id="path1"
     style="clip-rule:evenodd;vector-effect:non-scaling-stroke;fill:#808080;fill-rule:evenodd;stroke:#000000;stroke-width:0.264581;stroke-dasharray:none;-inkscape-stroke:hairline;image-rendering:optimizeQuality;shape-rendering:geometricPrecision;text-rendering:geometricPrecision"
     class="fil0"
     inkscape:label="tensioning-rod--holder"
     d="m -0.0201462,37.249997 c -5.5065457,0.01097 -9.9688822,4.472456 -9.9798499,9.979249 -2.19e-5,0.01124 0,0.02959 0,0.04082 v 35.979761 c 1.096e-4,1.380833 -1.1193099,2.500242 -2.5001299,2.500109 h -7.47972 c -0.01108,1.11e-4 -0.02005,0.0091 -0.02015,0.02016 v 22.459124 c 0,0.0112 0.0089,0.0206 0.02015,0.0207 1.364578,0.0109 2.469098,1.11485 2.479976,2.47944 8.9e-5,0.0112 0.0089,0.0207 0.02015,0.0207 h 14.9589224 c 0.01124,0 0.02058,-0.009 0.02067,-0.0207 0.01019,-1.27831 0.9795176,-2.32788 2.22417571,-2.46446 0.0111701,-0.001 0.0296403,-0.003 0.0408204,-0.004 0.0708207,-0.007 0.14204138,-0.0103 0.21445909,-0.0108 0.01124011,-8e-5 0.0203901973,0 0.02067020002,0 2.8500278e-4,0 0.00940008998,-8e-5 0.02067019998,0 0.07242071,5.8e-4 0.14415441,0.004 0.2149761,0.0108 0.0111901,0.001 0.0291403,0.003 0.0403104,0.004 1.2446591,0.13658 2.2144996,1.18615 2.2246917,2.46446 8.9e-5,0.0112 0.0089,0.0207 0.02015,0.0207 H 17.479723 c 0.01124,0 0.02006,-0.009 0.02015,-0.0207 0.01088,-1.36459 1.115397,-2.46856 2.479976,-2.47944 0.01124,-9e-5 0.02015,-0.009 0.02015,-0.0207 V 85.770094 c -1.07e-4,-0.01108 -0.0091,-0.02004 -0.02015,-0.02015 h -7.47972 c -1.38062,-1.52e-4 -2.499723,-1.119478 -2.499613,-2.500109 V 47.27007 c 0,-0.01124 2.2e-5,-0.02959 0,-0.04082 C 9.9895464,41.722458 5.5266959,37.260967 0.0201502,37.250001 0.00891009,37.249979 0,37.258921 0,37.270155 c 0,-0.01124 -0.00890009,-0.02018 -0.0201502,-0.02015 z M 4.000039e-6,42.229028 c 0,0.01124 0.00890008996,0.02063 0.020150199961,0.02067 2.7338087,0.01104 4.9690654,2.245513 4.9801056,4.979547 4.5e-5,0.01124 0,0.02959 0,0.04082 v 4.959393 c 0,0.01124 4.5e-5,0.0296 0,0.04082 -0.01104,2.73383 -2.2460959,4.96851 -4.9801056,4.979547 -0.01124011,4.5e-5 -0.020150199961,0.0089 -0.020150199961,0.02015 0,-0.01124 -0.00890009004,-0.02011 -0.020150200039,-0.02015 -2.7340107,-0.01104 -4.9685504,-2.245717 -4.9795895,-4.979547 -4.5e-5,-0.01124 0,-0.0296 0,-0.04082 v -4.959393 c 0,-0.01124 -4.5e-5,-0.02959 0,-0.04082 0.01104,-2.734034 2.2457798,-4.968508 4.9795895,-4.979547 0.01124011,-4.6e-5 0.020150200039,-0.0094 0.020150200039,-0.02067 z M -9.9999961,93.249751 H 10.000529 c 1.385012,0 2.50013,1.115108 2.50013,2.500108 0,1.385001 -1.115118,2.500109 -2.50013,2.500109 H -9.9999961 c -1.3850119,0 -2.5001299,-1.115108 -2.5001299,-2.500109 0,-1.385 1.115118,-2.500108 2.5001299,-2.500108 z" /></svg>
