<?xml version="1.0" encoding="UTF-8" standalone="no"?>
<!-- Creator: CorelDRAW -->

<svg
   xml:space="preserve"
   width="30mm"
   height="30mm"
   version="1.1"
   style="clip-rule:evenodd;fill-rule:evenodd;image-rendering:optimizeQuality;shape-rendering:geometricPrecision;text-rendering:geometricPrecision"
   viewBox="0 0 30 30"
   id="svg10"
   sodipodi:docname="tensioning-rod--guide--m8--top.svg"
   inkscape:version="1.3 (0e150ed6c4, 2023-07-21)"
   xmlns:inkscape="http://www.inkscape.org/namespaces/inkscape"
   xmlns:sodipodi="http://sodipodi.sourceforge.net/DTD/sodipodi-0.dtd"
   xmlns="http://www.w3.org/2000/svg"
   xmlns:svg="http://www.w3.org/2000/svg"><sodipodi:namedview
   id="namedview10"
   pagecolor="#ffffff"
   bordercolor="#000000"
   borderopacity="0.25"
   inkscape:showpageshadow="2"
   inkscape:pageopacity="0.0"
   inkscape:pagecheckerboard="0"
   inkscape:deskcolor="#d1d1d1"
   inkscape:document-units="mm"
   inkscape:zoom="5.6444444"
   inkscape:cx="7.6181103"
   inkscape:cy="35.255906"
   inkscape:window-width="2496"
   inkscape:window-height="1558"
   inkscape:window-x="-11"
   inkscape:window-y="-11"
   inkscape:window-maximized="1"
   inkscape:current-layer="layer2"
   showgrid="true"
   borderlayer="true"><sodipodi:guide
     position="0,30"
     orientation="0,113.38583"
     id="guide1"
     inkscape:locked="false" /><sodipodi:guide
     position="30,30"
     orientation="113.38583,0"
     id="guide2"
     inkscape:locked="false" /><sodipodi:guide
     position="30,0"
     orientation="0,-113.38583"
     id="guide3"
     inkscape:locked="false" /><sodipodi:guide
     position="0,0"
     orientation="-113.38583,0"
     id="guide4"
     inkscape:locked="false" /><inkscape:grid
     id="grid4"
     units="mm"
     originx="0"
     originy="0"
     spacingx="1"
     spacingy="1"
     empcolor="#0099e5"
     empopacity="0.30196078"
     color="#0099e5"
     opacity="0.14902"
     empspacing="10"
     dotted="false"
     gridanglex="30"
     gridanglez="30"
     visible="true" /></sodipodi:namedview>&#10; <defs
   id="defs1"><inkscape:path-effect
   effect="copy_rotate"
   starting_point="17,15"
   origin="15,15"
   id="path-effect2"
   is_visible="true"
   lpeversion="1.2"
   lpesatellites=""
   method="normal"
   num_copies="8"
   starting_angle="0"
   rotation_angle="45"
   gap="-0.01"
   copies_to_360="true"
   mirror_copies="false"
   split_items="false"
   link_styles="false" /><inkscape:path-effect
   effect="copy_rotate"
   starting_point="17,15"
   origin="15,15"
   id="path-effect6"
   is_visible="true"
   lpeversion="1.2"
   lpesatellites=""
   method="normal"
   num_copies="8"
   starting_angle="0"
   rotation_angle="45"
   gap="-0.01"
   copies_to_360="true"
   mirror_copies="false"
   split_items="false"
   link_styles="false" /><inkscape:path-effect
   effect="copy_rotate"
   starting_point="0,0"
   origin="12,12"
   id="path-effect5"
   is_visible="true"
   lpeversion="1.2"
   lpesatellites=""
   method="normal"
   num_copies="8"
   starting_angle="0"
   rotation_angle="45"
   gap="1"
   copies_to_360="true"
   mirror_copies="false"
   split_items="false"
   link_styles="false" />&#10;  <style
   type="text/css"
   id="style1">&#10;   <![CDATA[
    .str0 {stroke:#373435;stroke-width:3.49;stroke-miterlimit:2.61313}
    .fil0 {fill:#6B809B}
   ]]>&#10;  </style>&#10; <inkscape:path-effect
   effect="copy_rotate"
   starting_point="17,15"
   origin="15,15"
   id="path-effect6-1"
   is_visible="true"
   lpeversion="1.2"
   lpesatellites=""
   method="normal"
   num_copies="8"
   starting_angle="0"
   rotation_angle="45"
   gap="-0.01"
   copies_to_360="true"
   mirror_copies="false"
   split_items="false"
   link_styles="false" /><inkscape:path-effect
   effect="copy_rotate"
   starting_point="17,15"
   origin="15,15"
   id="path-effect6-1-7"
   is_visible="true"
   lpeversion="1.2"
   lpesatellites=""
   method="normal"
   num_copies="8"
   starting_angle="0"
   rotation_angle="45"
   gap="-0.01"
   copies_to_360="true"
   mirror_copies="false"
   split_items="false"
   link_styles="false" /><inkscape:path-effect
   effect="copy_rotate"
   starting_point="17,15"
   origin="15,15"
   id="path-effect6-2"
   is_visible="true"
   lpeversion="1.2"
   lpesatellites=""
   method="normal"
   num_copies="8"
   starting_angle="0"
   rotation_angle="45"
   gap="-0.01"
   copies_to_360="true"
   mirror_copies="false"
   split_items="false"
   link_styles="false" /></defs>&#10; <g
   inkscape:groupmode="layer"
   id="layer2"
   inkscape:label="shape"><circle
     style="vector-effect:non-scaling-stroke;fill:#808080;fill-rule:evenodd;stroke-width:0.297656;stroke-linecap:round;stroke-linejoin:round;-inkscape-stroke:hairline;paint-order:stroke fill markers;stroke:#000000"
     id="path1"
     cx="0"
     cy="30"
     r="4.5" /><path
     style="vector-effect:non-scaling-stroke;fill:#808080;fill-rule:evenodd;stroke-width:0.264583;stroke-linecap:round;stroke-linejoin:round;-inkscape-stroke:hairline;paint-order:stroke fill markers;stroke:#000000"
     id="path2"
     inkscape:path-effect="#path-effect2"
     sodipodi:type="arc"
     sodipodi:cx="15"
     sodipodi:cy="7"
     sodipodi:rx="1.9999999"
     sodipodi:ry="1.9999999"
     d="m 17,7 c 0,1.1045694 -0.895431,1.9999999 -2,1.9999999 -1.104569,0 -2,-0.8954305 -2,-1.9999999 0,-1.1045694 0.895431,-1.9999999 2,-1.9999999 1.104569,0 2,0.8954305 2,1.9999999 z m -6.242641,0.9289323 c 0.781049,0.7810485 0.781049,2.0473784 0,2.8284267 -0.7810483,0.781049 -2.0473782,0.781049 -2.8284267,0 -0.7810486,-0.7810483 -0.7810486,-2.0473782 0,-2.8284267 0.7810485,-0.7810486 2.0473784,-0.7810486 2.8284267,0 z M 7,13 c 1.1045694,0 1.9999999,0.895431 1.9999999,2 0,1.104569 -0.8954305,2 -1.9999999,2 -1.1045694,0 -1.9999999,-0.895431 -1.9999999,-2 0,-1.104569 0.8954305,-2 1.9999999,-2 z m 0.9289323,6.242641 c 0.7810485,-0.781049 2.0473784,-0.781049 2.8284267,0 0.781049,0.781048 0.781049,2.047378 0,2.828427 -0.7810483,0.781048 -2.0473782,0.781048 -2.8284267,0 -0.7810486,-0.781049 -0.7810486,-2.047379 0,-2.828427 z M 13,23 c 0,-1.104569 0.895431,-2 2,-2 1.104569,0 2,0.895431 2,2 0,1.104569 -0.895431,2 -2,2 -1.104569,0 -2,-0.895431 -2,-2 z m 6.242641,-0.928932 c -0.781049,-0.781049 -0.781049,-2.047379 0,-2.828427 0.781048,-0.781049 2.047378,-0.781049 2.828427,0 0.781048,0.781048 0.781048,2.047378 0,2.828427 -0.781049,0.781048 -2.047379,0.781048 -2.828427,0 z M 23,17 c -1.104569,0 -2,-0.895431 -2,-2 0,-1.104569 0.895431,-2 2,-2 1.104569,0 2,0.895431 2,2 0,1.104569 -0.895431,2 -2,2 z m -0.928932,-6.242641 c -0.781049,0.781049 -2.047379,0.781049 -2.828427,0 -0.781049,-0.7810483 -0.781049,-2.0473782 0,-2.8284267 0.781048,-0.7810486 2.047378,-0.7810486 2.828427,0 0.781048,0.7810485 0.781048,2.0473784 0,2.8284267 z"
     transform="translate(-15,15)" /></g>&#10;</svg>
