<?xml version="1.0" encoding="UTF-8" standalone="no"?>
<!-- Created with Inkscape (http://www.inkscape.org/) -->

<svg
   width="40mm"
   height="40mm"
   viewBox="0 0 40 40"
   version="1.1"
   id="svg1"
   inkscape:version="1.3 (0e150ed6c4, 2023-07-21)"
   sodipodi:docname="case--hotend-holder.svg"
   xml:space="preserve"
   xmlns:inkscape="http://www.inkscape.org/namespaces/inkscape"
   xmlns:sodipodi="http://sodipodi.sourceforge.net/DTD/sodipodi-0.dtd"
   xmlns="http://www.w3.org/2000/svg"
   xmlns:svg="http://www.w3.org/2000/svg"><sodipodi:namedview
     id="namedview1"
     pagecolor="#ffffff"
     bordercolor="#000000"
     borderopacity="0.25"
     inkscape:showpageshadow="2"
     inkscape:pageopacity="0.0"
     inkscape:pagecheckerboard="0"
     inkscape:deskcolor="#d1d1d1"
     inkscape:document-units="mm"
     showgrid="true"
     inkscape:zoom="1.1402919"
     inkscape:cx="113.12893"
     inkscape:cy="148.20767"
     inkscape:window-width="2496"
     inkscape:window-height="1558"
     inkscape:window-x="-11"
     inkscape:window-y="-11"
     inkscape:window-maximized="1"
     inkscape:current-layer="svg1"
     showguides="true"><inkscape:grid
       id="grid1"
       units="mm"
       originx="0"
       originy="0"
       spacingx="0.99999997"
       spacingy="0.99999997"
       empcolor="#0099e5"
       empopacity="0.30196078"
       color="#0099e5"
       opacity="0.14902"
       empspacing="10"
       dotted="false"
       gridanglex="30"
       gridanglez="30"
       visible="true" /><sodipodi:guide
       position="27.50007,29.000125"
       orientation="0,1"
       id="guide1"
       inkscape:locked="false" /><sodipodi:guide
       position="-44.999997,52.999997"
       orientation="1,0"
       id="guide2"
       inkscape:locked="false" /><sodipodi:guide
       position="-24.999999,30.999998"
       orientation="1,0"
       id="guide3"
       inkscape:locked="false" /></sodipodi:namedview><defs
     id="defs1"><inkscape:path-effect
       effect="copy_rotate"
       starting_point="22.499999,277"
       origin="19.999999,277"
       id="path-effect3"
       is_visible="true"
       lpeversion="1.2"
       lpesatellites=""
       method="normal"
       num_copies="4"
       starting_angle="0"
       rotation_angle="90"
       gap="-0.01"
       copies_to_360="true"
       mirror_copies="false"
       split_items="false"
       link_styles="false" /><inkscape:path-effect
       effect="copy_rotate"
       starting_point="22.499999,277"
       origin="19.999999,277"
       id="path-effect1"
       is_visible="true"
       lpeversion="1.2"
       lpesatellites=""
       method="normal"
       num_copies="4"
       starting_angle="0"
       rotation_angle="90"
       gap="-0.01"
       copies_to_360="true"
       mirror_copies="false"
       split_items="false"
       link_styles="false" /><inkscape:path-effect
       effect="copy_rotate"
       starting_point="22.499999,277"
       origin="19.999999,277"
       id="path-effect1-8"
       is_visible="true"
       lpeversion="1.2"
       lpesatellites=""
       method="normal"
       num_copies="4"
       starting_angle="0"
       rotation_angle="90"
       gap="-0.01"
       copies_to_360="true"
       mirror_copies="false"
       split_items="false"
       link_styles="false" /><inkscape:path-effect
       effect="copy_rotate"
       starting_point="22.499999,277"
       origin="19.999999,277"
       id="path-effect3-0"
       is_visible="true"
       lpeversion="1.2"
       lpesatellites=""
       method="normal"
       num_copies="4"
       starting_angle="0"
       rotation_angle="90"
       gap="-0.01"
       copies_to_360="true"
       mirror_copies="false"
       split_items="false"
       link_styles="false" /><marker
       id="DistanceX"
       orient="auto"
       refX="0.0"
       refY="0.0"
       style="overflow:visible"><path
         d="M 3,-3 L -3,3 M 0,-5 L  0,5"
         style="stroke:#000000; stroke-width:0.5"
         id="path1" /></marker><pattern
       id="Hatch"
       patternUnits="userSpaceOnUse"
       width="8"
       height="8"
       x="0"
       y="0"><path
         d="M8 4 l-4,4"
         stroke="#000000"
         stroke-width="0.25"
         linecap="square"
         id="path2" /><path
         d="M6 2 l-4,4"
         stroke="#000000"
         stroke-width="0.25"
         linecap="square"
         id="path3" /><path
         d="M4 0 l-4,4"
         stroke="#000000"
         stroke-width="0.25"
         linecap="square"
         id="path4" /></pattern><symbol
       id="*Model_Space" /><symbol
       id="*Paper_Space" /></defs><style
     id="style1"><![CDATA[
polygon {
shape-rendering:crispEdges;
stroke-width:0.140000;
}
.s0 {
stroke:#000000;
stroke-width:0.082707;
stroke-linecap:round;
stroke-linejoin:round;
fill:none;
}
.s1 {
stroke:#000000;
stroke-width:0.082707;
stroke-linecap:round;
stroke-linejoin:round;
fill:none;
}
.s2 {
stroke:#19b219;
stroke-width:0.082707;
stroke-linecap:round;
stroke-linejoin:round;
fill:none;
}
.s3 {
stroke:#7f4c00;
stroke-width:0.082707;
stroke-linecap:round;
stroke-linejoin:round;
fill:none;
}
.s4 {
stroke:#00cc00;
stroke-width:0.082707;
stroke-linecap:round;
stroke-linejoin:round;
fill:none;
}
.s5 {
stroke:#000000;
stroke-width:0.055138;
stroke-linecap:round;
stroke-linejoin:round;
fill:none;
}
.s6 {
stroke:#ff19ff;
stroke-width:0.055138;
stroke-linecap:round;
stroke-linejoin:round;
fill:none;
}
.s7 {
stroke:#ff0000;
stroke-width:0.082707;
stroke-linecap:round;
stroke-linejoin:round;
fill:none;
}
.s8 {
stroke:#ffff00;
stroke-width:0.082707;
stroke-linecap:round;
stroke-linejoin:round;
fill:none;
}
.s9 {
stroke:#001919;
stroke-width:0.055138;
stroke-linecap:round;
stroke-linejoin:round;
fill:none;
}
.sa {
stroke:#006666;
stroke-width:0.055138;
stroke-linecap:round;
stroke-linejoin:round;
fill:none;
}
.sb {
stroke:#00ffff;
stroke-width:0.165413;
stroke-linecap:round;
stroke-linejoin:round;
fill:none;
}
.sc {
stroke:#ff0000;
stroke-width:0.441102;
stroke-linecap:round;
stroke-linejoin:round;
fill:none;
}
.sd {
stroke:#191919;
stroke-width:0.055138;
stroke-linecap:round;
stroke-linejoin:round;
fill:none;
}
.se {
stroke:#000000;
stroke-width:0.055138;
stroke-linecap:round;
stroke-linejoin:round;
stroke-dasharray:0.827,0.827;
fill:none;
}
.sf {
stroke:#000000;
stroke-width:0.165413;
stroke-linecap:round;
stroke-linejoin:round;
fill:none;
}
]]></style><path
     id="path1-8"
     style="vector-effect:non-scaling-stroke;fill:#808080;stroke:#000000;stroke-width:0.264583;stroke-linecap:round;stroke-linejoin:round;stroke-dasharray:none;-inkscape-stroke:hairline"
     class="s5"
     d="M -65,1.11262e-6 V 80.000001 h 62.500149 c -5.6e-5,-1.380597 1.1189996,-2.499886 2.49959249964,-2.500113 C 1.3805364,77.499829 2.499907,78.619202 2.499851,80.000001 H 65 V 1.11262e-6 H 2.499851 C 2.499624,1.3806011 1.3803364,2.4996564 -2.5850036e-4,2.4995974 -1.3806524,2.4993704 -2.499624,1.3803991 -2.499851,1.11262e-6 Z M -55.00008,6.7536137 c 1.792761,1.11e-4 3.245972,1.4535562 3.245802,3.2463231 -1.09e-4,1.7925692 -1.453238,3.2456952 -3.245802,3.2458062 -1.792764,1.72e-4 -3.246208,-1.453036 -3.246317,-3.2458062 -1.7e-4,-1.7929679 1.453356,-3.2464961 3.246317,-3.2463231 z m 110.000159,0 c 1.792758,1.14e-4 3.245971,1.4535582 3.245801,3.2463231 -1.09e-4,1.7925672 -1.45324,3.2456922 -3.245801,3.2458062 -1.792766,1.75e-4 -3.246209,-1.453035 -3.246318,-3.2458062 -1.7e-4,-1.7929689 1.453355,-3.2464981 3.246318,-3.2463231 z M -4.9999605,19.499643 h 9.99992 c 1.380795,-5.8e-5 2.5001656,1.119314 2.5001096,2.500113 7e-5,1.38081 -1.1193036,2.500171 -2.5001096,2.500113 h -9.99992 c -1.380806,5.9e-5 -2.5001796,-1.119303 -2.5001096,-2.500113 -5.6e-5,-1.3808 1.1193136,-2.500172 2.5001096,-2.500113 z M -17.49999,23.499927 c 4.142201,-1.75e-4 7.499976,3.357911 7.499811,7.500339 -2.49e-4,4.142133 -3.357904,7.499998 -7.499811,7.499823 -4.141908,1.75e-4 -7.500079,-3.35769 -7.500328,-7.499823 -1.66e-4,-4.142428 3.358126,-7.500514 7.500328,-7.500339 z m 12.5000295,14.00022 h 9.99992 c 1.380599,-5.8e-5 2.4998876,1.118993 2.5001096,2.499596 5.6e-5,1.380798 -1.1193146,2.500171 -2.5001096,2.500113 h -9.99992 c -1.380796,5.9e-5 -2.5001656,-1.119314 -2.5001096,-2.500113 2.22e-4,-1.380604 1.1195096,-2.499655 2.5001096,-2.499596 z M -55.00008,66.75426 c 1.792564,1.11e-4 3.245693,1.453237 3.245802,3.245806 -1.09e-4,1.792569 -1.453238,3.245696 -3.245802,3.245807 -1.792764,1.72e-4 -3.246208,-1.453038 -3.246317,-3.245807 1.09e-4,-1.79277 1.453553,-3.245978 3.246317,-3.245806 z m 110.000159,0 c 1.792561,1.14e-4 3.245692,1.453239 3.245801,3.245806 -1.09e-4,1.792567 -1.45324,3.245693 -3.245801,3.245807 -1.792767,1.75e-4 -3.246209,-1.453036 -3.246318,-3.245807 1.09e-4,-1.792772 1.453551,-3.245981 3.246318,-3.245806 z" /></svg>
