<?xml version="1.0" encoding="UTF-8" standalone="no"?>
<!-- Created with Inkscape (http://www.inkscape.org/) -->

<svg
   width="85.999924mm"
   height="85.999924mm"
   viewBox="0 0 85.999924 85.999924"
   version="1.1"
   id="svg1"
   inkscape:version="1.3 (0e150ed6c4, 2023-07-21)"
   sodipodi:docname="winder--spool--front.svg"
   xml:space="preserve"
   xmlns:inkscape="http://www.inkscape.org/namespaces/inkscape"
   xmlns:sodipodi="http://sodipodi.sourceforge.net/DTD/sodipodi-0.dtd"
   xmlns="http://www.w3.org/2000/svg"
   xmlns:svg="http://www.w3.org/2000/svg"><sodipodi:namedview
     id="namedview1"
     pagecolor="#ffffff"
     bordercolor="#000000"
     borderopacity="0.25"
     inkscape:showpageshadow="2"
     inkscape:pageopacity="0.0"
     inkscape:pagecheckerboard="0"
     inkscape:deskcolor="#d1d1d1"
     inkscape:document-units="mm"
     showgrid="true"
     inkscape:zoom="2.2805836"
     inkscape:cx="82.873524"
     inkscape:cy="72.349902"
     inkscape:window-width="2496"
     inkscape:window-height="1558"
     inkscape:window-x="-11"
     inkscape:window-y="-11"
     inkscape:window-maximized="1"
     inkscape:current-layer="svg1"
     showguides="true"><inkscape:grid
       id="grid1"
       units="mm"
       originx="75.589842"
       originy="75.590953"
       spacingx="0.99999998"
       spacingy="1"
       empcolor="#0099e5"
       empopacity="0.30196078"
       color="#0099e5"
       opacity="0.14901961"
       empspacing="10"
       dotted="false"
       gridanglex="30"
       gridanglez="30"
       visible="true" /><sodipodi:guide
       position="19.999813,43.00022"
       orientation="0,1"
       id="guide87"
       inkscape:locked="false" /><sodipodi:guide
       position="42.999813,66.000102"
       orientation="1,0"
       id="guide88"
       inkscape:locked="false" /></sodipodi:namedview><defs
     id="defs1"><inkscape:path-effect
       effect="copy_rotate"
       starting_point="24.499999,22.999888"
       origin="22.999999,22.999888"
       id="path-effect151"
       is_visible="true"
       lpeversion="1.2"
       lpesatellites=""
       method="normal"
       num_copies="4"
       starting_angle="0"
       rotation_angle="60"
       gap="-0.01"
       copies_to_360="true"
       mirror_copies="false"
       split_items="false"
       link_styles="false" /><inkscape:path-effect
       effect="offset"
       id="path-effect149"
       is_visible="true"
       lpeversion="1.2"
       linejoin_type="miter"
       unit="mm"
       offset="0.3"
       miter_limit="4"
       attempt_force_join="false"
       update_on_knot_move="true" /><inkscape:path-effect
       effect="copy_rotate"
       starting_point="24.499999,22.999888"
       origin="22.999999,22.999888"
       id="path-effect127"
       is_visible="true"
       lpeversion="1.2"
       lpesatellites=""
       method="normal"
       num_copies="4"
       starting_angle="0"
       rotation_angle="60"
       gap="-0.01"
       copies_to_360="true"
       mirror_copies="false"
       split_items="false"
       link_styles="false" /><inkscape:path-effect
       effect="offset"
       id="path-effect125"
       is_visible="true"
       lpeversion="1.2"
       linejoin_type="miter"
       unit="mm"
       offset="0.3"
       miter_limit="4"
       attempt_force_join="false"
       update_on_knot_move="true" /><inkscape:path-effect
       effect="copy_rotate"
       starting_point="24.499999,22.999888"
       origin="22.999999,22.999888"
       id="path-effect110"
       is_visible="true"
       lpeversion="1.2"
       lpesatellites=""
       method="normal"
       num_copies="4"
       starting_angle="0"
       rotation_angle="60"
       gap="-0.01"
       copies_to_360="true"
       mirror_copies="false"
       split_items="false"
       link_styles="false" /><inkscape:path-effect
       effect="copy_rotate"
       starting_point="39.294083,46.000005"
       origin="0,46.000005"
       id="path-effect29"
       is_visible="true"
       lpeversion="1.2"
       lpesatellites=""
       method="normal"
       num_copies="4"
       starting_angle="0"
       rotation_angle="90"
       gap="-0.01"
       copies_to_360="true"
       mirror_copies="false"
       split_items="false"
       link_styles="false" /></defs><path
     id="circle113"
     style="display:inline;vector-effect:non-scaling-stroke;fill:#808080;fill-rule:evenodd;stroke:#000000;stroke-width:0.390576;stroke-linecap:round;stroke-linejoin:round;-inkscape-stroke:hairline;paint-order:stroke fill markers"
     inkscape:label="spool--front"
     d="m -19.999813,23.000194 c -23.74821,2.3e-5 -42.999976,19.251771 -42.999999,42.999959 2.2e-5,23.74819 19.251789,42.999937 42.999999,42.999957 C 3.7484,109.00009 23.000166,89.748343 23.000188,66.000153 23.000165,42.251964 3.7484,23.000216 -19.999813,23.000194 Z m 0,5.999634 c 9.292823,0.0034 18.244131,3.503534 25.074463,9.804569 l -4.240572,4.240568 c -5.703913,-5.176945 -13.13094,-8.044884 -20.833891,-8.044987 -7.696531,0.01561 -15.112073,2.893737 -20.803917,8.074443 l -4.21525,-4.21473 c 6.807892,-6.308243 15.737986,-9.827524 25.019167,-9.859863 z m 27.196299,11.92537 c 6.300786,6.830614 9.800545,15.782103 9.803545,25.074955 -0.03247,9.280996 -3.551743,18.210873 -9.859872,25.018628 L 2.924908,86.804052 C 8.105807,81.11229 10.984127,73.696748 10.999876,66.000153 10.999645,58.297389 8.131711,50.870575 2.954881,45.166799 Z m -54.336786,0.05581 4.214734,4.215246 c -5.18071,5.691838 -8.058842,13.107374 -8.07445,20.803898 0.01589,7.696663 2.894397,15.112215 8.075484,20.803899 l -4.215251,4.215246 c -6.308437,-6.807807 -9.82791,-15.737901 -9.860389,-25.019145 0.03234,-9.281173 3.551623,-18.211259 9.859872,-25.019144 z m 9.462481,5.841504 c 0.828426,0 1.500168,0.671741 1.500168,1.500167 0,0.828425 -0.671742,1.49965 -1.500168,1.49965 -0.828427,0 -1.499652,-0.671225 -1.499652,-1.49965 0,-0.828426 0.671225,-1.500167 1.499652,-1.500167 z m 35.355497,0 c 0.828428,0 1.500169,0.671224 1.500169,1.49965 0,0.828425 -0.671741,1.500167 -1.500169,1.500167 -0.828426,0 -1.500167,-0.671742 -1.500167,-1.500167 0,-0.828426 0.671741,-1.49965 1.500167,-1.49965 z m -17.677491,0.17725 A 19.000018,19 0 0 1 -0.999921,66.000153 19.000018,19 0 0 1 -19.999813,85.000027 19.000018,19 0 0 1 -39.00022,66.000153 19.000018,19 0 0 1 -19.999813,46.999762 Z m -17.67749,35.177699 c 0.828427,0 1.499652,0.671741 1.499652,1.500166 0,0.828427 -0.671225,1.500167 -1.499652,1.500167 -0.828426,0 -1.500168,-0.67174 -1.500168,-1.500167 0,-0.828425 0.671742,-1.500166 1.500168,-1.500166 z m 35.354981,0 c 0.828428,0 1.500169,0.671741 1.500169,1.500166 0,0.828427 -0.671741,1.500167 -1.500169,1.500167 -0.828426,0 -1.500167,-0.67174 -1.500167,-1.500167 0,-0.828425 0.671741,-1.500166 1.500167,-1.500166 z m -38.481408,6.747391 c 5.691767,5.180894 13.107317,8.059211 20.803917,8.07496 7.696603,-0.01575 15.112152,-2.894066 20.803919,-8.07496 l 4.214733,4.215247 c -6.807761,6.308123 -15.737647,9.827391 -25.018652,9.859861 -9.281181,-0.0323 -18.211275,-3.551618 -25.019167,-9.859861 z"
     transform="translate(19.999812,19.999814)" /></svg>
