<?xml version="1.0" encoding="UTF-8" standalone="no"?>
<!-- Created with Inkscape (http://www.inkscape.org/) -->

<svg
   width="40mm"
   height="40mm"
   viewBox="0 0 40 40"
   version="1.1"
   id="svg1"
   inkscape:version="1.3 (0e150ed6c4, 2023-07-21)"
   sodipodi:docname="cover--front--grid--control--pid.svg"
   xmlns:inkscape="http://www.inkscape.org/namespaces/inkscape"
   xmlns:sodipodi="http://sodipodi.sourceforge.net/DTD/sodipodi-0.dtd"
   xmlns="http://www.w3.org/2000/svg"
   xmlns:svg="http://www.w3.org/2000/svg">
  <sodipodi:namedview
     id="namedview1"
     pagecolor="#ffffff"
     bordercolor="#000000"
     borderopacity="0.25"
     inkscape:showpageshadow="2"
     inkscape:pageopacity="0.0"
     inkscape:pagecheckerboard="0"
     inkscape:deskcolor="#d1d1d1"
     inkscape:document-units="mm"
     showgrid="true"
     inkscape:zoom="1.6126162"
     inkscape:cx="58.910483"
     inkscape:cy="101.07799"
     inkscape:window-width="2496"
     inkscape:window-height="1558"
     inkscape:window-x="-11"
     inkscape:window-y="-11"
     inkscape:window-maximized="1"
     inkscape:current-layer="svg1">
    <inkscape:grid
       id="grid1"
       units="mm"
       originx="0"
       originy="0"
       spacingx="0.99999997"
       spacingy="0.99999997"
       empcolor="#0099e5"
       empopacity="0.30196078"
       color="#0099e5"
       opacity="0.14901961"
       empspacing="10"
       dotted="false"
       gridanglex="30"
       gridanglez="30"
       visible="true" />
  </sodipodi:namedview>
  <defs
     id="defs1">
    <inkscape:path-effect
       effect="copy_rotate"
       starting_point="22.499999,277"
       origin="19.999999,277"
       id="path-effect3"
       is_visible="true"
       lpeversion="1.2"
       lpesatellites=""
       method="normal"
       num_copies="4"
       starting_angle="0"
       rotation_angle="90"
       gap="-0.01"
       copies_to_360="true"
       mirror_copies="false"
       split_items="false"
       link_styles="false" />
    <inkscape:path-effect
       effect="copy_rotate"
       starting_point="22.499999,277"
       origin="19.999999,277"
       id="path-effect1"
       is_visible="true"
       lpeversion="1.2"
       lpesatellites=""
       method="normal"
       num_copies="4"
       starting_angle="0"
       rotation_angle="90"
       gap="-0.01"
       copies_to_360="true"
       mirror_copies="false"
       split_items="false"
       link_styles="false" />
    <inkscape:path-effect
       effect="copy_rotate"
       starting_point="22.499999,277"
       origin="19.999999,277"
       id="path-effect1-8"
       is_visible="true"
       lpeversion="1.2"
       lpesatellites=""
       method="normal"
       num_copies="4"
       starting_angle="0"
       rotation_angle="90"
       gap="-0.01"
       copies_to_360="true"
       mirror_copies="false"
       split_items="false"
       link_styles="false" />
    <inkscape:path-effect
       effect="copy_rotate"
       starting_point="22.499999,277"
       origin="19.999999,277"
       id="path-effect3-0"
       is_visible="true"
       lpeversion="1.2"
       lpesatellites=""
       method="normal"
       num_copies="4"
       starting_angle="0"
       rotation_angle="90"
       gap="-0.01"
       copies_to_360="true"
       mirror_copies="false"
       split_items="false"
       link_styles="false" />
  </defs>
  <g
     id="g1"
     inkscape:label="cover--front--grid--control--pid"
     transform="matrix(1.0000029,0,0,1,-20.000129,20.000046)">
    <path
       id="path1"
       style="clip-rule:evenodd;vector-effect:non-scaling-stroke;fill:#808080;fill-rule:evenodd;stroke:#373435;stroke-width:0.264583;stroke-miterlimit:2.61313;stroke-dasharray:none;-inkscape-stroke:hairline;image-rendering:optimizeQuality;shape-rendering:geometricPrecision;text-rendering:geometricPrecision"
       class="fil0 str0"
       d="m -17.499707,-19.999813 c 0,1.380799 -1.119307,2.500106 -2.500106,2.500106 v 34.999931 c 1.380799,-10e-5 2.500106,1.11879 2.500106,2.499589 0,1.380798 -1.119307,2.500206 -2.500106,2.500106 v 34.99993 c 1.380799,0 2.500106,1.119308 2.500106,2.500106 h 74.999556 c 0,-1.380798 1.119308,-2.500106 2.500106,-2.500106 v -34.99993 c -1.380798,1e-4 -2.500106,-1.119308 -2.500106,-2.500106 0,-1.380799 1.119308,-2.499689 2.500106,-2.499589 v -34.999931 c -1.380798,0 -2.500106,-1.119307 -2.500106,-2.500106 h -34.99993 c 0,0.0075 1e-4,0.01472 0,0.02222 -0.0121,1.362899 -1.11447,2.465268 -2.477369,2.477368 -0.0075,10e-5 -0.01524,10e-5 -0.02274,0 -0.0075,10e-5 -0.01472,10e-5 -0.02222,0 -1.362899,-0.0121 -2.465268,-1.114469 -2.477368,-2.477368 -10e-5,-0.0075 -5.17e-4,-0.01472 -5.17e-4,-0.02222 z M -1.5001668,-1.5001668 H 19.999813 41.499792 V 19.999813 41.499792 H 19.999813 -1.5001668 V 19.999813 Z"
       inkscape:label="cover--front--grid--control--pid--base" />
    <path
       class="fil1 str0"
       d="m 16.784,57.500001 v -2.1994 h -0.6788 v -0.2784 h 1.6631 v 0.2784 h -0.6788 v 2.1994 z m 1.5104,0 v -2.4778 H 19.72 v 0.2784 h -1.1235 v 0.767 h 1.0047 v 0.2716 h -1.0047 v 0.8825 H 19.72 v 0.2783 z m 1.9415,0 v -2.4778 h 0.4514 l 0.3157,1.0726 0.3292,-1.0726 h 0.4514 v 2.4778 h -0.2953 v -1.171 c 0,-0.1109 0.0017,-0.2382 0.0051,-0.3818 0.0034,-0.1437 0.0085,-0.2891 0.0153,-0.4362 0.0068,-0.1471 0.0147,-0.2795 0.0238,-0.3971 l -0.4005,1.2796 h -0.2648 l -0.3835,-1.2491 c 0.0181,0.1675 0.0305,0.3508 0.0373,0.5499 0.0068,0.1991 0.0102,0.4107 0.0102,0.6347 v 1.171 z m 2.1044,0 v -2.4778 h 0.7976 c 0.2308,0 0.4147,0.0662 0.5516,0.1986 0.1369,0.1324 0.2053,0.3094 0.2053,0.5312 0,0.2217 -0.0684,0.3988 -0.2053,0.5312 -0.1369,0.1324 -0.3208,0.1985 -0.5516,0.1985 h -0.4922 v 1.0183 z m 0.3054,-1.2932 h 0.4922 c 0.1335,0 0.2404,-0.0413 0.3208,-0.1239 0.0803,-0.0826 0.1204,-0.1929 0.1204,-0.3309 0,-0.1403 -0.0401,-0.2512 -0.1204,-0.3326 -0.0804,-0.0815 -0.1873,-0.1222 -0.3208,-0.1222 h -0.4922 z"
       id="path2"
       style="clip-rule:evenodd;vector-effect:non-scaling-stroke;fill:#000000;fill-rule:nonzero;stroke:#373435;stroke-width:0.264583;stroke-miterlimit:2.61313;stroke-dasharray:none;-inkscape-stroke:hairline;image-rendering:optimizeQuality;shape-rendering:geometricPrecision;text-rendering:geometricPrecision"
       inkscape:label="cover--front--grid--control--pid--label" />
  </g>
</svg>
