<?xml version="1.0" encoding="UTF-8" standalone="no"?>
<!-- Created with Inkscape (http://www.inkscape.org/) -->

<svg
   width="40mm"
   height="40mm"
   viewBox="0 0 40 40"
   version="1.1"
   id="svg1"
   inkscape:version="1.3 (0e150ed6c4, 2023-07-21)"
   sodipodi:docname="cover--front--grid--control.svg"
   xml:space="preserve"
   xmlns:inkscape="http://www.inkscape.org/namespaces/inkscape"
   xmlns:sodipodi="http://sodipodi.sourceforge.net/DTD/sodipodi-0.dtd"
   xmlns="http://www.w3.org/2000/svg"
   xmlns:svg="http://www.w3.org/2000/svg"><sodipodi:namedview
     id="namedview1"
     pagecolor="#ffffff"
     bordercolor="#000000"
     borderopacity="0.25"
     inkscape:showpageshadow="2"
     inkscape:pageopacity="0.0"
     inkscape:pagecheckerboard="0"
     inkscape:deskcolor="#d1d1d1"
     inkscape:document-units="mm"
     showgrid="true"
     inkscape:zoom="1.1402918"
     inkscape:cx="156.10039"
     inkscape:cy="115.75984"
     inkscape:window-width="2496"
     inkscape:window-height="1558"
     inkscape:window-x="-11"
     inkscape:window-y="-11"
     inkscape:window-maximized="1"
     inkscape:current-layer="svg1"
     showguides="true"><inkscape:grid
       id="grid1"
       units="mm"
       originx="0"
       originy="0"
       spacingx="0.99999997"
       spacingy="0.99999997"
       empcolor="#0099e5"
       empopacity="0.30196078"
       color="#0099e5"
       opacity="0.14902"
       empspacing="10"
       dotted="false"
       gridanglex="30"
       gridanglez="30"
       visible="true" /><sodipodi:guide
       position="79.999995,41.999997"
       orientation="1,0"
       id="guide1"
       inkscape:locked="false" /><sodipodi:guide
       position="19.999999,0.99999994"
       orientation="1,0"
       id="guide2"
       inkscape:locked="false" /><sodipodi:guide
       position="-19.999999,0"
       orientation="1,0"
       id="guide3"
       inkscape:locked="false" /><sodipodi:guide
       position="29.999998,-17.699145"
       orientation="1,0"
       id="guide4"
       inkscape:locked="false" /><sodipodi:guide
       position="29.999997,-12.499998"
       orientation="0,1"
       id="guide5"
       inkscape:locked="false" /></sodipodi:namedview><defs
     id="defs1"><inkscape:path-effect
       effect="copy_rotate"
       starting_point="22.499999,277"
       origin="19.999999,277"
       id="path-effect3"
       is_visible="true"
       lpeversion="1.2"
       lpesatellites=""
       method="normal"
       num_copies="4"
       starting_angle="0"
       rotation_angle="90"
       gap="-0.01"
       copies_to_360="true"
       mirror_copies="false"
       split_items="false"
       link_styles="false" /><inkscape:path-effect
       effect="copy_rotate"
       starting_point="22.499999,277"
       origin="19.999999,277"
       id="path-effect1"
       is_visible="true"
       lpeversion="1.2"
       lpesatellites=""
       method="normal"
       num_copies="4"
       starting_angle="0"
       rotation_angle="90"
       gap="-0.01"
       copies_to_360="true"
       mirror_copies="false"
       split_items="false"
       link_styles="false" /><inkscape:path-effect
       effect="copy_rotate"
       starting_point="22.499999,277"
       origin="19.999999,277"
       id="path-effect1-8"
       is_visible="true"
       lpeversion="1.2"
       lpesatellites=""
       method="normal"
       num_copies="4"
       starting_angle="0"
       rotation_angle="90"
       gap="-0.01"
       copies_to_360="true"
       mirror_copies="false"
       split_items="false"
       link_styles="false" /><inkscape:path-effect
       effect="copy_rotate"
       starting_point="22.499999,277"
       origin="19.999999,277"
       id="path-effect3-0"
       is_visible="true"
       lpeversion="1.2"
       lpesatellites=""
       method="normal"
       num_copies="4"
       starting_angle="0"
       rotation_angle="90"
       gap="-0.01"
       copies_to_360="true"
       mirror_copies="false"
       split_items="false"
       link_styles="false" /><inkscape:path-effect
       effect="copy_rotate"
       starting_point="22.499999,277"
       origin="19.999999,277"
       id="path-effect3-1"
       is_visible="true"
       lpeversion="1.2"
       lpesatellites=""
       method="normal"
       num_copies="4"
       starting_angle="0"
       rotation_angle="90"
       gap="-0.01"
       copies_to_360="true"
       mirror_copies="false"
       split_items="false"
       link_styles="false" /><inkscape:path-effect
       effect="copy_rotate"
       starting_point="22.499999,277"
       origin="19.999999,277"
       id="path-effect1-2"
       is_visible="true"
       lpeversion="1.2"
       lpesatellites=""
       method="normal"
       num_copies="4"
       starting_angle="0"
       rotation_angle="90"
       gap="-0.01"
       copies_to_360="true"
       mirror_copies="false"
       split_items="false"
       link_styles="false" /><inkscape:path-effect
       effect="copy_rotate"
       starting_point="22.499999,277"
       origin="19.999999,277"
       id="path-effect1-8-8"
       is_visible="true"
       lpeversion="1.2"
       lpesatellites=""
       method="normal"
       num_copies="4"
       starting_angle="0"
       rotation_angle="90"
       gap="-0.01"
       copies_to_360="true"
       mirror_copies="false"
       split_items="false"
       link_styles="false" /><inkscape:path-effect
       effect="copy_rotate"
       starting_point="22.499999,277"
       origin="19.999999,277"
       id="path-effect3-0-9"
       is_visible="true"
       lpeversion="1.2"
       lpesatellites=""
       method="normal"
       num_copies="4"
       starting_angle="0"
       rotation_angle="90"
       gap="-0.01"
       copies_to_360="true"
       mirror_copies="false"
       split_items="false"
       link_styles="false" /><inkscape:path-effect
       effect="copy_rotate"
       starting_point="22.499999,277"
       origin="19.999999,277"
       id="path-effect3-6"
       is_visible="true"
       lpeversion="1.2"
       lpesatellites=""
       method="normal"
       num_copies="4"
       starting_angle="0"
       rotation_angle="90"
       gap="-0.01"
       copies_to_360="true"
       mirror_copies="false"
       split_items="false"
       link_styles="false" /><inkscape:path-effect
       effect="copy_rotate"
       starting_point="22.499999,277"
       origin="19.999999,277"
       id="path-effect1-82"
       is_visible="true"
       lpeversion="1.2"
       lpesatellites=""
       method="normal"
       num_copies="4"
       starting_angle="0"
       rotation_angle="90"
       gap="-0.01"
       copies_to_360="true"
       mirror_copies="false"
       split_items="false"
       link_styles="false" /><inkscape:path-effect
       effect="copy_rotate"
       starting_point="22.499999,277"
       origin="19.999999,277"
       id="path-effect1-8-1"
       is_visible="true"
       lpeversion="1.2"
       lpesatellites=""
       method="normal"
       num_copies="4"
       starting_angle="0"
       rotation_angle="90"
       gap="-0.01"
       copies_to_360="true"
       mirror_copies="false"
       split_items="false"
       link_styles="false" /><inkscape:path-effect
       effect="copy_rotate"
       starting_point="22.499999,277"
       origin="19.999999,277"
       id="path-effect3-0-8"
       is_visible="true"
       lpeversion="1.2"
       lpesatellites=""
       method="normal"
       num_copies="4"
       starting_angle="0"
       rotation_angle="90"
       gap="-0.01"
       copies_to_360="true"
       mirror_copies="false"
       split_items="false"
       link_styles="false" /><inkscape:path-effect
       effect="copy_rotate"
       starting_point="22.499999,277"
       origin="19.999999,277"
       id="path-effect3-4"
       is_visible="true"
       lpeversion="1.2"
       lpesatellites=""
       method="normal"
       num_copies="4"
       starting_angle="0"
       rotation_angle="90"
       gap="-0.01"
       copies_to_360="true"
       mirror_copies="false"
       split_items="false"
       link_styles="false" /><inkscape:path-effect
       effect="copy_rotate"
       starting_point="22.499999,277"
       origin="19.999999,277"
       id="path-effect1-29"
       is_visible="true"
       lpeversion="1.2"
       lpesatellites=""
       method="normal"
       num_copies="4"
       starting_angle="0"
       rotation_angle="90"
       gap="-0.01"
       copies_to_360="true"
       mirror_copies="false"
       split_items="false"
       link_styles="false" /><inkscape:path-effect
       effect="copy_rotate"
       starting_point="22.499999,277"
       origin="19.999999,277"
       id="path-effect1-8-4"
       is_visible="true"
       lpeversion="1.2"
       lpesatellites=""
       method="normal"
       num_copies="4"
       starting_angle="0"
       rotation_angle="90"
       gap="-0.01"
       copies_to_360="true"
       mirror_copies="false"
       split_items="false"
       link_styles="false" /><inkscape:path-effect
       effect="copy_rotate"
       starting_point="22.499999,277"
       origin="19.999999,277"
       id="path-effect3-0-42"
       is_visible="true"
       lpeversion="1.2"
       lpesatellites=""
       method="normal"
       num_copies="4"
       starting_angle="0"
       rotation_angle="90"
       gap="-0.01"
       copies_to_360="true"
       mirror_copies="false"
       split_items="false"
       link_styles="false" /><inkscape:path-effect
       effect="copy_rotate"
       starting_point="22.499999,277"
       origin="19.999999,277"
       id="path-effect3-2"
       is_visible="true"
       lpeversion="1.2"
       lpesatellites=""
       method="normal"
       num_copies="4"
       starting_angle="0"
       rotation_angle="90"
       gap="-0.01"
       copies_to_360="true"
       mirror_copies="false"
       split_items="false"
       link_styles="false" /><inkscape:path-effect
       effect="copy_rotate"
       starting_point="22.499999,277"
       origin="19.999999,277"
       id="path-effect1-7"
       is_visible="true"
       lpeversion="1.2"
       lpesatellites=""
       method="normal"
       num_copies="4"
       starting_angle="0"
       rotation_angle="90"
       gap="-0.01"
       copies_to_360="true"
       mirror_copies="false"
       split_items="false"
       link_styles="false" /><inkscape:path-effect
       effect="copy_rotate"
       starting_point="22.499999,277"
       origin="19.999999,277"
       id="path-effect1-8-0"
       is_visible="true"
       lpeversion="1.2"
       lpesatellites=""
       method="normal"
       num_copies="4"
       starting_angle="0"
       rotation_angle="90"
       gap="-0.01"
       copies_to_360="true"
       mirror_copies="false"
       split_items="false"
       link_styles="false" /><inkscape:path-effect
       effect="copy_rotate"
       starting_point="22.499999,277"
       origin="19.999999,277"
       id="path-effect3-0-4"
       is_visible="true"
       lpeversion="1.2"
       lpesatellites=""
       method="normal"
       num_copies="4"
       starting_angle="0"
       rotation_angle="90"
       gap="-0.01"
       copies_to_360="true"
       mirror_copies="false"
       split_items="false"
       link_styles="false" /><style
       type="text/css"
       id="style1">&#10;   <![CDATA[
    .str0 {stroke:black;stroke-width:7.62;stroke-linejoin:bevel;stroke-miterlimit:2.61313}
    .fil0 {fill:none}
   ]]>&#10;  </style><style
       type="text/css"
       id="style1-2">&#10;   <![CDATA[
    .str0 {stroke:black;stroke-width:19.43;stroke-linejoin:bevel;stroke-miterlimit:2.61313}
    .fil0 {fill:none}
   ]]>&#10;  </style></defs><path
     id="path1"
     style="clip-rule:evenodd;vector-effect:non-scaling-stroke;fill:#808080;fill-rule:evenodd;stroke:#373435;stroke-width:0.264583;stroke-miterlimit:2.61313;stroke-dasharray:none;-inkscape-stroke:hairline;image-rendering:optimizeQuality;shape-rendering:geometricPrecision;text-rendering:geometricPrecision"
     class="fil0 str0"
     inkscape:label="cover--front--grid--control--base"
     d="m -37.500037,-19.999813 c 0,1.380687 -1.119418,2.500106 -2.500105,2.500106 V -0.99942245 17.499707 22.499919 27.999841 57.49985 c 1.380697,0 2.500105,1.11941 2.500105,2.500105 h 34.9999312 5.0002116 l 34.9999312,-0.02274 h 4.998144 c 7.1e-5,0.0078 0.0021,0.01496 0.0021,0.02274 h 74.999549 c 0,-1.380781 1.11931,-2.500105 2.50011,-2.500105 V 29.999719 22.499919 17.500224 8.9999671 -17.49919 c -1.38079,0 -2.50011,-1.119318 -2.50011,-2.500106 H 110 82.499874 77.499662 59.999955 57.543774 v -5.17e-4 H 37.500037 28.771887 10.67325 2.5001058 -2.5001058 -9.999906 Z m 95.999825,18.5001633 h 21.49998 21.499982 V 19.999813 41.499793 H 79.999768 58.499788 V 19.999813 Z M -20.00033,34.249589 c 3.175685,0 5.750037,2.574363 5.750037,5.750037 0,3.175673 -2.574352,5.750037 -5.750037,5.750037 -3.175681,0 -5.750036,-2.574364 -5.750036,-5.750037 0,-3.175674 2.574355,-5.750037 5.750036,-5.750037 z m 40.000143,1.810225 c 2.177279,0 3.942395,1.763763 3.942395,3.939812 0,2.176048 -1.765116,3.940328 -3.942395,3.940328 -2.177279,0 -3.941878,-1.76428 -3.941878,-3.940328 0,-2.176049 1.764598,-3.939812 3.941878,-3.939812 z" /><path
     id="polygon13"
     style="clip-rule:evenodd;vector-effect:non-scaling-stroke;fill:#000000;fill-rule:nonzero;stroke:#000000;stroke-width:0.264508;stroke-linecap:round;stroke-linejoin:round;stroke-miterlimit:2.61313;stroke-dasharray:none;-inkscape-stroke:hairline;image-rendering:optimizeQuality;shape-rendering:geometricPrecision;text-rendering:geometricPrecision"
     class="fil1 str3"
     inkscape:label="cover--front--grid--control--motor--label"
     d="M 19.999813 27.319263 C 16.499431 27.319263 13.330422 28.737554 11.036536 31.030147 C 8.7426485 33.322731 7.323584 36.490366 7.323584 39.988774 C 7.323584 42.290951 7.938926 44.450262 9.0139201 46.311902 C 10.098014 48.189232 11.649664 49.762896 13.509253 50.872864 L 12.972852 51.801489 C 12.924152 51.885539 12.95283 51.993112 13.03693 52.041785 C 13.12103 52.090455 13.228526 52.061746 13.277226 51.977706 L 14.527279 49.814014 C 14.575979 49.729964 14.5473 49.622391 14.4632 49.573718 C 14.3791 49.525048 14.271603 49.553747 14.222904 49.637797 L 13.68547 50.567973 C 11.878679 49.488488 10.370889 47.960087 9.3182943 46.137236 C 8.2739 44.328666 7.676534 42.228986 7.676534 39.988774 C 7.676534 36.587611 9.0560455 33.508057 11.286133 31.279228 C 13.516121 29.050498 16.596731 27.671696 19.999813 27.671696 C 23.402893 27.671696 26.483922 29.050498 28.71401 31.279228 C 30.943996 33.508057 32.323608 36.587611 32.323608 39.988774 C 32.323608 42.228886 31.725725 44.32815 30.681331 46.136719 C 29.671237 47.886022 28.242721 49.364674 26.532231 50.435164 L 26.877429 49.146871 C 26.902529 49.053021 26.846789 48.956466 26.752889 48.93138 C 26.658989 48.90629 26.56198 48.962071 26.536882 49.05592 L 26.079545 50.762793 C 26.054445 50.856643 26.110185 50.953198 26.204085 50.978284 L 27.911991 51.43562 C 28.005891 51.46072 28.102382 51.404412 28.127482 51.310563 C 28.152582 51.216703 28.096841 51.120158 28.002942 51.095072 L 26.698629 50.746257 C 28.466019 49.644585 29.942728 48.118872 30.986222 46.311902 C 32.061216 44.450262 32.676558 42.290851 32.676558 39.988774 C 32.676558 36.490366 31.257393 33.322731 28.963607 31.030147 C 26.669719 28.737654 23.500194 27.319263 19.999813 27.319263 z M 31.496785 50.999988 C 31.413287 50.999988 31.343679 51.028037 31.288013 51.083704 C 31.232346 51.13937 31.204814 51.208978 31.204814 51.292476 L 31.204814 52.210767 L 30.286523 52.210767 C 30.203026 52.210767 30.133417 52.236595 30.077751 52.288281 C 30.026064 52.343948 30.000236 52.413555 30.000236 52.497054 C 30.000236 52.580553 30.026064 52.650161 30.077751 52.705827 C 30.133417 52.761493 30.203027 52.789026 30.286523 52.789026 L 31.204814 52.789026 L 31.204814 53.707833 C 31.204814 53.791332 31.232346 53.86094 31.288013 53.916606 C 31.343679 53.972272 31.413288 53.999805 31.496785 53.999805 C 31.580284 53.999805 31.649892 53.972272 31.705558 53.916606 C 31.761225 53.860939 31.789274 53.791331 31.789274 53.707833 L 31.789274 52.789026 L 32.70188 52.789026 C 32.785378 52.789026 32.854987 52.761493 32.910653 52.705827 C 32.966319 52.65016 32.993852 52.580552 32.993852 52.497054 C 32.993852 52.413555 32.966319 52.343947 32.910653 52.288281 C 32.854986 52.236595 32.785378 52.210767 32.70188 52.210767 L 31.789274 52.210767 L 31.789274 51.292476 C 31.789274 51.208978 31.761225 51.13937 31.705558 51.083704 C 31.649892 51.028037 31.580283 50.999988 31.496785 50.999988 z M 8.5684692 52.198881 C 8.4809944 52.198881 8.409678 52.226413 8.354012 52.28208 C 8.2983462 52.337747 8.2702962 52.409579 8.2702962 52.497054 C 8.2702962 52.584529 8.2983462 52.655845 8.354012 52.711511 C 8.409678 52.771151 8.4809944 52.801428 8.5684692 52.801428 L 9.696049 52.801428 C 9.7835239 52.801428 9.8548402 52.771151 9.9105062 52.711511 C 9.970148 52.655845 9.9999064 52.584528 9.9999064 52.497054 C 9.9999064 52.409579 9.970148 52.337746 9.9105062 52.28208 C 9.8548402 52.226413 9.7835239 52.198881 9.696049 52.198881 L 8.5684692 52.198881 z M 17.258378 54.980107 C 17.036156 54.980107 16.834301 55.017914 16.65273 55.093795 C 16.473868 55.166965 16.320698 55.270029 16.193327 55.40282 C 16.068666 55.535611 15.970782 55.694478 15.900321 55.87876 C 15.832552 56.060331 15.796167 56.260763 15.790767 56.480273 C 15.796187 56.699786 15.832572 56.90164 15.900321 57.085921 C 15.970782 57.267493 16.068666 57.424419 16.193327 57.55721 C 16.320698 57.690001 16.473868 57.79449 16.65273 57.870369 C 16.834301 57.94354 17.036156 57.98044 17.258378 57.98044 C 17.4806 57.98044 17.68103 57.94354 17.859892 57.870369 C 18.038753 57.79449 18.191924 57.690001 18.319295 57.55721 C 18.446666 57.424419 18.545457 57.267493 18.615918 57.085921 C 18.686355 56.90164 18.722739 56.699786 18.725472 56.480273 C 18.722762 56.260763 18.686379 56.060331 18.615918 55.87876 C 18.545457 55.694478 18.446666 55.535611 18.319295 55.40282 C 18.191924 55.270029 18.038753 55.166965 17.859892 55.093795 C 17.68103 55.017914 17.4806 54.980107 17.258378 54.980107 z M 23.648686 54.980107 C 23.426463 54.980107 23.224092 55.017914 23.042521 55.093795 C 22.863659 55.166965 22.711006 55.270029 22.583634 55.40282 C 22.458974 55.535611 22.36109 55.694478 22.290629 55.87876 C 22.222858 56.060331 22.186475 56.260763 22.181075 56.480273 C 22.186495 56.699786 22.222878 56.90164 22.290629 57.085921 C 22.36109 57.267493 22.458974 57.424419 22.583634 57.55721 C 22.711006 57.690001 22.863659 57.79449 23.042521 57.870369 C 23.224092 57.94354 23.426463 57.98044 23.648686 57.98044 C 23.870906 57.98044 24.071339 57.94354 24.250199 57.870369 C 24.429061 57.79449 24.582232 57.690001 24.709603 57.55721 C 24.836974 57.424419 24.935765 57.267493 25.006226 57.085921 C 25.076663 56.90164 25.113046 56.699786 25.11578 56.480273 C 25.11307 56.260763 25.076686 56.060331 25.006226 55.87876 C 24.935765 55.694478 24.836974 55.535611 24.709603 55.40282 C 24.582232 55.270029 24.429061 55.166965 24.250199 55.093795 C 24.071339 55.017914 23.870906 54.980107 23.648686 54.980107 z M -23.799064 54.999744 C -24.021309 54.999744 -24.223122 55.037543 -24.404712 55.113432 C -24.583592 55.18661 -24.736733 55.289652 -24.864115 55.422457 C -24.988789 55.555261 -25.086653 55.714096 -25.157121 55.898397 C -25.224899 56.079987 -25.261275 56.280377 -25.266675 56.49991 C -25.261254 56.719444 -25.224878 56.921258 -25.157121 57.105558 C -25.086653 57.287148 -24.988789 57.44456 -24.864115 57.577364 C -24.736733 57.710169 -24.583592 57.814118 -24.404712 57.890007 C -24.223122 57.963183 -24.021309 58.000077 -23.799064 58.000077 C -23.57682 58.000077 -23.37643 57.963183 -23.19755 57.890007 C -23.018672 57.814118 -22.865531 57.710169 -22.738147 57.577364 C -22.610763 57.44456 -22.511992 57.287148 -22.441524 57.105558 C -22.37108 56.921258 -22.334187 56.719444 -22.331453 56.49991 C -22.334163 56.280377 -22.371056 56.079987 -22.441524 55.898397 C -22.511992 55.714096 -22.610763 55.555261 -22.738147 55.422457 C -22.865531 55.289652 -23.018672 55.18661 -23.19755 55.113432 C -23.37643 55.037543 -23.57682 54.999744 -23.799064 54.999744 z M 12.034408 55.000777 C 11.950396 55.000777 11.878537 55.030557 11.818917 55.090177 C 11.759297 55.149798 11.729517 55.222566 11.729517 55.309285 L 11.729517 57.736528 C 11.729517 57.798857 11.751269 57.851297 11.794629 57.894657 C 11.837987 57.938017 11.890942 57.95977 11.953276 57.95977 C 12.015606 57.95977 12.068562 57.938017 12.111922 57.894657 C 12.157995 57.8513 12.181169 57.79886 12.181169 57.736528 L 12.181169 55.634847 L 13.042615 57.76495 C 13.067002 57.821856 13.105326 57.867692 13.15682 57.902926 C 13.21102 57.940866 13.272004 57.95977 13.339754 57.95977 C 13.407508 57.95977 13.467068 57.940866 13.518555 57.902926 C 13.572753 57.867698 13.611984 57.821862 13.636377 57.76495 C 13.782718 57.409937 13.926438 57.055818 14.067358 56.703516 C 14.21099 56.348502 14.354192 55.99257 14.497823 55.634847 L 14.497823 57.736528 C 14.497823 57.798857 14.519575 57.851297 14.562935 57.894657 C 14.609003 57.938017 14.663383 57.95977 14.725716 57.95977 C 14.788047 57.95977 14.841003 57.938017 14.884363 57.894657 C 14.927723 57.8513 14.949475 57.79886 14.949475 57.736528 L 14.949475 55.309285 C 14.949475 55.222565 14.919695 55.149797 14.860075 55.090177 C 14.803164 55.030557 14.731305 55.000777 14.644584 55.000777 L 14.510225 55.000777 C 14.447894 55.000777 14.389759 55.019681 14.335559 55.057621 C 14.284068 55.095563 14.247168 55.141397 14.225488 55.195597 C 14.073727 55.56687 13.924828 55.935619 13.778487 56.301473 C 13.634856 56.664616 13.488805 57.031941 13.339754 57.403215 L 12.453503 55.195597 C 12.431823 55.141396 12.393497 55.095561 12.339299 55.057621 C 12.287811 55.019681 12.2311 55.000777 12.168766 55.000777 L 12.034408 55.000777 z M -21.563025 55.019897 C -21.62536 55.019897 -21.678305 55.040222 -21.721672 55.080876 C -21.762325 55.11882 -21.78265 55.167493 -21.78265 55.22712 L -21.78265 55.239522 L -21.78265 55.280347 C -21.779916 55.291187 -21.775647 55.304394 -21.770247 55.320654 L -20.969779 57.76805 C -20.945388 57.841225 -20.908495 57.89417 -20.859709 57.926697 C -20.808213 57.96193 -20.752936 57.979924 -20.693311 57.979924 C -20.630971 57.979924 -20.573755 57.959599 -20.522262 57.918945 C -20.468057 57.881004 -20.431681 57.83039 -20.412708 57.76805 L -19.798792 55.816748 L -19.180741 57.76805 C -19.161767 57.830385 -19.126815 57.880999 -19.075321 57.918945 C -19.02383 57.959599 -18.966612 57.979924 -18.904272 57.979924 C -18.844648 57.979924 -18.790278 57.96193 -18.741492 57.926697 C -18.689993 57.894173 -18.650769 57.841228 -18.623669 57.76805 L -17.826819 55.320654 C -17.821419 55.304394 -17.819067 55.291187 -17.819067 55.280347 C -17.816334 55.266793 -17.814933 55.253076 -17.814933 55.239522 L -17.814933 55.22712 C -17.814933 55.167495 -17.836679 55.118822 -17.880046 55.080876 C -17.920697 55.040222 -17.972218 55.019897 -18.034558 55.019897 C -18.088765 55.019897 -18.136015 55.036463 -18.176668 55.06899 C -18.214615 55.101516 -18.24154 55.143587 -18.2578 55.195081 L -18.900138 57.312781 L -19.546611 55.202832 C -19.562869 55.148623 -19.595492 55.105644 -19.644279 55.073124 C -19.690357 55.037891 -19.741878 55.019897 -19.798792 55.019897 C -19.855708 55.019897 -19.907231 55.037891 -19.953304 55.073124 C -19.999384 55.105647 -20.030578 55.148625 -20.046838 55.202832 L -20.697445 57.312781 L -21.339783 55.195081 C -21.356043 55.143588 -21.384396 55.101517 -21.425049 55.06899 C -21.462992 55.036463 -21.508818 55.019897 -21.563025 55.019897 z M 19.437056 55.020931 C 19.37473 55.020931 19.323197 55.041256 19.282544 55.081909 C 19.244604 55.122556 19.2257 55.174088 19.2257 55.236422 C 19.2257 55.29875 19.244604 55.350281 19.282544 55.390934 C 19.323191 55.428874 19.374724 55.447778 19.437056 55.447778 L 20.225639 55.447778 L 20.225639 57.736528 C 20.225639 57.798857 20.247391 57.851297 20.290751 57.894657 C 20.334115 57.938017 20.387071 57.95977 20.449398 57.95977 C 20.511729 57.95977 20.564684 57.938017 20.608044 57.894657 C 20.654118 57.8513 20.676774 57.79886 20.676774 57.736528 L 20.676774 55.447778 L 21.461222 55.447778 C 21.52355 55.447778 21.575082 55.428874 21.615735 55.390934 C 21.656388 55.350286 21.676713 55.298755 21.676713 55.236422 C 21.676713 55.174088 21.656388 55.122556 21.615735 55.081909 C 21.575087 55.041256 21.523556 55.020931 21.461222 55.020931 L 19.437056 55.020931 z M 26.176697 55.020931 C 26.114366 55.020931 26.061927 55.044104 26.018567 55.090177 C 25.975207 55.133535 25.953455 55.185974 25.953455 55.248307 L 25.953455 57.736528 C 25.953455 57.798857 25.975207 57.851297 26.018567 57.894657 C 26.061924 57.938017 26.114364 57.95977 26.176697 57.95977 C 26.239028 57.95977 26.291983 57.938017 26.335343 57.894657 C 26.381417 57.8513 26.40459 57.79886 26.40459 57.736528 L 26.40459 56.83374 L 27.205575 56.83374 C 27.349205 56.83374 27.460297 56.862093 27.538888 56.919006 C 27.617477 56.975917 27.675614 57.045445 27.713554 57.126746 C 27.751494 57.208046 27.774667 57.293113 27.7828 57.382544 C 27.790927 57.471976 27.794686 57.549531 27.794686 57.614571 L 27.794686 57.736528 C 27.794686 57.80428 27.815011 57.858145 27.855664 57.898792 C 27.896315 57.939444 27.952118 57.95977 28.022579 57.95977 C 28.08491 57.95977 28.137866 57.938017 28.181226 57.894657 C 28.224586 57.8513 28.245821 57.79886 28.245821 57.736528 L 28.245821 57.549459 C 28.245821 57.495258 28.240641 57.426247 28.229801 57.342236 C 28.218961 57.255516 28.197209 57.16566 28.164689 57.073519 C 28.134882 56.981378 28.091377 56.894887 28.034465 56.813586 C 27.977554 56.72958 27.903364 56.664322 27.811222 56.61825 C 27.965694 56.545079 28.08054 56.442016 28.156421 56.309224 C 28.232301 56.176434 28.270626 56.035562 28.270626 55.886511 C 28.270626 55.76456 28.247453 55.651138 28.201379 55.545447 C 28.158019 55.439756 28.089008 55.348993 27.994157 55.273112 C 27.902016 55.194521 27.783805 55.133537 27.640173 55.090177 C 27.496542 55.044104 27.324468 55.020931 27.123926 55.020931 L 26.176697 55.020931 z M 80.063847 55.021965 C 79.978682 55.021965 79.905694 55.052475 79.845256 55.112915 C 79.784816 55.173354 79.754822 55.247212 79.754822 55.335124 L 79.754822 57.795439 C 79.754822 57.858628 79.777014 57.912199 79.820968 57.956152 C 79.864924 58.000106 79.918495 58.022298 79.981681 58.022298 C 80.044871 58.022298 80.098442 58.000106 80.142395 57.956152 C 80.189095 57.912196 80.212158 57.858625 80.212158 57.795439 L 80.212158 55.664819 L 81.086007 57.824377 C 81.11073 57.882071 81.149045 57.928707 81.201245 57.964421 C 81.25619 58.002881 81.318082 58.022298 81.386764 58.022298 C 81.455442 58.022298 81.515948 58.002881 81.568148 57.964421 C 81.623092 57.928707 81.662794 57.882071 81.68752 57.824377 C 81.835872 57.464489 81.981329 57.106134 82.124186 56.748991 C 82.26979 56.389101 82.415764 56.027456 82.561369 55.664819 L 82.561369 57.795439 C 82.561369 57.858628 82.583045 57.912199 82.626998 57.956152 C 82.673701 58.000106 82.728659 58.022298 82.791846 58.022298 C 82.855036 58.022298 82.908606 58.000106 82.952559 57.956152 C 82.996513 57.912196 83.018705 57.858625 83.018705 57.795439 L 83.018705 55.335124 C 83.018705 55.247212 82.988195 55.173355 82.927755 55.112915 C 82.870063 55.052475 82.797592 55.021965 82.70968 55.021965 L 82.573254 55.021965 C 82.510069 55.021965 82.451468 55.041382 82.396521 55.079842 C 82.344325 55.118302 82.30688 55.164939 82.2849 55.219885 C 82.131054 55.596258 81.980048 55.969868 81.831698 56.340747 C 81.686094 56.708879 81.537862 57.081101 81.386764 57.457475 L 80.48811 55.219885 C 80.466134 55.164939 80.427819 55.118302 80.372872 55.079842 C 80.320674 55.041382 80.262942 55.021965 80.199756 55.021965 L 80.063847 55.021965 z M -27.897005 55.040568 C -27.95934 55.040568 -28.012285 55.063224 -28.055652 55.109298 C -28.099018 55.152659 -28.120764 55.205604 -28.120764 55.267944 L -28.120764 57.756165 C -28.120764 57.818498 -28.099018 57.871445 -28.055652 57.914811 C -28.01229 57.958178 -27.959345 57.979924 -27.897005 57.979924 C -27.83467 57.979924 -27.781725 57.958178 -27.738359 57.914811 C -27.692285 57.871443 -27.669629 57.818497 -27.669629 57.756165 L -27.669629 56.926758 L -26.970447 56.926758 C -26.756334 56.926758 -26.577175 56.899832 -26.433529 56.845626 C -26.289883 56.788709 -26.174543 56.71544 -26.087813 56.626001 C -25.998373 56.536561 -25.935978 56.436367 -25.900745 56.325244 C -25.862798 56.211412 -25.843901 56.097495 -25.843901 55.983663 C -25.843901 55.869831 -25.862798 55.757338 -25.900745 55.646216 C -25.935979 55.532383 -25.998373 55.430765 -26.087813 55.341325 C -26.174543 55.251886 -26.289883 55.180041 -26.433529 55.125834 C -26.577175 55.068921 -26.756334 55.040568 -26.970447 55.040568 L -27.897005 55.040568 z M -16.871838 55.040568 C -16.934174 55.040568 -16.986602 55.063224 -17.029968 55.109298 C -17.073335 55.152659 -17.095081 55.205604 -17.095081 55.267944 L -17.095081 57.735494 C -17.095081 57.797829 -17.073335 57.850774 -17.029968 57.894141 C -16.986606 57.937507 -16.934178 57.959253 -16.871838 57.959253 L -15.241447 57.959253 C -15.179109 57.959253 -15.127588 57.940355 -15.086934 57.902409 C -15.046281 57.861758 -15.025956 57.810236 -15.025956 57.747896 C -15.025956 57.685558 -15.046281 57.634037 -15.086934 57.593384 C -15.127586 57.55273 -15.179107 57.532406 -15.241447 57.532406 L -16.643945 57.532406 L -16.643945 56.711267 L -15.387691 56.711267 C -15.325353 56.711267 -15.273832 56.69237 -15.233179 56.654423 C -15.192525 56.613772 -15.172201 56.56225 -15.172201 56.49991 C -15.172201 56.437574 -15.192525 56.386051 -15.233179 56.345398 C -15.27383 56.304745 -15.325351 56.28442 -15.387691 56.28442 L -16.643945 56.28442 L -16.643945 55.467415 L -15.241447 55.467415 C -15.179109 55.467415 -15.127588 55.448 -15.086934 55.410055 C -15.046281 55.369403 -15.025956 55.318399 -15.025956 55.256059 C -15.025956 55.193721 -15.046281 55.1422 -15.086934 55.101546 C -15.127586 55.060893 -15.179107 55.040568 -15.241447 55.040568 L -16.871838 55.040568 z M -13.972791 55.040568 C -14.035124 55.040568 -14.088071 55.063224 -14.131437 55.109298 C -14.174804 55.152659 -14.196549 55.205604 -14.196549 55.267944 L -14.196549 57.756165 C -14.196549 57.818498 -14.174804 57.871445 -14.131437 57.914811 C -14.088076 57.958178 -14.035129 57.979924 -13.972791 57.979924 C -13.910455 57.979924 -13.858027 57.958178 -13.814661 57.914811 C -13.768587 57.871443 -13.745414 57.818497 -13.745414 57.756165 L -13.745414 56.853377 L -12.94443 56.853377 C -12.800784 56.853377 -12.689714 56.882247 -12.611117 56.93916 C -12.532521 56.996077 -12.474397 57.065074 -12.43645 57.146383 C -12.39851 57.227692 -12.375337 57.312741 -12.367204 57.402181 C -12.35907 57.491621 -12.354801 57.569162 -12.354801 57.634208 L -12.354801 57.756165 C -12.354801 57.823922 -12.334477 57.878292 -12.293823 57.918945 C -12.253169 57.959599 -12.197893 57.979924 -12.127425 57.979924 C -12.065091 57.979924 -12.012145 57.958178 -11.968778 57.914811 C -11.925413 57.871443 -11.903666 57.818497 -11.903666 57.756165 L -11.903666 57.569096 C -11.903666 57.51489 -11.908846 57.445893 -11.919686 57.361873 C -11.930526 57.275144 -11.952272 57.185306 -11.984798 57.093156 C -12.014614 57.001006 -12.05811 56.914532 -12.115023 56.833223 C -12.171939 56.749203 -12.246631 56.68396 -12.338782 56.637887 C -12.184295 56.564709 -12.068955 56.461666 -11.993066 56.328861 C -11.917178 56.196058 -11.879378 56.055215 -11.879378 55.906148 C -11.879378 55.784185 -11.902551 55.670269 -11.948625 55.564567 C -11.991989 55.458866 -12.060987 55.368121 -12.155847 55.292232 C -12.247998 55.213636 -12.365668 55.152664 -12.509314 55.109298 C -12.65296 55.063224 -12.825 55.040568 -13.025562 55.040568 L -13.972791 55.040568 z M 73.862158 55.042635 C 73.79897 55.042635 73.746785 55.06344 73.705579 55.104647 C 73.667119 55.145855 73.647701 55.19804 73.647701 55.261226 C 73.6477 55.324416 73.667119 55.376599 73.705579 55.417806 C 73.746787 55.456266 73.798972 55.475167 73.862158 55.475167 L 74.661593 55.475167 L 74.661593 57.795439 C 74.661593 57.858628 74.683268 57.912199 74.727222 57.956152 C 74.771178 58.000106 74.824749 58.022298 74.887935 58.022298 C 74.951125 58.022298 75.004696 58.000106 75.048649 57.956152 C 75.095356 57.912196 75.118929 57.858625 75.118929 57.795439 L 75.118929 55.475167 L 75.914229 55.475167 C 75.977419 55.475167 76.029602 55.456266 76.070809 55.417806 C 76.112016 55.376597 76.132304 55.324413 76.132304 55.261226 C 76.132304 55.198038 76.112016 55.145853 76.070809 55.104647 C 76.0296 55.06344 75.977416 55.042635 75.914229 55.042635 L 73.862158 55.042635 z M 77.043359 55.042635 C 76.98017 55.042635 76.926599 55.066215 76.882646 55.112915 C 76.838692 55.156871 76.8165 55.210442 76.8165 55.273629 L 76.8165 57.774768 C 76.8165 57.837958 76.838692 57.891528 76.882646 57.935482 C 76.926602 57.979435 76.980173 58.001628 77.043359 58.001628 L 78.695972 58.001628 C 78.75916 58.001628 78.811345 57.98221 78.852551 57.94375 C 78.893758 57.902541 78.914046 57.850357 78.914046 57.78717 C 78.914046 57.723981 78.893758 57.671797 78.852551 57.630591 C 78.811343 57.589384 78.759158 57.568579 78.695972 57.568579 L 77.273836 57.568579 L 77.273836 56.736589 L 78.547144 56.736589 C 78.610332 56.736589 78.662517 56.717171 78.703723 56.678711 C 78.74493 56.637502 78.765735 56.585318 78.765735 56.522131 C 78.765735 56.458942 78.74493 56.406758 78.703723 56.365552 C 78.662514 56.324345 78.610329 56.30354 78.547144 56.30354 L 77.273836 56.30354 L 77.273836 55.475167 L 78.695972 55.475167 C 78.75916 55.475167 78.811345 55.456266 78.852551 55.417806 C 78.893758 55.376597 78.914046 55.324413 78.914046 55.261226 C 78.914046 55.198038 78.893758 55.145853 78.852551 55.104647 C 78.811343 55.06344 78.759158 55.042635 78.695972 55.042635 L 77.043359 55.042635 z M 84.271342 55.042635 C 84.208152 55.042635 84.154582 55.066215 84.110628 55.112915 C 84.066675 55.156871 84.044482 55.210442 84.044482 55.273629 L 84.044482 57.795439 C 84.044482 57.858628 84.066675 57.912199 84.110628 57.956152 C 84.154585 58.000106 84.208155 58.022298 84.271342 58.022298 C 84.334531 58.022298 84.388102 58.000106 84.432056 57.956152 C 84.478756 57.912196 84.501819 57.858625 84.501819 57.795439 L 84.501819 56.954663 L 85.210819 56.954663 C 85.427853 56.954663 85.609368 56.927444 85.754972 56.872498 C 85.900577 56.814805 86.01691 56.740431 86.104822 56.649772 C 86.195482 56.559113 86.258761 56.457518 86.294474 56.344881 C 86.332934 56.229497 86.352352 56.114034 86.352352 55.998649 C 86.352352 55.883265 86.332934 55.769188 86.294474 55.656551 C 86.25876 55.541167 86.195481 55.438185 86.104822 55.347526 C 86.01691 55.256868 85.900577 55.184398 85.754972 55.129451 C 85.609368 55.071759 85.427853 55.042635 85.210819 55.042635 L 84.271342 55.042635 z M 17.258378 55.406954 C 17.420979 55.406954 17.564182 55.435307 17.688843 55.49222 C 17.816214 55.546421 17.92355 55.622553 18.01027 55.720113 C 18.096991 55.814964 18.162247 55.927479 18.205607 56.05756 C 18.25168 56.187641 18.274337 56.328513 18.274337 56.480273 C 18.274337 56.629325 18.25168 56.770195 18.205607 56.902987 C 18.162246 57.033068 18.096991 57.147007 18.01027 57.244568 C 17.92355 57.339416 17.816214 57.415031 17.688843 57.471944 C 17.564182 57.526144 17.420979 57.553593 17.258378 57.553593 C 17.095776 57.553593 16.950633 57.526144 16.823263 57.471944 C 16.698602 57.415034 16.59269 57.339418 16.505969 57.244568 C 16.419251 57.147007 16.353088 57.033068 16.307015 56.902987 C 16.263655 56.770195 16.241903 56.629325 16.241903 56.480273 C 16.241903 56.328513 16.263655 56.187641 16.307015 56.05756 C 16.353086 55.927479 16.419249 55.814964 16.505969 55.720113 C 16.59269 55.622552 16.698602 55.54642 16.823263 55.49222 C 16.950633 55.435307 17.095776 55.406954 17.258378 55.406954 z M 23.648686 55.406954 C 23.811287 55.406954 23.95449 55.435307 24.07915 55.49222 C 24.206522 55.546421 24.313857 55.622553 24.400578 55.720113 C 24.487299 55.814964 24.552038 55.927479 24.595398 56.05756 C 24.641471 56.187641 24.664644 56.328513 24.664644 56.480273 C 24.664644 56.629325 24.641471 56.770195 24.595398 56.902987 C 24.552037 57.033068 24.487298 57.147007 24.400578 57.244568 C 24.313857 57.339416 24.206522 57.415031 24.07915 57.471944 C 23.95449 57.526144 23.811287 57.553593 23.648686 57.553593 C 23.486084 57.553593 23.340941 57.526144 23.21357 57.471944 C 23.088909 57.415034 22.982997 57.339418 22.896277 57.244568 C 22.809559 57.147007 22.743396 57.033068 22.697323 56.902987 C 22.653963 56.770195 22.63221 56.629325 22.63221 56.480273 C 22.63221 56.328513 22.653963 56.187641 22.697323 56.05756 C 22.743393 55.927479 22.809556 55.814964 22.896277 55.720113 C 22.982997 55.622552 23.088909 55.54642 23.21357 55.49222 C 23.340941 55.435307 23.486084 55.406954 23.648686 55.406954 z M -23.799064 55.426591 C -23.636446 55.426591 -23.492756 55.454944 -23.368083 55.511857 C -23.240698 55.566063 -23.133901 55.64218 -23.047172 55.73975 C -22.960444 55.834611 -22.895202 55.947103 -22.851835 56.077197 C -22.805762 56.207291 -22.782589 56.348134 -22.782589 56.49991 C -22.782589 56.648976 -22.805762 56.789819 -22.851835 56.922624 C -22.8952 57.052718 -22.960443 57.166634 -23.047172 57.264205 C -23.133901 57.359068 -23.240698 57.434668 -23.368083 57.491581 C -23.492756 57.545788 -23.636446 57.57323 -23.799064 57.57323 C -23.961682 57.57323 -24.106795 57.545788 -24.23418 57.491581 C -24.358853 57.434665 -24.464743 57.359065 -24.551473 57.264205 C -24.638204 57.166634 -24.704354 57.052718 -24.750427 56.922624 C -24.793794 56.789819 -24.81554 56.648976 -24.81554 56.49991 C -24.81554 56.348134 -24.793794 56.207291 -24.750427 56.077197 C -24.704352 55.947103 -24.638202 55.834611 -24.551473 55.73975 C -24.464743 55.64218 -24.358853 55.566064 -24.23418 55.511857 C -24.106795 55.454944 -23.961682 55.426591 -23.799064 55.426591 z M 26.40459 55.451912 L 27.079484 55.451912 C 27.223115 55.451912 27.342234 55.462789 27.437085 55.484469 C 27.531933 55.506149 27.607548 55.53735 27.664461 55.578003 C 27.721372 55.61865 27.76112 55.667334 27.7828 55.724247 C 27.807194 55.781158 27.818974 55.844473 27.818974 55.914933 C 27.818974 56.074824 27.75281 56.196792 27.62002 56.280802 C 27.489938 56.362104 27.31644 56.402759 27.099638 56.402759 L 26.40459 56.402759 L 26.40459 55.451912 z M -27.669629 55.471033 L -27.00662 55.471033 C -26.862975 55.471033 -26.745304 55.486178 -26.653153 55.515991 C -26.561002 55.545803 -26.489156 55.585028 -26.437663 55.633813 C -26.383458 55.682595 -26.347082 55.738388 -26.328109 55.800728 C -26.306429 55.860352 -26.295553 55.921323 -26.295553 55.983663 C -26.295553 56.043287 -26.306429 56.104259 -26.328109 56.166597 C -26.34708 56.226223 -26.383456 56.280076 -26.437663 56.328861 C -26.489159 56.377643 -26.561005 56.418291 -26.653153 56.450818 C -26.745304 56.480631 -26.862975 56.495776 -27.00662 56.495776 L -27.669629 56.495776 L -27.669629 55.471033 z M -13.745414 55.471033 L -13.07052 55.471033 C -12.926874 55.471033 -12.80778 55.481909 -12.712919 55.503589 C -12.618056 55.525276 -12.541939 55.55647 -12.485026 55.597123 C -12.428107 55.637781 -12.388884 55.686971 -12.367204 55.743884 C -12.34281 55.8008 -12.330514 55.864102 -12.330514 55.93457 C -12.330514 56.094478 -12.39718 56.216421 -12.529985 56.300439 C -12.660078 56.381748 -12.833542 56.422396 -13.050366 56.422396 L -13.745414 56.422396 L -13.745414 55.471033 z M 84.501819 55.479301 L 85.173612 55.479301 C 85.319217 55.479301 85.43884 55.494556 85.532247 55.524776 C 85.625651 55.554993 85.698638 55.594695 85.750838 55.644149 C 85.80578 55.693599 85.842709 55.749944 85.861943 55.813131 C 85.883923 55.873571 85.895015 55.935462 85.895015 55.998649 C 85.895015 56.059089 85.883923 56.120982 85.861943 56.184167 C 85.842714 56.244604 85.805785 56.299562 85.750838 56.349015 C 85.69864 56.398466 85.625653 56.439555 85.532247 56.472522 C 85.43884 56.502742 85.319217 56.517997 85.173612 56.517997 L 84.501819 56.517997 L 84.501819 55.479301 z " /></svg>
