<?xml version="1.0" encoding="UTF-8" standalone="no"?>
<!-- Created with Inkscape (http://www.inkscape.org/) -->

<svg
   width="40mm"
   height="40mm"
   viewBox="0 0 40 40"
   version="1.1"
   id="svg1"
   inkscape:version="1.3 (0e150ed6c4, 2023-07-21)"
   sodipodi:docname="cover--right--grid.svg"
   xml:space="preserve"
   xmlns:inkscape="http://www.inkscape.org/namespaces/inkscape"
   xmlns:sodipodi="http://sodipodi.sourceforge.net/DTD/sodipodi-0.dtd"
   xmlns="http://www.w3.org/2000/svg"
   xmlns:svg="http://www.w3.org/2000/svg"><sodipodi:namedview
     id="namedview1"
     pagecolor="#ffffff"
     bordercolor="#000000"
     borderopacity="0.25"
     inkscape:showpageshadow="2"
     inkscape:pageopacity="0.0"
     inkscape:pagecheckerboard="0"
     inkscape:deskcolor="#d1d1d1"
     inkscape:document-units="mm"
     showgrid="true"
     inkscape:zoom="2.2805836"
     inkscape:cx="-46.479331"
     inkscape:cy="41.21752"
     inkscape:window-width="2496"
     inkscape:window-height="1558"
     inkscape:window-x="-11"
     inkscape:window-y="-11"
     inkscape:window-maximized="1"
     inkscape:current-layer="svg1"><inkscape:grid
       id="grid1"
       units="mm"
       originx="0"
       originy="0"
       spacingx="0.99999997"
       spacingy="0.99999997"
       empcolor="#0099e5"
       empopacity="0.30196078"
       color="#0099e5"
       opacity="0.14902"
       empspacing="10"
       dotted="false"
       gridanglex="30"
       gridanglez="30"
       visible="true" /></sodipodi:namedview><defs
     id="defs1"><inkscape:path-effect
       effect="copy_rotate"
       starting_point="22.499999,277"
       origin="19.999999,277"
       id="path-effect3"
       is_visible="true"
       lpeversion="1.2"
       lpesatellites=""
       method="normal"
       num_copies="4"
       starting_angle="0"
       rotation_angle="90"
       gap="-0.01"
       copies_to_360="true"
       mirror_copies="false"
       split_items="false"
       link_styles="false" /><inkscape:path-effect
       effect="copy_rotate"
       starting_point="22.499999,277"
       origin="19.999999,277"
       id="path-effect1"
       is_visible="true"
       lpeversion="1.2"
       lpesatellites=""
       method="normal"
       num_copies="4"
       starting_angle="0"
       rotation_angle="90"
       gap="-0.01"
       copies_to_360="true"
       mirror_copies="false"
       split_items="false"
       link_styles="false" /><inkscape:path-effect
       effect="copy_rotate"
       starting_point="22.499999,277"
       origin="19.999999,277"
       id="path-effect1-8"
       is_visible="true"
       lpeversion="1.2"
       lpesatellites=""
       method="normal"
       num_copies="4"
       starting_angle="0"
       rotation_angle="90"
       gap="-0.01"
       copies_to_360="true"
       mirror_copies="false"
       split_items="false"
       link_styles="false" /><inkscape:path-effect
       effect="copy_rotate"
       starting_point="22.499999,277"
       origin="19.999999,277"
       id="path-effect3-0"
       is_visible="true"
       lpeversion="1.2"
       lpesatellites=""
       method="normal"
       num_copies="4"
       starting_angle="0"
       rotation_angle="90"
       gap="-0.01"
       copies_to_360="true"
       mirror_copies="false"
       split_items="false"
       link_styles="false" /><inkscape:path-effect
       effect="tiling"
       id="path-effect8"
       is_visible="true"
       lpeversion="1"
       unit="mm"
       seed="1;1"
       lpesatellites=""
       num_rows="4"
       num_cols="4"
       gapx="5"
       gapy="5"
       offset="0"
       offset_type="false"
       scale="0"
       rotate="0"
       mirrorrowsx="false"
       mirrorrowsy="false"
       mirrorcolsx="false"
       mirrorcolsy="false"
       mirrortrans="false"
       shrink_interp="false"
       split_items="false"
       link_styles="false"
       interpolate_scalex="false"
       interpolate_scaley="true"
       interpolate_rotatex="false"
       interpolate_rotatey="true"
       random_scale="false"
       random_rotate="false"
       random_gap_y="false"
       random_gap_x="false"
       transformorigin="" /><inkscape:path-effect
       effect="tiling"
       id="path-effect5"
       is_visible="true"
       lpeversion="1"
       unit="mm"
       seed="1;1"
       lpesatellites=""
       num_rows="4"
       num_cols="4"
       gapx="5"
       gapy="5"
       offset="0"
       offset_type="false"
       scale="0"
       rotate="0"
       mirrorrowsx="false"
       mirrorrowsy="false"
       mirrorcolsx="false"
       mirrorcolsy="false"
       mirrortrans="false"
       shrink_interp="false"
       split_items="false"
       link_styles="false"
       interpolate_scalex="false"
       interpolate_scaley="true"
       interpolate_rotatex="false"
       interpolate_rotatey="true"
       random_scale="false"
       random_rotate="false"
       random_gap_y="false"
       random_gap_x="false"
       transformorigin="" /><inkscape:path-effect
       effect="tiling"
       id="path-effect4"
       is_visible="true"
       lpeversion="1"
       unit="mm"
       seed="1;1"
       lpesatellites=""
       num_rows="4"
       num_cols="4"
       gapx="19"
       gapy="19"
       offset="0"
       offset_type="false"
       scale="0"
       rotate="0"
       mirrorrowsx="false"
       mirrorrowsy="false"
       mirrorcolsx="false"
       mirrorcolsy="false"
       mirrortrans="false"
       shrink_interp="false"
       split_items="false"
       link_styles="false"
       interpolate_scalex="false"
       interpolate_scaley="true"
       interpolate_rotatex="false"
       interpolate_rotatey="true"
       random_scale="false"
       random_rotate="false"
       random_gap_y="false"
       random_gap_x="false"
       transformorigin="" /><inkscape:path-effect
       effect="clone_original"
       linkeditem=""
       id="path-effect2"
       is_visible="true"
       lpeversion="1"
       method="d"
       attributes=""
       css_properties=""
       allow_transforms="true" /><inkscape:path-effect
       effect="copy_rotate"
       starting_point="22.499999,277"
       origin="19.999999,277"
       id="path-effect3-9"
       is_visible="true"
       lpeversion="1.2"
       lpesatellites=""
       method="normal"
       num_copies="4"
       starting_angle="0"
       rotation_angle="90"
       gap="-0.01"
       copies_to_360="true"
       mirror_copies="false"
       split_items="false"
       link_styles="false" /><inkscape:path-effect
       effect="copy_rotate"
       starting_point="22.499999,277"
       origin="19.999999,277"
       id="path-effect1-7"
       is_visible="true"
       lpeversion="1.2"
       lpesatellites=""
       method="normal"
       num_copies="4"
       starting_angle="0"
       rotation_angle="90"
       gap="-0.01"
       copies_to_360="true"
       mirror_copies="false"
       split_items="false"
       link_styles="false" /><inkscape:path-effect
       effect="copy_rotate"
       starting_point="22.499999,277"
       origin="19.999999,277"
       id="path-effect1-8-4"
       is_visible="true"
       lpeversion="1.2"
       lpesatellites=""
       method="normal"
       num_copies="4"
       starting_angle="0"
       rotation_angle="90"
       gap="-0.01"
       copies_to_360="true"
       mirror_copies="false"
       split_items="false"
       link_styles="false" /><inkscape:path-effect
       effect="copy_rotate"
       starting_point="22.499999,277"
       origin="19.999999,277"
       id="path-effect3-0-4"
       is_visible="true"
       lpeversion="1.2"
       lpesatellites=""
       method="normal"
       num_copies="4"
       starting_angle="0"
       rotation_angle="90"
       gap="-0.01"
       copies_to_360="true"
       mirror_copies="false"
       split_items="false"
       link_styles="false" /><style
       type="text/css"
       id="style1">&#10;   <![CDATA[
    .str0 {stroke:#373435;stroke-width:17.57;stroke-linecap:round;stroke-linejoin:round;stroke-miterlimit:2.61313}
    .fil0 {fill:none}
   ]]>&#10;  </style><marker
       id="DistanceX"
       orient="auto"
       refX="0.0"
       refY="0.0"
       style="overflow:visible"><path
         d="M 3,-3 L -3,3 M 0,-5 L  0,5"
         style="stroke:#000000; stroke-width:0.5"
         id="path1" /></marker><pattern
       id="Hatch"
       patternUnits="userSpaceOnUse"
       width="8"
       height="8"
       x="0"
       y="0"><path
         d="M8 4 l-4,4"
         stroke="#000000"
         stroke-width="0.25"
         linecap="square"
         id="path2" /><path
         d="M6 2 l-4,4"
         stroke="#000000"
         stroke-width="0.25"
         linecap="square"
         id="path3" /><path
         d="M4 0 l-4,4"
         stroke="#000000"
         stroke-width="0.25"
         linecap="square"
         id="path4" /></pattern><symbol
       id="$MODEL_SPACE" /><symbol
       id="$PAPER_SPACE" /><inkscape:path-effect
       effect="tiling"
       id="path-effect4-4"
       is_visible="true"
       lpeversion="1"
       unit="mm"
       seed="1;1"
       lpesatellites=""
       num_rows="4"
       num_cols="4"
       gapx="52.91"
       gapy="5.0270833"
       offset="0"
       offset_type="false"
       scale="0"
       rotate="0"
       mirrorrowsx="false"
       mirrorrowsy="false"
       mirrorcolsx="false"
       mirrorcolsy="false"
       mirrortrans="false"
       shrink_interp="false"
       split_items="false"
       link_styles="false"
       interpolate_scalex="false"
       interpolate_scaley="true"
       interpolate_rotatex="false"
       interpolate_rotatey="true"
       random_scale="false"
       random_rotate="false"
       random_gap_y="false"
       random_gap_x="false"
       transformorigin="" /><inkscape:path-effect
       effect="tiling"
       id="path-effect5-5"
       is_visible="true"
       lpeversion="1"
       unit="mm"
       seed="1;1"
       lpesatellites=""
       num_rows="4"
       num_cols="4"
       gapx="5"
       gapy="5"
       offset="0"
       offset_type="false"
       scale="0"
       rotate="0"
       mirrorrowsx="false"
       mirrorrowsy="false"
       mirrorcolsx="false"
       mirrorcolsy="false"
       mirrortrans="false"
       shrink_interp="false"
       split_items="false"
       link_styles="false"
       interpolate_scalex="false"
       interpolate_scaley="true"
       interpolate_rotatex="false"
       interpolate_rotatey="true"
       random_scale="false"
       random_rotate="false"
       random_gap_y="false"
       random_gap_x="false"
       transformorigin="" /><inkscape:path-effect
       effect="tiling"
       id="path-effect8-1"
       is_visible="true"
       lpeversion="1"
       unit="mm"
       seed="1;1"
       lpesatellites=""
       num_rows="4"
       num_cols="4"
       gapx="5"
       gapy="5"
       offset="0"
       offset_type="false"
       scale="0"
       rotate="0"
       mirrorrowsx="false"
       mirrorrowsy="false"
       mirrorcolsx="false"
       mirrorcolsy="false"
       mirrortrans="false"
       shrink_interp="false"
       split_items="false"
       link_styles="false"
       interpolate_scalex="false"
       interpolate_scaley="true"
       interpolate_rotatex="false"
       interpolate_rotatey="true"
       random_scale="false"
       random_rotate="false"
       random_gap_y="false"
       random_gap_x="false"
       transformorigin="" /><inkscape:path-effect
       effect="tiling"
       id="path-effect5-3"
       is_visible="true"
       lpeversion="1"
       unit="mm"
       seed="1;1"
       lpesatellites=""
       num_rows="4"
       num_cols="4"
       gapx="5"
       gapy="5"
       offset="0"
       offset_type="false"
       scale="0"
       rotate="0"
       mirrorrowsx="false"
       mirrorrowsy="false"
       mirrorcolsx="false"
       mirrorcolsy="false"
       mirrortrans="false"
       shrink_interp="false"
       split_items="false"
       link_styles="false"
       interpolate_scalex="false"
       interpolate_scaley="true"
       interpolate_rotatex="false"
       interpolate_rotatey="true"
       random_scale="false"
       random_rotate="false"
       random_gap_y="false"
       random_gap_x="false"
       transformorigin="" /><inkscape:path-effect
       effect="tiling"
       id="path-effect4-9"
       is_visible="true"
       lpeversion="1"
       unit="mm"
       seed="1;1"
       lpesatellites=""
       num_rows="4"
       num_cols="4"
       gapx="19"
       gapy="19"
       offset="0"
       offset_type="false"
       scale="0"
       rotate="0"
       mirrorrowsx="false"
       mirrorrowsy="false"
       mirrorcolsx="false"
       mirrorcolsy="false"
       mirrortrans="false"
       shrink_interp="false"
       split_items="false"
       link_styles="false"
       interpolate_scalex="false"
       interpolate_scaley="true"
       interpolate_rotatex="false"
       interpolate_rotatey="true"
       random_scale="false"
       random_rotate="false"
       random_gap_y="false"
       random_gap_x="false"
       transformorigin="" /><inkscape:path-effect
       effect="clone_original"
       linkeditem=""
       id="path-effect2-3"
       is_visible="true"
       lpeversion="1"
       method="d"
       attributes=""
       css_properties=""
       allow_transforms="true" /><inkscape:path-effect
       effect="copy_rotate"
       starting_point="22.499999,277"
       origin="19.999999,277"
       id="path-effect3-1"
       is_visible="true"
       lpeversion="1.2"
       lpesatellites=""
       method="normal"
       num_copies="4"
       starting_angle="0"
       rotation_angle="90"
       gap="-0.01"
       copies_to_360="true"
       mirror_copies="false"
       split_items="false"
       link_styles="false" /><inkscape:path-effect
       effect="copy_rotate"
       starting_point="22.499999,277"
       origin="19.999999,277"
       id="path-effect1-5"
       is_visible="true"
       lpeversion="1.2"
       lpesatellites=""
       method="normal"
       num_copies="4"
       starting_angle="0"
       rotation_angle="90"
       gap="-0.01"
       copies_to_360="true"
       mirror_copies="false"
       split_items="false"
       link_styles="false" /><inkscape:path-effect
       effect="copy_rotate"
       starting_point="22.499999,277"
       origin="19.999999,277"
       id="path-effect1-8-0"
       is_visible="true"
       lpeversion="1.2"
       lpesatellites=""
       method="normal"
       num_copies="4"
       starting_angle="0"
       rotation_angle="90"
       gap="-0.01"
       copies_to_360="true"
       mirror_copies="false"
       split_items="false"
       link_styles="false" /><inkscape:path-effect
       effect="copy_rotate"
       starting_point="22.499999,277"
       origin="19.999999,277"
       id="path-effect3-0-3"
       is_visible="true"
       lpeversion="1.2"
       lpesatellites=""
       method="normal"
       num_copies="4"
       starting_angle="0"
       rotation_angle="90"
       gap="-0.01"
       copies_to_360="true"
       mirror_copies="false"
       split_items="false"
       link_styles="false" /><style
       type="text/css"
       id="style1-4">&#10;   <![CDATA[
    .str0 {stroke:#373435;stroke-width:17.57;stroke-linecap:round;stroke-linejoin:round;stroke-miterlimit:2.61313}
    .fil0 {fill:none}
   ]]>&#10;  </style><marker
       id="DistanceX-9"
       orient="auto"
       refX="0.0"
       refY="0.0"
       style="overflow:visible"><path
         d="M 3,-3 L -3,3 M 0,-5 L  0,5"
         style="stroke:#000000; stroke-width:0.5"
         id="path1-1" /></marker><pattern
       id="Hatch-8"
       patternUnits="userSpaceOnUse"
       width="8"
       height="8"
       x="0"
       y="0"><path
         d="M8 4 l-4,4"
         stroke="#000000"
         stroke-width="0.25"
         linecap="square"
         id="path2-8" /><path
         d="M6 2 l-4,4"
         stroke="#000000"
         stroke-width="0.25"
         linecap="square"
         id="path3-5" /><path
         d="M4 0 l-4,4"
         stroke="#000000"
         stroke-width="0.25"
         linecap="square"
         id="path4-3" /></pattern><symbol
       id="$MODEL_SPACE-3" /><symbol
       id="$PAPER_SPACE-1" /><inkscape:path-effect
       effect="tiling"
       id="path-effect4-4-3"
       is_visible="true"
       lpeversion="1"
       unit="mm"
       seed="1;1"
       lpesatellites=""
       num_rows="4"
       num_cols="4"
       gapx="52.91"
       gapy="5.0270833"
       offset="0"
       offset_type="false"
       scale="0"
       rotate="0"
       mirrorrowsx="false"
       mirrorrowsy="false"
       mirrorcolsx="false"
       mirrorcolsy="false"
       mirrortrans="false"
       shrink_interp="false"
       split_items="false"
       link_styles="false"
       interpolate_scalex="false"
       interpolate_scaley="true"
       interpolate_rotatex="false"
       interpolate_rotatey="true"
       random_scale="false"
       random_rotate="false"
       random_gap_y="false"
       random_gap_x="false"
       transformorigin="" /><inkscape:path-effect
       effect="tiling"
       id="path-effect5-5-4"
       is_visible="true"
       lpeversion="1"
       unit="mm"
       seed="1;1"
       lpesatellites=""
       num_rows="4"
       num_cols="4"
       gapx="5"
       gapy="5"
       offset="0"
       offset_type="false"
       scale="0"
       rotate="0"
       mirrorrowsx="false"
       mirrorrowsy="false"
       mirrorcolsx="false"
       mirrorcolsy="false"
       mirrortrans="false"
       shrink_interp="false"
       split_items="false"
       link_styles="false"
       interpolate_scalex="false"
       interpolate_scaley="true"
       interpolate_rotatex="false"
       interpolate_rotatey="true"
       random_scale="false"
       random_rotate="false"
       random_gap_y="false"
       random_gap_x="false"
       transformorigin="" /></defs><path
     id="path5"
     style="vector-effect:non-scaling-stroke;fill:#808080;fill-rule:evenodd;stroke:#000000;stroke-width:0.264583;stroke-linecap:round;stroke-linejoin:round;-inkscape-stroke:hairline;paint-order:stroke fill markers"
     inkscape:label="cover--right--grid"
     d="M 57.135061 -36.117367 C 57.135061 -34.736664 56.015641 -33.617261 54.634956 -33.617261 L 54.634956 3.8822589 L 54.634956 3.8832924 L 54.634956 41.382812 C 56.015641 41.382812 57.135061 42.502215 57.135061 43.882918 L 94.635098 43.882918 L 132.13513 43.882918 C 132.13513 42.502215 133.25455 41.382812 134.63524 41.382812 L 134.63524 3.8832924 L 134.63524 3.8822589 L 134.63524 -33.617261 C 133.25455 -33.617261 132.13513 -34.736664 132.13513 -36.117367 L 94.635098 -36.117367 L 57.135061 -36.117367 z M 59.635167 -33.617261 C 61.015862 -33.617261 62.135273 -32.497859 62.135273 -31.117155 C 62.135273 -29.736452 61.015862 -28.617049 59.635167 -28.617049 C 58.254476 -28.617049 57.135061 -29.736452 57.135061 -31.117155 C 57.135061 -32.497859 58.254476 -33.617261 59.635167 -33.617261 z M 69.635074 -33.617261 C 71.015765 -33.617261 72.135179 -32.497859 72.135179 -31.117155 C 72.135179 -29.736452 71.015765 -28.617049 69.635074 -28.617049 C 68.254378 -28.617049 67.134968 -29.736452 67.134968 -31.117155 C 67.134968 -32.497859 68.254378 -33.617261 69.635074 -33.617261 z M 79.63498 -33.617261 C 81.01568 -33.617261 82.135086 -32.497859 82.135086 -31.117155 C 82.135086 -29.736452 81.01568 -28.617049 79.63498 -28.617049 C 78.25429 -28.617049 77.134874 -29.736452 77.134874 -31.117155 C 77.134874 -32.497859 78.25429 -33.617261 79.63498 -33.617261 z M 89.634886 -33.617261 C 91.015586 -33.617261 92.134992 -32.497859 92.134992 -31.117155 C 92.134992 -29.736452 91.015586 -28.617049 89.634886 -28.617049 C 88.254201 -28.617049 87.135297 -29.736452 87.135297 -31.117155 C 87.135297 -32.497859 88.254201 -33.617261 89.634886 -33.617261 z M 99.63531 -33.617261 C 101.016 -33.617261 102.1349 -32.497859 102.1349 -31.117155 C 102.1349 -29.736452 101.016 -28.617049 99.63531 -28.617049 C 98.25461 -28.617049 97.135204 -29.736452 97.135204 -31.117155 C 97.135204 -32.497859 98.25461 -33.617261 99.63531 -33.617261 z M 109.63522 -33.617261 C 111.01589 -33.617261 112.13532 -32.497859 112.13532 -31.117155 C 112.13532 -29.736452 111.01589 -28.617049 109.63522 -28.617049 C 108.25451 -28.617049 107.13511 -29.736452 107.13511 -31.117155 C 107.13511 -32.497859 108.25451 -33.617261 109.63522 -33.617261 z M 119.63512 -33.617261 C 121.01582 -33.617261 122.13523 -32.497859 122.13523 -31.117155 C 122.13523 -29.736452 121.01582 -28.617049 119.63512 -28.617049 C 118.25443 -28.617049 117.13502 -29.736452 117.13502 -31.117155 C 117.13502 -32.497859 118.25443 -33.617261 119.63512 -33.617261 z M 129.63503 -33.617261 C 131.01572 -33.617261 132.13513 -32.497859 132.13513 -31.117155 C 132.13513 -29.736452 131.01572 -28.617049 129.63503 -28.617049 C 128.25433 -28.617049 127.13492 -29.736452 127.13492 -31.117155 C 127.13492 -32.497859 128.25433 -33.617261 129.63503 -33.617261 z M 59.635167 -23.617355 C 61.015862 -23.617355 62.135273 -22.497952 62.135273 -21.117249 C 62.135273 -19.736544 61.015862 -18.617142 59.635167 -18.617143 C 58.254476 -18.617143 57.135061 -19.736545 57.135061 -21.117249 C 57.135061 -22.497952 58.254476 -23.617355 59.635167 -23.617355 z M 69.635074 -23.617355 C 71.015765 -23.617355 72.135179 -22.497952 72.135179 -21.117249 C 72.135179 -19.736544 71.015765 -18.617142 69.635074 -18.617143 C 68.254378 -18.617143 67.134968 -19.736545 67.134968 -21.117249 C 67.134968 -22.497952 68.254378 -23.617355 69.635074 -23.617355 z M 79.63498 -23.617355 C 81.01568 -23.617355 82.135086 -22.497952 82.135086 -21.117249 C 82.135086 -19.736544 81.01568 -18.617142 79.63498 -18.617143 C 78.25429 -18.617143 77.134874 -19.736545 77.134874 -21.117249 C 77.134874 -22.497952 78.25429 -23.617355 79.63498 -23.617355 z M 89.634886 -23.617355 C 91.015586 -23.617355 92.134992 -22.497952 92.134992 -21.117249 C 92.134992 -19.736544 91.015586 -18.617142 89.634886 -18.617143 C 88.254201 -18.617143 87.135297 -19.736545 87.135297 -21.117249 C 87.135297 -22.497952 88.254201 -23.617355 89.634886 -23.617355 z M 99.63531 -23.617355 C 101.016 -23.617355 102.1349 -22.497952 102.1349 -21.117249 C 102.1349 -19.736545 101.016 -18.617143 99.63531 -18.617143 C 98.25461 -18.617142 97.135204 -19.736544 97.135204 -21.117249 C 97.135204 -22.497952 98.25461 -23.617355 99.63531 -23.617355 z M 109.63522 -23.617355 C 111.01589 -23.617355 112.13532 -22.497952 112.13532 -21.117249 C 112.13532 -19.736545 111.01589 -18.617143 109.63522 -18.617143 C 108.25451 -18.617142 107.13511 -19.736544 107.13511 -21.117249 C 107.13511 -22.497952 108.25451 -23.617355 109.63522 -23.617355 z M 119.63512 -23.617355 C 121.01582 -23.617355 122.13523 -22.497952 122.13523 -21.117249 C 122.13523 -19.736545 121.01582 -18.617143 119.63512 -18.617143 C 118.25443 -18.617142 117.13502 -19.736544 117.13502 -21.117249 C 117.13502 -22.497952 118.25443 -23.617355 119.63512 -23.617355 z M 129.63503 -23.617355 C 131.01572 -23.617355 132.13513 -22.497952 132.13513 -21.117249 C 132.13513 -19.736545 131.01572 -18.617143 129.63503 -18.617143 C 128.25433 -18.617142 127.13492 -19.736544 127.13492 -21.117249 C 127.13492 -22.497952 128.25433 -23.617355 129.63503 -23.617355 z M 59.635167 -13.617448 C 61.015862 -13.617448 62.135273 -12.498047 62.135273 -11.117342 C 62.135273 -9.7366384 61.015862 -8.6172366 59.635167 -8.6172366 C 58.254476 -8.6172366 57.135061 -9.7366384 57.135061 -11.117342 C 57.135061 -12.498047 58.254476 -13.617447 59.635167 -13.617448 z M 69.635074 -13.617448 C 71.015765 -13.617448 72.135179 -12.498047 72.135179 -11.117342 C 72.135179 -9.7366384 71.015765 -8.6172366 69.635074 -8.6172366 C 68.254378 -8.6172366 67.134968 -9.7366384 67.134968 -11.117342 C 67.134968 -12.498047 68.254378 -13.617447 69.635074 -13.617448 z M 79.63498 -13.617448 C 81.01568 -13.617448 82.135086 -12.498047 82.135086 -11.117342 C 82.135086 -9.7366384 81.01568 -8.6172366 79.63498 -8.6172366 C 78.25429 -8.6172366 77.134874 -9.7366384 77.134874 -11.117342 C 77.134874 -12.498047 78.25429 -13.617447 79.63498 -13.617448 z M 89.634886 -13.617448 C 91.015586 -13.617448 92.134992 -12.498047 92.134992 -11.117342 C 92.134992 -9.7366384 91.015586 -8.6172366 89.634886 -8.6172366 C 88.254201 -8.6172366 87.135297 -9.7366384 87.135297 -11.117342 C 87.135297 -12.498047 88.254201 -13.617447 89.634886 -13.617448 z M 99.63531 -13.617448 C 101.016 -13.617447 102.1349 -12.498047 102.1349 -11.117342 C 102.1349 -9.7366387 101.016 -8.6172366 99.63531 -8.6172366 C 98.25461 -8.6172366 97.135204 -9.7366387 97.135204 -11.117342 C 97.135204 -12.498047 98.25461 -13.617448 99.63531 -13.617448 z M 109.63522 -13.617448 C 111.01589 -13.617447 112.13532 -12.498047 112.13532 -11.117342 C 112.13532 -9.7366387 111.01589 -8.6172366 109.63522 -8.6172366 C 108.25451 -8.6172366 107.13511 -9.7366387 107.13511 -11.117342 C 107.13511 -12.498047 108.25451 -13.617448 109.63522 -13.617448 z M 119.63512 -13.617448 C 121.01582 -13.617447 122.13523 -12.498047 122.13523 -11.117342 C 122.13523 -9.7366387 121.01582 -8.6172366 119.63512 -8.6172366 C 118.25443 -8.6172366 117.13502 -9.7366387 117.13502 -11.117342 C 117.13502 -12.498047 118.25443 -13.617448 119.63512 -13.617448 z M 129.63503 -13.617448 C 131.01572 -13.617447 132.13513 -12.498047 132.13513 -11.117342 C 132.13513 -9.7366387 131.01572 -8.6172366 129.63503 -8.6172366 C 128.25433 -8.6172366 127.13492 -9.7366387 127.13492 -11.117342 C 127.13492 -12.498047 128.25433 -13.617448 129.63503 -13.617448 z M 59.635167 -3.617025 C 61.015862 -3.617025 62.135273 -2.498139 62.135273 -1.1174359 C 62.135273 0.26326785 61.015862 1.3826699 59.635167 1.3826699 C 58.254476 1.3826699 57.135061 0.26326785 57.135061 -1.1174359 C 57.135061 -2.498139 58.254476 -3.617025 59.635167 -3.617025 z M 69.635074 -3.617025 C 71.015765 -3.617025 72.135179 -2.498139 72.135179 -1.1174359 C 72.135179 0.26326785 71.015765 1.3826699 69.635074 1.3826699 C 68.254378 1.3826699 67.134968 0.26326785 67.134968 -1.1174359 C 67.134968 -2.498139 68.254378 -3.617025 69.635074 -3.617025 z M 79.63498 -3.617025 C 81.01568 -3.617025 82.135086 -2.498139 82.135086 -1.1174359 C 82.135086 0.26326785 81.01568 1.3826699 79.63498 1.3826699 C 78.25429 1.3826699 77.134874 0.26326785 77.134874 -1.1174359 C 77.134874 -2.498139 78.25429 -3.617025 79.63498 -3.617025 z M 89.634886 -3.617025 C 91.015586 -3.617025 92.134992 -2.498139 92.134992 -1.1174359 C 92.134992 0.26326785 91.015586 1.3826699 89.634886 1.3826699 C 88.254201 1.3826699 87.135297 0.26326785 87.135297 -1.1174359 C 87.135297 -2.498139 88.254201 -3.617025 89.634886 -3.617025 z M 99.63531 -3.617025 C 101.016 -3.617025 102.1349 -2.498139 102.1349 -1.1174359 C 102.1349 0.26326786 101.016 1.3826699 99.63531 1.3826699 C 98.25461 1.3826699 97.135204 0.26326786 97.135204 -1.1174359 C 97.135204 -2.498139 98.25461 -3.617025 99.63531 -3.617025 z M 109.63522 -3.617025 C 111.01589 -3.617025 112.13532 -2.498139 112.13532 -1.1174359 C 112.13532 0.26326786 111.01589 1.3826699 109.63522 1.3826699 C 108.25451 1.3826699 107.13511 0.26326786 107.13511 -1.1174359 C 107.13511 -2.498139 108.25451 -3.617025 109.63522 -3.617025 z M 119.63512 -3.617025 C 121.01582 -3.617025 122.13523 -2.498139 122.13523 -1.1174359 C 122.13523 0.26326786 121.01582 1.3826699 119.63512 1.3826699 C 118.25443 1.3826699 117.13502 0.26326786 117.13502 -1.1174359 C 117.13502 -2.498139 118.25443 -3.617025 119.63512 -3.617025 z M 129.63503 -3.617025 C 131.01572 -3.617025 132.13513 -2.498139 132.13513 -1.1174359 C 132.13513 0.26326786 131.01572 1.3826699 129.63503 1.3826699 C 128.25433 1.3826699 127.13492 0.26326786 127.13492 -1.1174359 C 127.13492 -2.498139 128.25433 -3.617025 129.63503 -3.617025 z M 59.635167 6.3828814 C 61.015862 6.3828814 62.135273 7.5022836 62.135273 8.8829872 C 62.135273 10.263691 61.015862 11.382576 59.635167 11.382576 C 58.254476 11.382576 57.135061 10.263691 57.135061 8.8829872 C 57.135061 7.5022836 58.254476 6.3828814 59.635167 6.3828814 z M 69.635074 6.3828814 C 71.015765 6.3828814 72.135179 7.5022836 72.135179 8.8829872 C 72.135179 10.263691 71.015765 11.382576 69.635074 11.382576 C 68.254378 11.382576 67.134968 10.263691 67.134968 8.8829872 C 67.134968 7.5022836 68.254378 6.3828814 69.635074 6.3828814 z M 79.63498 6.3828814 C 81.01568 6.3828814 82.135086 7.5022836 82.135086 8.8829872 C 82.135086 10.263691 81.01568 11.382576 79.63498 11.382576 C 78.25429 11.382576 77.134874 10.263691 77.134874 8.8829872 C 77.134874 7.5022836 78.25429 6.3828814 79.63498 6.3828814 z M 89.634886 6.3828814 C 91.015586 6.3828814 92.134992 7.5022836 92.134992 8.8829872 C 92.134992 10.263691 91.015586 11.382576 89.634886 11.382576 C 88.254201 11.382576 87.135297 10.263691 87.135297 8.8829872 C 87.135297 7.5022836 88.254201 6.3828814 89.634886 6.3828814 z M 99.63531 6.3828814 C 101.016 6.3828814 102.1349 7.5022836 102.1349 8.8829872 C 102.1349 10.263691 101.016 11.382576 99.63531 11.382576 C 98.25461 11.382576 97.135204 10.263691 97.135204 8.8829872 C 97.135204 7.5022836 98.25461 6.3828814 99.63531 6.3828814 z M 109.63522 6.3828814 C 111.01589 6.3828814 112.13532 7.5022836 112.13532 8.8829872 C 112.13532 10.263691 111.01589 11.382576 109.63522 11.382576 C 108.25451 11.382576 107.13511 10.263691 107.13511 8.8829872 C 107.13511 7.5022836 108.25451 6.3828814 109.63522 6.3828814 z M 119.63512 6.3828814 C 121.01582 6.3828814 122.13523 7.5022836 122.13523 8.8829872 C 122.13523 10.263691 121.01582 11.382576 119.63512 11.382576 C 118.25443 11.382576 117.13502 10.263691 117.13502 8.8829872 C 117.13502 7.5022836 118.25443 6.3828814 119.63512 6.3828814 z M 129.63503 6.3828814 C 131.01572 6.3828814 132.13513 7.5022836 132.13513 8.8829872 C 132.13513 10.263691 131.01572 11.382576 129.63503 11.382576 C 128.25433 11.382576 127.13492 10.263691 127.13492 8.8829872 C 127.13492 7.5022836 128.25433 6.3828814 129.63503 6.3828814 z M 59.635167 16.382788 C 61.015862 16.382788 62.135273 17.50219 62.135273 18.882894 C 62.135273 20.263598 61.015862 21.382999 59.635167 21.382999 C 58.254476 21.382998 57.135061 20.263598 57.135061 18.882894 C 57.135061 17.50219 58.254476 16.382788 59.635167 16.382788 z M 69.635074 16.382788 C 71.015765 16.382788 72.135179 17.50219 72.135179 18.882894 C 72.135179 20.263598 71.015765 21.382999 69.635074 21.382999 C 68.254378 21.382998 67.134968 20.263598 67.134968 18.882894 C 67.134968 17.50219 68.254378 16.382788 69.635074 16.382788 z M 79.63498 16.382788 C 81.01568 16.382788 82.135086 17.50219 82.135086 18.882894 C 82.135086 20.263598 81.01568 21.382999 79.63498 21.382999 C 78.25429 21.382998 77.134874 20.263598 77.134874 18.882894 C 77.134874 17.50219 78.25429 16.382788 79.63498 16.382788 z M 89.634886 16.382788 C 91.015586 16.382788 92.134992 17.50219 92.134992 18.882894 C 92.134992 20.263598 91.015586 21.382999 89.634886 21.382999 C 88.254201 21.382998 87.135297 20.263598 87.135297 18.882894 C 87.135297 17.50219 88.254201 16.382788 89.634886 16.382788 z M 99.63531 16.382788 C 101.016 16.382788 102.1349 17.50219 102.1349 18.882894 C 102.1349 20.263598 101.016 21.382998 99.63531 21.382999 C 98.25461 21.382999 97.135204 20.263598 97.135204 18.882894 C 97.135204 17.50219 98.25461 16.382788 99.63531 16.382788 z M 109.63522 16.382788 C 111.01589 16.382788 112.13532 17.50219 112.13532 18.882894 C 112.13532 20.263598 111.01589 21.382998 109.63522 21.382999 C 108.25451 21.382999 107.13511 20.263598 107.13511 18.882894 C 107.13511 17.50219 108.25451 16.382788 109.63522 16.382788 z M 119.63512 16.382788 C 121.01582 16.382788 122.13523 17.50219 122.13523 18.882894 C 122.13523 20.263598 121.01582 21.382998 119.63512 21.382999 C 118.25443 21.382999 117.13502 20.263598 117.13502 18.882894 C 117.13502 17.50219 118.25443 16.382788 119.63512 16.382788 z M 129.63503 16.382788 C 131.01572 16.382788 132.13513 17.50219 132.13513 18.882894 C 132.13513 20.263598 131.01572 21.382998 129.63503 21.382999 C 128.25433 21.382999 127.13492 20.263598 127.13492 18.882894 C 127.13492 17.50219 128.25433 16.382788 129.63503 16.382788 z M 59.635167 26.382694 C 61.015862 26.382693 62.135273 27.502095 62.135273 28.8828 C 62.135273 30.263504 61.015862 31.382906 59.635167 31.382906 C 58.254476 31.382906 57.135061 30.263504 57.135061 28.8828 C 57.135061 27.502096 58.254476 26.382694 59.635167 26.382694 z M 69.635074 26.382694 C 71.015765 26.382693 72.135179 27.502095 72.135179 28.8828 C 72.135179 30.263504 71.015765 31.382906 69.635074 31.382906 C 68.254378 31.382906 67.134968 30.263504 67.134968 28.8828 C 67.134968 27.502096 68.254378 26.382694 69.635074 26.382694 z M 79.63498 26.382694 C 81.01568 26.382693 82.135086 27.502095 82.135086 28.8828 C 82.135086 30.263504 81.01568 31.382906 79.63498 31.382906 C 78.25429 31.382906 77.134874 30.263504 77.134874 28.8828 C 77.134874 27.502096 78.25429 26.382694 79.63498 26.382694 z M 89.634886 26.382694 C 91.015586 26.382693 92.134992 27.502095 92.134992 28.8828 C 92.134992 30.263504 91.015586 31.382906 89.634886 31.382906 C 88.254201 31.382906 87.135297 30.263504 87.135297 28.8828 C 87.135297 27.502096 88.254201 26.382694 89.634886 26.382694 z M 99.63531 26.382694 C 101.016 26.382694 102.1349 27.502096 102.1349 28.8828 C 102.1349 30.263504 101.016 31.382906 99.63531 31.382906 C 98.25461 31.382906 97.135204 30.263504 97.135204 28.8828 C 97.135204 27.502095 98.25461 26.382693 99.63531 26.382694 z M 109.63522 26.382694 C 111.01589 26.382694 112.13532 27.502096 112.13532 28.8828 C 112.13532 30.263504 111.01589 31.382906 109.63522 31.382906 C 108.25451 31.382906 107.13511 30.263504 107.13511 28.8828 C 107.13511 27.502095 108.25451 26.382693 109.63522 26.382694 z M 119.63512 26.382694 C 121.01582 26.382694 122.13523 27.502096 122.13523 28.8828 C 122.13523 30.263504 121.01582 31.382906 119.63512 31.382906 C 118.25443 31.382906 117.13502 30.263504 117.13502 28.8828 C 117.13502 27.502095 118.25443 26.382693 119.63512 26.382694 z M 129.63503 26.382694 C 131.01572 26.382694 132.13513 27.502096 132.13513 28.8828 C 132.13513 30.263504 131.01572 31.382906 129.63503 31.382906 C 128.25433 31.382906 127.13492 30.263504 127.13492 28.8828 C 127.13492 27.502095 128.25433 26.382693 129.63503 26.382694 z M 59.635167 36.382601 C 61.015862 36.382601 62.135273 37.502003 62.135273 38.882706 C 62.135273 40.26341 61.015862 41.382812 59.635167 41.382812 C 58.254476 41.382812 57.135061 40.26341 57.135061 38.882706 C 57.135061 37.502003 58.254476 36.382601 59.635167 36.382601 z M 69.635074 36.382601 C 71.015765 36.382601 72.135179 37.502003 72.135179 38.882706 C 72.135179 40.26341 71.015765 41.382812 69.635074 41.382812 C 68.254378 41.382812 67.134968 40.26341 67.134968 38.882706 C 67.134968 37.502003 68.254378 36.382601 69.635074 36.382601 z M 79.63498 36.382601 C 81.01568 36.382601 82.135086 37.502003 82.135086 38.882706 C 82.135086 40.26341 81.01568 41.382812 79.63498 41.382812 C 78.25429 41.382812 77.134874 40.26341 77.134874 38.882706 C 77.134874 37.502003 78.25429 36.382601 79.63498 36.382601 z M 89.634886 36.382601 C 91.015586 36.382601 92.134992 37.502003 92.134992 38.882706 C 92.134992 40.26341 91.015586 41.382812 89.634886 41.382812 C 88.254201 41.382812 87.135297 40.26341 87.135297 38.882706 C 87.135297 37.502003 88.254201 36.382601 89.634886 36.382601 z M 99.63531 36.382601 C 101.016 36.382601 102.1349 37.502003 102.1349 38.882706 C 102.1349 40.26341 101.016 41.382812 99.63531 41.382812 C 98.25461 41.382812 97.135204 40.26341 97.135204 38.882706 C 97.135204 37.502003 98.25461 36.382601 99.63531 36.382601 z M 109.63522 36.382601 C 111.01589 36.382601 112.13532 37.502003 112.13532 38.882706 C 112.13532 40.26341 111.01589 41.382812 109.63522 41.382812 C 108.25451 41.382812 107.13511 40.26341 107.13511 38.882706 C 107.13511 37.502003 108.25451 36.382601 109.63522 36.382601 z M 119.63512 36.382601 C 121.01582 36.382601 122.13523 37.502003 122.13523 38.882706 C 122.13523 40.26341 121.01582 41.382812 119.63512 41.382812 C 118.25443 41.382812 117.13502 40.26341 117.13502 38.882706 C 117.13502 37.502003 118.25443 36.382601 119.63512 36.382601 z M 129.63503 36.382601 C 131.01572 36.382601 132.13513 37.502003 132.13513 38.882706 C 132.13513 40.26341 131.01572 41.382812 129.63503 41.382812 C 128.25433 41.382812 127.13492 40.26341 127.13492 38.882706 C 127.13492 37.502003 128.25433 36.382601 129.63503 36.382601 z "
     transform="translate(-94.635098,36.11685)" /></svg>
