<?xml version="1.0" encoding="UTF-8" standalone="no"?>
<!-- Created with Inkscape (http://www.inkscape.org/) -->

<svg
   width="46mm"
   height="46mm"
   viewBox="0 0 46 46"
   version="1.1"
   id="svg1"
   inkscape:version="1.3 (0e150ed6c4, 2023-07-21)"
   sodipodi:docname="winder--base--screw.svg"
   xmlns:inkscape="http://www.inkscape.org/namespaces/inkscape"
   xmlns:sodipodi="http://sodipodi.sourceforge.net/DTD/sodipodi-0.dtd"
   xmlns="http://www.w3.org/2000/svg"
   xmlns:svg="http://www.w3.org/2000/svg">
  <sodipodi:namedview
     id="namedview1"
     pagecolor="#ffffff"
     bordercolor="#000000"
     borderopacity="0.25"
     inkscape:showpageshadow="2"
     inkscape:pageopacity="0.0"
     inkscape:pagecheckerboard="0"
     inkscape:deskcolor="#d1d1d1"
     inkscape:document-units="mm"
     showgrid="true"
     inkscape:zoom="2.2805836"
     inkscape:cx="-9.2081693"
     inkscape:cy="37.709646"
     inkscape:window-width="2496"
     inkscape:window-height="1558"
     inkscape:window-x="-11"
     inkscape:window-y="-11"
     inkscape:window-maximized="1"
     inkscape:current-layer="layer1">
    <inkscape:grid
       id="grid1"
       units="mm"
       originx="0"
       originy="-6.608137e-06"
       spacingx="0.99999998"
       spacingy="1"
       empcolor="#0099e5"
       empopacity="0.30196078"
       color="#0099e5"
       opacity="0.14901961"
       empspacing="10"
       dotted="false"
       gridanglex="30"
       gridanglez="30"
       visible="true" />
  </sodipodi:namedview>
  <defs
     id="defs1" />
  <g
     inkscape:label="Layer 1"
     inkscape:groupmode="layer"
     id="layer1"
     transform="translate(0,-251)">
    <path
       id="path1"
       style="vector-effect:non-scaling-stroke;fill:#808080;fill-rule:evenodd;stroke:none;stroke-width:0.0612722;stroke-linecap:round;stroke-linejoin:round;-inkscape-stroke:hairline;paint-order:stroke fill markers"
       d="m -2.0001457,274.00022 v 1.14308 c -10.5318913,0.9846 -18.8721563,9.32488 -19.8567663,19.85667 H -23 v 4.00027 h 1.143088 c 0.98461,10.53179 9.324875,18.87207 19.8567663,19.85667 V 320 h 4.0002914 v -1.14309 C 12.532037,317.87231 20.872304,309.53203 21.856912,299.00024 H 23 v -4.00027 H 21.905488 C 20.93919,284.43269 12.567525,276.06102 2.0001457,275.09473 v -1.09451 z m -5.9996633,13.00024 a 2.0000097,2 0 0 1 1.9998878,1.99988 2.0000097,2 0 0 1 -1.9998878,1.99988 2.0000097,2 0 0 1 -1.9998877,-1.99988 2.0000097,2 0 0 1 1.9998877,-1.99988 z m 16.000135,0 a 2.0000097,2 0 0 1 1.999888,1.99988 2.0000097,2 0 0 1 -1.999888,1.99988 2.0000097,2 0 0 1 -2.0004048,-1.99988 2.0000097,2 0 0 1 2.0004048,-1.99988 z M 2.5800126e-4,294.00003 C 1.6571891,294.00013 3.0002776,295.34345 3.0000896,297.00037 c -1.05e-4,1.6567 -1.3431075,2.99971 -2.99983159874,2.99981 C -1.6566661,300.00036 -2.9999846,298.65727 -3.0000896,297.00037 c -1.88e-4,-1.65712 1.3432165,-3.00052 3.00034760126,-3.00034 z M -7.999809,303 a 2.0000097,2 0 0 1 1.9998878,2.00039 2.0000097,2 0 0 1 -1.9998878,1.99988 2.0000097,2 0 0 1 -1.9998877,-1.99988 A 2.0000097,2 0 0 1 -7.999809,303 Z m 16.000135,0 a 2.0000097,2 0 0 1 1.999888,2.00039 2.0000097,2 0 0 1 -1.999888,1.99988 A 2.0000097,2 0 0 1 5.9999212,305.00039 2.0000097,2 0 0 1 8.000326,303 Z" />
  </g>
</svg>
