<?xml version="1.0" encoding="UTF-8" standalone="no"?>
<!-- Created with Inkscape (http://www.inkscape.org/) -->

<svg
   width="46mm"
   height="46mm"
   viewBox="0 0 46 46"
   version="1.1"
   id="svg1"
   inkscape:version="1.3 (0e150ed6c4, 2023-07-21)"
   sodipodi:docname="winder.svg"
   xml:space="preserve"
   xmlns:inkscape="http://www.inkscape.org/namespaces/inkscape"
   xmlns:sodipodi="http://sodipodi.sourceforge.net/DTD/sodipodi-0.dtd"
   xmlns="http://www.w3.org/2000/svg"
   xmlns:svg="http://www.w3.org/2000/svg"><sodipodi:namedview
     id="namedview1"
     pagecolor="#ffffff"
     bordercolor="#000000"
     borderopacity="0.25"
     inkscape:showpageshadow="2"
     inkscape:pageopacity="0.0"
     inkscape:pagecheckerboard="0"
     inkscape:deskcolor="#d1d1d1"
     inkscape:document-units="mm"
     showgrid="true"
     inkscape:zoom="2.2805836"
     inkscape:cx="82.873524"
     inkscape:cy="81.558071"
     inkscape:window-width="2496"
     inkscape:window-height="1558"
     inkscape:window-x="-11"
     inkscape:window-y="-11"
     inkscape:window-maximized="1"
     inkscape:current-layer="g21"
     showguides="true"><inkscape:grid
       id="grid1"
       units="mm"
       originx="0"
       originy="-6.608137e-06"
       spacingx="0.99999998"
       spacingy="1"
       empcolor="#0099e5"
       empopacity="0.30196078"
       color="#0099e5"
       opacity="0.14901961"
       empspacing="10"
       dotted="false"
       gridanglex="30"
       gridanglez="30"
       visible="true" /><sodipodi:guide
       position="0,23.000111"
       orientation="0,1"
       id="guide87"
       inkscape:locked="false" /><sodipodi:guide
       position="23,45.999993"
       orientation="1,0"
       id="guide88"
       inkscape:locked="false" /></sodipodi:namedview><defs
     id="defs1"><inkscape:path-effect
       effect="offset"
       id="path-effect3"
       is_visible="true"
       lpeversion="1.2"
       linejoin_type="miter"
       unit="mm"
       offset="0.3"
       miter_limit="4"
       attempt_force_join="false"
       update_on_knot_move="true" /><inkscape:path-effect
       effect="copy_rotate"
       starting_point="24.499999,22.999888"
       origin="22.999999,22.999888"
       id="path-effect161"
       is_visible="true"
       lpeversion="1.2"
       lpesatellites=""
       method="normal"
       num_copies="4"
       starting_angle="0"
       rotation_angle="60"
       gap="-0.01"
       copies_to_360="true"
       mirror_copies="false"
       split_items="false"
       link_styles="false" /><inkscape:path-effect
       effect="offset"
       id="path-effect159"
       is_visible="true"
       lpeversion="1.2"
       linejoin_type="miter"
       unit="mm"
       offset="0.3"
       miter_limit="4"
       attempt_force_join="false"
       update_on_knot_move="true" /><inkscape:path-effect
       effect="copy_rotate"
       starting_point="24.499999,22.999888"
       origin="22.999999,22.999888"
       id="path-effect157"
       is_visible="true"
       lpeversion="1.2"
       lpesatellites=""
       method="normal"
       num_copies="4"
       starting_angle="0"
       rotation_angle="60"
       gap="-0.01"
       copies_to_360="true"
       mirror_copies="false"
       split_items="false"
       link_styles="false" /><inkscape:path-effect
       effect="offset"
       id="path-effect155"
       is_visible="true"
       lpeversion="1.2"
       linejoin_type="miter"
       unit="mm"
       offset="0.3"
       miter_limit="4"
       attempt_force_join="false"
       update_on_knot_move="true" /><inkscape:path-effect
       effect="copy_rotate"
       starting_point="24.499999,22.999888"
       origin="22.999999,22.999888"
       id="path-effect151"
       is_visible="true"
       lpeversion="1.2"
       lpesatellites=""
       method="normal"
       num_copies="4"
       starting_angle="0"
       rotation_angle="60"
       gap="-0.01"
       copies_to_360="true"
       mirror_copies="false"
       split_items="false"
       link_styles="false" /><inkscape:path-effect
       effect="offset"
       id="path-effect149"
       is_visible="true"
       lpeversion="1.2"
       linejoin_type="miter"
       unit="mm"
       offset="0.3"
       miter_limit="4"
       attempt_force_join="false"
       update_on_knot_move="true" /><inkscape:path-effect
       effect="copy_rotate"
       starting_point="24.499999,22.999888"
       origin="22.999999,22.999888"
       id="path-effect144"
       is_visible="true"
       lpeversion="1.2"
       lpesatellites=""
       method="normal"
       num_copies="4"
       starting_angle="0"
       rotation_angle="60"
       gap="-0.01"
       copies_to_360="true"
       mirror_copies="false"
       split_items="false"
       link_styles="false" /><inkscape:path-effect
       effect="offset"
       id="path-effect142"
       is_visible="true"
       lpeversion="1.2"
       linejoin_type="miter"
       unit="mm"
       offset="0.3"
       miter_limit="4"
       attempt_force_join="false"
       update_on_knot_move="true" /><inkscape:path-effect
       effect="copy_rotate"
       starting_point="24.499999,22.999888"
       origin="22.999999,22.999888"
       id="path-effect134"
       is_visible="true"
       lpeversion="1.2"
       lpesatellites=""
       method="normal"
       num_copies="4"
       starting_angle="0"
       rotation_angle="60"
       gap="-0.01"
       copies_to_360="true"
       mirror_copies="false"
       split_items="false"
       link_styles="false" /><inkscape:path-effect
       effect="offset"
       id="path-effect132"
       is_visible="true"
       lpeversion="1.2"
       linejoin_type="miter"
       unit="mm"
       offset="0.3"
       miter_limit="4"
       attempt_force_join="false"
       update_on_knot_move="true" /><inkscape:path-effect
       effect="copy_rotate"
       starting_point="24.499999,22.999888"
       origin="22.999999,22.999888"
       id="path-effect127"
       is_visible="true"
       lpeversion="1.2"
       lpesatellites=""
       method="normal"
       num_copies="4"
       starting_angle="0"
       rotation_angle="60"
       gap="-0.01"
       copies_to_360="true"
       mirror_copies="false"
       split_items="false"
       link_styles="false" /><inkscape:path-effect
       effect="offset"
       id="path-effect125"
       is_visible="true"
       lpeversion="1.2"
       linejoin_type="miter"
       unit="mm"
       offset="0.3"
       miter_limit="4"
       attempt_force_join="false"
       update_on_knot_move="true" /><inkscape:path-effect
       effect="offset"
       id="path-effect119"
       is_visible="true"
       lpeversion="1.2"
       linejoin_type="miter"
       unit="mm"
       offset="0.3"
       miter_limit="4"
       attempt_force_join="false"
       update_on_knot_move="true" /><inkscape:path-effect
       effect="copy_rotate"
       starting_point="24.499999,22.999888"
       origin="22.999999,22.999888"
       id="path-effect118"
       is_visible="true"
       lpeversion="1.2"
       lpesatellites=""
       method="normal"
       num_copies="4"
       starting_angle="0"
       rotation_angle="90"
       gap="-0.01"
       copies_to_360="true"
       mirror_copies="false"
       split_items="false"
       link_styles="false" /><inkscape:path-effect
       effect="offset"
       id="path-effect116"
       is_visible="true"
       lpeversion="1.2"
       linejoin_type="miter"
       unit="mm"
       offset="0.3"
       miter_limit="4"
       attempt_force_join="false"
       update_on_knot_move="true" /><inkscape:path-effect
       effect="offset"
       id="path-effect111"
       is_visible="true"
       lpeversion="1.2"
       linejoin_type="miter"
       unit="mm"
       offset="0.3"
       miter_limit="4"
       attempt_force_join="false"
       update_on_knot_move="true" /><inkscape:path-effect
       effect="copy_rotate"
       starting_point="24.499999,22.999888"
       origin="22.999999,22.999888"
       id="path-effect110"
       is_visible="true"
       lpeversion="1.2"
       lpesatellites=""
       method="normal"
       num_copies="4"
       starting_angle="0"
       rotation_angle="60"
       gap="-0.01"
       copies_to_360="true"
       mirror_copies="false"
       split_items="false"
       link_styles="false" /><inkscape:path-effect
       effect="copy_rotate"
       starting_point="24.499999,22.999888"
       origin="22.999999,22.999888"
       id="path-effect103"
       is_visible="true"
       lpeversion="1.2"
       lpesatellites=""
       method="normal"
       num_copies="4"
       starting_angle="0"
       rotation_angle="60"
       gap="-0.01"
       copies_to_360="true"
       mirror_copies="false"
       split_items="false"
       link_styles="false" /><inkscape:path-effect
       effect="copy_rotate"
       starting_point="24.499999,22.999888"
       origin="22.999999,22.999888"
       id="path-effect88"
       is_visible="true"
       lpeversion="1.2"
       lpesatellites=""
       method="normal"
       num_copies="4"
       starting_angle="0"
       rotation_angle="90"
       gap="-0.01"
       copies_to_360="true"
       mirror_copies="false"
       split_items="false"
       link_styles="false" /><inkscape:path-effect
       effect="offset"
       id="path-effect82"
       is_visible="true"
       lpeversion="1.2"
       linejoin_type="miter"
       unit="mm"
       offset="0.3"
       miter_limit="4"
       attempt_force_join="false"
       update_on_knot_move="true" /><inkscape:path-effect
       effect="copy_rotate"
       starting_point="24.499999,23.000006"
       origin="22.999999,23.000006"
       id="path-effect80"
       is_visible="true"
       lpeversion="1.2"
       lpesatellites=""
       method="normal"
       num_copies="4"
       starting_angle="0"
       rotation_angle="90"
       gap="-0.01"
       copies_to_360="true"
       mirror_copies="false"
       split_items="false"
       link_styles="false" /><inkscape:path-effect
       effect="offset"
       id="path-effect74"
       is_visible="true"
       lpeversion="1.2"
       linejoin_type="miter"
       unit="mm"
       offset="0.3"
       miter_limit="4"
       attempt_force_join="false"
       update_on_knot_move="true" /><inkscape:path-effect
       effect="copy_rotate"
       starting_point="24.499999,23.000006"
       origin="22.999999,23.000006"
       id="path-effect72"
       is_visible="true"
       lpeversion="1.2"
       lpesatellites=""
       method="normal"
       num_copies="4"
       starting_angle="0"
       rotation_angle="90"
       gap="-0.01"
       copies_to_360="true"
       mirror_copies="false"
       split_items="false"
       link_styles="false" /><inkscape:path-effect
       effect="copy_rotate"
       starting_point="24.499999,23.000006"
       origin="22.999999,23.000006"
       id="path-effect66"
       is_visible="true"
       lpeversion="1.2"
       lpesatellites=""
       method="normal"
       num_copies="4"
       starting_angle="0"
       rotation_angle="90"
       gap="-0.01"
       copies_to_360="true"
       mirror_copies="false"
       split_items="false"
       link_styles="false" /><inkscape:path-effect
       effect="offset"
       id="path-effect60"
       is_visible="true"
       lpeversion="1.2"
       linejoin_type="miter"
       unit="mm"
       offset="0.3"
       miter_limit="4"
       attempt_force_join="false"
       update_on_knot_move="true" /><inkscape:path-effect
       effect="copy_rotate"
       starting_point="24.499999,23.000006"
       origin="22.999999,23.000006"
       id="path-effect58"
       is_visible="true"
       lpeversion="1.2"
       lpesatellites=""
       method="normal"
       num_copies="4"
       starting_angle="0"
       rotation_angle="90"
       gap="-0.01"
       copies_to_360="true"
       mirror_copies="false"
       split_items="false"
       link_styles="false" /><inkscape:path-effect
       effect="copy_rotate"
       starting_point="24.499999,23.000006"
       origin="22.999999,23.000006"
       id="path-effect51"
       is_visible="true"
       lpeversion="1.2"
       lpesatellites=""
       method="normal"
       num_copies="4"
       starting_angle="0"
       rotation_angle="90"
       gap="-0.01"
       copies_to_360="true"
       mirror_copies="false"
       split_items="false"
       link_styles="false" /><inkscape:path-effect
       effect="copy_rotate"
       starting_point="24.499999,23.000006"
       origin="22.999999,23.000006"
       id="path-effect48"
       is_visible="true"
       lpeversion="1.2"
       lpesatellites=""
       method="normal"
       num_copies="4"
       starting_angle="0"
       rotation_angle="90"
       gap="-0.01"
       copies_to_360="true"
       mirror_copies="false"
       split_items="false"
       link_styles="false" /><inkscape:path-effect
       effect="offset"
       id="path-effect47"
       is_visible="true"
       lpeversion="1.2"
       linejoin_type="miter"
       unit="mm"
       offset="0.3"
       miter_limit="4"
       attempt_force_join="false"
       update_on_knot_move="true" /><inkscape:path-effect
       effect="offset"
       id="path-effect45"
       is_visible="true"
       lpeversion="1.2"
       linejoin_type="miter"
       unit="mm"
       offset="0.3"
       miter_limit="4"
       attempt_force_join="false"
       update_on_knot_move="true" /><inkscape:path-effect
       effect="copy_rotate"
       starting_point="39.294083,46.000005"
       origin="0,46.000005"
       id="path-effect40"
       is_visible="true"
       lpeversion="1.2"
       lpesatellites=""
       method="normal"
       num_copies="4"
       starting_angle="0"
       rotation_angle="90"
       gap="-0.01"
       copies_to_360="true"
       mirror_copies="false"
       split_items="false"
       link_styles="false" /><inkscape:path-effect
       effect="copy_rotate"
       starting_point="39.294083,46.000005"
       origin="0,46.000005"
       id="path-effect35"
       is_visible="true"
       lpeversion="1.2"
       lpesatellites=""
       method="normal"
       num_copies="4"
       starting_angle="0"
       rotation_angle="90"
       gap="-0.01"
       copies_to_360="true"
       mirror_copies="false"
       split_items="false"
       link_styles="false" /><inkscape:path-effect
       effect="copy_rotate"
       starting_point="39.294083,46.000005"
       origin="0,46.000005"
       id="path-effect29"
       is_visible="true"
       lpeversion="1.2"
       lpesatellites=""
       method="normal"
       num_copies="4"
       starting_angle="0"
       rotation_angle="90"
       gap="-0.01"
       copies_to_360="true"
       mirror_copies="false"
       split_items="false"
       link_styles="false" /><inkscape:path-effect
       effect="copy_rotate"
       starting_point="39.294083,46.000005"
       origin="0,46.000005"
       id="path-effect27"
       is_visible="true"
       lpeversion="1.2"
       lpesatellites=""
       method="normal"
       num_copies="4"
       starting_angle="0"
       rotation_angle="90"
       gap="-0.01"
       copies_to_360="true"
       mirror_copies="false"
       split_items="false"
       link_styles="false" /><inkscape:path-effect
       effect="copy_rotate"
       starting_point="39.294083,46.000005"
       origin="0,46.000005"
       id="path-effect18"
       is_visible="true"
       lpeversion="1.2"
       lpesatellites=""
       method="normal"
       num_copies="4"
       starting_angle="0"
       rotation_angle="90"
       gap="-0.01"
       copies_to_360="true"
       mirror_copies="false"
       split_items="false"
       link_styles="false" /><inkscape:path-effect
       effect="copy_rotate"
       starting_point="39.294083,46.000005"
       origin="0,46.000005"
       id="path-effect1"
       is_visible="true"
       lpeversion="1.2"
       lpesatellites=""
       method="normal"
       num_copies="4"
       starting_angle="0"
       rotation_angle="90"
       gap="-0.01"
       copies_to_360="true"
       mirror_copies="false"
       split_items="false"
       link_styles="false" /></defs><g
     inkscape:groupmode="layer"
     id="g21"
     inkscape:label="motor-joint"
     style="display:inline"><g
       id="g40"
       inkscape:label="motor-joint--hole--coupling--build"
       style="display:none;fill:#808080"><circle
         style="display:inline;vector-effect:non-scaling-stroke;fill:#808080;fill-rule:evenodd;stroke:#000000;stroke-width:0.277183;stroke-linecap:round;stroke-linejoin:round;-inkscape-stroke:hairline;paint-order:stroke fill markers"
         id="circle35"
         cx="23"
         cy="22.999998"
         r="22"
         inkscape:label="circle05" /><circle
         style="vector-effect:non-scaling-stroke;fill:#808080;fill-rule:evenodd;stroke:#000000;stroke-width:0.384848;stroke-linecap:round;stroke-linejoin:round;-inkscape-stroke:hairline;paint-order:stroke fill markers"
         id="circle37"
         cx="23"
         cy="22.999998"
         r="16"
         inkscape:label="circle03" /><rect
         style="vector-effect:non-scaling-stroke;fill:#808080;fill-rule:evenodd;stroke:#000000;stroke-width:0.197537;stroke-linecap:round;stroke-linejoin:round;-inkscape-stroke:hairline;paint-order:stroke fill markers"
         id="rect37"
         width="3"
         height="46"
         x="21.5"
         y="-1.748403e-06"
         inkscape:label="rect02" /><rect
         style="vector-effect:non-scaling-stroke;fill:#808080;fill-rule:evenodd;stroke:#000000;stroke-width:0.197537;stroke-linecap:round;stroke-linejoin:round;-inkscape-stroke:hairline;paint-order:stroke fill markers"
         id="rect38"
         width="3"
         height="46"
         x="21.499998"
         y="-46"
         transform="rotate(90)"
         inkscape:label="rect01" /></g><path
       id="circle30"
       style="display:none;vector-effect:non-scaling-stroke;fill:#808080;fill-rule:evenodd;stroke:#000000;stroke-width:0.277183;stroke-linecap:round;stroke-linejoin:round;-inkscape-stroke:hairline;paint-order:stroke fill markers"
       inkscape:label="motor-joint--hole--coupling--shape"
       d="M 21.49998,0 V 1.1069092 A 22,22 0 0 0 1.1069092,21.49998 H 0 v 2.999817 H 1.1069092 A 22,22 0 0 0 21.49998,44.892867 v 1.106909 h 2.999817 v -1.106909 a 22,22 0 0 0 20.39307,-20.39307 h 1.106909 V 21.49998 h -1.0573 A 22,22 0 0 0 24.499797,1.0572998 V 0 Z m 1.500166,7.0000895 A 16,16 0 0 1 39.000203,23.000146 16,16 0 0 1 23.000146,39.000203 16,16 0 0 1 7.0000895,23.000146 16,16 0 0 1 23.000146,7.0000895 Z" /><g
       id="g29"
       style="display:none;fill:#808080"
       inkscape:label="motor-joint--hole--screw--build"><circle
         style="display:inline;vector-effect:non-scaling-stroke;fill:#808080;fill-rule:evenodd;stroke:#000000;stroke-width:0.277183;stroke-linecap:round;stroke-linejoin:round;-inkscape-stroke:hairline;paint-order:stroke fill markers"
         id="circle27"
         cx="23"
         cy="22.999998"
         r="22"
         inkscape:label="circle05" /><rect
         style="vector-effect:non-scaling-stroke;fill:#808080;fill-rule:evenodd;stroke:#000000;stroke-width:0.197537;stroke-linecap:round;stroke-linejoin:round;-inkscape-stroke:hairline;paint-order:stroke fill markers"
         id="rect27"
         width="3"
         height="46"
         x="21.5"
         y="-1.748403e-06"
         inkscape:label="rect02" /><rect
         style="vector-effect:non-scaling-stroke;fill:#808080;fill-rule:evenodd;stroke:#000000;stroke-width:0.197537;stroke-linecap:round;stroke-linejoin:round;-inkscape-stroke:hairline;paint-order:stroke fill markers"
         id="rect28"
         width="3"
         height="46"
         x="21.499998"
         y="-46"
         transform="rotate(90)"
         inkscape:label="rect01" /><circle
         style="vector-effect:non-scaling-stroke;fill:#808080;fill-rule:evenodd;stroke:#000000;stroke-width:0.0377976;stroke-linecap:round;stroke-linejoin:round;-inkscape-stroke:hairline;paint-order:stroke fill markers"
         id="circle28"
         cx="23"
         cy="22.999998"
         r="3"
         inkscape:label="circle01" /><path
         d="m -8.0000685,40.000475 c 1.10468,-6.7e-5 2.000104,-0.895716 1.999889,-2.00039 -6.7e-5,-1.104475 -0.895408,-1.999813 -1.999889,-1.99988 -1.10448,6.8e-5 -1.99982,0.895405 -1.999887,1.99988 -2.155e-4,1.104674 0.895208,2.000322 1.999887,2.00039 z M -5.99953,54.000073 c -6.7e-5,-1.10468 -0.895716,-2.000104 -2.00039,-1.999888 -1.104475,6.7e-5 -1.999813,0.895407 -1.99988,1.999888 6.8e-5,1.104481 0.895405,1.99982 1.99988,1.999887 1.104674,2.16e-4 2.000322,-0.895207 2.00039,-1.999887 z M 8.0000685,51.999535 c -1.10468,6.7e-5 -2.000104,0.895716 -1.999889,2.00039 6.7e-5,1.104475 0.895408,1.999813 1.999889,1.99988 1.10448,-6.8e-5 1.99982,-0.895405 1.999887,-1.99988 2.155e-4,-1.104674 -0.895208,-2.000322 -1.999887,-2.00039 z M 5.99953,37.999937 c 6.7e-5,1.10468 0.895716,2.000104 2.00039,1.999888 1.104475,-6.7e-5 1.999813,-0.895407 1.99988,-1.999888 -6.8e-5,-1.10448 -0.895405,-1.99982 -1.99988,-1.999887 -1.104674,-2.16e-4 -2.000322,0.895207 -2.00039,1.999887 z"
         style="display:inline;vector-effect:non-scaling-stroke;fill:#808080;fill-rule:evenodd;stroke:#000000;stroke-width:0.0612722;stroke-linecap:round;stroke-linejoin:round;-inkscape-stroke:hairline;paint-order:stroke fill markers"
         id="path28"
         sodipodi:nodetypes="ccccc"
         transform="translate(23,-23.000007)"
         inkscape:label="circle-pattern"
         inkscape:original-d="m -8.0000685,40.000475 c 1.10468,-6.7e-5 2.000104,-0.895716 1.999889,-2.00039 -6.7e-5,-1.104475 -0.895408,-1.999813 -1.999889,-1.99988 -1.10448,6.8e-5 -1.99982,0.895405 -1.999887,1.99988 -2.155e-4,1.104674 0.895208,2.000322 1.999887,2.00039 z"
         inkscape:path-effect="#path-effect29" /></g><path
       id="circle22"
       style="display:none;vector-effect:non-scaling-stroke;fill:#808080;fill-rule:evenodd;stroke:#000000;stroke-width:0.277183;stroke-linecap:round;stroke-linejoin:round;-inkscape-stroke:hairline;paint-order:stroke fill markers"
       inkscape:label="motor-joint--hole--screw--shape"
       d="M 21.49998,0 V 1.1069092 A 22,22 0 0 0 1.1069092,21.49998 H 0 v 2.999817 H 1.1069092 A 22,22 0 0 0 21.49998,44.892867 v 1.106909 h 2.999817 v -1.106909 a 22,22 0 0 0 20.39307,-20.39307 h 1.106909 V 21.49998 h -1.0573 A 22,22 0 0 0 24.499797,1.0572998 V 0 Z m -6.499862,13.00024 c 1.104479,6.7e-5 1.999811,0.895405 1.999878,1.999878 2.15e-4,1.104672 -0.8952,2.000328 -1.999878,2.000395 -1.104677,-6.8e-5 -2.000093,-0.895723 -1.999878,-2.000395 6.7e-5,-1.104473 0.8954,-1.99981 1.999878,-1.999878 z m 16.000057,0 c 1.104473,6.7e-5 1.99981,0.8954 1.999878,1.999878 -6.7e-5,1.104479 -0.895405,1.999811 -1.999878,1.999878 -1.104672,2.15e-4 -2.000328,-0.8952 -2.000395,-1.999878 6.8e-5,-1.104677 0.895723,-2.000093 2.000395,-1.999878 z m -8.000029,6.999573 a 3,3 0 0 1 2.999817,3.000333 3,3 0 0 1 -2.999817,2.999817 3,3 0 0 1 -3.000333,-2.999817 3,3 0 0 1 3.000333,-3.000333 z m 8.000029,8.999967 c 1.104677,6.8e-5 2.000093,0.895723 1.999878,2.000395 -6.7e-5,1.104473 -0.8954,1.99981 -1.999878,1.999878 -1.104479,-6.7e-5 -1.999811,-0.895405 -1.999878,-1.999878 -2.15e-4,-1.104672 0.8952,-2.000328 1.999878,-2.000395 z m -16.000057,5.17e-4 c 1.104672,-2.15e-4 2.000328,0.8952 2.000395,1.999878 -6.8e-5,1.104677 -0.895723,2.000093 -2.000395,1.999878 -1.104473,-6.7e-5 -1.99981,-0.8954 -1.999878,-1.999878 6.7e-5,-1.104479 0.895405,-1.999811 1.999878,-1.999878 z" /><g
       id="g30"
       inkscape:label="motor-joint--base--build"
       style="display:none;fill:#808080"><circle
         style="display:inline;vector-effect:non-scaling-stroke;fill:#808080;fill-rule:evenodd;stroke:#000000;stroke-width:0.277183;stroke-linecap:round;stroke-linejoin:round;-inkscape-stroke:hairline;paint-order:stroke fill markers"
         id="circle13"
         cx="23"
         cy="22.999998"
         r="22"
         inkscape:label="circle05" /><circle
         style="vector-effect:non-scaling-stroke;fill:#808080;fill-rule:evenodd;stroke:#000000;stroke-width:0.239385;stroke-linecap:round;stroke-linejoin:round;-inkscape-stroke:hairline;paint-order:stroke fill markers"
         id="circle14"
         r="19"
         cy="22.999998"
         cx="23"
         inkscape:label="circle04" /><rect
         style="vector-effect:non-scaling-stroke;fill:#808080;fill-rule:evenodd;stroke:#000000;stroke-width:0.197537;stroke-linecap:round;stroke-linejoin:round;-inkscape-stroke:hairline;paint-order:stroke fill markers"
         id="rect15"
         width="3"
         height="46"
         x="21.5"
         y="-1.748403e-06"
         inkscape:label="rect02" /><rect
         style="vector-effect:non-scaling-stroke;fill:#808080;fill-rule:evenodd;stroke:#000000;stroke-width:0.197537;stroke-linecap:round;stroke-linejoin:round;-inkscape-stroke:hairline;paint-order:stroke fill markers"
         id="rect16"
         width="3"
         height="46"
         x="21.499998"
         y="-46"
         transform="rotate(90)"
         inkscape:label="rect01" /><circle
         style="display:inline;vector-effect:non-scaling-stroke;fill:#808080;fill-rule:evenodd;stroke:#000000;stroke-width:0.0755955;stroke-linecap:round;stroke-linejoin:round;-inkscape-stroke:hairline;paint-order:stroke fill markers"
         id="circle16"
         cx="23"
         cy="22.999998"
         r="6"
         inkscape:label="circle02" /><circle
         style="display:inline;vector-effect:non-scaling-stroke;fill:#808080;fill-rule:evenodd;stroke:#000000;stroke-width:0.0377976;stroke-linecap:round;stroke-linejoin:round;-inkscape-stroke:hairline;paint-order:stroke fill markers"
         id="circle17"
         cx="23"
         cy="22.999998"
         r="3"
         inkscape:label="circle01" /></g><path
       id="circle13-0"
       style="display:none;vector-effect:non-scaling-stroke;fill:#808080;fill-rule:evenodd;stroke:#000000;stroke-width:0.277183;stroke-linecap:round;stroke-linejoin:round;-inkscape-stroke:hairline;paint-order:stroke fill markers"
       inkscape:label="motor-joint--base--shape"
       d="M 21.49998,0 V 1.1069092 A 22,22 0 0 0 1.1069092,21.49998 H 0 v 2.999817 H 1.1069092 A 22,22 0 0 0 21.49998,44.892867 v 1.106909 h 2.999817 v -1.106909 a 22,22 0 0 0 20.39307,-20.39307 h 1.106909 V 21.49998 h -1.0573 A 22,22 0 0 0 24.499797,1.0572998 V 0 Z m 2.999817,4.0653849 A 19,19 0 0 1 41.934391,21.49998 h -13.12633 a 6,6 0 0 0 -4.308264,-4.308781 z m -2.999817,0.05271 V 17.201534 A 6,6 0 0 0 17.201534,21.49998 H 4.1180949 A 19,19 0 0 1 21.49998,4.1180949 Z m 1.500166,15.8817181 a 3,3 0 0 1 2.999817,3.000333 3,3 0 0 1 -2.999817,2.999817 3,3 0 0 1 -3.000333,-2.999817 3,3 0 0 1 3.000333,-3.000333 z M 4.1180949,24.499797 H 17.201534 a 6,6 0 0 0 4.298446,4.298445 V 41.881681 A 19,19 0 0 1 4.1180949,24.499797 Z m 24.6801471,0 H 41.881681 A 19,19 0 0 1 24.499797,41.881681 V 28.798242 a 6,6 0 0 0 4.298445,-4.298445 z" /></g><g
     inkscape:groupmode="layer"
     id="layer2"
     inkscape:label="spool"><g
       id="g109"
       inkscape:label="spool--front--build"
       style="display:none;fill:#808080"><circle
         style="display:inline;vector-effect:non-scaling-stroke;fill:#808080;fill-rule:evenodd;stroke:#000000;stroke-width:0.541766;stroke-linecap:round;stroke-linejoin:round;-inkscape-stroke:hairline;paint-order:stroke fill markers"
         id="circle104"
         cx="23"
         cy="22.999998"
         inkscape:label="circle02"
         r="43" /><circle
         style="display:inline;vector-effect:non-scaling-stroke;fill:#808080;fill-rule:evenodd;stroke:#000000;stroke-width:0.466171;stroke-linecap:round;stroke-linejoin:round;-inkscape-stroke:hairline;paint-order:stroke fill markers"
         id="circle105"
         cx="23"
         cy="22.999998"
         inkscape:label="circle02"
         r="37" /><circle
         style="display:inline;vector-effect:non-scaling-stroke;fill:#808080;fill-rule:evenodd;stroke:#000000;stroke-width:0.390576;stroke-linecap:round;stroke-linejoin:round;-inkscape-stroke:hairline;paint-order:stroke fill markers"
         id="circle106"
         cx="23"
         cy="22.999998"
         inkscape:label="circle02"
         r="31" /><circle
         style="display:inline;vector-effect:non-scaling-stroke;fill:#808080;fill-rule:evenodd;stroke:#000000;stroke-width:0.239386;stroke-linecap:round;stroke-linejoin:round;-inkscape-stroke:hairline;paint-order:stroke fill markers"
         id="circle134"
         cx="23"
         cy="22.999998"
         inkscape:label="circle02"
         r="19" /><rect
         style="vector-effect:non-scaling-stroke;fill:#808080;fill-rule:evenodd;stroke:#000000;stroke-width:0.107553;stroke-linecap:round;stroke-linejoin:round;-inkscape-stroke:hairline;paint-order:stroke fill markers"
         id="rect108"
         width="3"
         height="80"
         x="-1.4999987"
         y="-7.4730892"
         ry="0"
         transform="rotate(-45)" /><rect
         style="vector-effect:non-scaling-stroke;fill:#808080;fill-rule:evenodd;stroke:#000000;stroke-width:0.107553;stroke-linecap:round;stroke-linejoin:round;-inkscape-stroke:hairline;paint-order:stroke fill markers"
         id="rect109"
         width="3"
         height="80"
         x="31.026911"
         y="-40"
         ry="0"
         transform="rotate(45)" /><path
         style="vector-effect:non-scaling-stroke;fill:#808080;fill-rule:evenodd;stroke:#000000;stroke-width:0.132292;stroke-linecap:round;stroke-linejoin:round;-inkscape-stroke:hairline;paint-order:stroke fill markers"
         id="path109"
         inkscape:transform-center-y="0.00011759624"
         inkscape:path-effect="#path-effect110"
         sodipodi:type="arc"
         sodipodi:cx="5.3223262"
         sodipodi:cy="5.3223329"
         sodipodi:rx="1.5"
         sodipodi:ry="1.5"
         d="m 6.8223262,5.3223329 c 0,0.8284271 -0.6715729,1.5 -1.5,1.5 -0.8284271,0 -1.5,-0.6715729 -1.5,-1.5 0,-0.8284272 0.6715729,-1.5 1.5,-1.5 0.8284271,0 1.5,0.6715728 1.5,1.5 z M 5.3224439,39.177561 c 0.8284271,0 1.5,0.671573 1.5,1.5 0,0.828427 -0.6715729,1.5 -1.5,1.5 -0.8284272,0 -1.5,-0.671573 -1.5,-1.5 0,-0.828427 0.6715728,-1.5 1.5,-1.5 z m 33.8552281,1.499882 c 0,-0.828427 0.671573,-1.5 1.5,-1.5 0.828427,0 1.5,0.671573 1.5,1.5 0,0.828427 -0.671573,1.5 -1.5,1.5 -0.828427,0 -1.5,-0.671573 -1.5,-1.5 z M 40.677554,6.8222152 c -0.828427,0 -1.5,-0.6715729 -1.5,-1.5 0,-0.8284271 0.671573,-1.5 1.5,-1.5 0.828427,0 1.5,0.6715729 1.5,1.5 0,0.8284271 -0.671573,1.5 -1.5,1.5 z"
         transform="translate(1e-6,1.102516e-4)" /></g><path
       id="circle113"
       style="display:inline;vector-effect:non-scaling-stroke;fill:#808080;fill-rule:evenodd;stroke:#000000;stroke-width:0.390576;stroke-linecap:round;stroke-linejoin:round;-inkscape-stroke:hairline;paint-order:stroke fill markers"
       inkscape:label="spool--front--shape"
       d="m 23.000146,-19.999813 c -23.74818798,2.3e-5 -42.999936,19.25177102 -42.999959,42.999959 2.2e-5,23.74819 19.25177063,42.999937 42.999959,42.99996 23.74819,-2.2e-5 42.999938,-19.25177 42.99996,-42.99996 -2.3e-5,-23.74818837 -19.25177,-42.999937 -42.99996,-42.999959 z m 0,5.999634 c 9.292814,0.0034 18.244113,3.503534 25.074439,9.8045695 l -4.240568,4.240568 C 38.130109,-5.1319865 30.703089,-7.9999259 23.000146,-8.0000285 15.303622,-7.9844209 7.8880868,-5.1062915 2.1962484,0.07441406 L -2.0189982,-4.1403158 C 4.7888876,-10.448559 13.718973,-13.96784 23.000146,-14.000179 Z m 27.196273,11.9253702 c 6.30078,6.8306143 9.800536,15.7821028 9.803536,25.0749548 -0.03247,9.280996 -3.55174,18.210873 -9.859863,25.018628 L 45.924845,43.804045 C 51.105739,38.112283 53.984056,30.696741 53.999805,23.000146 53.999574,15.297382 51.131643,7.8705687 45.954818,2.1667928 Z m -54.3367348,0.055811 4.21472986,4.2152466 C -5.1062915,7.8880867 -7.9844208,15.303622 -8.0000285,23.000146 c 0.01589,7.696663 2.8943946,15.112215 8.07547609,20.803899 L -4.139799,48.019291 c -6.308431,-6.807807 -9.827901,-15.737901 -9.86038,-25.019145 0.03234,-9.281173 3.55162,-18.2112585 9.8598632,-25.0191438 z m 9.4624716,5.8415039 c 0.8284253,0 1.5001668,0.6717414 1.5001668,1.5001668 0,0.8284255 -0.6717415,1.4996501 -1.5001668,1.4996501 -0.8284255,0 -1.4996501,-0.6712246 -1.4996501,-1.4996501 0,-0.8284254 0.6712246,-1.5001668 1.4996501,-1.5001668 z m 35.3554642,0 c 0.828427,0 1.500167,0.6712246 1.500167,1.4996501 0,0.8284253 -0.67174,1.5001668 -1.500167,1.5001668 -0.828425,0 -1.500166,-0.6717415 -1.500166,-1.5001668 0,-0.8284255 0.671741,-1.4996501 1.500166,-1.4996501 z M 23.000146,3.9997559 A 19,19 0 0 1 42.00002,23.000146 19,19 0 0 1 23.000146,42.00002 19,19 0 0 1 3.9997559,23.000146 19,19 0 0 1 23.000146,3.9997559 Z M 5.3226725,39.177454 c 0.8284255,0 1.4996501,0.671741 1.4996501,1.500166 0,0.828427 -0.6712246,1.500167 -1.4996501,1.500167 -0.8284254,0 -1.5001668,-0.67174 -1.5001668,-1.500167 0,-0.828425 0.6717414,-1.500166 1.5001668,-1.500166 z m 35.3549475,0 c 0.828427,0 1.500167,0.671741 1.500167,1.500166 0,0.828427 -0.67174,1.500167 -1.500167,1.500167 -0.828425,0 -1.500166,-0.67174 -1.500166,-1.500167 0,-0.828425 0.671741,-1.500166 1.500166,-1.500166 z M 2.1962484,45.924845 c 5.6917608,5.180894 13.1073046,8.059211 20.8038976,8.07496 7.696595,-0.01575 15.112137,-2.894066 20.803899,-8.07496 l 4.214729,4.215247 c -6.807755,6.308123 -15.737632,9.827395 -25.018628,9.859863 -9.281173,-0.03234 -18.2112584,-3.55162 -25.0191442,-9.859863 z"
       inkscape:export-filename="spool--front.svg"
       inkscape:export-xdpi="100"
       inkscape:export-ydpi="100" /><g
       id="g124"
       inkscape:label="spool--base--back--build"
       style="display:none;fill:#808080"><circle
         style="display:inline;vector-effect:non-scaling-stroke;fill:#808080;fill-rule:evenodd;stroke:#000000;stroke-width:0.541766;stroke-linecap:round;stroke-linejoin:round;-inkscape-stroke:hairline;paint-order:stroke fill markers"
         id="circle119"
         cx="23"
         cy="22.999998"
         inkscape:label="circle02"
         r="43" /><circle
         style="display:inline;vector-effect:non-scaling-stroke;fill:#808080;fill-rule:evenodd;stroke:#000000;stroke-width:0.466171;stroke-linecap:round;stroke-linejoin:round;-inkscape-stroke:hairline;paint-order:stroke fill markers"
         id="circle120"
         cx="23"
         cy="22.999998"
         inkscape:label="circle02"
         r="37" /><circle
         style="display:inline;vector-effect:non-scaling-stroke;fill:#808080;fill-rule:evenodd;stroke:#000000;stroke-width:0.390576;stroke-linecap:round;stroke-linejoin:round;-inkscape-stroke:hairline;paint-order:stroke fill markers"
         id="circle121"
         cx="23"
         cy="22.999998"
         inkscape:label="circle02"
         r="31" /><path
         id="path123"
         style="display:inline;vector-effect:non-scaling-stroke;fill:#808080;fill-rule:evenodd;stroke:#000000;stroke-width:0.277183;stroke-linecap:round;stroke-linejoin:round;-inkscape-stroke:hairline;paint-order:stroke fill markers"
         inkscape:label="circle05"
         d="M 21.199219,-0.30078125 V 0.83398438 C 10.349025,1.7372412 1.7372414,10.349025 0.83398438,21.199219 h -1.13476563 v 3.601562 H 0.83398438 C 1.7372416,35.650975 10.349025,44.262759 21.199219,45.166016 v 1.134765 h 3.601562 V 45.166016 C 35.650975,44.262758 44.262758,35.650975 45.166016,24.800781 h 1.134765 V 21.199219 H 45.216797 C 44.333415,10.311962 35.688038,1.6665854 24.800781,0.78320312 v -1.08398437 z"
         inkscape:path-effect="#path-effect125"
         inkscape:original-d="M 21.500092,1.103774e-4 V 1.1070196 A 22,22 0 0 0 1.1070212,21.50009 H 1.12e-4 v 2.999817 h 1.1069092 a 22,22 0 0 0 20.3930708,20.39307 v 1.106909 h 2.999817 v -1.106909 a 22,22 0 0 0 20.39307,-20.39307 h 1.106909 V 21.50009 h -1.0573 A 22,22 0 0 0 24.499909,1.0574102 V 1.103774e-4 Z" /><rect
         style="vector-effect:non-scaling-stroke;fill:#808080;fill-rule:evenodd;stroke:#000000;stroke-width:0.107553;stroke-linecap:round;stroke-linejoin:round;-inkscape-stroke:hairline;paint-order:stroke fill markers"
         id="rect123"
         width="3"
         height="80"
         x="-1.4999987"
         y="-7.4730892"
         ry="0"
         transform="rotate(-45)" /><rect
         style="vector-effect:non-scaling-stroke;fill:#808080;fill-rule:evenodd;stroke:#000000;stroke-width:0.107553;stroke-linecap:round;stroke-linejoin:round;-inkscape-stroke:hairline;paint-order:stroke fill markers"
         id="rect124"
         width="3"
         height="80"
         x="31.026911"
         y="-40"
         ry="0"
         transform="rotate(45)" /><path
         style="vector-effect:non-scaling-stroke;fill:#808080;fill-rule:evenodd;stroke:#000000;stroke-width:0.132292;stroke-linecap:round;stroke-linejoin:round;-inkscape-stroke:hairline;paint-order:stroke fill markers"
         id="path124"
         inkscape:transform-center-y="0.00011759624"
         inkscape:path-effect="#path-effect127"
         sodipodi:type="arc"
         sodipodi:cx="5.3223262"
         sodipodi:cy="5.3223329"
         sodipodi:rx="1.5"
         sodipodi:ry="1.5"
         d="m 6.8223262,5.3223329 c 0,0.8284271 -0.6715729,1.5 -1.5,1.5 -0.8284271,0 -1.5,-0.6715729 -1.5,-1.5 0,-0.8284272 0.6715729,-1.5 1.5,-1.5 0.8284271,0 1.5,0.6715728 1.5,1.5 z M 5.3224439,39.177561 c 0.8284271,0 1.5,0.671573 1.5,1.5 0,0.828427 -0.6715729,1.5 -1.5,1.5 -0.8284272,0 -1.5,-0.671573 -1.5,-1.5 0,-0.828427 0.6715728,-1.5 1.5,-1.5 z m 33.8552281,1.499882 c 0,-0.828427 0.671573,-1.5 1.5,-1.5 0.828427,0 1.5,0.671573 1.5,1.5 0,0.828427 -0.671573,1.5 -1.5,1.5 -0.828427,0 -1.5,-0.671573 -1.5,-1.5 z M 40.677554,6.8222152 c -0.828427,0 -1.5,-0.6715729 -1.5,-1.5 0,-0.8284271 0.671573,-1.5 1.5,-1.5 0.828427,0 1.5,0.6715729 1.5,1.5 0,0.8284271 -0.671573,1.5 -1.5,1.5 z"
         transform="translate(1e-6,1.102516e-4)" /></g><path
       id="circle151"
       style="display:none;vector-effect:non-scaling-stroke;fill:#808080;fill-rule:evenodd;stroke:#000000;stroke-width:0.541766;stroke-linecap:round;stroke-linejoin:round;-inkscape-stroke:hairline;paint-order:stroke fill markers"
       inkscape:label="spool--base--back--shape"
       d="m 23.000146,-19.999813 a 43,43 0 0 0 -42.999959,42.999959 43,43 0 0 0 42.999959,42.99996 43,43 0 0 0 42.99996,-42.99996 43,43 0 0 0 -42.99996,-42.999959 z m 0,5.999634 a 37,37 0 0 1 25.074439,9.8045695 l -4.240568,4.240568 A 31,31 0 0 0 23.000146,-8.0000285 31,31 0 0 0 2.2241536,0.10231934 L -2.0189982,-4.1403158 A 37,37 0 0 1 23.000146,-14.000179 Z M 50.196419,-2.0748088 A 37,37 0 0 1 59.999955,23.000146 37,37 0 0 1 50.140092,48.018774 L 45.89694,43.776139 A 31,31 0 0 0 53.999805,23.000146 31,31 0 0 0 45.954818,2.1667928 Z m -54.3367348,0.055811 4.24263514,4.2431518 A 31,31 0 0 0 -8.0000285,23.000146 31,31 0 0 0 0.07544759,43.804045 L -4.139799,48.018774 a 37,37 0 0 1 -9.86038,-25.018628 37,37 0 0 1 9.8598632,-25.0191442 z m 25.3395388,1.71824136 h 3.60133 v 1.08417155 c 0.578076,0.0469045 1.148466,0.12047902 1.713074,0.21032308 0.05239,0.008364 0.105352,0.0145263 0.157613,0.0232544 0.550604,0.091635 1.093331,0.2059733 1.629358,0.3369303 0.05199,0.012757 0.104215,0.024603 0.156063,0.037724 0.551687,0.1390116 1.094511,0.2989396 1.628841,0.478007 0.01432,0.00482 0.02858,0.00962 0.04289,0.014469 6.575061,2.2184158 11.762985,7.4046993 13.984159,13.9784753 0.0069,0.02024 0.01438,0.0402 0.02119,0.06046 0.17755,0.530526 0.335799,1.069846 0.473873,1.617472 0.01361,0.05375 0.02605,0.107839 0.03927,0.161748 0.130676,0.535151 0.244412,1.07658 0.335897,1.626257 0.0088,0.05263 0.01535,0.105891 0.02377,0.158647 0.08978,0.56433 0.163442,1.134257 0.210323,1.71204 h 1.083655 v 3.60133 h -1.134298 c -0.04765,0.572442 -0.121592,1.13736 -0.211356,1.696538 -0.0092,0.05687 -0.01625,0.114327 -0.02584,0.171049 -0.09197,0.545953 -0.206291,1.083841 -0.336931,1.615405 -0.01331,0.05393 -0.02609,0.107976 -0.03979,0.161747 -0.138416,0.545535 -0.296788,1.082762 -0.474389,1.611271 -0.0069,0.02056 -0.01419,0.04096 -0.02119,0.0615 -2.222117,6.548897 -7.389787,11.716567 -13.938684,13.938684 -0.02053,0.007 -0.04094,0.01425 -0.0615,0.02119 -0.528509,0.177601 -1.065736,0.335973 -1.611271,0.474389 -0.05377,0.0137 -0.107817,0.02648 -0.161747,0.03979 -0.531564,0.13064 -1.069452,0.24496 -1.615405,0.336931 -0.05672,0.0096 -0.114179,0.01668 -0.171049,0.02584 -0.559178,0.08976 -1.124096,0.163702 -1.696538,0.211356 v 1.134298 h -3.60133 v -1.134298 c -0.571557,-0.04758 -1.135103,-0.121278 -1.693437,-0.210839 -0.05844,-0.0094 -0.117418,-0.01702 -0.1757,-0.02687 -0.544614,-0.0918 -1.081494,-0.205617 -1.611788,-0.335897 -0.05478,-0.01351 -0.109715,-0.02639 -0.164331,-0.04031 -0.544561,-0.138187 -1.080574,-0.296639 -1.60817,-0.473873 -0.02212,-0.0075 -0.04406,-0.01521 -0.06615,-0.02274 C 9.3312084,41.832903 4.1639706,36.665066 1.9425171,30.115991 c -0.00635,-0.01863 -0.012822,-0.03716 -0.01912,-0.05581 C 1.7449052,29.529329 1.5858928,28.989707 1.4469401,28.441675 1.4341232,28.391338 1.422207,28.340739 1.4097331,28.290263 1.2782586,27.756026 1.1636608,27.215367 1.0712524,26.666589 1.0620667,26.612227 1.0547228,26.557274 1.045931,26.502775 0.95572529,25.941764 0.88187255,25.374921 0.83405762,24.800553 h -1.13481446 v -3.60133 H 0.83405762 C 0.8818153,20.625543 0.955883,20.059941 1.045931,19.499585 c 0.009,-0.05584 0.015906,-0.112251 0.025321,-0.167948 0.092266,-0.54763 0.2067926,-1.087425 0.3379639,-1.620573 0.012681,-0.05133 0.024688,-0.102813 0.037724,-0.153996 0.1389641,-0.547957 0.2984808,-1.08721 0.4769735,-1.617989 0.00595,-0.01762 0.012092,-0.03511 0.018087,-0.05271 C 4.1637991,9.3340025 9.3340026,4.163799 15.886369,1.9420003 c 0.0176,-0.00599 0.03509,-0.012135 0.05271,-0.018087 0.530779,-0.1784927 1.070032,-0.3380094 1.617989,-0.4769735 0.05118,-0.013036 0.102669,-0.025043 0.153996,-0.037724 0.533148,-0.1311713 1.072943,-0.2456974 1.620573,-0.3379639 0.0557,-0.00942 0.112107,-0.016319 0.167948,-0.025321 0.560356,-0.090048 1.125958,-0.16411571 1.699638,-0.21187338 z M 5.3221558,3.8225057 c 0.8284253,0 1.5001668,0.6717414 1.5001668,1.5001668 0,0.8284255 -0.6717415,1.4996501 -1.5001668,1.4996501 -0.8284255,0 -1.4996501,-0.6712246 -1.4996501,-1.4996501 0,-0.8284254 0.6712246,-1.5001668 1.4996501,-1.5001668 z m 35.3554642,0 c 0.828427,0 1.500167,0.6712246 1.500167,1.4996501 0,0.8284253 -0.67174,1.5001668 -1.500167,1.5001668 -0.828425,0 -1.500166,-0.6717415 -1.500166,-1.5001668 0,-0.8284255 0.671741,-1.4996501 1.500166,-1.4996501 z M 5.3226725,39.177454 c 0.8284255,0 1.4996501,0.671741 1.4996501,1.500166 0,0.828427 -0.6712246,1.500167 -1.4996501,1.500167 -0.8284254,0 -1.5001668,-0.67174 -1.5001668,-1.500167 0,-0.828425 0.6717414,-1.500166 1.5001668,-1.500166 z m 35.3549475,0 c 0.828427,0 1.500167,0.671741 1.500167,1.500166 0,0.828427 -0.67174,1.500167 -1.500167,1.500167 -0.828425,0 -1.500166,-0.67174 -1.500166,-1.500167 0,-0.828425 0.671741,-1.500166 1.500166,-1.500166 z m 3.098519,6.719486 4.242635,4.243152 A 37,37 0 0 1 23.000146,59.999955 37,37 0 0 1 -2.0184814,50.140092 l 4.2147298,-4.215247 a 31,31 0 0 0 20.8038976,8.07496 31,31 0 0 0 20.775993,-8.102865 z"
       inkscape:export-filename="spool--back.svg"
       inkscape:export-xdpi="100"
       inkscape:export-ydpi="100" /><g
       id="g148"
       inkscape:label="spool--base--center--build"
       style="display:none;fill:#808080"><circle
         style="display:inline;vector-effect:non-scaling-stroke;fill:#808080;fill-rule:evenodd;stroke:#000000;stroke-width:0.352779;stroke-linecap:round;stroke-linejoin:round;-inkscape-stroke:hairline;paint-order:stroke fill markers"
         id="circle147"
         cx="23"
         cy="22.999998"
         r="28"
         inkscape:label="circle02" /><path
         id="path147"
         style="display:inline;vector-effect:non-scaling-stroke;fill:#808080;fill-rule:evenodd;stroke:#000000;stroke-width:0.277183;stroke-linecap:round;stroke-linejoin:round;-inkscape-stroke:hairline;paint-order:stroke fill markers"
         inkscape:label="circle05"
         d="M 21.199219,-0.30078125 V 0.83398438 C 10.349025,1.7372412 1.7372414,10.349025 0.83398438,21.199219 h -1.13476563 v 3.601562 H 0.83398438 C 1.7372416,35.650975 10.349025,44.262759 21.199219,45.166016 v 1.134765 h 3.601562 V 45.166016 C 35.650975,44.262758 44.262758,35.650975 45.166016,24.800781 h 1.134765 V 21.199219 H 45.216797 C 44.333415,10.311962 35.688038,1.6665854 24.800781,0.78320312 v -1.08398437 z"
         inkscape:path-effect="#path-effect149"
         inkscape:original-d="M 21.500092,1.103774e-4 V 1.1070196 A 22,22 0 0 0 1.1070212,21.50009 H 1.12e-4 v 2.999817 h 1.1069092 a 22,22 0 0 0 20.3930708,20.39307 v 1.106909 h 2.999817 v -1.106909 a 22,22 0 0 0 20.39307,-20.39307 h 1.106909 V 21.50009 h -1.0573 A 22,22 0 0 0 24.499909,1.0574102 V 1.103774e-4 Z" /><path
         style="vector-effect:non-scaling-stroke;fill:#808080;fill-rule:evenodd;stroke:#000000;stroke-width:0.132292;stroke-linecap:round;stroke-linejoin:round;-inkscape-stroke:hairline;paint-order:stroke fill markers"
         id="path148"
         inkscape:transform-center-y="0.00011759624"
         inkscape:path-effect="#path-effect151"
         sodipodi:type="arc"
         sodipodi:cx="5.3223262"
         sodipodi:cy="5.3223329"
         sodipodi:rx="1.5"
         sodipodi:ry="1.5"
         d="m 6.8223262,5.3223329 c 0,0.8284271 -0.6715729,1.5 -1.5,1.5 -0.8284271,0 -1.5,-0.6715729 -1.5,-1.5 0,-0.8284272 0.6715729,-1.5 1.5,-1.5 0.8284271,0 1.5,0.6715728 1.5,1.5 z M 5.3224439,39.177561 c 0.8284271,0 1.5,0.671573 1.5,1.5 0,0.828427 -0.6715729,1.5 -1.5,1.5 -0.8284272,0 -1.5,-0.671573 -1.5,-1.5 0,-0.828427 0.6715728,-1.5 1.5,-1.5 z m 33.8552281,1.499882 c 0,-0.828427 0.671573,-1.5 1.5,-1.5 0.828427,0 1.5,0.671573 1.5,1.5 0,0.828427 -0.671573,1.5 -1.5,1.5 -0.828427,0 -1.5,-0.671573 -1.5,-1.5 z M 40.677554,6.8222152 c -0.828427,0 -1.5,-0.6715729 -1.5,-1.5 0,-0.8284271 0.671573,-1.5 1.5,-1.5 0.828427,0 1.5,0.6715729 1.5,1.5 0,0.8284271 -0.671573,1.5 -1.5,1.5 z"
         transform="translate(1e-6,1.102516e-4)" /></g><path
       id="circle157"
       style="display:none;vector-effect:non-scaling-stroke;fill:#808080;fill-rule:evenodd;stroke:#000000;stroke-width:0.352779;stroke-linecap:round;stroke-linejoin:round;-inkscape-stroke:hairline;paint-order:stroke fill markers"
       inkscape:label="spool--base--center--shape"
       d="M 23.000146,-5.0002116 A 28,28 0 0 0 -5.0002116,23.000146 28,28 0 0 0 23.000146,50.999988 28,28 0 0 0 50.999988,23.000146 28,28 0 0 0 23.000146,-5.0002116 Z m -1.800923,4.69945476 h 3.60133 V 0.78341471 C 35.687788,1.6667952 44.333498,10.311988 45.216878,21.199223 h 1.083655 v 3.60133 H 45.166235 C 44.26298,35.650726 35.650726,44.26298 24.800553,45.166235 v 1.134298 h -3.60133 V 45.166235 C 10.349051,44.26298 1.737313,35.650727 0.83405762,24.800553 h -1.13481446 v -3.60133 H 0.83405762 C 1.7373128,10.349051 10.349051,1.7373126 21.199223,0.83405762 Z M 5.3221558,3.8225057 c 0.8284262,0 1.5001668,0.6717405 1.5001668,1.5001668 0,0.8284263 -0.6717406,1.4996501 -1.5001668,1.4996501 -0.8284263,0 -1.4996501,-0.6712238 -1.4996501,-1.4996501 0,-0.8284263 0.6712238,-1.5001668 1.4996501,-1.5001668 z m 35.3554642,0 c 0.828427,0 1.500167,0.6712238 1.500167,1.4996501 0,0.8284262 -0.67174,1.5001668 -1.500167,1.5001668 -0.828426,0 -1.500166,-0.6717406 -1.500166,-1.5001668 0,-0.8284263 0.67174,-1.4996501 1.500166,-1.4996501 z M 5.3226725,39.177454 c 0.8284263,0 1.4996501,0.67174 1.4996501,1.500166 0,0.828427 -0.6712238,1.500167 -1.4996501,1.500167 -0.8284263,0 -1.5001668,-0.67174 -1.5001668,-1.500167 0,-0.828426 0.6717405,-1.500166 1.5001668,-1.500166 z m 35.3549475,0 c 0.828427,0 1.500167,0.67174 1.500167,1.500166 0,0.828427 -0.67174,1.500167 -1.500167,1.500167 -0.828426,0 -1.500166,-0.67174 -1.500166,-1.500167 0,-0.828426 0.67174,-1.500166 1.500166,-1.500166 z"
       inkscape:export-filename="spool--center.svg"
       inkscape:export-xdpi="100"
       inkscape:export-ydpi="100" /></g></svg>
