<?xml version="1.0" encoding="UTF-8" standalone="no"?>
<!-- Created with Inkscape (http://www.inkscape.org/) -->

<svg
   width="40mm"
   height="40mm"
   viewBox="0 0 40 40"
   version="1.1"
   id="svg1"
   inkscape:version="1.3 (0e150ed6c4, 2023-07-21)"
   sodipodi:docname="case--control--motor.svg"
   xml:space="preserve"
   xmlns:inkscape="http://www.inkscape.org/namespaces/inkscape"
   xmlns:sodipodi="http://sodipodi.sourceforge.net/DTD/sodipodi-0.dtd"
   xmlns="http://www.w3.org/2000/svg"
   xmlns:svg="http://www.w3.org/2000/svg"><sodipodi:namedview
     id="namedview1"
     pagecolor="#ffffff"
     bordercolor="#000000"
     borderopacity="0.25"
     inkscape:showpageshadow="2"
     inkscape:pageopacity="0.0"
     inkscape:pagecheckerboard="0"
     inkscape:deskcolor="#d1d1d1"
     inkscape:document-units="mm"
     showgrid="true"
     inkscape:zoom="3.2252324"
     inkscape:cx="50.849049"
     inkscape:cy="53.32949"
     inkscape:window-width="2496"
     inkscape:window-height="1558"
     inkscape:window-x="-11"
     inkscape:window-y="-11"
     inkscape:window-maximized="1"
     inkscape:current-layer="svg1"
     showguides="true"><inkscape:grid
       id="grid1"
       units="mm"
       originx="0"
       originy="0"
       spacingx="0.99999997"
       spacingy="0.99999997"
       empcolor="#0099e5"
       empopacity="0.30196078"
       color="#0099e5"
       opacity="0.14901961"
       empspacing="10"
       dotted="false"
       gridanglex="30"
       gridanglez="30"
       visible="true" /><sodipodi:guide
       position="-13.999999,40.999998"
       orientation="1,0"
       id="guide2"
       inkscape:locked="false" /></sodipodi:namedview><defs
     id="defs1"><inkscape:path-effect
       effect="copy_rotate"
       starting_point="22.499999,277"
       origin="19.999999,277"
       id="path-effect3"
       is_visible="true"
       lpeversion="1.2"
       lpesatellites=""
       method="normal"
       num_copies="4"
       starting_angle="0"
       rotation_angle="90"
       gap="-0.01"
       copies_to_360="true"
       mirror_copies="false"
       split_items="false"
       link_styles="false" /><inkscape:path-effect
       effect="copy_rotate"
       starting_point="22.499999,277"
       origin="19.999999,277"
       id="path-effect1"
       is_visible="true"
       lpeversion="1.2"
       lpesatellites=""
       method="normal"
       num_copies="4"
       starting_angle="0"
       rotation_angle="90"
       gap="-0.01"
       copies_to_360="true"
       mirror_copies="false"
       split_items="false"
       link_styles="false" /><inkscape:path-effect
       effect="copy_rotate"
       starting_point="22.499999,277"
       origin="19.999999,277"
       id="path-effect1-8"
       is_visible="true"
       lpeversion="1.2"
       lpesatellites=""
       method="normal"
       num_copies="4"
       starting_angle="0"
       rotation_angle="90"
       gap="-0.01"
       copies_to_360="true"
       mirror_copies="false"
       split_items="false"
       link_styles="false" /><inkscape:path-effect
       effect="copy_rotate"
       starting_point="22.499999,277"
       origin="19.999999,277"
       id="path-effect3-0"
       is_visible="true"
       lpeversion="1.2"
       lpesatellites=""
       method="normal"
       num_copies="4"
       starting_angle="0"
       rotation_angle="90"
       gap="-0.01"
       copies_to_360="true"
       mirror_copies="false"
       split_items="false"
       link_styles="false" /><inkscape:path-effect
       effect="copy_rotate"
       starting_point="22.499999,277"
       origin="19.999999,277"
       id="path-effect3-2"
       is_visible="true"
       lpeversion="1.2"
       lpesatellites=""
       method="normal"
       num_copies="4"
       starting_angle="0"
       rotation_angle="90"
       gap="-0.01"
       copies_to_360="true"
       mirror_copies="false"
       split_items="false"
       link_styles="false" /><inkscape:path-effect
       effect="copy_rotate"
       starting_point="22.499999,277"
       origin="19.999999,277"
       id="path-effect1-7"
       is_visible="true"
       lpeversion="1.2"
       lpesatellites=""
       method="normal"
       num_copies="4"
       starting_angle="0"
       rotation_angle="90"
       gap="-0.01"
       copies_to_360="true"
       mirror_copies="false"
       split_items="false"
       link_styles="false" /><inkscape:path-effect
       effect="copy_rotate"
       starting_point="22.499999,277"
       origin="19.999999,277"
       id="path-effect1-8-0"
       is_visible="true"
       lpeversion="1.2"
       lpesatellites=""
       method="normal"
       num_copies="4"
       starting_angle="0"
       rotation_angle="90"
       gap="-0.01"
       copies_to_360="true"
       mirror_copies="false"
       split_items="false"
       link_styles="false" /><inkscape:path-effect
       effect="copy_rotate"
       starting_point="22.499999,277"
       origin="19.999999,277"
       id="path-effect3-0-4"
       is_visible="true"
       lpeversion="1.2"
       lpesatellites=""
       method="normal"
       num_copies="4"
       starting_angle="0"
       rotation_angle="90"
       gap="-0.01"
       copies_to_360="true"
       mirror_copies="false"
       split_items="false"
       link_styles="false" /></defs><g
     id="g1"
     inkscape:label="case--control--motor"
     transform="matrix(0.99999645,0,0,1,-20,19.99986)"><path
       id="path13"
       style="clip-rule:evenodd;vector-effect:non-scaling-stroke;fill:#808080;fill-rule:evenodd;stroke:#000000;stroke-width:0.264508;stroke-linecap:round;stroke-linejoin:round;stroke-miterlimit:2.61313;stroke-dasharray:none;-inkscape-stroke:hairline;image-rendering:optimizeQuality;shape-rendering:geometricPrecision;text-rendering:geometricPrecision"
       class="fil0 str3"
       inkscape:label="case--control--motor--base"
       d="M 2.5001058,0 V 0.00826823 C 2.4959058,1.3583037 1.4202468,2.4560455 0.07854818,2.497522 L 0.02273763,2.498552 H 0.00826823 0 l 0.02273763,34.980297 c 1.34549867,0.01189 2.43703467,1.086199 2.47633467,2.424142 7e-4,0.02479 0.00103,0.04942 0.00103,0.07441 v 0.02274 l 34.9999307,-0.02274 c 0,-1.380019 1.119307,-2.498656 2.500105,-2.498556 V 2.4985555 C 38.619344,2.4985555 37.500037,1.3800185 37.500037,0 Z M 19.999813,16.060002 c 2.177297,0 3.942395,1.763744 3.942395,3.939811 0,2.176067 -1.765098,3.940328 -3.942395,3.940328 -2.177297,0 -3.941878,-1.764261 -3.941878,-3.940328 0,-2.176067 1.76458,-3.939811 3.941878,-3.939811 z" /><path
       id="polygon13"
       style="clip-rule:evenodd;vector-effect:non-scaling-stroke;fill:#000000;fill-rule:nonzero;stroke:#000000;stroke-width:0.264508;stroke-linecap:round;stroke-linejoin:round;stroke-miterlimit:2.61313;stroke-dasharray:none;-inkscape-stroke:hairline;image-rendering:optimizeQuality;shape-rendering:geometricPrecision;text-rendering:geometricPrecision"
       class="fil1 str3"
       d="m 19.999741,7.3196012 c -3.500397,0 -6.66938,1.418288 -8.963277,3.7108918 -2.2938974,2.292594 -3.7129514,5.460203 -3.7129514,8.958626 0,2.302188 0.615337,4.461477 1.690336,6.323125 1.0840994,1.877339 2.6357344,3.450989 4.4953324,4.560962 l -0.536401,0.928625 c -0.0487,0.08405 -0.02002,0.191621 0.06408,0.240294 0.0841,0.04867 0.191596,0.01997 0.240296,-0.06407 l 1.250053,-2.163697 c 0.0487,-0.08405 0.02002,-0.191621 -0.06408,-0.240294 -0.0841,-0.04867 -0.191596,-0.01997 -0.240296,0.06408 l -0.537434,0.930174 c -1.806799,-1.07949 -3.314576,-2.607876 -4.3671754,-4.430735 -1.044399,-1.808578 -1.64176,-3.908241 -1.64176,-6.148464 0,-3.401178 1.379501,-6.480707 3.6095984,-8.709547 2.229998,-2.2287398 5.310583,-3.6075298 8.71368,-3.6075298 3.403096,0 6.484099,1.37879 8.714197,3.6075298 2.229997,2.22884 3.609598,5.308369 3.609598,8.709547 0,2.240123 -0.597878,4.339366 -1.642277,6.147944 -1.010099,1.749311 -2.438602,3.227945 -4.1491,4.29844 l 0.345198,-1.288292 c 0.0251,-0.09385 -0.03064,-0.190402 -0.12454,-0.215488 -0.0939,-0.02509 -0.190908,0.03069 -0.216007,0.12454 l -0.457337,1.706875 c -0.0251,0.09385 0.03064,0.190402 0.12454,0.215488 l 1.707906,0.457332 c 0.0939,0.0251 0.190391,-0.0312 0.215491,-0.12505 0.0251,-0.09386 -0.03064,-0.190412 -0.12454,-0.215498 l -1.304313,-0.348813 c 1.767398,-1.101677 3.244094,-2.627374 4.287593,-4.434353 1.074999,-1.861648 1.690336,-4.021037 1.690336,-6.323125 0,-3.498423 -1.419154,-6.666032 -3.712951,-8.958626 C 26.669638,8.7379892 23.500138,7.3196012 19.999741,7.3196012 Z M 31.016123,32.481896 v 1.036624 h -1.015959 v 0.4253 h 1.015959 v 1.036634 h 0.467671 V 33.94382 h 1.015959 v -0.4253 H 31.483794 V 32.481896 Z M 8.2759096,33.51852 v 0.4253 h 1.701705 v -0.4253 z m 9.6955314,1.461934 c -0.2178,0 -0.390065,0.06363 -0.516764,0.190162 -0.1266,0.126629 -0.189653,0.307237 -0.189653,0.542603 v 1.033017 c 0,0.235466 0.06305,0.416074 0.189653,0.542603 0.126699,0.126628 0.298964,0.190162 0.516764,0.190162 0.2177,0 0.390064,-0.06353 0.516764,-0.190162 0.1267,-0.126529 0.190169,-0.307137 0.190169,-0.542603 v -1.036115 c 0,-0.233168 -0.06347,-0.412876 -0.190169,-0.539505 -0.1267,-0.126528 -0.299064,-0.190162 -0.516764,-0.190162 z m 3.999756,0 c -0.2178,0 -0.389548,0.06363 -0.516248,0.190162 -0.1266,0.126629 -0.190169,0.307237 -0.190169,0.542603 v 1.033017 c 0,0.235466 0.06357,0.416074 0.190169,0.542603 0.1267,0.126628 0.298448,0.190162 0.516248,0.190162 0.217699,0 0.390064,-0.06353 0.516764,-0.190162 0.1267,-0.126529 0.190169,-0.307137 0.190169,-0.542603 v -1.036115 c 0,-0.233168 -0.06347,-0.412876 -0.190169,-0.539505 -0.1267,-0.126528 -0.299065,-0.190162 -0.516764,-0.190162 z m -6.759278,0.03358 v 2.431895 h 0.289905 v -1.1498 c 0,-0.219776 -0.0037,-0.427209 -0.01033,-0.622698 -0.0067,-0.19539 -0.01889,-0.375198 -0.03669,-0.539505 l 0.376721,1.225767 h 0.260449 l 0.393258,-1.25574 c -0.0089,0.115435 -0.01707,0.245321 -0.02377,0.38964 -0.0066,0.144418 -0.01159,0.286857 -0.01499,0.427878 -0.0033,0.14102 -0.0047,0.265919 -0.0047,0.374658 v 1.1498 h 0.289905 v -2.431895 h -0.443384 l -0.323494,1.052655 -0.310059,-1.052655 z m 3.942912,0 v 0.272856 h 0.666626 v 2.159039 h 0.30024 v -2.159038 h 0.666626 v -0.272856 z m 4.126363,0 v 2.431895 h 0.296623 v -1.033006 h 0.403593 l 0.476457,1.033006 h 0.330212 l -0.49661,-1.062979 c 0.139999,-0.04667 0.252013,-0.128867 0.336413,-0.246501 0.0844,-0.117733 0.126607,-0.258823 0.126607,-0.423231 0,-0.13992 -0.02992,-0.262041 -0.08992,-0.366382 -0.06,-0.104441 -0.144314,-0.186075 -0.253214,-0.244952 -0.1088,-0.05887 -0.235422,-0.08785 -0.379822,-0.08785 z M 17.971441,35.2502 c 0.1311,0 0.23179,0.03716 0.30179,0.111617 0.07,0.07436 0.104903,0.180608 0.104903,0.31833 v 1.099159 c 0,0.137622 -0.0349,0.243862 -0.104903,0.31833 -0.07,0.07435 -0.17069,0.111617 -0.30179,0.111617 -0.1289,0 -0.228624,-0.03726 -0.299723,-0.111617 -0.0711,-0.07446 -0.106971,-0.180708 -0.106971,-0.31833 v -1.099159 c 0,-0.137722 0.03587,-0.243972 0.106971,-0.31833 0.0711,-0.07446 0.170823,-0.111617 0.299723,-0.111617 z m 3.999756,0 c 0.1311,0 0.23179,0.03716 0.30179,0.111617 0.07,0.07436 0.104903,0.180608 0.104903,0.31833 v 1.099159 c 0,0.137622 -0.0349,0.243862 -0.104903,0.31833 -0.07,0.07435 -0.17069,0.111617 -0.30179,0.111617 -0.1289,0 -0.228624,-0.03726 -0.299724,-0.111617 -0.0711,-0.07446 -0.10697,-0.180708 -0.10697,-0.31833 v -1.099159 c 0,-0.137722 0.03587,-0.243972 0.10697,-0.31833 0.0711,-0.07446 0.170824,-0.111617 0.299724,-0.111617 z m 1.60662,0.03359 h 0.453719 c 0.1244,0 0.224223,0.03851 0.299723,0.116275 0.0756,0.07775 0.113172,0.182127 0.113172,0.313152 0,0.128828 -0.03757,0.232759 -0.113172,0.311614 -0.0755,0.07885 -0.175323,0.118333 -0.299723,0.118333 h -0.453719 z"
       inkscape:label="case--control--motor--label" /></g></svg>
