<?xml version="1.0" encoding="UTF-8" standalone="no"?>
<!-- Created with Inkscape (http://www.inkscape.org/) -->

<svg
   width="40mm"
   height="40mm"
   viewBox="0 0 40 40"
   version="1.1"
   id="svg1"
   inkscape:version="1.3 (0e150ed6c4, 2023-07-21)"
   sodipodi:docname="case--control--power.svg"
   xmlns:inkscape="http://www.inkscape.org/namespaces/inkscape"
   xmlns:sodipodi="http://sodipodi.sourceforge.net/DTD/sodipodi-0.dtd"
   xmlns="http://www.w3.org/2000/svg"
   xmlns:svg="http://www.w3.org/2000/svg">
  <sodipodi:namedview
     id="namedview1"
     pagecolor="#ffffff"
     bordercolor="#000000"
     borderopacity="0.25"
     inkscape:showpageshadow="2"
     inkscape:pageopacity="0.0"
     inkscape:pagecheckerboard="0"
     inkscape:deskcolor="#d1d1d1"
     inkscape:document-units="mm"
     showgrid="true"
     inkscape:zoom="3.2252323"
     inkscape:cx="13.022318"
     inkscape:cy="39.066953"
     inkscape:window-width="2496"
     inkscape:window-height="1558"
     inkscape:window-x="-11"
     inkscape:window-y="-11"
     inkscape:window-maximized="1"
     inkscape:current-layer="svg1">
    <inkscape:grid
       id="grid1"
       units="mm"
       originx="0"
       originy="0"
       spacingx="0.99999997"
       spacingy="0.99999997"
       empcolor="#0099e5"
       empopacity="0.30196078"
       color="#0099e5"
       opacity="0.14901961"
       empspacing="10"
       dotted="false"
       gridanglex="30"
       gridanglez="30"
       visible="true" />
  </sodipodi:namedview>
  <defs
     id="defs1">
    <inkscape:path-effect
       effect="copy_rotate"
       starting_point="22.499999,277"
       origin="19.999999,277"
       id="path-effect3"
       is_visible="true"
       lpeversion="1.2"
       lpesatellites=""
       method="normal"
       num_copies="4"
       starting_angle="0"
       rotation_angle="90"
       gap="-0.01"
       copies_to_360="true"
       mirror_copies="false"
       split_items="false"
       link_styles="false" />
    <inkscape:path-effect
       effect="copy_rotate"
       starting_point="22.499999,277"
       origin="19.999999,277"
       id="path-effect1"
       is_visible="true"
       lpeversion="1.2"
       lpesatellites=""
       method="normal"
       num_copies="4"
       starting_angle="0"
       rotation_angle="90"
       gap="-0.01"
       copies_to_360="true"
       mirror_copies="false"
       split_items="false"
       link_styles="false" />
    <inkscape:path-effect
       effect="copy_rotate"
       starting_point="22.499999,277"
       origin="19.999999,277"
       id="path-effect1-8"
       is_visible="true"
       lpeversion="1.2"
       lpesatellites=""
       method="normal"
       num_copies="4"
       starting_angle="0"
       rotation_angle="90"
       gap="-0.01"
       copies_to_360="true"
       mirror_copies="false"
       split_items="false"
       link_styles="false" />
    <inkscape:path-effect
       effect="copy_rotate"
       starting_point="22.499999,277"
       origin="19.999999,277"
       id="path-effect3-0"
       is_visible="true"
       lpeversion="1.2"
       lpesatellites=""
       method="normal"
       num_copies="4"
       starting_angle="0"
       rotation_angle="90"
       gap="-0.01"
       copies_to_360="true"
       mirror_copies="false"
       split_items="false"
       link_styles="false" />
  </defs>
  <g
     id="g1"
     transform="translate(-94.635098,36.11685)"
     inkscape:label="case--control--power">
    <path
       id="rect1"
       style="vector-effect:non-scaling-stroke;fill:#808080;fill-rule:evenodd;stroke:#000000;stroke-width:0.264583;stroke-linecap:round;stroke-linejoin:round;-inkscape-stroke:hairline;paint-order:stroke fill markers"
       inkscape:label="case--control--power--base"
       d="M 2.5001058,0 C 2.5001058,1.3807086 1.3807046,2.5001058 0,2.5001058 V 37.500037 c 1.3807046,0 2.5001058,1.119397 2.5001058,2.500105 H 37.500037 c 0,-1.380708 1.119402,-2.500105 2.500105,-2.500105 V 2.5001058 C 38.619439,2.5001058 37.500037,1.3807086 37.500037,0 Z M 19.999813,14.249776 c 3.175697,0 5.750036,2.57434 5.750036,5.750037 0,3.175697 -2.574339,5.750036 -5.750036,5.750036 -3.175697,0 -5.750037,-2.574339 -5.750037,-5.750036 0,-3.175697 2.57434,-5.750037 5.750037,-5.750037 z"
       transform="translate(74.635098,-16.116991)" />
    <path
       id="path10"
       style="clip-rule:evenodd;vector-effect:non-scaling-stroke;fill:#000000;fill-rule:nonzero;stroke-width:0.264576;stroke-dasharray:none;-inkscape-stroke:hairline;image-rendering:optimizeQuality;shape-rendering:geometricPrecision;text-rendering:geometricPrecision"
       class="fil1"
       d="m 17.938486,34.999852 c -0.02723,0 -0.05378,0.0011 -0.07958,0.0031 -0.0258,0.002 -0.05107,0.0048 -0.07545,0.0088 -0.02438,0.004 -0.04785,0.009 -0.0708,0.01499 -0.02295,0.0059 -0.04513,0.01275 -0.06666,0.02067 -0.02153,0.0079 -0.04242,0.01697 -0.06253,0.02687 -0.02011,0.0099 -0.0392,0.02068 -0.05788,0.03256 -0.0093,0.0059 -0.01892,0.01217 -0.02791,0.0186 -0.009,0.0064 -0.01773,0.01323 -0.02636,0.02015 -0.01726,0.01385 -0.03377,0.02862 -0.04961,0.04444 -0.01582,0.01584 -0.03059,0.03259 -0.04444,0.05013 -0.01385,0.01754 -0.02688,0.03554 -0.03876,0.05478 -0.01187,0.01924 -0.02266,0.03952 -0.03256,0.06046 -0.0099,0.02094 -0.01895,0.04247 -0.02687,0.06511 -0.0079,0.02264 -0.01473,0.04646 -0.02067,0.0708 -0.0059,0.02434 -0.01103,0.04941 -0.01499,0.07545 -0.004,0.02604 -0.0068,0.05288 -0.0088,0.08062 -0.002,0.02774 -0.0031,0.05635 -0.0031,0.08578 v 1.033529 c 0,0.02945 0.0011,0.05804 0.0031,0.08578 0.002,0.02775 0.0048,0.05457 0.0088,0.08062 0.004,0.02604 0.009,0.05111 0.01499,0.07545 0.0059,0.02434 0.01275,0.04764 0.02067,0.07028 0.0079,0.02264 0.01698,0.04469 0.02687,0.06563 0.0099,0.02093 0.02068,0.04071 0.03256,0.05994 0.01187,0.01923 0.02491,0.03777 0.03876,0.05529 0.01385,0.01753 0.02862,0.0343 0.04444,0.05013 0.01584,0.01584 0.03235,0.03059 0.04961,0.04444 0.01726,0.01386 0.03558,0.02688 0.05426,0.03876 0.01868,0.01188 0.03777,0.02266 0.05788,0.03256 0.0201,0.0099 0.041,0.01896 0.06253,0.02687 0.02153,0.0079 0.04371,0.01473 0.06666,0.02067 0.02295,0.0059 0.04642,0.01103 0.0708,0.01499 0.02437,0.004 0.04965,0.0068 0.07545,0.0088 0.0258,0.002 0.05236,0.0031 0.07958,0.0031 0.02721,0 0.05379,-0.0011 0.07958,-0.0031 0.02579,-0.002 0.05056,-0.0048 0.07493,-0.0088 0.02437,-0.004 0.04837,-0.009 0.07131,-0.01499 0.02295,-0.0059 0.04514,-0.01276 0.06666,-0.02067 0.02153,-0.0079 0.04243,-0.01698 0.06253,-0.02687 0.0201,-0.0099 0.0392,-0.02068 0.05788,-0.03256 0.01868,-0.01187 0.037,-0.0249 0.05426,-0.03876 0.01726,-0.01386 0.03377,-0.0286 0.04961,-0.04444 0.01584,-0.01582 0.03059,-0.0326 0.04444,-0.05013 0.01386,-0.01753 0.02688,-0.03606 0.03876,-0.05529 0.01188,-0.01923 0.02266,-0.03901 0.03255,-0.05994 0.0099,-0.02094 0.01844,-0.04299 0.02636,-0.06563 0.0079,-0.02264 0.01525,-0.04594 0.02119,-0.07028 0.0059,-0.02434 0.01051,-0.0494 0.01447,-0.07545 0.004,-0.02604 0.0073,-0.05287 0.0093,-0.08062 0.002,-0.02775 0.0026,-0.05633 0.0026,-0.08578 v -1.036629 c 0,-0.02916 -6.06e-4,-0.05777 -0.0026,-0.08527 -0.002,-0.0275 -0.0053,-0.05427 -0.0093,-0.0801 -0.004,-0.02583 -0.0085,-0.05077 -0.01447,-0.07493 -0.0059,-0.02416 -0.01327,-0.04726 -0.02119,-0.06976 -0.0079,-0.0225 -0.01646,-0.04428 -0.02636,-0.06511 -0.0099,-0.02083 -0.02068,-0.04078 -0.03255,-0.05994 -0.01188,-0.01917 -0.0249,-0.03779 -0.03876,-0.05529 -0.01386,-0.0175 -0.0286,-0.03377 -0.04444,-0.04961 -0.01584,-0.01582 -0.03235,-0.03059 -0.04961,-0.04444 -0.01726,-0.01385 -0.03558,-0.02688 -0.05426,-0.03876 -0.01868,-0.01187 -0.03777,-0.02266 -0.05788,-0.03256 -0.0201,-0.0099 -0.041,-0.01895 -0.06253,-0.02687 -0.02152,-0.0079 -0.04371,-0.01473 -0.06666,-0.02067 -0.02295,-0.0059 -0.04695,-0.01103 -0.07131,-0.01499 -0.02437,-0.004 -0.04914,-0.0068 -0.07493,-0.0088 -0.02579,-0.002 -0.05237,-0.0031 -0.07958,-0.0031 z m -2.693235,0.03359 v 2.432926 h 0.300225 v -0.999939 h 0.483149 c 0.226588,0 0.407148,-0.06482 0.541541,-0.19482 0.134393,-0.1299 0.202044,-0.304132 0.202044,-0.521932 0,-0.2178 -0.06766,-0.391415 -0.202044,-0.521415 -0.134393,-0.13 -0.314953,-0.19482 -0.541541,-0.19482 z m 3.75978,0 0.289891,2.432926 h 0.3767 l 0.236666,-1.83348 c 0.0111,-0.0755 0.01876,-0.148975 0.02326,-0.221175 0.0044,-0.0722 0.009,-0.128465 0.01343,-0.168465 0.0045,0.04 0.0089,0.09626 0.01344,0.168465 0.0044,0.0722 0.01074,0.145675 0.01964,0.221175 l 0.22013,1.83348 h 0.376701 l 0.296607,-2.432926 H 20.60796 l -0.19636,1.79989 c -0.0044,0.03665 -0.0083,0.07357 -0.01189,0.111621 -0.0036,0.03805 -0.007,0.07682 -0.0098,0.116272 -0.0055,0.0789 -0.01049,0.142019 -0.01499,0.188619 -0.0044,-0.0466 -0.01125,-0.109719 -0.02015,-0.188619 -0.0089,-0.0789 -0.01746,-0.154593 -0.02635,-0.227893 l -0.220131,-1.79989 h -0.323477 l -0.239766,1.79989 c -0.0088,0.0733 -0.01752,0.148993 -0.02532,0.227893 -0.0077,0.0789 -0.01359,0.142019 -0.01809,0.188619 -0.0022,-0.0466 -0.0053,-0.109719 -0.0098,-0.188619 -0.0044,-0.0789 -0.01125,-0.154593 -0.02015,-0.227893 l -0.19016,-1.79989 z m 2.26641,0 v 2.432926 h 1.399841 V 37.193 H 21.568049 V 36.326386 H 22.5545 v -0.266651 h -0.986451 v -0.753442 h 1.103233 v -0.272851 z m 1.97652,0 v 2.432926 h 0.296607 v -1.033012 h 0.403572 l 0.476432,1.033012 h 0.329679 l -0.496585,-1.062984 c 0.035,-0.01167 0.0682,-0.02575 0.09973,-0.04186 0.03153,-0.01611 0.06134,-0.03474 0.08939,-0.05529 0.02806,-0.02055 0.05448,-0.04322 0.07906,-0.06821 0.02459,-0.02499 0.04763,-0.05222 0.06873,-0.08165 0.0211,-0.02945 0.03946,-0.06014 0.05529,-0.0925 0.01583,-0.03236 0.02923,-0.06601 0.03979,-0.101286 0.01056,-0.03528 0.01849,-0.07239 0.02377,-0.110588 0.0053,-0.0382 0.0078,-0.07773 0.0078,-0.118856 0,-0.035 -0.0019,-0.06903 -0.0057,-0.101802 -0.0038,-0.03277 -0.0096,-0.06453 -0.01705,-0.09508 -0.0075,-0.03055 -0.01666,-0.05953 -0.02791,-0.08785 -0.01125,-0.02832 -0.02427,-0.05555 -0.03927,-0.08165 -0.015,-0.02613 -0.03155,-0.05115 -0.04961,-0.07442 -0.01806,-0.02326 -0.03779,-0.04522 -0.05891,-0.06563 -0.02112,-0.02041 -0.04352,-0.03928 -0.0677,-0.05684 -0.02417,-0.01756 -0.05029,-0.03385 -0.07752,-0.04858 -0.0272,-0.01472 -0.05532,-0.0272 -0.08475,-0.03824 -0.02943,-0.01104 -0.05981,-0.02055 -0.09146,-0.02791 -0.03166,-0.0074 -0.06482,-0.01286 -0.09869,-0.01654 -0.03388,-0.0037 -0.0688,-0.0052 -0.104897,-0.0052 z m -5.309475,0.236161 c 0.03278,0 0.06355,0.0026 0.09249,0.0072 0.02895,0.0047 0.056,0.01136 0.08113,0.02067 0.02513,0.0093 0.04845,0.02118 0.06976,0.03514 0.02131,0.01396 0.04089,0.03047 0.05839,0.04909 0.0175,0.0186 0.03287,0.03893 0.04599,0.06149 0.01312,0.02256 0.02381,0.04737 0.03255,0.0739 0.0088,0.02652 0.01526,0.05478 0.01964,0.08527 0.0044,0.03049 0.0067,0.06322 0.0067,0.09767 v 1.099674 c 0,0.03442 -0.0023,0.06719 -0.0067,0.09767 -0.0044,0.03047 -0.01089,0.05874 -0.01964,0.08527 -0.0087,0.02653 -0.01943,0.05132 -0.03255,0.0739 -0.01313,0.02257 -0.02849,0.04287 -0.04599,0.0615 -0.0175,0.0186 -0.03708,0.03514 -0.05839,0.04909 -0.02131,0.01395 -0.04463,0.02532 -0.06976,0.03462 -0.02513,0.0093 -0.05218,0.01654 -0.08113,0.02119 -0.02895,0.0046 -0.05973,0.0067 -0.09249,0.0067 -0.03222,0 -0.06285,-0.0021 -0.09146,-0.0067 -0.02861,-0.0047 -0.0551,-0.01189 -0.0801,-0.02119 -0.025,-0.0093 -0.04838,-0.02067 -0.06976,-0.03462 -0.02139,-0.01395 -0.04114,-0.03049 -0.05891,-0.04909 -0.01778,-0.01863 -0.03317,-0.03892 -0.04651,-0.0615 -0.01334,-0.02257 -0.02418,-0.04737 -0.03307,-0.0739 -0.0089,-0.02652 -0.01571,-0.05479 -0.02015,-0.08527 -0.0044,-0.03047 -0.0067,-0.06324 -0.0067,-0.09767 v -1.099674 c 0,-0.03445 0.0023,-0.06718 0.0067,-0.09767 0.0044,-0.03049 0.01126,-0.05874 0.02015,-0.08527 0.0089,-0.02652 0.01974,-0.05134 0.03307,-0.0739 0.01334,-0.02256 0.02873,-0.04289 0.04651,-0.06149 0.01777,-0.01863 0.03752,-0.03513 0.05891,-0.04909 0.02139,-0.01396 0.04476,-0.02583 0.06976,-0.03514 0.025,-0.0093 0.05149,-0.01602 0.0801,-0.02067 0.02861,-0.0047 0.05924,-0.0072 0.09146,-0.0072 z m -2.39301,0.03359 h 0.483149 c 0.131093,0 0.236414,0.03999 0.315209,0.119889 0.0789,0.08 0.118333,0.188795 0.118333,0.326595 0,0.1356 -0.03944,0.243945 -0.118333,0.325045 -0.07879,0.0811 -0.184116,0.121956 -0.315209,0.121956 h -0.483149 z m 7.999092,0 h 0.453179 c 0.0311,0 0.06084,0.0024 0.08887,0.0072 0.02805,0.0049 0.05459,0.01199 0.07958,0.0217 0.02499,0.0097 0.04834,0.02211 0.07028,0.03669 0.02193,0.01458 0.04262,0.03171 0.06149,0.05116 0.0189,0.01945 0.03543,0.04027 0.04961,0.06305 0.01418,0.02277 0.02569,0.04727 0.03514,0.07338 0.0095,0.02611 0.01646,0.05376 0.02119,0.0832 0.0047,0.02944 0.0072,0.06076 0.0072,0.09353 0,0.03222 -0.0025,0.06289 -0.0072,0.09198 -0.0047,0.0291 -0.01174,0.05671 -0.02119,0.08268 -0.0094,0.02597 -0.02097,0.05053 -0.03514,0.07338 -0.01417,0.02285 -0.03071,0.04384 -0.04961,0.06356 -0.01887,0.01973 -0.03956,0.03689 -0.06149,0.05168 -0.02194,0.01479 -0.04529,0.02735 -0.07028,0.03721 -0.02499,0.0099 -0.05153,0.01729 -0.07958,0.02222 -0.02805,0.0049 -0.05778,0.0072 -0.08887,0.0072 h -0.453179 z"
       inkscape:label="case--control--power--label"
       transform="translate(74.635098,-16.116991)" />
  </g>
</svg>
