<?xml version="1.0" encoding="UTF-8" standalone="no"?>
<!-- Created with Inkscape (http://www.inkscape.org/) -->

<svg
   width="40mm"
   height="40mm"
   viewBox="0 0 40 40"
   version="1.1"
   id="svg1"
   inkscape:version="1.3 (0e150ed6c4, 2023-07-21)"
   sodipodi:docname="case--vent--2x2.svg"
   xml:space="preserve"
   xmlns:inkscape="http://www.inkscape.org/namespaces/inkscape"
   xmlns:sodipodi="http://sodipodi.sourceforge.net/DTD/sodipodi-0.dtd"
   xmlns="http://www.w3.org/2000/svg"
   xmlns:svg="http://www.w3.org/2000/svg"><sodipodi:namedview
     id="namedview1"
     pagecolor="#ffffff"
     bordercolor="#000000"
     borderopacity="0.25"
     inkscape:showpageshadow="2"
     inkscape:pageopacity="0.0"
     inkscape:pagecheckerboard="0"
     inkscape:deskcolor="#d1d1d1"
     inkscape:document-units="mm"
     showgrid="true"
     inkscape:zoom="0.80630808"
     inkscape:cx="-174.87112"
     inkscape:cy="-156.26781"
     inkscape:window-width="2496"
     inkscape:window-height="1558"
     inkscape:window-x="-11"
     inkscape:window-y="-11"
     inkscape:window-maximized="1"
     inkscape:current-layer="svg1"><inkscape:grid
       id="grid1"
       units="mm"
       originx="0"
       originy="0"
       spacingx="0.99999997"
       spacingy="0.99999997"
       empcolor="#0099e5"
       empopacity="0.30196078"
       color="#0099e5"
       opacity="0.14902"
       empspacing="10"
       dotted="false"
       gridanglex="30"
       gridanglez="30"
       visible="true" /></sodipodi:namedview><defs
     id="defs1"><inkscape:path-effect
       effect="tiling"
       id="path-effect8"
       is_visible="true"
       lpeversion="1"
       unit="mm"
       seed="1;1"
       lpesatellites=""
       num_rows="4"
       num_cols="4"
       gapx="5"
       gapy="5"
       offset="0"
       offset_type="false"
       scale="0"
       rotate="0"
       mirrorrowsx="false"
       mirrorrowsy="false"
       mirrorcolsx="false"
       mirrorcolsy="false"
       mirrortrans="false"
       shrink_interp="false"
       split_items="false"
       link_styles="false"
       interpolate_scalex="false"
       interpolate_scaley="true"
       interpolate_rotatex="false"
       interpolate_rotatey="true"
       random_scale="false"
       random_rotate="false"
       random_gap_y="false"
       random_gap_x="false"
       transformorigin="" /><inkscape:path-effect
       effect="tiling"
       id="path-effect5"
       is_visible="true"
       lpeversion="1"
       unit="mm"
       seed="1;1"
       lpesatellites=""
       num_rows="4"
       num_cols="4"
       gapx="5"
       gapy="5"
       offset="0"
       offset_type="false"
       scale="0"
       rotate="0"
       mirrorrowsx="false"
       mirrorrowsy="false"
       mirrorcolsx="false"
       mirrorcolsy="false"
       mirrortrans="false"
       shrink_interp="false"
       split_items="false"
       link_styles="false"
       interpolate_scalex="false"
       interpolate_scaley="true"
       interpolate_rotatex="false"
       interpolate_rotatey="true"
       random_scale="false"
       random_rotate="false"
       random_gap_y="false"
       random_gap_x="false"
       transformorigin="" /><inkscape:path-effect
       effect="tiling"
       id="path-effect4"
       is_visible="true"
       lpeversion="1"
       unit="mm"
       seed="1;1"
       lpesatellites=""
       num_rows="4"
       num_cols="4"
       gapx="19"
       gapy="19"
       offset="0"
       offset_type="false"
       scale="0"
       rotate="0"
       mirrorrowsx="false"
       mirrorrowsy="false"
       mirrorcolsx="false"
       mirrorcolsy="false"
       mirrortrans="false"
       shrink_interp="false"
       split_items="false"
       link_styles="false"
       interpolate_scalex="false"
       interpolate_scaley="true"
       interpolate_rotatex="false"
       interpolate_rotatey="true"
       random_scale="false"
       random_rotate="false"
       random_gap_y="false"
       random_gap_x="false"
       transformorigin="" /><inkscape:path-effect
       effect="clone_original"
       linkeditem=""
       id="path-effect2"
       is_visible="true"
       lpeversion="1"
       method="d"
       attributes=""
       css_properties=""
       allow_transforms="true" /><inkscape:path-effect
       effect="copy_rotate"
       starting_point="22.499999,277"
       origin="19.999999,277"
       id="path-effect3"
       is_visible="true"
       lpeversion="1.2"
       lpesatellites=""
       method="normal"
       num_copies="4"
       starting_angle="0"
       rotation_angle="90"
       gap="-0.01"
       copies_to_360="true"
       mirror_copies="false"
       split_items="false"
       link_styles="false" /><inkscape:path-effect
       effect="copy_rotate"
       starting_point="22.499999,277"
       origin="19.999999,277"
       id="path-effect1"
       is_visible="true"
       lpeversion="1.2"
       lpesatellites=""
       method="normal"
       num_copies="4"
       starting_angle="0"
       rotation_angle="90"
       gap="-0.01"
       copies_to_360="true"
       mirror_copies="false"
       split_items="false"
       link_styles="false" /><inkscape:path-effect
       effect="copy_rotate"
       starting_point="22.499999,277"
       origin="19.999999,277"
       id="path-effect1-8"
       is_visible="true"
       lpeversion="1.2"
       lpesatellites=""
       method="normal"
       num_copies="4"
       starting_angle="0"
       rotation_angle="90"
       gap="-0.01"
       copies_to_360="true"
       mirror_copies="false"
       split_items="false"
       link_styles="false" /><inkscape:path-effect
       effect="copy_rotate"
       starting_point="22.499999,277"
       origin="19.999999,277"
       id="path-effect3-0"
       is_visible="true"
       lpeversion="1.2"
       lpesatellites=""
       method="normal"
       num_copies="4"
       starting_angle="0"
       rotation_angle="90"
       gap="-0.01"
       copies_to_360="true"
       mirror_copies="false"
       split_items="false"
       link_styles="false" /><style
       type="text/css"
       id="style1">&#10;   <![CDATA[
    .str0 {stroke:#373435;stroke-width:17.57;stroke-linecap:round;stroke-linejoin:round;stroke-miterlimit:2.61313}
    .fil0 {fill:none}
   ]]>&#10;  </style><marker
       id="DistanceX"
       orient="auto"
       refX="0.0"
       refY="0.0"
       style="overflow:visible"><path
         d="M 3,-3 L -3,3 M 0,-5 L  0,5"
         style="stroke:#000000; stroke-width:0.5"
         id="path1" /></marker><pattern
       id="Hatch"
       patternUnits="userSpaceOnUse"
       width="8"
       height="8"
       x="0"
       y="0"><path
         d="M8 4 l-4,4"
         stroke="#000000"
         stroke-width="0.25"
         linecap="square"
         id="path2" /><path
         d="M6 2 l-4,4"
         stroke="#000000"
         stroke-width="0.25"
         linecap="square"
         id="path3" /><path
         d="M4 0 l-4,4"
         stroke="#000000"
         stroke-width="0.25"
         linecap="square"
         id="path4" /></pattern><symbol
       id="$MODEL_SPACE" /><symbol
       id="$PAPER_SPACE" /><inkscape:path-effect
       effect="tiling"
       id="path-effect4-4"
       is_visible="true"
       lpeversion="1"
       unit="mm"
       seed="1;1"
       lpesatellites=""
       num_rows="4"
       num_cols="4"
       gapx="52.91"
       gapy="5.0270833"
       offset="0"
       offset_type="false"
       scale="0"
       rotate="0"
       mirrorrowsx="false"
       mirrorrowsy="false"
       mirrorcolsx="false"
       mirrorcolsy="false"
       mirrortrans="false"
       shrink_interp="false"
       split_items="false"
       link_styles="false"
       interpolate_scalex="false"
       interpolate_scaley="true"
       interpolate_rotatex="false"
       interpolate_rotatey="true"
       random_scale="false"
       random_rotate="false"
       random_gap_y="false"
       random_gap_x="false"
       transformorigin="" /><inkscape:path-effect
       effect="tiling"
       id="path-effect5-5"
       is_visible="true"
       lpeversion="1"
       unit="mm"
       seed="1;1"
       lpesatellites=""
       num_rows="4"
       num_cols="4"
       gapx="5"
       gapy="5"
       offset="0"
       offset_type="false"
       scale="0"
       rotate="0"
       mirrorrowsx="false"
       mirrorrowsy="false"
       mirrorcolsx="false"
       mirrorcolsy="false"
       mirrortrans="false"
       shrink_interp="false"
       split_items="false"
       link_styles="false"
       interpolate_scalex="false"
       interpolate_scaley="true"
       interpolate_rotatex="false"
       interpolate_rotatey="true"
       random_scale="false"
       random_rotate="false"
       random_gap_y="false"
       random_gap_x="false"
       transformorigin="" /></defs><path
     id="path6"
     style="vector-effect:non-scaling-stroke;fill:#808080;fill-rule:evenodd;stroke:#000000;stroke-width:0.264582;stroke-linecap:round;stroke-linejoin:round;-inkscape-stroke:hairline;paint-order:stroke fill markers"
     inkscape:label="case--vent--1x1--shape"
     d="M -37.499894,2.3311262e-4 C -37.499894,1.3809341 -38.619302,2.5003391 -40,2.5003391 V 37.499753 c 1.380698,0 2.500106,1.119406 2.500106,2.500106 0,1.380701 -1.119408,2.500106 -2.500106,2.500106 v 34.99993 c 1.380698,0 2.500106,1.119407 2.500106,2.500106 H -2.50048 c 0,-1.380699 1.119411,-2.500106 2.500106,-2.500106 1.380697,0 2.500106,1.119407 2.500106,2.500106 h 34.99993 c 0,-1.380699 1.119412,-2.500106 2.500106,-2.500106 v -34.99993 c -1.380694,0 -2.500106,-1.119405 -2.500106,-2.500106 0,-1.3807 1.119412,-2.500106 2.500106,-2.500106 V 2.4998221 c -1.380694,0 -2.500106,-1.118888 -2.500106,-2.49958898738 H 2.499732 C 2.499732,1.3809341 1.380323,2.4998221 -3.74e-4,2.4998221 v 5.17e-4 c -1.380695,0 -2.500106,-1.119405 -2.500106,-2.50010598738 z M 4.999837,2.4998221 c 1.380702,0 2.499589,1.119403 2.499589,2.500106 0,1.380703 -1.118887,2.499589 -2.499589,2.499589 -1.380703,0 -2.500105,-1.118886 -2.500105,-2.499589 0,-1.380703 1.119402,-2.500106 2.500105,-2.500106 z m 9.999907,0 c 1.380703,0 2.500106,1.119403 2.500106,2.500106 0,1.380703 -1.119403,2.499589 -2.500106,2.499589 -1.380704,0 -2.500106,-1.118886 -2.500106,-2.499589 0,-1.380703 1.119402,-2.500106 2.500106,-2.500106 z m 9.999906,0 c 1.380704,0 2.500106,1.119403 2.500106,2.500106 0,1.380703 -1.119402,2.499589 -2.500106,2.499589 -1.380701,0 -2.500106,-1.118886 -2.500106,-2.499589 0,-1.380703 1.119405,-2.500106 2.500106,-2.500106 z m 9.999907,0 c 1.380701,0 2.500105,1.119403 2.500105,2.500106 0,1.380703 -1.119404,2.499589 -2.500105,2.499589 -1.380704,0 -2.500106,-1.118886 -2.500106,-2.499589 0,-1.380703 1.119402,-2.500106 2.500106,-2.500106 z m -69.999345,5.17e-4 c 1.380701,0 2.499589,1.119403 2.499589,2.500106 0,1.380702 -1.118888,2.499589 -2.499589,2.499589 -1.380704,0 -2.500106,-1.118887 -2.500106,-2.499589 0,-1.380703 1.119402,-2.500106 2.500106,-2.500106 z m 9.999906,0 c 1.380704,0 2.500106,1.119403 2.500106,2.500106 0,1.380702 -1.119402,2.499589 -2.500106,2.499589 -1.380703,0 -2.500106,-1.118887 -2.500106,-2.499589 0,-1.380703 1.119403,-2.500106 2.500106,-2.500106 z m 9.99939,0 c 1.380703,0 2.500106,1.119403 2.500106,2.500106 0,1.380702 -1.119403,2.499589 -2.500106,2.499589 -1.380702,0 -2.500106,-1.118887 -2.500106,-2.499589 0,-1.380703 1.119404,-2.500106 2.500106,-2.500106 z m 9.999906,0 c 1.380702,0 2.500106,1.119403 2.500106,2.500106 0,1.380702 -1.119404,2.499589 -2.500106,2.499589 -1.380703,0 -2.500106,-1.118887 -2.500106,-2.499589 0,-1.380703 1.119403,-2.500106 2.500106,-2.500106 z M 4.999837,12.499729 c 1.380702,0 2.499589,1.119402 2.499589,2.500106 0,1.380702 -1.118887,2.500105 -2.499589,2.500105 -1.380703,0 -2.500105,-1.119403 -2.500105,-2.500105 0,-1.380704 1.119402,-2.500106 2.500105,-2.500106 z m 9.999907,0 c 1.380703,0 2.500106,1.119402 2.500106,2.500106 0,1.380702 -1.119403,2.500105 -2.500106,2.500105 -1.380704,0 -2.500106,-1.119403 -2.500106,-2.500105 0,-1.380704 1.119402,-2.500106 2.500106,-2.500106 z m 9.999906,0 c 1.380704,0 2.500106,1.119402 2.500106,2.500106 0,1.380702 -1.119402,2.500105 -2.500106,2.500105 -1.380701,0 -2.500106,-1.119403 -2.500106,-2.500105 0,-1.380704 1.119405,-2.500106 2.500106,-2.500106 z m 9.999907,0 c 1.380701,0 2.500105,1.119402 2.500105,2.500106 0,1.380702 -1.119404,2.500105 -2.500105,2.500105 -1.380704,0 -2.500106,-1.119403 -2.500106,-2.500105 0,-1.380704 1.119402,-2.500106 2.500106,-2.500106 z m -69.999345,5.17e-4 c 1.380701,0 2.499589,1.119402 2.499589,2.500105 0,1.380703 -1.118888,2.500106 -2.499589,2.500106 -1.380704,0 -2.500106,-1.119403 -2.500106,-2.500106 0,-1.380703 1.119402,-2.500105 2.500106,-2.500105 z m 9.999906,0 c 1.380704,0 2.500106,1.119402 2.500106,2.500105 0,1.380703 -1.119402,2.500106 -2.500106,2.500106 -1.380703,0 -2.500106,-1.119403 -2.500106,-2.500106 0,-1.380703 1.119403,-2.500105 2.500106,-2.500105 z m 9.99939,0 c 1.380703,0 2.500106,1.119402 2.500106,2.500105 0,1.380703 -1.119403,2.500106 -2.500106,2.500106 -1.380702,0 -2.500106,-1.119403 -2.500106,-2.500106 0,-1.380703 1.119404,-2.500105 2.500106,-2.500105 z m 9.999906,0 c 1.380702,0 2.500106,1.119402 2.500106,2.500105 0,1.380703 -1.119404,2.500106 -2.500106,2.500106 -1.380703,0 -2.500106,-1.119403 -2.500106,-2.500106 0,-1.380703 1.119403,-2.500105 2.500106,-2.500105 z m -29.999202,9.999389 c 1.380701,0 2.499589,1.119403 2.499589,2.500106 0,1.380704 -1.118888,2.500106 -2.499589,2.500106 -1.380704,0 -2.500106,-1.119402 -2.500106,-2.500106 0,-1.380703 1.119402,-2.500106 2.500106,-2.500106 z m 9.999906,0 c 1.380704,0 2.500106,1.119403 2.500106,2.500106 0,1.380704 -1.119402,2.500106 -2.500106,2.500106 -1.380703,0 -2.500106,-1.119402 -2.500106,-2.500106 0,-1.380703 1.119403,-2.500106 2.500106,-2.500106 z m 9.99939,0 c 1.380703,0 2.500106,1.119403 2.500106,2.500106 0,1.380704 -1.119403,2.500106 -2.500106,2.500106 -1.380702,0 -2.500106,-1.119402 -2.500106,-2.500106 0,-1.380703 1.119404,-2.500106 2.500106,-2.500106 z m 9.999906,0 c 1.380702,0 2.500106,1.119403 2.500106,2.500106 0,1.380704 -1.119404,2.500106 -2.500106,2.500106 -1.380703,0 -2.500106,-1.119402 -2.500106,-2.500106 0,-1.380703 1.119403,-2.500106 2.500106,-2.500106 z m 10.000423,0 c 1.380702,0 2.499589,1.119403 2.499589,2.500106 0,1.380704 -1.118887,2.500106 -2.499589,2.500106 -1.380703,0 -2.500105,-1.119402 -2.500105,-2.500106 0,-1.380703 1.119402,-2.500106 2.500105,-2.500106 z m 9.999907,0 c 1.380703,0 2.500106,1.119403 2.500106,2.500106 0,1.380704 -1.119403,2.500106 -2.500106,2.500106 -1.380704,0 -2.500106,-1.119402 -2.500106,-2.500106 0,-1.380703 1.119402,-2.500106 2.500106,-2.500106 z m 9.999906,0 c 1.380704,0 2.500106,1.119403 2.500106,2.500106 0,1.380704 -1.119402,2.500106 -2.500106,2.500106 -1.380701,0 -2.500106,-1.119402 -2.500106,-2.500106 0,-1.380703 1.119405,-2.500106 2.500106,-2.500106 z m 9.999907,0 c 1.380701,0 2.500105,1.119403 2.500105,2.500106 0,1.380704 -1.119404,2.500106 -2.500105,2.500106 -1.380704,0 -2.500106,-1.119402 -2.500106,-2.500106 0,-1.380703 1.119402,-2.500106 2.500106,-2.500106 z m -69.999345,9.999906 c 1.380701,0 2.499589,1.119403 2.499589,2.500106 0,1.380702 -1.118888,2.500106 -2.499589,2.500106 -1.380704,0 -2.500106,-1.119404 -2.500106,-2.500106 0,-1.380703 1.119402,-2.500106 2.500106,-2.500106 z m 9.999906,0 c 1.380704,0 2.500106,1.119403 2.500106,2.500106 0,1.380702 -1.119402,2.500106 -2.500106,2.500106 -1.380703,0 -2.500106,-1.119404 -2.500106,-2.500106 0,-1.380703 1.119403,-2.500106 2.500106,-2.500106 z m 9.99939,0 c 1.380703,0 2.500106,1.119403 2.500106,2.500106 0,1.380702 -1.119403,2.500106 -2.500106,2.500106 -1.380702,0 -2.500106,-1.119404 -2.500106,-2.500106 0,-1.380703 1.119404,-2.500106 2.500106,-2.500106 z m 9.999906,0 c 1.380702,0 2.500106,1.119403 2.500106,2.500106 0,1.380702 -1.119404,2.500106 -2.500106,2.500106 -1.380703,0 -2.500106,-1.119404 -2.500106,-2.500106 0,-1.380703 1.119403,-2.500106 2.500106,-2.500106 z m 10.000423,0 c 1.380702,0 2.499589,1.119403 2.499589,2.500106 0,1.380702 -1.118887,2.500106 -2.499589,2.500106 -1.380703,0 -2.500105,-1.119404 -2.500105,-2.500106 0,-1.380703 1.119402,-2.500106 2.500105,-2.500106 z m 9.999907,0 c 1.380703,0 2.500106,1.119403 2.500106,2.500106 0,1.380702 -1.119403,2.500106 -2.500106,2.500106 -1.380704,0 -2.500106,-1.119404 -2.500106,-2.500106 0,-1.380703 1.119402,-2.500106 2.500106,-2.500106 z m 9.999906,0 c 1.380704,0 2.500106,1.119403 2.500106,2.500106 0,1.380702 -1.119402,2.500106 -2.500106,2.500106 -1.380701,0 -2.500106,-1.119404 -2.500106,-2.500106 0,-1.380703 1.119405,-2.500106 2.500106,-2.500106 z m 9.999907,0 c 1.380701,0 2.500105,1.119403 2.500105,2.500106 0,1.380702 -1.119404,2.500106 -2.500105,2.500106 -1.380704,0 -2.500106,-1.119404 -2.500106,-2.500106 0,-1.380703 1.119402,-2.500106 2.500106,-2.500106 z m -69.999345,10.000424 c 1.380701,0 2.499589,1.119402 2.499589,2.500105 0,1.380702 -1.118888,2.499589 -2.499589,2.499589 -1.380704,0 -2.500106,-1.118887 -2.500106,-2.499589 0,-1.380703 1.119402,-2.500105 2.500106,-2.500105 z m 9.999906,0 c 1.380704,0 2.500106,1.119402 2.500106,2.500105 0,1.380702 -1.119402,2.499589 -2.500106,2.499589 -1.380703,0 -2.500106,-1.118887 -2.500106,-2.499589 0,-1.380703 1.119403,-2.500105 2.500106,-2.500105 z m 9.99939,0 c 1.380703,0 2.500106,1.119402 2.500106,2.500105 0,1.380702 -1.119403,2.499589 -2.500106,2.499589 -1.380702,0 -2.500106,-1.118887 -2.500106,-2.499589 0,-1.380703 1.119404,-2.500105 2.500106,-2.500105 z m 9.999906,0 c 1.380702,0 2.500106,1.119402 2.500106,2.500105 0,1.380702 -1.119404,2.499589 -2.500106,2.499589 -1.380703,0 -2.500106,-1.118887 -2.500106,-2.499589 0,-1.380703 1.119403,-2.500105 2.500106,-2.500105 z m 10.000423,0 c 1.380702,0 2.499589,1.119402 2.499589,2.500105 0,1.380702 -1.118887,2.499589 -2.499589,2.499589 -1.380703,0 -2.500105,-1.118887 -2.500105,-2.499589 0,-1.380703 1.119402,-2.500105 2.500105,-2.500105 z m 9.999907,0 c 1.380703,0 2.500106,1.119402 2.500106,2.500105 0,1.380702 -1.119403,2.499589 -2.500106,2.499589 -1.380704,0 -2.500106,-1.118887 -2.500106,-2.499589 0,-1.380703 1.119402,-2.500105 2.500106,-2.500105 z m 9.999906,0 c 1.380704,0 2.500106,1.119402 2.500106,2.500105 0,1.380702 -1.119402,2.499589 -2.500106,2.499589 -1.380701,0 -2.500106,-1.118887 -2.500106,-2.499589 0,-1.380703 1.119405,-2.500105 2.500106,-2.500105 z m 9.999907,0 c 1.380701,0 2.500105,1.119402 2.500105,2.500105 0,1.380702 -1.119404,2.499589 -2.500105,2.499589 -1.380704,0 -2.500106,-1.118887 -2.500106,-2.499589 0,-1.380703 1.119402,-2.500105 2.500106,-2.500105 z m -69.999345,9.999906 c 1.380701,0 2.499589,1.119402 2.499589,2.500106 0,1.380703 -1.118888,2.500106 -2.499589,2.500106 -1.380704,0 -2.500106,-1.119403 -2.500106,-2.500106 0,-1.380704 1.119402,-2.500106 2.500106,-2.500106 z m 9.999906,0 c 1.380704,0 2.500106,1.119402 2.500106,2.500106 0,1.380703 -1.119402,2.500106 -2.500106,2.500106 -1.380703,0 -2.500106,-1.119403 -2.500106,-2.500106 0,-1.380704 1.119403,-2.500106 2.500106,-2.500106 z m 9.99939,0 c 1.380703,0 2.500106,1.119402 2.500106,2.500106 0,1.380703 -1.119403,2.500106 -2.500106,2.500106 -1.380702,0 -2.500106,-1.119403 -2.500106,-2.500106 0,-1.380704 1.119404,-2.500106 2.500106,-2.500106 z m 9.999906,0 c 1.380702,0 2.500106,1.119402 2.500106,2.500106 0,1.380703 -1.119404,2.500106 -2.500106,2.500106 -1.380703,0 -2.500106,-1.119403 -2.500106,-2.500106 0,-1.380704 1.119403,-2.500106 2.500106,-2.500106 z m 10.000423,0 c 1.380702,0 2.499589,1.119402 2.499589,2.500106 0,1.380703 -1.118887,2.500106 -2.499589,2.500106 -1.380703,0 -2.500105,-1.119403 -2.500105,-2.500106 0,-1.380704 1.119402,-2.500106 2.500105,-2.500106 z m 9.999907,0 c 1.380703,0 2.500106,1.119402 2.500106,2.500106 0,1.380703 -1.119403,2.500106 -2.500106,2.500106 -1.380704,0 -2.500106,-1.119403 -2.500106,-2.500106 0,-1.380704 1.119402,-2.500106 2.500106,-2.500106 z m 9.999906,0 c 1.380704,0 2.500106,1.119402 2.500106,2.500106 0,1.380703 -1.119402,2.500106 -2.500106,2.500106 -1.380701,0 -2.500106,-1.119403 -2.500106,-2.500106 0,-1.380704 1.119405,-2.500106 2.500106,-2.500106 z m 9.999907,0 c 1.380701,0 2.500105,1.119402 2.500105,2.500106 0,1.380703 -1.119404,2.500106 -2.500105,2.500106 -1.380704,0 -2.500106,-1.119403 -2.500106,-2.500106 0,-1.380704 1.119402,-2.500106 2.500106,-2.500106 z m -69.999345,9.999906 c 1.380701,0 2.499589,1.119405 2.499589,2.500106 0,1.380704 -1.118888,2.500106 -2.499589,2.500106 -1.380704,0 -2.500106,-1.119402 -2.500106,-2.500106 0,-1.380701 1.119402,-2.500106 2.500106,-2.500106 z m 9.999906,0 c 1.380704,0 2.500106,1.119405 2.500106,2.500106 0,1.380704 -1.119402,2.500106 -2.500106,2.500106 -1.380703,0 -2.500106,-1.119402 -2.500106,-2.500106 0,-1.380701 1.119403,-2.500106 2.500106,-2.500106 z m 9.99939,0 c 1.380703,0 2.500106,1.119405 2.500106,2.500106 0,1.380704 -1.119403,2.500106 -2.500106,2.500106 -1.380702,0 -2.500106,-1.119402 -2.500106,-2.500106 0,-1.380701 1.119404,-2.500106 2.500106,-2.500106 z m 9.999906,0 c 1.380702,0 2.500106,1.119405 2.500106,2.500106 0,1.380704 -1.119404,2.500106 -2.500106,2.500106 -1.380703,0 -2.500106,-1.119402 -2.500106,-2.500106 0,-1.380701 1.119403,-2.500106 2.500106,-2.500106 z m 10.000423,0 c 1.380702,0 2.499589,1.119405 2.499589,2.500106 0,1.380704 -1.118887,2.500106 -2.499589,2.500106 -1.380703,0 -2.500105,-1.119402 -2.500105,-2.500106 0,-1.380701 1.119402,-2.500106 2.500105,-2.500106 z m 9.999907,0 c 1.380703,0 2.500106,1.119405 2.500106,2.500106 0,1.380704 -1.119403,2.500106 -2.500106,2.500106 -1.380704,0 -2.500106,-1.119402 -2.500106,-2.500106 0,-1.380701 1.119402,-2.500106 2.500106,-2.500106 z m 9.999906,0 c 1.380704,0 2.500106,1.119405 2.500106,2.500106 0,1.380704 -1.119402,2.500106 -2.500106,2.500106 -1.380701,0 -2.500106,-1.119402 -2.500106,-2.500106 0,-1.380701 1.119405,-2.500106 2.500106,-2.500106 z m 9.999907,0 c 1.380701,0 2.500105,1.119405 2.500105,2.500106 0,1.380704 -1.119404,2.500106 -2.500105,2.500106 -1.380704,0 -2.500106,-1.119402 -2.500106,-2.500106 0,-1.380701 1.119402,-2.500106 2.500106,-2.500106 z m -69.999345,9.999907 c 1.380701,0 2.499589,1.119402 2.499589,2.500106 0,1.380701 -1.118888,2.500105 -2.499589,2.500105 -1.380704,0 -2.500106,-1.119404 -2.500106,-2.500105 0,-1.380704 1.119402,-2.500106 2.500106,-2.500106 z m 9.999906,0 c 1.380704,0 2.500106,1.119402 2.500106,2.500106 0,1.380701 -1.119402,2.500105 -2.500106,2.500105 -1.380703,0 -2.500106,-1.119404 -2.500106,-2.500105 0,-1.380704 1.119403,-2.500106 2.500106,-2.500106 z m 9.99939,0 c 1.380703,0 2.500106,1.119402 2.500106,2.500106 0,1.380701 -1.119403,2.500105 -2.500106,2.500105 -1.380702,0 -2.500106,-1.119404 -2.500106,-2.500105 0,-1.380704 1.119404,-2.500106 2.500106,-2.500106 z m 9.999906,0 c 1.380702,0 2.500106,1.119402 2.500106,2.500106 0,1.380701 -1.119404,2.500105 -2.500106,2.500105 -1.380703,0 -2.500106,-1.119404 -2.500106,-2.500105 0,-1.380704 1.119403,-2.500106 2.500106,-2.500106 z m 10.000423,0 c 1.380702,0 2.499589,1.119402 2.499589,2.500106 0,1.380701 -1.118887,2.500105 -2.499589,2.500105 -1.380703,0 -2.500105,-1.119404 -2.500105,-2.500105 0,-1.380704 1.119402,-2.500106 2.500105,-2.500106 z m 9.999907,0 c 1.380703,0 2.500106,1.119402 2.500106,2.500106 0,1.380701 -1.119403,2.500105 -2.500106,2.500105 -1.380704,0 -2.500106,-1.119404 -2.500106,-2.500105 0,-1.380704 1.119402,-2.500106 2.500106,-2.500106 z m 9.999906,0 c 1.380704,0 2.500106,1.119402 2.500106,2.500106 0,1.380701 -1.119402,2.500105 -2.500106,2.500105 -1.380701,0 -2.500106,-1.119404 -2.500106,-2.500105 0,-1.380704 1.119405,-2.500106 2.500106,-2.500106 z m 9.999907,0 c 1.380701,0 2.500105,1.119402 2.500105,2.500106 0,1.380701 -1.119404,2.500105 -2.500105,2.500105 -1.380704,0 -2.500106,-1.119404 -2.500106,-2.500105 0,-1.380704 1.119402,-2.500106 2.500106,-2.500106 z"
     sodipodi:nodetypes="cccsccccsccccsccccccccssssssssssssssssssssssssssssssssssssssssssssssssssssssssssssssssssssssssssssssssssssssssssssssssssssssssssssssssssssssssssssssssssssssssssssssssssssssssssssssssssssssssssssssssssssssssssssssssssssssssssssssssssssssssssssssssssssssssssssssssssssssssssssssssssssssssssssssssssssssssssssssssssssssssssssssssssssssssssssssss" /></svg>
