<?xml version="1.0" encoding="UTF-8" standalone="no"?>
<!-- Created with Inkscape (http://www.inkscape.org/) -->

<svg
   width="85.999924mm"
   height="85.999924mm"
   viewBox="0 0 85.999924 85.999924"
   version="1.1"
   id="svg1"
   inkscape:version="1.3 (0e150ed6c4, 2023-07-21)"
   sodipodi:docname="winder--spool--base--back.svg"
   xml:space="preserve"
   xmlns:inkscape="http://www.inkscape.org/namespaces/inkscape"
   xmlns:sodipodi="http://sodipodi.sourceforge.net/DTD/sodipodi-0.dtd"
   xmlns="http://www.w3.org/2000/svg"
   xmlns:svg="http://www.w3.org/2000/svg"><sodipodi:namedview
     id="namedview1"
     pagecolor="#ffffff"
     bordercolor="#000000"
     borderopacity="0.25"
     inkscape:showpageshadow="2"
     inkscape:pageopacity="0.0"
     inkscape:pagecheckerboard="0"
     inkscape:deskcolor="#d1d1d1"
     inkscape:document-units="mm"
     showgrid="true"
     inkscape:zoom="2.2805836"
     inkscape:cx="82.873524"
     inkscape:cy="72.349902"
     inkscape:window-width="2496"
     inkscape:window-height="1558"
     inkscape:window-x="-11"
     inkscape:window-y="-11"
     inkscape:window-maximized="1"
     inkscape:current-layer="svg1"
     showguides="true"><inkscape:grid
       id="grid1"
       units="mm"
       originx="75.589842"
       originy="75.590953"
       spacingx="0.99999998"
       spacingy="1"
       empcolor="#0099e5"
       empopacity="0.30196078"
       color="#0099e5"
       opacity="0.14901961"
       empspacing="10"
       dotted="false"
       gridanglex="30"
       gridanglez="30"
       visible="true" /><sodipodi:guide
       position="19.999813,43.00022"
       orientation="0,1"
       id="guide87"
       inkscape:locked="false" /><sodipodi:guide
       position="42.999813,66.000102"
       orientation="1,0"
       id="guide88"
       inkscape:locked="false" /></sodipodi:namedview><defs
     id="defs1"><inkscape:path-effect
       effect="copy_rotate"
       starting_point="24.499999,22.999888"
       origin="22.999999,22.999888"
       id="path-effect151"
       is_visible="true"
       lpeversion="1.2"
       lpesatellites=""
       method="normal"
       num_copies="4"
       starting_angle="0"
       rotation_angle="60"
       gap="-0.01"
       copies_to_360="true"
       mirror_copies="false"
       split_items="false"
       link_styles="false" /><inkscape:path-effect
       effect="offset"
       id="path-effect149"
       is_visible="true"
       lpeversion="1.2"
       linejoin_type="miter"
       unit="mm"
       offset="0.3"
       miter_limit="4"
       attempt_force_join="false"
       update_on_knot_move="true" /><inkscape:path-effect
       effect="copy_rotate"
       starting_point="24.499999,22.999888"
       origin="22.999999,22.999888"
       id="path-effect127"
       is_visible="true"
       lpeversion="1.2"
       lpesatellites=""
       method="normal"
       num_copies="4"
       starting_angle="0"
       rotation_angle="60"
       gap="-0.01"
       copies_to_360="true"
       mirror_copies="false"
       split_items="false"
       link_styles="false" /><inkscape:path-effect
       effect="offset"
       id="path-effect125"
       is_visible="true"
       lpeversion="1.2"
       linejoin_type="miter"
       unit="mm"
       offset="0.3"
       miter_limit="4"
       attempt_force_join="false"
       update_on_knot_move="true" /><inkscape:path-effect
       effect="copy_rotate"
       starting_point="24.499999,22.999888"
       origin="22.999999,22.999888"
       id="path-effect110"
       is_visible="true"
       lpeversion="1.2"
       lpesatellites=""
       method="normal"
       num_copies="4"
       starting_angle="0"
       rotation_angle="60"
       gap="-0.01"
       copies_to_360="true"
       mirror_copies="false"
       split_items="false"
       link_styles="false" /><inkscape:path-effect
       effect="copy_rotate"
       starting_point="39.294083,46.000005"
       origin="0,46.000005"
       id="path-effect29"
       is_visible="true"
       lpeversion="1.2"
       lpesatellites=""
       method="normal"
       num_copies="4"
       starting_angle="0"
       rotation_angle="90"
       gap="-0.01"
       copies_to_360="true"
       mirror_copies="false"
       split_items="false"
       link_styles="false" /></defs><path
     id="circle151"
     style="display:inline;vector-effect:non-scaling-stroke;fill:#808080;fill-rule:evenodd;stroke:#000000;stroke-width:0.541766;stroke-linecap:round;stroke-linejoin:round;-inkscape-stroke:hairline;paint-order:stroke fill markers"
     inkscape:label="spool--back"
     d="M -9.9999999e-7,43.00001 A 43.000041,43 0 0 0 -43,85.999969 43.000041,43 0 0 0 -9.9999999e-7,128.99993 43.000041,43 0 0 0 43,85.999969 43.000041,43 0 0 0 -9.9999999e-7,43.00001 Z m 0,5.999634 A 37.000035,37 0 0 1 25.074462,58.804213 L 20.83389,63.044781 A 31.000029,31 0 0 0 -9.9999999e-7,54.999794 31.000029,31 0 0 0 -20.776012,63.102142 l -4.243156,-4.242635 A 37.000035,37 0 0 1 -9.9999999e-7,48.999644 Z M 27.196298,60.925014 a 37.000035,37 0 0 1 9.803545,25.074955 37.000035,37 0 0 1 -9.859872,25.018631 l -4.243156,-4.24264 A 31.000029,31 0 0 0 30.999688,85.999969 31.000029,31 0 0 0 22.954693,65.166615 Z m -54.336786,0.05581 4.242639,4.243152 a 31.000029,31 0 0 0 -8.102355,20.775992 31.000029,31 0 0 0 8.075483,20.803902 l -4.21525,4.21473 a 37.000035,37 0 0 1 -9.860389,-25.018631 37.000035,37 0 0 1 9.859872,-25.019145 z m 25.339563,1.718241 h 3.601333 v 1.084172 c 0.578077,0.0469 1.148467,0.120479 1.713076,0.210323 0.05239,0.0084 0.105352,0.01453 0.157613,0.02325 0.550604,0.09164 1.093332,0.205974 1.629359,0.336931 0.05199,0.01276 0.104216,0.0246 0.156064,0.03772 0.551687,0.139011 1.094512,0.298939 1.628842,0.478007 0.01432,0.0048 0.02858,0.0096 0.04289,0.01447 6.575067,2.218415 11.762996,7.404699 13.984172,13.978475 0.0069,0.02024 0.01438,0.0402 0.02119,0.06046 0.177551,0.530526 0.3358,1.069846 0.473874,1.617472 0.01361,0.05375 0.02605,0.107839 0.03927,0.161748 0.130676,0.535151 0.244412,1.07658 0.335897,1.626257 0.0088,0.05263 0.01535,0.105891 0.02377,0.158647 0.08978,0.56433 0.163442,1.134257 0.210323,1.71204 h 1.083656 v 3.60133 h -1.134299 c -0.04765,0.572442 -0.121592,1.13736 -0.211356,1.696538 -0.0092,0.05687 -0.01625,0.114327 -0.02584,0.171049 -0.09197,0.545953 -0.206291,1.083841 -0.336931,1.615405 -0.01331,0.05393 -0.02609,0.107976 -0.03979,0.161747 -0.138416,0.545535 -0.296788,1.082762 -0.47439,1.611271 -0.0069,0.02056 -0.01419,0.04096 -0.02119,0.0615 -2.222119,6.548897 -7.389793,11.716563 -13.938697,13.938683 -0.02053,0.007 -0.04094,0.0142 -0.0615,0.0212 -0.528509,0.1776 -1.065737,0.33597 -1.611272,0.47439 -0.05377,0.0137 -0.107817,0.0265 -0.161748,0.0398 -0.531564,0.13064 -1.069453,0.24496 -1.615406,0.33693 -0.05672,0.01 -0.114179,0.0167 -0.171049,0.0258 -0.559179,0.0898 -1.124097,0.1637 -1.69654,0.21136 v 1.13429 h -3.601333 v -1.13429 c -0.571558,-0.0476 -1.135104,-0.12128 -1.693439,-0.21084 -0.05844,-0.009 -0.117418,-0.017 -0.1757,-0.0269 -0.544614,-0.0918 -1.081495,-0.20562 -1.611789,-0.3359 -0.05478,-0.0135 -0.109716,-0.0264 -0.164332,-0.0403 -0.544561,-0.13819 -1.080575,-0.29664 -1.608171,-0.47387 -0.02212,-0.008 -0.04406,-0.0152 -0.06615,-0.0227 -6.548433,-2.22281 -11.715676,-7.390649 -13.937131,-13.939724 -0.0063,-0.01863 -0.01282,-0.03716 -0.01912,-0.05581 -0.178492,-0.530852 -0.337505,-1.070474 -0.476458,-1.618506 -0.01282,-0.05034 -0.02473,-0.100936 -0.03721,-0.151412 -0.131474,-0.534237 -0.246072,-1.074896 -0.338481,-1.623674 -0.0092,-0.05436 -0.01653,-0.109315 -0.02532,-0.163814 -0.09021,-0.561011 -0.164059,-1.127854 -0.211874,-1.702222 h -1.134815 v -3.60133 h 1.134815 c 0.04776,-0.57368 0.121826,-1.139282 0.211874,-1.699638 0.009,-0.05584 0.01591,-0.112251 0.02532,-0.167948 0.09227,-0.54763 0.206793,-1.087425 0.337964,-1.620573 0.01268,-0.05133 0.02469,-0.102813 0.03772,-0.153996 0.138964,-0.547957 0.298481,-1.08721 0.476974,-1.617989 0.0059,-0.01762 0.01209,-0.03511 0.01809,-0.05271 2.221801,-6.552367 7.392009,-11.72257 13.944382,-13.944369 0.0176,-0.006 0.03509,-0.01213 0.05271,-0.01809 0.530779,-0.178493 1.070033,-0.338009 1.61799,-0.476974 0.05118,-0.01304 0.102669,-0.02504 0.153997,-0.03772 0.533148,-0.131171 1.072944,-0.245697 1.620574,-0.337963 0.0557,-0.0094 0.112107,-0.01632 0.167948,-0.02532 0.560357,-0.09005 1.125959,-0.164116 1.69964,-0.211874 z m -15.877082,4.123262 c 0.828426,0 1.500168,0.671742 1.500168,1.500167 0,0.828426 -0.671742,1.49965 -1.500168,1.49965 -0.828427,0 -1.499652,-0.671224 -1.499652,-1.49965 0,-0.828425 0.671225,-1.500167 1.499652,-1.500167 z m 35.355497,0 c 0.828428,0 1.500169,0.671225 1.500169,1.49965 0,0.828426 -0.671741,1.500167 -1.500169,1.500167 -0.828426,0 -1.500167,-0.671741 -1.500167,-1.500167 0,-0.828425 0.671741,-1.49965 1.500167,-1.49965 z m -35.354981,35.354953 c 0.828427,0 1.499652,0.67174 1.499652,1.50016 0,0.82843 -0.671225,1.50017 -1.499652,1.50017 -0.828426,0 -1.500168,-0.67174 -1.500168,-1.50017 0,-0.82842 0.671742,-1.50016 1.500168,-1.50016 z m 35.354981,0 c 0.828428,0 1.500169,0.67174 1.500169,1.50016 0,0.82843 -0.671741,1.50017 -1.500169,1.50017 -0.828426,0 -1.500167,-0.67174 -1.500167,-1.50017 0,-0.82842 0.671741,-1.50016 1.500167,-1.50016 z m 3.098522,6.71948 4.242639,4.24315 A 37.000035,37 0 0 1 -9.9999999e-7,122.99978 37.000035,37 0 0 1 -25.018651,113.13991 l 4.214733,-4.21524 a 31.000029,31 0 0 0 20.803917,8.07496 31.000029,31 0 0 0 20.776013,-8.10287 z" /></svg>
