<?xml version="1.0" encoding="UTF-8" standalone="no"?>
<!-- Created with Inkscape (http://www.inkscape.org/) -->

<svg
   width="56.000198mm"
   height="56.000198mm"
   viewBox="0 0 56.000198 56.000198"
   version="1.1"
   id="svg1"
   inkscape:version="1.3 (0e150ed6c4, 2023-07-21)"
   sodipodi:docname="winder--spool--base--center.svg"
   xml:space="preserve"
   xmlns:inkscape="http://www.inkscape.org/namespaces/inkscape"
   xmlns:sodipodi="http://sodipodi.sourceforge.net/DTD/sodipodi-0.dtd"
   xmlns="http://www.w3.org/2000/svg"
   xmlns:svg="http://www.w3.org/2000/svg"><sodipodi:namedview
     id="namedview1"
     pagecolor="#ffffff"
     bordercolor="#000000"
     borderopacity="0.25"
     inkscape:showpageshadow="2"
     inkscape:pageopacity="0.0"
     inkscape:pagecheckerboard="0"
     inkscape:deskcolor="#d1d1d1"
     inkscape:document-units="mm"
     showgrid="true"
     inkscape:zoom="2.2805836"
     inkscape:cx="82.873524"
     inkscape:cy="72.349902"
     inkscape:window-width="2496"
     inkscape:window-height="1558"
     inkscape:window-x="-11"
     inkscape:window-y="-11"
     inkscape:window-maximized="1"
     inkscape:current-layer="svg1"
     showguides="true"><inkscape:grid
       id="grid1"
       units="mm"
       originx="18.898437"
       originy="18.897591"
       spacingx="0.99999998"
       spacingy="1"
       empcolor="#0099e5"
       empopacity="0.30196078"
       color="#0099e5"
       opacity="0.14901961"
       empspacing="10"
       dotted="false"
       gridanglex="30"
       gridanglez="30"
       visible="true" /><sodipodi:guide
       position="5.0002117,28.000101"
       orientation="0,1"
       id="guide87"
       inkscape:locked="false" /><sodipodi:guide
       position="28.000212,50.999983"
       orientation="1,0"
       id="guide88"
       inkscape:locked="false" /></sodipodi:namedview><defs
     id="defs1"><inkscape:path-effect
       effect="copy_rotate"
       starting_point="24.499999,22.999888"
       origin="22.999999,22.999888"
       id="path-effect151"
       is_visible="true"
       lpeversion="1.2"
       lpesatellites=""
       method="normal"
       num_copies="4"
       starting_angle="0"
       rotation_angle="60"
       gap="-0.01"
       copies_to_360="true"
       mirror_copies="false"
       split_items="false"
       link_styles="false" /><inkscape:path-effect
       effect="offset"
       id="path-effect149"
       is_visible="true"
       lpeversion="1.2"
       linejoin_type="miter"
       unit="mm"
       offset="0.3"
       miter_limit="4"
       attempt_force_join="false"
       update_on_knot_move="true" /><inkscape:path-effect
       effect="copy_rotate"
       starting_point="24.499999,22.999888"
       origin="22.999999,22.999888"
       id="path-effect127"
       is_visible="true"
       lpeversion="1.2"
       lpesatellites=""
       method="normal"
       num_copies="4"
       starting_angle="0"
       rotation_angle="60"
       gap="-0.01"
       copies_to_360="true"
       mirror_copies="false"
       split_items="false"
       link_styles="false" /><inkscape:path-effect
       effect="offset"
       id="path-effect125"
       is_visible="true"
       lpeversion="1.2"
       linejoin_type="miter"
       unit="mm"
       offset="0.3"
       miter_limit="4"
       attempt_force_join="false"
       update_on_knot_move="true" /><inkscape:path-effect
       effect="copy_rotate"
       starting_point="24.499999,22.999888"
       origin="22.999999,22.999888"
       id="path-effect110"
       is_visible="true"
       lpeversion="1.2"
       lpesatellites=""
       method="normal"
       num_copies="4"
       starting_angle="0"
       rotation_angle="60"
       gap="-0.01"
       copies_to_360="true"
       mirror_copies="false"
       split_items="false"
       link_styles="false" /><inkscape:path-effect
       effect="copy_rotate"
       starting_point="39.294083,46.000005"
       origin="0,46.000005"
       id="path-effect29"
       is_visible="true"
       lpeversion="1.2"
       lpesatellites=""
       method="normal"
       num_copies="4"
       starting_angle="0"
       rotation_angle="90"
       gap="-0.01"
       copies_to_360="true"
       mirror_copies="false"
       split_items="false"
       link_styles="false" /></defs><path
     id="circle157"
     style="display:inline;vector-effect:non-scaling-stroke;fill:#808080;fill-rule:evenodd;stroke:#000000;stroke-width:0.352778;stroke-linecap:round;stroke-linejoin:round;-inkscape-stroke:hairline;paint-order:stroke fill markers"
     inkscape:label="spool--center"
     d="M 2.5779908e-4,28 A 27.9999,28 0 0 0 -28,56.000357 27.9999,28 0 0 0 2.5779908e-4,84.000199 27.9999,28 0 0 0 28,56.000357 27.9999,28 0 0 0 2.5779908e-4,28 Z M -1.8006588,32.699454 h 3.6013172 v 1.084172 c 10.8871966,0.88338 19.5328756,9.528573 20.4162526,20.415808 h 1.083651 v 3.60133 H 22.166268 C 21.263016,68.650937 12.650793,77.263191 1.8006584,78.166446 v 1.134298 H -1.8006588 V 78.166446 C -12.650792,77.263191 -21.262499,68.650938 -22.165752,57.800764 h -1.13481 v -3.60133 h 1.13481 c 0.903252,-10.850172 9.51496,-19.46191 20.3650932,-20.365165 z m -15.8770102,4.123263 c 0.828423,0 1.500161,0.67174 1.500161,1.500166 0,0.828427 -0.671738,1.499651 -1.500161,1.499651 -0.828424,0 -1.499645,-0.671224 -1.499645,-1.499651 0,-0.828426 0.671221,-1.500166 1.499645,-1.500166 z m 35.355338,0 c 0.828424,0 1.500161,0.671223 1.500161,1.49965 0,0.828426 -0.671737,1.500167 -1.500161,1.500167 -0.828423,0 -1.500161,-0.671741 -1.500161,-1.500167 0,-0.828427 0.671738,-1.49965 1.500161,-1.49965 z m -35.354822,35.354948 c 0.828424,0 1.499645,0.67174 1.499645,1.500166 0,0.828427 -0.671221,1.500167 -1.499645,1.500167 -0.828423,0 -1.500161,-0.67174 -1.500161,-1.500167 0,-0.828426 0.671738,-1.500166 1.500161,-1.500166 z m 35.354822,0 c 0.828424,0 1.500161,0.67174 1.500161,1.500166 0,0.828427 -0.671737,1.500167 -1.500161,1.500167 -0.828423,0 -1.500161,-0.67174 -1.500161,-1.500167 0,-0.828426 0.671738,-1.500166 1.500161,-1.500166 z" /></svg>
